<?xml version="1.0" standalone="no"?>
<!DOCTYPE svg PUBLIC "-//W3C//DTD SVG 20010904//EN"
 "http://www.w3.org/TR/2001/REC-SVG-20010904/DTD/svg10.dtd">
<svg version="1.0" xmlns="http://www.w3.org/2000/svg"
 width="1024.000000pt" height="1024.000000pt" viewBox="0 0 1024.000000 1024.000000"
 preserveAspectRatio="xMidYMid meet">
<metadata>
Created by potrace 1.14, written by Peter Selinger 2001-2017
</metadata>
<g transform="translate(0.000000,1024.000000) scale(0.100000,-0.100000)"
fill="#000000" stroke="none">
<path d="M5119 8718 c0 -21 1 -160 2 -183 1 -5 0 -30 0 -55 0 -25 0 -52 0 -60
0 -8 0 -35 0 -60 0 -25 0 -52 0 -60 0 -8 0 -35 0 -60 0 -25 0 -52 0 -60 0 -8
0 -35 0 -60 0 -25 0 -52 0 -60 0 -8 0 -35 0 -60 0 -25 0 -52 0 -60 0 -8 0 -35
0 -60 0 -25 0 -52 0 -60 0 -8 0 -35 0 -60 0 -25 0 -52 0 -60 0 -8 0 -35 0 -60
0 -25 0 -52 0 -60 0 -8 0 -35 0 -60 0 -25 0 -52 0 -60 0 -8 0 -35 0 -60 0 -25
0 -52 0 -60 0 -8 0 -35 0 -60 0 -25 0 -52 0 -60 0 -8 0 -35 0 -60 0 -25 0 -52
0 -60 0 -8 0 -35 0 -60 0 -25 0 -52 0 -60 0 -8 0 -35 0 -60 0 -25 0 -52 0 -60
0 -8 0 -35 0 -60 0 -25 0 -52 0 -60 0 -8 0 -35 0 -60 0 -25 0 -52 0 -60 0 -8
0 -35 0 -60 0 -25 0 -52 0 -60 0 -8 0 -35 0 -60 0 -25 0 -52 0 -60 0 -8 0 -35
0 -60 0 -25 0 -52 0 -60 0 -8 0 -35 0 -60 0 -25 0 -52 0 -60 0 -8 0 -35 0 -60
0 -25 0 -52 0 -60 0 -8 0 -35 0 -60 0 -25 0 -52 0 -60 0 -8 0 -35 0 -60 0 -25
0 -52 0 -60 0 -8 0 -35 0 -60 -1 -25 -1 -78 0 -118 1 -40 -1 -75 -3 -77 -2 -3
-1 -30 2 -60 3 -31 2 -58 -2 -61 -5 -3 -6 -9 -4 -13 3 -4 5 -32 5 -62 2 -120
5 -111 -52 -149 -52 -35 -125 -87 -162 -116 -11 -9 -30 -21 -42 -27 -13 -5
-23 -14 -23 -19 0 -4 -5 -8 -10 -8 -6 0 -18 -6 -26 -12 -34 -29 -41 -34 -84
-63 -25 -16 -47 -32 -50 -35 -3 -3 -27 -21 -55 -40 -27 -19 -51 -38 -53 -42
-2 -4 -7 -8 -12 -8 -5 0 -68 -43 -142 -95 -73 -52 -140 -99 -148 -105 -8 -6
-79 -57 -158 -113 -79 -56 -151 -106 -160 -112 -29 -17 -97 -70 -100 -77 -2
-5 -8 -8 -14 -8 -5 0 -20 -8 -33 -17 -12 -10 -33 -25 -45 -33 -13 -8 -35 -24
-49 -35 -14 -11 -55 -40 -91 -65 -36 -24 -70 -49 -77 -55 -7 -5 -34 -25 -60
-43 -26 -18 -130 -91 -231 -162 -101 -72 -187 -130 -192 -130 -4 0 -10 -4 -12
-8 -1 -4 -25 -23 -53 -42 -27 -19 -56 -41 -65 -47 -8 -7 -60 -44 -115 -83 -55
-38 -109 -76 -120 -84 -11 -8 -87 -62 -170 -120 -82 -58 -154 -109 -160 -113
-5 -5 -46 -33 -90 -63 -44 -30 -82 -57 -85 -60 -3 -3 -21 -16 -40 -30 -19 -13
-39 -28 -45 -32 -5 -4 -35 -25 -65 -45 -30 -20 -59 -40 -65 -45 -5 -5 -54 -40
-108 -78 -54 -37 -108 -75 -120 -84 -12 -9 -83 -59 -157 -111 -74 -52 -145
-102 -157 -111 -12 -9 -66 -47 -120 -84 -54 -38 -107 -75 -118 -84 -11 -9 -58
-43 -105 -75 -188 -132 -235 -166 -238 -173 -2 -5 -7 -8 -12 -8 -7 0 -199
-133 -335 -232 -22 -16 -110 -78 -195 -138 -85 -60 -159 -113 -165 -117 -5 -5
-38 -28 -72 -52 -63 -44 -63 -44 -63 -92 l0 -49 71 0 c73 0 87 6 184 83 6 4
129 91 275 194 146 103 267 190 268 195 2 4 9 8 16 8 6 0 27 13 46 30 19 16
41 29 48 30 6 0 12 3 12 8 0 4 17 18 38 32 20 13 86 60 145 102 59 43 110 78
113 78 3 0 10 5 17 10 55 47 74 61 90 66 9 3 17 10 17 15 0 5 5 9 11 9 6 0 17
6 24 13 8 6 29 22 47 35 137 96 345 243 353 250 6 4 48 34 95 66 47 33 95 66
106 75 12 9 30 22 40 29 25 17 339 239 390 275 21 16 77 55 124 87 47 33 90
63 95 68 6 4 195 137 420 296 226 159 428 302 450 318 22 16 77 56 122 89 45
32 87 59 92 59 5 0 11 4 13 8 3 9 244 182 253 182 3 0 13 7 23 16 9 9 71 54
137 100 66 45 125 87 130 92 6 4 45 33 88 63 44 30 93 64 110 77 18 12 43 30
57 40 80 54 168 118 188 135 12 11 22 17 22 14 0 -6 8 0 62 45 12 10 25 18 29
18 4 0 14 6 21 13 7 7 64 49 126 93 63 43 122 85 132 92 18 13 19 -40 19
-1690 0 -937 0 -1729 1 -1761 l0 -57 163 2 c137 3 161 5 159 18 -4 17 -4 29 0
88 2 23 0 42 -4 42 -4 0 -3 14 2 30 5 17 5 30 0 30 -4 0 -5 15 -1 33 4 17 4
47 0 65 -3 17 -3 32 2 32 4 0 4 12 0 28 -5 15 -4 37 0 50 5 12 4 22 -1 22 -5
0 -5 12 0 28 4 16 4 35 -1 43 -4 8 -4 21 1 28 4 8 4 26 0 41 -4 15 -4 33 0 40
4 7 4 25 0 41 -5 15 -5 30 -2 34 7 7 5 102 -3 114 -3 5 -1 12 4 16 6 3 7 15 2
28 -5 13 -5 30 -1 38 5 8 5 21 0 29 -4 7 -4 24 0 36 6 14 5 26 0 29 -5 3 -5
18 0 35 6 20 5 30 -3 34 -9 3 -9 5 0 5 8 1 9 10 3 31 -5 17 -5 30 0 30 5 0 5
13 0 30 -5 17 -5 30 0 30 5 0 5 13 0 30 -5 17 -5 30 0 30 5 0 5 13 0 30 -5 17
-5 30 0 30 5 0 5 12 1 28 -5 15 -4 37 0 50 5 12 4 22 -1 22 -5 0 -5 12 0 28 4
16 4 35 -1 43 -4 8 -4 21 1 28 4 8 4 26 0 41 -4 15 -4 33 0 40 4 7 4 25 0 41
-5 15 -6 30 -3 33 8 7 7 105 -1 113 -3 3 -1 13 4 22 5 10 5 23 0 31 -5 8 -5
21 0 30 5 9 5 22 0 30 -4 7 -4 24 0 36 6 14 5 26 0 29 -5 3 -5 18 0 35 5 17 5
30 0 30 -5 0 -5 13 0 30 5 17 5 30 0 30 -5 0 -5 13 0 30 5 17 5 30 0 30 -4 0
-5 15 -1 33 4 17 4 47 0 65 -3 17 -3 32 2 32 4 0 4 12 0 28 -5 15 -4 37 0 50
5 12 4 22 -1 22 -5 0 -5 12 0 28 4 16 4 35 -1 43 -4 8 -4 21 1 28 4 8 4 26 0
41 -4 15 -4 33 0 40 4 7 4 25 0 41 -5 15 -5 30 -2 34 7 7 5 102 -3 114 -3 5
-1 12 4 16 6 3 7 15 2 28 -5 13 -5 30 -1 38 5 8 5 21 0 29 -4 7 -4 24 0 36 6
14 5 26 0 29 -5 3 -5 18 0 35 6 20 5 30 -3 34 -9 3 -9 5 0 5 8 1 9 10 3 31 -5
17 -5 30 0 30 5 0 5 13 0 30 -5 17 -5 30 0 30 5 0 5 13 0 30 -5 17 -5 30 0 30
5 0 5 13 0 30 -5 17 -5 30 0 30 5 0 5 12 1 28 -5 15 -4 37 0 50 5 12 4 22 -1
22 -5 0 -5 12 0 28 4 16 4 35 -1 43 -4 8 -4 21 1 28 4 8 4 26 0 41 -4 15 -4
33 0 40 4 7 4 26 0 41 -5 16 -5 31 -1 33 8 5 5 81 -4 95 -3 5 -1 12 5 16 6 4
8 11 4 16 -15 24 9 58 73 102 38 26 71 47 75 47 3 0 8 -16 10 -35 2 -19 0 -35
-5 -35 -4 0 -5 -5 -2 -11 4 -5 6 -47 5 -92 -1 -77 -1 -136 1 -349 0 -49 -3
-92 -6 -98 -3 -5 -1 -10 5 -10 6 0 8 -4 5 -10 -3 -5 -6 -47 -5 -92 0 -142 -1
-192 -6 -200 -3 -4 -2 -8 3 -8 8 0 7 -135 -1 -157 -3 -7 -1 -13 5 -13 6 0 7
-5 4 -11 -6 -8 -8 -218 -4 -301 1 -7 0 -60 -1 -118 -1 -58 -1 -109 0 -115 1
-5 1 -14 0 -20 -1 -5 -1 -39 0 -75 2 -79 2 -71 0 -150 -1 -36 -1 -69 0 -75 1
-5 1 -14 0 -20 -1 -5 -1 -39 0 -75 1 -36 1 -69 1 -75 -1 -22 -1 -216 0 -297 0
-49 -3 -92 -6 -98 -3 -5 -1 -10 5 -10 6 0 8 -4 5 -10 -3 -5 -6 -47 -5 -92 0
-142 -1 -192 -6 -200 -3 -4 -2 -8 3 -8 8 0 7 -135 -1 -157 -3 -7 -1 -13 5 -13
6 0 7 -5 4 -11 -6 -8 -8 -218 -4 -301 1 -7 0 -60 -1 -118 -1 -58 -1 -109 0
-115 1 -5 1 -14 0 -20 -1 -8 0 -115 2 -150 0 -5 -1 -14 -2 -20 -1 -5 -2 -27
-1 -47 l1 -38 819 0 820 0 3 53 c2 28 1 70 -2 92 -3 22 -3 54 0 70 3 17 3 49
-1 72 -3 23 -2 44 2 45 4 2 4 23 0 48 -4 25 -4 59 -1 76 4 16 4 39 0 50 -4 10
-4 29 1 41 5 12 4 25 0 28 -5 3 -6 20 -2 38 5 18 5 41 1 52 -4 11 -5 24 -3 28
3 5 4 45 4 90 -1 45 -2 89 -1 97 0 8 0 24 0 35 -2 31 -2 35 0 117 1 42 -1 82
-5 87 -3 6 -3 11 2 11 7 0 7 152 0 225 -2 17 0 44 3 60 4 17 4 39 0 50 -4 11
-4 30 1 42 5 12 4 25 0 28 -5 3 -6 20 -2 38 5 18 5 41 1 52 -4 11 -4 29 0 40
4 11 6 29 4 40 -2 11 -4 45 -4 75 1 94 -1 133 -6 142 -3 4 -1 8 3 8 5 0 7 26
6 58 -2 31 -3 82 -3 112 1 92 -1 133 -6 141 -2 4 0 9 5 11 5 1 6 23 2 48 -4
25 -4 59 -1 76 4 16 4 39 0 50 -4 10 -4 29 1 41 5 12 4 25 0 28 -5 3 -6 20 -2
38 5 18 5 41 1 52 -4 11 -5 24 -3 28 3 5 4 45 4 90 -1 45 -2 89 -1 97 0 8 0
24 0 35 -2 31 -2 35 0 117 1 42 -1 82 -5 87 -3 6 -3 11 2 11 7 0 7 152 0 225
-2 17 0 44 3 60 4 17 4 39 0 50 -4 11 -4 30 1 42 5 12 4 25 0 28 -5 3 -6 20
-2 38 5 18 5 41 1 52 -4 11 -4 30 1 42 5 12 4 25 0 28 -5 3 -6 20 -2 38 5 18
5 41 1 52 -4 11 -4 30 1 42 5 12 4 25 0 28 -5 3 -6 20 -2 38 5 18 5 41 1 52
-4 11 -5 24 -3 28 3 5 4 45 4 90 -1 45 -2 89 -1 97 0 8 0 24 0 35 -2 31 -2 35
0 117 1 42 -1 82 -5 87 -3 6 -3 11 2 11 7 0 7 152 0 225 -2 17 0 44 3 60 4 17
4 39 0 50 -4 11 -4 30 1 42 5 12 4 25 0 28 -5 3 -6 20 -2 38 5 18 5 41 1 52
-4 11 -4 29 -1 40 7 19 7 32 1 80 -5 41 0 85 10 85 5 0 18 7 27 15 10 8 95 68
188 134 94 67 175 124 180 129 6 4 39 28 75 52 36 25 69 48 75 53 5 4 42 30
80 57 39 27 75 54 81 59 5 4 21 14 34 21 14 7 30 18 36 24 6 6 22 18 34 26 12
8 28 21 36 28 7 6 17 12 23 12 6 0 11 5 11 10 0 6 5 10 11 10 6 0 25 11 43 25
17 14 36 29 42 34 5 4 30 21 55 37 24 16 46 31 49 34 3 4 154 111 335 238 182
128 337 238 345 245 9 7 38 28 65 47 28 19 52 38 53 42 2 4 8 8 13 8 8 0 230
154 279 193 8 7 31 22 50 34 32 20 51 34 97 73 7 5 15 10 18 10 3 0 11 5 18
10 11 9 151 108 201 142 10 7 24 19 32 26 7 6 15 12 18 12 3 0 32 20 65 45 32
25 64 45 69 45 6 0 12 3 14 8 2 4 35 29 73 56 167 117 165 115 165 168 l0 48
-439 0 c-422 0 -439 -1 -444 -19 -2 -10 -1 -24 3 -31 4 -6 4 -28 0 -49 -4 -21
-3 -47 1 -58 4 -11 3 -26 -1 -33 -5 -7 -4 -23 0 -36 5 -12 6 -24 3 -27 -5 -5
-7 -112 -3 -132 1 -5 1 -12 0 -15 -7 -18 -7 -41 0 -45 11 -7 -6 -87 -21 -96
-8 -4 -144 -100 -304 -213 -159 -113 -298 -211 -308 -218 -11 -7 -41 -29 -68
-48 -26 -19 -94 -66 -149 -105 -56 -38 -107 -74 -114 -80 -12 -10 -19 -15
-136 -97 -36 -25 -115 -81 -176 -124 -61 -44 -178 -126 -260 -184 -82 -57
-155 -110 -162 -117 -6 -6 -21 -14 -31 -18 -11 -3 -22 -12 -25 -20 -3 -8 -10
-15 -17 -15 -6 0 -24 -10 -39 -22 -15 -13 -38 -30 -50 -38 -13 -8 -43 -30 -67
-47 -24 -18 -46 -33 -49 -33 -2 0 -10 -4 -17 -10 -54 -44 -76 -60 -82 -60 -3
0 -14 -8 -23 -17 -16 -16 -17 -14 -22 28 -3 24 -3 58 0 74 3 17 3 49 0 72 -4
23 -3 44 1 45 4 2 4 23 0 48 -4 25 -4 59 -1 76 4 16 4 39 0 50 -4 10 -4 29 1
41 5 12 4 25 0 28 -5 3 -6 20 -2 38 5 18 5 41 1 52 -4 11 -5 24 -3 28 3 5 4
45 4 90 -1 45 -2 89 -1 97 0 8 0 24 0 35 -2 31 -2 35 0 117 1 42 -1 82 -5 87
-3 6 -3 11 2 11 7 0 7 152 0 225 -2 17 0 44 3 60 4 17 4 39 0 50 -4 11 -4 30
1 42 5 12 4 25 0 28 -5 3 -6 20 -2 38 5 18 5 41 1 52 -4 11 -4 29 0 40 4 11 6
29 4 40 -2 11 -4 45 -4 75 1 94 -1 133 -6 142 -3 4 -1 8 3 8 5 0 7 24 6 53 -1
28 -2 71 -3 95 l0 42 -819 0 c-771 0 -819 -1 -823 -17 -2 -10 -1 -31 2 -48 3
-16 3 -50 0 -75 -3 -25 -3 -62 1 -82 3 -21 4 -40 1 -43 -3 -3 -4 -35 -3 -73 1
-37 2 -71 2 -77 -1 -22 -1 -216 0 -297 0 -49 -3 -92 -6 -98 -3 -5 -1 -10 5
-10 6 0 8 -4 5 -10 -3 -5 -6 -47 -5 -92 0 -142 -1 -192 -6 -200 -3 -4 -2 -8 3
-8 8 0 7 -135 -1 -157 -3 -7 -1 -13 5 -13 6 0 7 -5 4 -11 -6 -8 -8 -218 -4
-301 1 -7 0 -60 -1 -118 -1 -58 -1 -109 0 -115 1 -5 1 -14 0 -20 -1 -5 -1 -39
0 -75 2 -79 2 -71 0 -150 -1 -36 -1 -69 0 -75 1 -5 1 -14 0 -20 -1 -5 -1 -39
0 -75 1 -36 1 -69 1 -75 -1 -22 -1 -216 0 -297 0 -49 -3 -92 -6 -98 -3 -5 -1
-10 5 -10 6 0 8 -4 5 -10 -3 -5 -6 -47 -5 -92 0 -142 -1 -192 -6 -200 -3 -4
-2 -8 3 -8 4 0 6 -29 5 -65 -4 -70 0 -65 -105 -143 -52 -38 -59 -39 -56 -9 2
12 0 27 -4 34 -4 6 -3 14 2 18 6 3 7 15 2 28 -5 13 -5 30 -1 38 5 8 5 21 0 29
-4 7 -4 24 0 36 6 14 5 26 0 29 -5 3 -5 18 0 35 6 20 5 30 -3 34 -9 3 -9 5 0
5 8 1 9 10 3 31 -5 17 -5 30 0 30 5 0 5 13 0 30 -5 17 -5 30 0 30 5 0 5 13 0
30 -5 17 -5 30 0 30 5 0 5 13 0 30 -5 17 -5 30 0 30 5 0 5 12 1 28 -5 15 -4
37 0 50 5 12 4 22 -1 22 -5 0 -5 12 0 28 4 16 4 35 -1 43 -4 8 -4 21 1 28 4 8
4 26 0 41 -4 15 -4 33 0 40 4 7 4 25 0 41 -5 15 -6 30 -3 33 8 7 7 105 -1 113
-3 3 -1 13 4 22 5 10 5 23 0 31 -5 8 -5 21 0 30 5 9 5 22 0 30 -4 7 -4 24 0
36 6 14 5 26 0 29 -5 3 -5 18 0 35 5 17 5 30 0 30 -5 0 -5 13 0 30 5 17 5 30
0 30 -5 0 -5 13 0 30 5 17 5 30 0 30 -4 0 -5 15 -1 33 4 17 4 47 0 65 -3 17
-3 32 2 32 4 0 4 12 0 28 -5 15 -4 37 0 50 5 12 4 22 -1 22 -5 0 -5 12 0 28 4
16 4 35 -1 43 -4 8 -4 21 1 28 4 8 4 26 0 41 -4 15 -4 33 0 40 4 7 4 25 0 41
-5 15 -5 30 -2 34 7 7 5 102 -3 114 -3 5 -1 12 4 16 6 3 7 15 2 28 -5 13 -5
30 -1 38 5 8 5 21 0 29 -4 7 -4 24 0 36 6 14 5 26 0 29 -5 3 -5 18 0 35 6 20
5 30 -3 34 -9 3 -9 5 0 5 8 1 9 10 3 31 -5 17 -5 30 0 30 5 0 5 13 0 30 -5 17
-5 30 0 30 5 0 5 13 0 30 -5 17 -5 30 0 30 5 0 5 13 0 30 -5 17 -5 30 0 30 5
0 5 12 1 28 -5 15 -4 37 0 50 5 12 4 22 -1 22 -5 0 -5 12 0 28 4 16 4 35 -1
43 -4 8 -4 21 1 28 4 8 4 26 0 41 -4 15 -4 33 0 40 4 7 4 25 0 41 -5 15 -6 30
-3 33 8 7 7 105 -1 113 -3 3 -1 13 4 22 5 10 5 23 0 31 -5 8 -5 21 0 30 5 9 5
22 0 30 -4 7 -4 24 0 36 6 14 5 26 0 29 -5 3 -5 18 0 35 5 17 5 30 0 30 -4 0
-5 15 -1 33 4 17 5 42 3 55 -3 22 -5 22 -163 22 -158 0 -159 0 -160 -22z"/>
<path d="M10178 3577 c-31 -23 -87 -62 -123 -87 -37 -25 -72 -50 -78 -55 -17
-15 -218 -155 -222 -155 -2 0 -14 -9 -27 -20 -12 -11 -160 -116 -328 -234
-168 -118 -320 -225 -338 -238 -18 -13 -39 -27 -45 -33 -7 -5 -32 -23 -57 -40
-25 -16 -63 -43 -86 -60 -23 -16 -50 -36 -60 -43 -10 -7 -63 -44 -116 -82 -54
-39 -101 -70 -106 -70 -4 0 -14 -9 -22 -20 -8 -11 -18 -20 -22 -20 -5 0 -35
-19 -67 -42 -33 -24 -67 -49 -78 -56 -10 -7 -80 -56 -155 -110 -75 -53 -192
-135 -258 -182 -67 -47 -129 -91 -138 -98 -48 -36 -166 -118 -183 -127 -10 -5
-19 -13 -19 -17 0 -5 -7 -8 -15 -8 -8 0 -15 -4 -15 -10 0 -5 -5 -10 -11 -10
-6 0 -17 -7 -26 -15 -8 -9 -43 -34 -77 -57 -33 -23 -63 -44 -66 -47 -3 -3 -12
-10 -21 -16 -9 -5 -52 -35 -95 -65 l-79 -55 1494 -3 c822 -1 1496 -1 1498 1 2
2 2 479 1 1060 l-3 1056 -57 -42z"/>
</g>
</svg>
