<?xml version="1.0" encoding="iso-8859-1"?>
<!-- Generator: Adobe Illustrator 18.1.1, SVG Export Plug-In . SVG Version: 6.00 Build 0)  -->
<svg version="1.1" id="_x34_" xmlns="http://www.w3.org/2000/svg" xmlns:xlink="http://www.w3.org/1999/xlink" x="0px" y="0px"
	 viewBox="0 0 512 512" style="enable-background:new 0 0 512 512;" xml:space="preserve">
<g>
	<g>
		<path style="fill:#595959;" d="M509.204,439.756c2.204-2.939,3.674-1.719,2.204,0.485c-1.47,2.204-9.302,10.786-14.931,12.991
			c-5.643,2.204-7.348,3.175-8.582,3.424c-1.22,0.25-2.204-0.25-3.175,0c-0.984,0.25-4.908,1.719-5.878,1.955
			c1.705-0.97-0.984-2.204-2.454-0.235c-0.133,0.176-0.28,0.353-0.442,0.53c-0.867,0-1.719-0.075-2.247-0.294
			c2.204-0.735,1.955-1.705,0.97-1.705c-0.56,0-1.441,0.073-3.19,0.471c-0.426-0.28-0.837-0.53-1.218-0.72
			c-0.97-0.485-1.955-0.485-3.674-0.485c-1.705,0-2.689-0.25-3.909-0.499c-1.234-0.235-1.47-0.735-2.939-1.22
			c-1.469-0.485-1.969-1.955-5.143-1.955c-3.189,0-0.25-1.469-0.25-1.469c4.409,0.97,8.083,1.705,11.757,2.939
			c3.674,1.22,14.446,1.955,18.855,0c4.409-1.969,2.704,0.235,2.454,0.97c-0.25,0.735,6.613-1.705,11.271-5.143
			C503.326,446.369,507,442.695,509.204,439.756z"/>
		<path style="fill:#595959;" d="M503.576,435.964c1.837,0,2.204,4.776-4.041,6.98c-6.246,2.204-18.37,2.572-23.146,1.837
			c-4.776-0.735-15.063-2.572-19.839-3.674c-4.776-1.102-11.757-2.572-16.165-4.776c-4.409-2.204-16.165-11.022-16.165-11.022
			c-1.205-0.97-2.263-2.895-2.087-3.674l0.132-0.25c0.191-0.162,0.573-0.118,1.22,0.25c2.572,1.47,2.777,1.455,4.041,2.204
			c4.409,2.572,7.348,5.511,12.124,7.348c4.776,1.837,4.041,2.572,5.511,3.307c1.47,0.735,2.939,2.204,4.776,2.572
			c1.837,0.367,4.041,0.367,6.98,1.47c2.939,1.102,9.552,2.204,12.859,2.939c3.307,0.735,22.411,2.572,27.554,0
			C502.473,438.904,501.739,435.964,503.576,435.964z"/>
		<path style="fill:#595959;" d="M476.389,458.375c1.47-1.969,4.159-0.735,2.454,0.235c-0.558,0.146-1.749,0.294-2.896,0.294
			C476.109,458.728,476.255,458.552,476.389,458.375z"/>
		<path style="fill:#595959;" d="M475.947,458.905c1.147,0,2.338-0.148,2.896-0.294c-1.719,0.984-10.287,7.598-12.991,7.847
			c-2.689,0.235-3.909,0.485-5.629,0.485c-1.719,0-4.644,0-8.082,0c-3.424,0-5.393-0.485-7.833-0.25
			c-2.454,0.25-2.454,0.25-5.643,0.25c-3.174,0-4.159-0.25-6.848-0.984c-2.704-0.735-4.409-1.705-6.613-2.44
			c-2.204-0.735-5.143-2.454-6.378-3.189c-1.22-0.735-5.143-3.924-5.143-3.924c-1.955-1.22-3.175-4.644,0.499-1.705
			c3.674,2.939,9.788,5.878,13.462,7.098c3.674,1.22,3.924,1.719,7.597,1.955c3.674,0.25,5.144,0.499,7.833,0.499
			c2.704,0,7.847,1.22,11.521,1.22c3.674,0,7.098,0,8.318-0.25c1.234-0.235,6.378-1.47,7.597-2.204
			C471.627,462.358,474.359,460.667,475.947,458.905z"/>
		<path style="fill:#595959;" d="M474.669,456.906c0.984,0,1.234,0.97-0.97,1.705c-0.765-0.294-1.514-0.794-2.22-1.234
			C473.228,456.979,474.11,456.906,474.669,456.906z"/>
		<path style="fill:#595959;" d="M471.479,457.376c0.706,0.441,1.455,0.94,2.22,1.234c-2.204,0.735-5.393,2.204-8.083,2.704
			c-2.704,0.485-4.908,0.735-8.083,0.735c-3.189,0-3.439-0.735-5.643-1.234c-2.204-0.485-2.689,0.25-4.894-0.735
			c-2.204-0.97-3.189-1.705-4.159-1.955c-0.984-0.25-3.189-0.984-4.658-1.22c-1.47-0.25-7.098-3.439-7.098-3.439
			c-1.719-0.735-1.47-3.174,0.97-1.955c2.454,1.22,4.409,2.689,5.643,2.689c1.22,0,3.189-0.235,4.159,0.984
			c0.984,1.22,1.955,1.719,3.424,1.719c1.47,0,3.924,1.705,4.658,1.705s10.037,1.969,15.915,0.25
			C468.365,458.125,470.172,457.655,471.479,457.376z"/>
		<path style="fill:#595959;" d="M440.869,471.601c0,0,5.143-2.939,4.409-1.469c-0.97,1.955-8.083,3.424-9.053,3.674
			c-0.984,0.235-3.189,0.485-6.128,0.735c-2.939,0.235-2.689,0.97-5.143,0.485c-2.454-0.485-2.939-0.735-5.143-1.719
			c-2.204-0.97-3.189-1.22-5.393-2.204c-2.204-0.97-3.674-1.955-4.409-2.689c-0.735-0.735-6.363-5.393-6.363-5.393l-5.393-5.143
			c-3.174-1.955-5.628-5.878-3.174-5.143c2.44,0.735,4.159,2.454,5.379,3.924c1.234,1.47,0.499,1.719,1.969,2.454
			c1.47,0.735,1.705,1.47,3.175,2.44c1.469,0.984,6.128,4.908,9.067,6.613c2.939,1.719,6.128,1.719,7.348,2.704
			c1.22,0.97,1.955,0.97,3.424,1.47c1.47,0.485,2.939,0.485,4.908,0.485c1.955,0,5.878-0.984,7.098-0.735
			c0.867,0.176,2.247-0.146,2.954-0.339C440.693,471.66,440.869,471.601,440.869,471.601z"/>
		<path style="fill:#595959;" d="M422.264,444.65c1.705,1.234,4.894,3.189,2.689,2.454c-2.204-0.735-7.597-0.735-10.537-4.159
			c-2.939-3.439-1.955-3.189-3.674-4.908c-1.705-1.705-2.939-3.424-3.909-4.159c-0.984-0.735-4.658-3.924-5.878-4.658
			c-1.234-0.735-3.189-2.689-3.189-2.689s-1.955-3.189-2.939-3.674c-0.984-0.485-4.159-2.689-5.393-3.424
			c-1.22-0.735-5.878-4.908-5.878-4.908c-2.44-0.735-3.674-3.174-0.735-2.689c2.939,0.485,3.674,2.454,4.908,3.674
			c1.22,1.22,2.939,3.424,5.379,4.409c2.454,0.984,2.204,0.984,3.674,2.454c1.469,1.47,2.953,2.204,3.924,2.44
			c0.984,0.25,0.984,2.939,0.984,2.939s6.363,3.924,7.348,5.144c0.97,1.234,1.955,2.204,4.409,3.189
			c2.44,0.984,0.735,1.955,2.69,2.689c1.955,0.735,2.939,0.984,4.159,1.969C421.53,441.711,420.545,443.43,422.264,444.65z"/>
		<path style="fill:#595959;" d="M420.913,418.33c1.161,0.471,1.734,2.101,1.352,3.057l-0.132,0.25
			c-0.28,0.396-0.793,0.588-1.587,0.367c-2.572-0.735-2.939-1.837-5.511-3.674c-2.572-1.837-6.246-4.041-8.083-5.143
			c-1.837-1.102-4.776-3.674-8.45-5.143c-3.674-1.47-8.083-2.939-12.859-2.572c-4.776,0.367-12.124,0.367-20.574,2.572
			c-8.45,2.204-9.185,2.204-19.839-0.367c-10.654-2.572-3.674-4.776-1.102-3.306c5.276,3.012,26.085,1.469,38.943-1.837
			s26.82,8.817,30.126,11.022C416.504,415.758,419.076,417.595,420.913,418.33z"/>
		<path style="fill:#595959;" d="M422.264,421.386l-0.132,0.25L422.264,421.386z"/>
		<path style="fill:#595959;" d="M406.217,471.601c4.409,0.367,2.939,1.837,0.735,2.204c-2.204,0.367-5.143,0.367-15.063-5.878
			c-9.92-6.246-16.415-23.292-20.207-27.922c-3.306-4.041,0.735-1.47,4.776,2.204c4.041,3.674,6.613,11.389,7.348,13.594
			c0.735,2.204,4.776,7.348,8.817,10.287C396.665,469.03,401.808,471.234,406.217,471.601z"/>
		<path style="fill:#595959;" d="M392.991,441.843c1.469,1.837-1.102,2.939-5.511-2.572c-4.409-5.511-9.185-9.185-15.798-10.654
			c-6.613-1.469-13.374-3.483-15.43-5.878c-2.204-2.572,1.102-2.572,2.939-1.837c1.837,0.735,4.041,1.47,8.083,3.674
			c4.041,2.204,7.348,3.674,8.45,3.674s5.878,2.204,8.083,3.306c2.204,1.102,2.572,4.409,3.674,5.143
			C388.582,437.434,391.521,440.006,392.991,441.843z"/>
		<path style="fill:#595959;" d="M376.458,464.253c3.674,2.939,7.348,2.572,3.674,2.939s-9.185-2.204-12.124-8.45
			c-2.939-6.246-7.715-13.594-9.552-15.43c-1.837-1.837-4.041-1.837-6.246-4.409c-2.204-2.572-0.367-2.572-0.367-2.572
			c4.041,0.735,11.757,7.348,13.226,11.022c1.469,3.674,2.939,6.613,4.776,8.45c1.837,1.837,1.837,4.776,2.939,5.511
			S372.784,461.314,376.458,464.253z"/>
		<path style="fill:#595959;" d="M376.209,341.545c3.439,0.485,5.393,4.894,2.454,6.848c-2.484,1.66-10.185,7.494-13.418,11.33
			l-1.616-1.293c2.41-3.028,4.849-6.085,6.702-8.568c2.939-3.909,5.055-5.217,0.984-6.849c-2.454-0.984-5.878-0.499-12.741-2.939
			c-6.849-2.454-10.772-4.409-17.635-8.332c-6.848-3.923-11.757-5.878-11.757-5.878c-1.469-3.424,0.985-4.894,5.393-1.47
			c4.409,3.424,16.165,11.271,23.998,12.741C366.421,338.606,372.784,341.046,376.209,341.545z"/>
		<path style="fill:#595959;" d="M363.628,358.431l1.616,1.293c-0.601,0.72-1.043,1.352-1.277,1.896
			c-1.47,3.439-9.303,9.317-9.303,11.757c0,2.454-7.348,9.317-9.317,13.725c-1.955,4.409-7.833,10.287-8.817,12.242
			c-0.97,1.955-4.409,3.424-4.409,5.878c0,2.454-0.485,3.424-1.955,3.923c-1.47,0.485-3.909,1.955-2.939,3.424
			c0.984,1.47-2.939,6.863-2.454,10.772c0.499,3.924-4.894,7.348-5.379,10.287c-0.499,2.939-5.393,4.908-14.21,5.878l-4.776-0.97
			c1.072-0.867-0.118-0.72-2.175-0.294c0.294-0.705,2.117-1.455,5.482-1.675c7.833-0.485,11.271,0.984,11.757-2.44
			c0.485-3.439,0.984-5.393,2.939-5.393c1.955,0,4.409-2.939,3.924-7.348c-0.499-4.409,1.47-7.833,1.47-7.833
			s0.485-5.878,2.44-6.863c1.969-0.984,3.924-2.939,4.409-5.878c0.499-2.939,5.393-8.332,6.378-9.802
			c0.97-1.47,9.303-14.696,12.727-19.104c3.439-4.409,6.378-3.909,9.802-8.318C360.821,361.957,362.218,360.194,363.628,358.431z"/>
		<path style="fill:#595959;" d="M358.824,457.64c3.674,1.837,6.613,3.674,2.572,3.306s-8.45-4.409-11.022-6.613
			c-2.572-2.204-6.246-5.511-9.552-8.083c4.041-1.47,2.939-1.47,1.47-0.735c-0.383,0.191-1.102,0.25-2.087,0.235
			c-2.793-2.395-3.645-4.673-6.731-5.012c-3.306-0.367-2.572-1.102-5.878-1.837c-3.307-0.735-3.307-2.939,0.735-1.837
			c5.01,1.366,11.757,2.572,14.696,5.143c2.939,2.572,6.98,6.98,9.185,9.185C354.415,453.599,355.15,455.803,358.824,457.64z"/>
		<path style="fill:#595959;" d="M344.613,338.606c1.234,1.22,0.984,7.098,0.499,9.788c-0.499,2.704-1.47,4.658-3.189,4.409
			c-1.719-0.235,0.984-2.689,1.22-3.909c0.25-1.234,0.984-5.878,0.984-5.878C343.878,340.56,343.393,337.372,344.613,338.606z"/>
		<path style="fill:#595959;" d="M342.291,445.517c1.47-0.735,2.572-0.735-1.47,0.735c-0.221-0.177-0.426-0.339-0.617-0.499
			C341.189,445.766,341.908,445.707,342.291,445.517z"/>
		<path style="fill:#595959;" d="M340.204,445.752c0.191,0.161,0.396,0.323,0.617,0.499c-4.041,1.47-9.919,1.102-15.798-0.367
			c-5.878-1.47-9.185-0.367-14.328-2.204c-3.219-1.147-6.422-2.866-8.391-3.997c0.837,0,1.792-0.059,2.88-0.177
			c1.47,1.602,13.594,4.173,21.309,4.908C332.224,444.958,337.353,445.707,340.204,445.752z"/>
		<path style="fill:#595959;" d="M336.53,364.073c4.409,1.47,5.393,3.924,0.985,2.939c-4.409-0.984-12.741-6.363-15.68-12.242
			c-0.339-0.662-0.647-1.307-0.941-1.94c0.353-0.411,0.603-0.778,0.647-0.999l-1.293-1.66c0.043,0.146-0.044,0.396-0.221,0.705
			c-1.705-4.041-2.468-7.421-2.101-10.801c0.323-2.895,0.014-8.318-0.103-12.536c-0.059-2.204-0.059-4.084,0.103-5.099
			c0.485-2.939,1.955-28.421,1.955-32.33c0-0.558,0.014-1.455,0.059-2.572c0.22-6.658,1.072-21.441,1.896-24.38
			c0.984-3.424,0.499-9.303,0.499-9.303c0-4.894-3.424-9.302,0-4.894c3.424,4.409,2.939,15.666,1.955,26.452
			c-0.984,10.772-2.939,35.27-2.939,41.633c0,6.363-2.454,27.922,1.955,33.8C331.152,359.665,332.122,362.604,336.53,364.073z"/>
		<path style="fill:#595959;" d="M323.804,240.63c0.735,2.204-1.22,4.894-1.719,2.204c-0.485-2.689-1.47-6.613-2.204-7.833
			c-0.735-1.234-5.629-11.271-5.629-11.271c-1.22-2.204-1.955-5.393,0.485-3.424c2.454,1.955,2.704,7.583,5.143,11.757
			C322.334,236.222,323.069,238.426,323.804,240.63z"/>
		<path style="fill:#595959;" d="M320.248,350.172l1.293,1.66c-0.044,0.221-0.294,0.588-0.647,0.999
			c-0.309-0.676-0.603-1.322-0.867-1.955C320.203,350.568,320.291,350.318,320.248,350.172z"/>
		<path style="fill:#595959;" d="M319.145,372.406c5.511,6.98,0.735,7.715-1.47,4.776c-2.204-2.939-9.185-16.533-8.45-19.839
			c0.735-3.307-5.511-12.859-5.143-20.941c0.367-8.083-1.837-14.328-1.837-14.328s-2.572-25.717-1.837-34.167
			c0.735-8.45,2.572-32.698,2.939-38.576c0.367-5.878,0.367-8.817,0.367-8.817c-1.47-0.735-4.776-5.878-1.47-4.409
			c3.307,1.469,4.041,2.204,4.409,4.409c0.367,2.204-2.939,32.33-2.939,47.026c0,0.323,0,0.647,0,0.97
			c0.014,13.035,0.323,32.198,1.645,39.193c0.162,0.926,0.353,1.632,0.56,2.087c1.837,4.041,0.367,18.737,3.674,22.043
			c1.131,1.147,1.395,2.454,1.689,4.188C311.812,359.326,312.399,364.206,319.145,372.406z"/>
		<path style="fill:#595959;" d="M320.027,350.876c0.264,0.633,0.558,1.279,0.867,1.955c-1.117,1.279-3.439,3.087-5.231,3.219
			c-1.102,0.088-1.749-0.148-1.867-0.471c-0.146-0.382,0.398-0.881,1.676-1.175C317.367,353.963,319.365,352.037,320.027,350.876z"
			/>
		<path style="fill:#595959;" d="M316.691,286.672c1.145-0.25,1.969,0.22,1.969,0.808c0,0.544-0.692,1.161-2.454,1.396
			c-3.674,0.499-6.863,0.984-9.552,0.499c-1.015-0.191-1.485-0.514-1.485-0.867c0-0.574,1.22-1.191,3.204-1.338
			C313.267,286.789,314.487,287.171,316.691,286.672z"/>
		<path style="fill:#595959;" d="M315.222,326.6c0.749-0.103,1.16,0.382,1.16,0.97c0,0.778-0.719,1.719-2.379,1.719
			c-2.939,0-4.894,0.25-6.363-0.735c-0.558-0.367-0.897-0.749-0.97-1.102c-0.132-0.588,0.499-1.015,2.19-0.853
			C312.796,326.953,313.517,326.849,315.222,326.6z"/>
		<path style="fill:#595959;" d="M311.562,212.709c0.235,1.719-2.204,0-1.969-0.984c0.25-0.97-1.22-10.037-1.22-12.242
			c0-2.204-3.189-9.303-3.189-9.303c-0.735-2.454-3.909-8.332-3.674-9.552c0.25-1.234,0.5-4.908-0.735-6.128
			c-1.22-1.22-4.159-3.924-4.644-6.128c-0.499-2.204-2.204-5.628-3.189-7.833c-0.984-2.204-3.674-4.658-4.409-5.393
			s-7.348-10.522-7.348-10.522c-1.719-2.454-3.424-7.598-0.735-4.908c2.69,2.704,10.287,12.006,11.022,13.226
			c0.735,1.234,0.735,2.204,1.719,2.939c0.97,0.735,1.47-0.485,2.204,1.234c0.735,1.705,1.954,5.878,3.424,9.788
			c1.47,3.924,4.894,6.378,5.629,7.598c0.735,1.22,0.25,5.628,0.499,7.348c0.235,1.719,1.47,6.863,2.939,9.552
			c1.47,2.689,1.954,10.037,2.44,12.741C310.828,206.83,311.356,211.298,311.562,212.709z"/>
		<path style="fill:#595959;" d="M307.212,414.288c1.279,2.748,2.572,6.98,0.911,5.878c-1.587-1.074-5.1-8.347-5.982-10.801
			c1.807,2.454,2.263,2.763,3.233,2.483c0.5-0.235,0.603-0.895,0.279-1.896c0.617,0.471,1.118,0.588,1.559,1.029
			C307.947,411.717,305.919,411.526,307.212,414.288z"/>
		<path style="fill:#595959;" d="M308.124,214.428c2.204,0.367,0.735,5.144-1.469,8.817c-2.204,3.674-2.939,6.98-6.613,8.083
			c-3.674,1.102-3.674,1.837-5.511,2.572c-1.837,0.735-4.776,0.367-5.144,1.837c-0.367,1.469,3.674,0.367-0.367,1.469
			c-4.041,1.102-10.287-0.735-10.287-0.735s-3.674-1.837-4.041,0.735c-0.367,2.572,2.572,2.939-0.367,2.572
			s-1.102-2.204-6.613-5.511c-5.511-3.307-5.878-2.939-7.715-4.409c-1.837-1.469-1.837-3.674,1.469-1.837
			c5.349,2.968,11.757,4.041,15.43,4.409c3.674,0.367,8.083-1.47,11.022-2.204c2.939-0.735,7.715-2.939,9.552-2.939
			c1.837,0,3.674,0.367,6.246-4.041C306.287,218.837,305.919,214.06,308.124,214.428z"/>
		<path style="fill:#595959;" d="M305.654,409.953c0.324,1,0.221,1.661-0.279,1.896c-0.97,0.28-1.426-0.029-3.233-2.483l-0.014-0.03
			l-0.059-0.191c0,0,0.911-3.13,2.204-0.926C304.801,409.116,305.258,409.616,305.654,409.953z"/>
		<path style="fill:#595959;" d="M300.408,438.536l4.776,0.97c-1.088,0.118-2.044,0.177-2.88,0.177
			C301.128,438.991,300.408,438.536,300.408,438.536z"/>
		<path style="fill:#595959;" d="M305.654,409.953c-0.396-0.337-0.853-0.837-1.381-1.734c-1.293-2.204-2.204,0.926-2.204,0.926
			l0.059,0.191c-0.339-0.455-0.72-0.984-1.161-1.602c-0.353-0.485-0.926-1.249-1.691-2.219l-1.279-1.602l-0.735-0.897l-0.396-0.471
			c-0.162-0.161-0.353-0.469-0.441-0.617c-0.118-0.191-0.235-0.382-0.353-0.572l1.029-1.029l-4.218-5.511
			c0.367,0.662,0.528,1.396,0.441,2.028c-0.984-1.689-1.983-3.497-2.969-5.349c-4.158-7.701-7.671-16.283-9.301-20.501
			c-4.336-10.993-7.701-23.219-9.759-35.416c-2.072-12.227-2.909-24.396-2.909-35.314c-0.03-21.883,2.968-38.635,3.408-42.485
			c0.53-3.865,1-5.732,1.382-6.525c0.191-0.441,0.367-0.396,0.572-0.514c0.191-0.103,0.412-0.162,0.633-0.221
			c0.528-0.191,1.028,0.883,1.117,2.308c0.118,1.441-0.03,3.292-0.441,5.085c-0.485,2.176-1.853,9.376-2.925,19.236
			c-1.074,9.846-1.734,22.382-1.161,35.02c0.529,12.639,2.366,25.336,4.732,35.476c2.336,10.169,5.056,17.81,6.158,20.883
			c3.394,9.39,7.847,17.913,11.858,24.365c1,1.616,1.971,3.114,2.88,4.468l1.323,1.939l0.617,0.883l0.309,0.426
			c0.044,0.073,0,0,0.162,0.175c1.866,1.999,3.189,3.572,3.879,4.498C304.375,407.22,305.287,408.822,305.654,409.953z"/>
		<path style="fill:#595959;" d="M302.304,439.683c-1.469,0-2.557-0.162-3.233-0.412c0.558-0.235,1.013-0.485,1.337-0.735
			C300.408,438.536,301.128,438.991,302.304,439.683z"/>
		<path style="fill:#595959;" d="M298.233,438.242c2.058-0.426,3.248-0.573,2.175,0.294c-0.324,0.25-0.779,0.499-1.337,0.735
			C298.351,438.991,298.071,438.624,298.233,438.242z"/>
		<path style="fill:#595959;" d="M298.233,438.242c-0.162,0.382,0.118,0.749,0.838,1.029c-2.661,1.088-7.496,1.896-9.317,2.204
			c-2.204,0.367-6.246,0.367-8.083,0.367c-1.837,0-3.674,1.47-6.98,1.47s-7.715,0.367-11.389,0c-3.674-0.367-6.98,0.735-8.083,0.735
			c-1.102,0-1.102,0.367-3.307,0c-2.204-0.367-2.939-0.735-6.246,0c-3.307,0.735-4.776,1.47-7.348,1.837
			c-2.572,0.367-2.204-0.367-4.409-0.367c-2.204,0-2.204,0.367-4.409,0.735c-2.205,0.367-5.144,0.367-6.981,1.102
			c-1.837,0.735-1.102,0.367-4.776,0.735c-3.674,0.367-9.185-2.204-1.102-2.939c4.041-0.367,12.492-1.47,14.696-1.837
			s6.246-1.102,9.552-1.102c3.307,0,10.287-1.837,12.124-1.837c1.837,0,15.43,1.102,19.472,0.367
			c4.041-0.735,16.165-0.735,20.574-1.469C294.882,438.977,296.778,438.536,298.233,438.242z"/>
		<path style="fill:#595959;" d="M292.884,394.817l4.218,5.511l-1.029,1.029c-0.867-1.382-1.792-2.895-2.748-4.512
			C293.412,396.213,293.252,395.478,292.884,394.817z"/>
		<path style="fill:#595959;" d="M296.073,401.357l-0.25,0.25c-2.028-0.911-7.171-0.544-9.552,0.191
			c-2.395,0.735-15.989,11.198-22.778,15.607c-6.804,4.409-28.847,5.334-33.991,4.776c-5.144-0.544-6.055-3.483,4.6-1.47
			c10.654,2.028,23.689-2.381,28.098-4.585c4.409-2.204,20.941-14.696,22.411-16.724c1.47-2.013,4.776-0.544,6.804-0.735
			c1.19-0.103,1.807-0.867,1.91-1.822C294.281,398.462,295.206,399.974,296.073,401.357z"/>
		<path style="fill:#595959;" d="M287.182,199.541c0.558,0.735-0.735,5.702-0.735,8.641s0.558,8.45-0.177,8.626
			c-0.735,0.191-1.102-7.715-0.367-12.491C286.123,202.862,286.639,198.807,287.182,199.541z"/>
		<path style="fill:#595959;" d="M275.617,201.936c0.911,0.735,0.911,5.511-0.735,9.92c-1.66,4.409-1.837,4.218-1.102-3.865
			C273.926,206.345,274.691,201.202,275.617,201.936z"/>
		<path style="fill:#595959;" d="M271.385,114.733c1.469,10.287,4.409,30.376,3.424,26.951c-0.97-3.438-4.409-20.574-5.379-22.043
			c-0.984-1.469-3.439-14.696-3.439-17.15c0-2.454,2.939-6.363,3.924-14.696c0.984-8.332-9.802-17.15-13.711-20.089
			c-3.924-2.939-3.439-4.894-4.908-5.878c0,0,1.969-0.97,3.438-0.485c1.47,0.485,4.409,3.923,11.757,10.772
			c7.348,6.863,8.817,19.104,8.318,23.028C274.324,99.067,269.915,104.446,271.385,114.733z"/>
		<path style="fill:#595959;" d="M272.589,372.611c0.692,0.412,0.499,0.883,0.383,1.323c-0.148,0.441-0.633,0.779-1.074,1.147
			c-0.471,0.352-1.058,0.719-1.792,0.911c-0.911,0.191-3.777,1.719-7.407,4.334c-3.66,2.588-8.142,6.069-12.918,9.347
			c-4.806,3.262-10.096,5.923-14.681,7.435c-4.571,1.559-8.318,2.058-9.831,2.22c-4.6,0.499-9.097,0.455-12.683,0.059
			c-3.585-0.398-6.246-1.043-7.245-1.396c-1.999-0.721-2.777-1.352-2.322-2.395c0.456-1.073,0.956-1.323,2.998-0.558
			c1.014,0.382,4.438,1.675,8.245,2.336c3.806,0.721,7.95,0.69,9.934,0.426c5.217-0.603,10.581-2.293,15.475-4.703
			c4.923-2.395,9.272-5.482,13.123-8.495c3.879-2.984,7.275-5.702,10.007-7.73c2.719-2.028,4.894-3.307,5.819-3.761
			C270.37,372.156,271.927,372.201,272.589,372.611z"/>
		<path style="fill:#595959;" d="M267.534,177.865c0.735,0.367,1.646,1.837,0.735,5.334c-0.926,3.483-1.47,6.98-1.661,10.464
			c-0.176,3.497-0.911,5.511-0.911,7.539c0,2.013,0.911,4.776-2.395,10.287c-3.306,5.511-4.585,6.246-3.116,4.041
			c1.47-2.204,3.674-5.143,3.85-8.083c0.191-2.939,0.735-7.171,0.926-9.185c0.177-2.028,0.367-6.98,0.735-8.817
			c0.367-1.837,0.911-6.069,0.911-6.069C266.976,180.804,266.799,177.498,267.534,177.865z"/>
		<path style="fill:#595959;" d="M266.976,35.876c2.454,3.909,0,11.257-1.47,14.696c-1.426,3.321-5.143,12.153-5.379,12.696
			c0.146-0.954,3.408-21.102,2.925-23.968c-0.485-2.939-2.44-8.332-4.894-7.348c-2.454,0.985-14.696,22.043-14.696,23.513
			c0,0-2.087,3.761-3.116,4.585c-0.176-0.221-0.367-0.441-0.574-0.676V59.36c0.044-0.353,0.118-0.824,0.265-1.441
			c1.47-6.378,19.589-31.845,21.059-34.784c1.47-2.939,2.454-0.485,2.939,3.924S264.522,31.952,266.976,35.876z"/>
		<path style="fill:#595959;" d="M264.492,286.95c0.014,1.191-0.337,1.514-3.438,2.484c-1.559,0.441-6.702,2.336-11.933,4.953
			c-5.261,2.557-10.654,5.628-13.226,7.244c-3.365,2.117-6.775,4.35-10.228,6.658c-3.513,2.336-7.318,4.32-11.271,5.848
			c-7.921,3.101-16.415,4.159-23.91,3.674c-7.524-0.455-14.049-2.322-18.811-4.291c-4.79-1.955-7.862-4.041-9.023-4.864
			c-2.322-1.602-3.204-2.969-3.424-3.763c-0.206-0.822,0.205-1.072,0.588-1.322c0.397-0.235,1.102,0.029,1.925,0.455
			c0.823,0.441,1.778,1.073,2.66,1.896c1.014,0.984,4.982,3.909,11.198,6.203c6.173,2.336,14.563,3.952,22.999,3.335
			c8.45-0.499,16.694-3.335,22.749-6.745c3.042-1.66,5.614-3.483,7.773-4.821l4.747-2.939c5.819-3.512,11.389-6.922,15.988-9.463
			c4.571-2.572,8.2-4.248,9.729-4.747C262.567,285.73,264.315,285.775,264.492,286.95z"/>
		<path style="fill:#595959;" d="M259.084,330.2c0.323,1.072-0.059,1.88-0.339,2.306c-0.617,0.853-0.926,0.53-1.249,0.383
			c-0.339-0.191-0.353-0.868-0.574-1.293c-0.102-0.236-0.293-0.442-0.558-0.53c-0.25-0.059-0.485-0.044-0.735-0.073
			c-0.146-0.016-0.66,0.059-1.22,0.235c-0.278,0.087-0.646,0.22-0.954,0.367c-0.339,0.175-0.735,0.396-1.161,0.631
			c-1.719,0.94-3.938,2.19-6.526,3.542c-5.172,2.704-11.874,5.82-18.913,8.302c-7.024,2.513-14.372,4.35-20.471,5.247
			c-6.099,0.956-10.918,1.043-12.859,1.043c-5.908,0.029-11.594-0.455-16.121-1.205c-4.512-0.749-7.833-1.705-9.097-2.16
			c-0.264-0.104-0.514-0.191-0.749-0.28c-0.397-0.94-0.779-1.894-1.146-2.85c0.515,0.059,1.235,0.278,2.278,0.69
			c1.323,0.515,5.775,2.176,10.728,3.16c4.952,1.043,10.301,1.38,12.918,1.338c6.848-0.03,14.093-1.029,21.014-2.719
			c6.936-1.689,13.549-4.056,19.309-6.554c5.776-2.483,10.713-5.099,14.417-7.23c1.866-1.058,3.408-1.999,4.673-2.748
			c1.425-0.867,2.586-1.19,3.351-1.352c0.999-0.191,2.057-0.087,2.704,0.28C258.496,329.082,258.908,329.656,259.084,330.2z"/>
		<path style="fill:#595959;" d="M259.084,167.946c0.544,2.204,0.367,11.022-0.191,17.826c-0.544,6.79-2.013,10.654-3.307,13.226
			c-1.279,2.572-1.646,0.367-0.544-1.293c1.102-1.646,2.204-11.389,2.748-14.872c0.558-3.497,0.191-11.757,0.191-11.757
			C258.159,169.239,258.526,165.741,259.084,167.946z"/>
		<path style="fill:#595959;" d="M256.454,110.574c0,3.674-3.924,8.568-9.317,10.037c-0.617,0.161-1.236,0.294-1.823,0.382
			c0.088-0.514,0.118-0.867,0.118-0.867l-6.128,0.25c0,0,0.146,0.309,0.161,0.735c-2.042-0.25-3.776-0.763-5.055-1.234
			c-2.704-0.97-6.378-1.705-7.113-2.44c0,0-0.735-1.969,0.736-1.234c0.66,0.337,1.969,0.984,3.924,1.719
			c1.955,0.735,2.689,1.22,4.894,0.985c2.204-0.25,4.658,0.485,8.817-0.25C249.841,117.922,254,112.293,256.454,110.574z"/>
		<path style="fill:#595959;" d="M251.428,262.306c2.689-0.25,4.291,0.735,1.102,1.587c-3.189,0.867-13.108,1.352-15.181,0
			c-2.087-1.338-2.204-1.705-1.969-3.306c0.25-1.587-0.367-4.894-3.057-6.98c-2.689-2.072-1.837-2.44-1.837-2.44
			c4.041,1.469,5.261,4.644,5.761,8.2c0.485,3.556-0.25,2.454,2.072,2.939C240.656,262.791,248.739,262.556,251.428,262.306z"/>
		<path style="fill:#595959;" d="M250.326,234.752c1.22,1.22,1.22,2.454,0.485,3.189c-0.735,0.735-1.719,3.175-3.424,4.159
			c-1.719,0.985-6.363,0.485-7.598-0.735c-1.22-1.22-0.97-2.939-1.47-4.658c-0.485-1.705-0.735-7.348-0.735-8.568
			c0-1.22-1.47-11.507-1.955-13.961c-0.485-2.454-1.47-11.271-1.719-14.446c-0.235-3.189-1.469-8.083-1.469-9.317
			c0-1.22-0.485-8.318-0.485-8.318c-0.176-1.19-0.221-3.086,0.323-3.086c0.25,0,0.617,0.382,1.146,1.366
			c1.719,3.189,0.485,11.022,1.22,13.476c0.735,2.44,0.25,6.613,0.984,9.302c0.735,2.689,2.204,14.211,3.189,20.089
			c0.97,5.878,1.22,7.583,1.705,10.037c0.499,2.454-0.735,5.393,1.969,6.128c2.689,0.735,6.613-0.984,6.613-2.204
			c0-1.234-1.969-0.735-1.969-1.969c0-1.22-1.955-14.446-1.955-18.605c0-4.173-0.25-11.022-0.485-14.945
			c-0.148-2.337,0.146-3.806,0.603-4.1c0.323-0.176,0.705,0.177,1.102,1.161c0.984,2.454,0.499,15.68,0.735,18.619
			c0.25,2.939-0.235,5.628,0.735,7.833C248.856,227.404,249.092,233.532,250.326,234.752z"/>
		<path style="fill:#595959;" d="M245.917,107.635c2.939-2.69,2.939-2.204,1.955-0.25c-2.689,6.378-11.757,7.348-16.4,4.658
			c0,0-2.204-1.47,2.204-0.25C238.319,113.263,242.978,110.324,245.917,107.635z"/>
		<path style="fill:#595959;" d="M239.304,120.376l6.128-0.25c0,0-0.03,0.353-0.118,0.867c-2.131,0.382-4.1,0.353-5.85,0.118
			C239.451,120.684,239.304,120.376,239.304,120.376z"/>
		<path style="fill:#595959;" d="M245.314,120.993c-0.176,1.088-0.603,2.88-1.602,3.542c-0.412,0.278-1.015,0.558-1.719,0.838
			c2.306-1.719,4.173-4.644,2.454-3.777c-1.309,0.662-3.278,2.63-6.511,4.894c-0.367,0.044-0.66,0.044-0.837,0
			c-0.984-0.235-6.363-0.485-10.537-1.705c-4.158-1.234-3.174-2.204-3.174-2.204c2.439,0.735,8.318,1.955,12.727,1.22
			c2.923-0.485,3.365-1.837,3.35-2.689C241.214,121.346,243.183,121.375,245.314,120.993z"/>
		<path style="fill:#595959;" d="M244.447,121.596c1.719-0.867-0.148,2.058-2.454,3.777c-1.337,0.528-2.998,0.984-4.057,1.117
			C241.17,124.226,243.139,122.257,244.447,121.596z"/>
		<path style="fill:#595959;" d="M240.347,60.051c3.085,3.674,5.261,6.348,4.1,6.187c-7.348-0.97-7.348-1.955-10.287-3.909
			c-2.939-1.969-2.454-2.454-3.438-5.878c-0.97-3.439-1.955-4.908-4.409-11.271c-2.439-6.363-4.894-7.833-6.363-10.287
			c-1.47-2.454-1.954,4.409-3.424,9.802c-1.47,5.379-2.455,9.787,0,12.242c2.439,2.454,0,6.363,0,6.363
			c-5.394-3.424-6.378-7.833-4.909-12.727c1.47-4.908,4.409-11.271,3.924-20.089c-0.484-8.817,4.894-5.393,5.878-1.469
			c0.985,3.924,6.863,6.363,6.863,8.817c0,2.454-0.985,5.393,4.409,12.741c2.16,2.939,4.805,6.099,7.082,8.789v0.014
			C239.7,60.27,239.936,60.388,240.347,60.051z"/>
		<path style="fill:#595959;" d="M244.021,190.915c0.852,1.955,0.808,3.424,0.41,3.424c-0.191,0-0.469-0.367-0.778-1.22
			c-0.926-2.572-2.028-6.437-2.028-8.083c0-1.661-1.102-6.98-1.47-8.817c-0.367-1.837-2.013-6.436-2.204-7.906
			c-0.176-1.47,0-8.817-0.735-11.933c-0.735-3.13-5.878-10.845-5.878-10.845c-0.501-0.617-1.073-1.719-0.779-2.058
			c0.132-0.161,0.485-0.146,1.147,0.221c2.028,1.102,7.171,6.98,7.906,13.784c0.735,6.79,0.176,7.892,1.102,10.463
			c0.911,2.572,2.013,9.185,2.204,13.594C243.096,185.948,242.728,187.976,244.021,190.915z"/>
		<path style="fill:#595959;" d="M241.993,125.373c-0.308,0.234-0.647,0.455-0.97,0.632c-2.704,1.47-4.409,5.393-11.757,8.332
			c-0.852,0.339-1.719,0.544-2.616,0.617c-2.336,0.205-4.747-0.396-6.951-1.307c-4.217-1.749-7.715-4.615-8.568-5.188
			c3.439,1.47,14.211,4.894,21.074,1.47c2.263-1.131,4.143-2.322,5.73-3.438C238.995,126.357,240.656,125.901,241.993,125.373z"/>
		<path style="fill:#595959;" d="M240.347,60.051c-0.412,0.337-0.647,0.22-0.574-0.676C239.98,59.61,240.171,59.83,240.347,60.051z"
			/>
		<path style="fill:#595959;" d="M235.997,238.426c0.25,1.352,0.118,0.735-2.821,3.307c-2.939,2.572-9.053,7.715-12.359,9.067
			c-3.307,1.338-6.128,2.939-8.7,4.041c-2.572,1.102-7.465,3.674-10.037,5.144c-2.572,1.469-3.807,3.174-4.776,2.44
			c-0.985-0.735-1.602-2.807,0.118-2.939c1.969-0.132,15.68-7.348,19.221-9.552c3.557-2.204,6.496-5.261,7.848-6.848
			c1.337-1.602,6.848-4.908,8.2-6.495C234.043,235.002,235.748,237.074,235.997,238.426z"/>
		<path style="fill:#595959;" d="M232.206,430.204c3.909,7.348,0.485,9.802-0.985,5.393c-1.47-4.409-3.924-10.786-9.302-14.696
			c-5.393-3.923-17.635-12.256-25.483-21.558c-7.832-9.302-24.983-34.784-31.345-49.965c-6.363-15.181-12.242-40.163-13.711-47.026
			c-1.47-6.863-0.985-21.059-0.985-21.059c-1.47-0.499-5.878-5.393-1.47-4.409c3.159,0.69,3.806,4.658,3.924,10.993
			c-0.148,0.323-0.191,0.601,0,0.719c0.029,2.337,0,4.983,0,7.877c0,6.658,5.452,27.114,13.563,47.393
			c-0.779-0.118-1.072,0.132-1.307,0.646c-0.323,0.751,0.455,1.396,2.454,2.204c5.393,13.124,11.845,25.894,18.59,34.506
			c17.635,22.529,27.437,31.831,30.376,33.301c2.939,1.47,0-0.485,2.939,1.47C222.404,417.962,228.282,422.856,232.206,430.204z"/>
		<path style="fill:#595959;" d="M232.265,170.885c0.705,1.955,0.043,4.423-0.824,4.423l-0.102-0.014
			c-0.911-0.176,0-1.646-0.544-4.041c-0.558-2.381-1.837-3.307-2.763-4.218c-0.911-0.926-1.103-2.939-1.279-3.865
			c-0.192-0.911-2.204-3.116-3.674-6.055c-1.47-2.939-3.674-5.702-4.233-5.702c-0.543,0-1.645-0.911-1.645-2.381
			s-1.47-2.763-1.294-4.409c0.192-1.66-0.176-3.13-0.911-3.13s-1.469,0.367-2.204,0.735s-1.102-0.367-0.559-0.735
			c1.749-1.161,2.763-1.646,3.306-1.279c0.559,0.367,0.367-0.191,1.294-1.837c0.426-0.779,0.969-1.19,1.411-1.19
			c0.514,0,0.881,0.558,0.794,1.734c-0.192,2.204-1.469,7.539-0.192,8.45c1.294,0.926,4.041,1.102,4.233,2.395
			c0.176,1.279,0.176,3.306,1.278,4.953c1.102,1.66,2.572,4.776,3.498,6.246c0.911,1.47,0.735,3.674,1.47,4.776
			C230.06,166.844,231.53,168.871,232.265,170.885z"/>
		<path style="fill:#595959;" d="M227.664,138.555c1.572,0.485,1.264,2.174,0.559,2.174l-0.367-0.146
			c-0.794-0.647-1.749-2.131-0.75-2.131C227.253,138.451,227.43,138.481,227.664,138.555z"/>
		<path style="fill:#595959;" d="M208.678,145.109c1.97-1.469,1.469,4.894,0.984,7.833c-0.484,2.939-1.954,4.908-6.863,5.878
			c-4.894,0.984-7.833,1.469-14.195,4.908c-6.378,3.424-9.803,6.848-12.742,11.757c-2.939,4.894-4.409,6.848-4.409,9.302
			c0,2.454-2.439,7.833-4.893,12.242c-2.455,4.409-5.878,17.635-8.333,22.043c-2.454,4.409-3.424,5.878-2.939,10.287
			c0.485,4.409-0.484,7.847-2.939,9.802c-2.454,1.955-9.802-2.454-8.332-2.454c1.47,0,7.348,0.984,8.332-2.44
			c0.985-3.439,0-8.332,0.985-11.271c0.969-2.939,6.363-12.741,7.348-14.696c0.969-1.955,4.893-14.21,5.878-18.12
			c0.969-3.923,7.348-15.195,11.257-22.043c3.924-6.863,8.332-11.757,11.271-11.757c2.939,0,6.363,0.485,7.833-0.984
			c1.469-1.47,1.469-2.939,1.469-2.939C203.3,150.987,206.723,146.578,208.678,145.109z"/>
		<path style="fill:#595959;" d="M207.708,133.352c2.454,0.984,1.219,1.47,0,1.47c-0.926,0-3.572-0.999-6.393-2.88
			c0.706-0.25,0.662-1.015-2.674-2.013c-3.674-3.189-10.771-4.908-10.771-4.908s-0.191-0.191-0.382-0.456
			c0.984-0.455,1.69-0.881,1.852-1.248c2.542,0.852,6.686,3.688,9.787,5.143C202.8,130.163,205.254,132.368,207.708,133.352z"/>
		<path style="fill:#595959;" d="M205.106,445.252c1.734,0.293,3.086,1.279,3.086,2.101c0,0.97-0.969,2.204-1.219,3.909
			c-0.25,1.719-0.25,2.454-1.235,3.189c-0.969,0.735-2.689,1.955-3.674,2.939c-0.969,0.985-2.189,1.719-1.704-0.485
			c0.484-2.204,1.219-5.643,0.235-4.908c-0.969,0.735-2.439,2.454-3.174,3.924c-0.735,1.469-3.674,2.454-4.174,3.189
			c-0.485,0.735-1.47,1.22-1.47,1.22l-1.704,0.485c0,0-0.985,2.204-1.72,2.939s0,1.47-2.204,1.969
			c-2.204,0.485-5.628,2.689-6.863,3.174c-1.22,0.499-4.159,3.674-6.113,4.409c-1.97,0.735-8.333,3.189-9.317,3.189
			c-0.969,0-0.735,1.22-1.955,1.22c-1.219,0-7.832,3.674-8.332,4.409c-0.485,0.735-1.47,1.719-2.939,1.719
			c-1.47,0-5.144,1.955-6.613,2.689c-1.469,0.735-6.598,1.719-10.522,3.189c-3.924,1.47-7.113-1.22-5.394-2.689
			c1.72-1.47,4.909-6.863,6.864-7.348c1.954-0.499,5.143-4.173,6.848-5.393c1.719-1.22,2.704-2.204,4.409-3.189
			c1.719-0.97,6.628-15.43,7.113-18.855c0.484-3.424,0.484-5.393,1.469-5.629c0.411-0.103,0.69-0.662,0.867-1.352l1.102,0.205
			c-0.073,0.367-0.015,0.721,0.235,1.147c0.735,1.22,0.969,1.705,0.235,2.939c-0.735,1.22-1.704,1.47-1.704,2.69
			c0,1.22-0.735,8.817-3.439,14.446c-2.689,5.643-7.333,11.022-9.787,12.006c-2.455,0.984-6.613,2.204-7.848,4.409
			c-1.22,2.204-2.439,4.409-3.424,4.894c-0.984,0.499,9.068-2.689,12.007-2.939c2.939-0.235,5.878-3.674,8.083-4.644
			c2.204-0.984,7.097-4.173,9.552-4.658c2.439-0.485,4.643-2.454,5.628-2.69c0.985-0.25,13.226-7.598,14.946-8.817
			c1.704-1.234,3.909-2.939,4.893-2.704c0.985,0.25,7.598-6.848,9.552-9.053c1.955-2.204,6.129-7.348,8.333-7.348
			C204.402,445.149,204.769,445.178,205.106,445.252z"/>
		<path style="fill:#595959;" d="M205.988,437.801c0,0,2.939,4.409,0,5.143c-0.147,0.029-0.293,0.059-0.455,0.059
			c-3.307,0-11.301-6.672-11.301-6.672c-8.67-4.585-23.351-14.475-34.71-24.276c-0.03-0.192-0.044-0.339-0.074-0.471
			c0,0-3.674-4.159-2.689-2.204c0.044,0.087,0.088,0.205,0.133,0.353c-0.941-0.853-1.867-1.719-2.748-2.572l0.837-0.883
			c0.632,0.633,1.22,1.117,1.778,1.396c4.409,2.204,19.104,13.226,25.717,18.37c6.613,5.143,10.287,8.817,16.9,10.287
			C205.988,437.801,205.988,437.801,205.988,437.801z"/>
		<path style="fill:#595959;" d="M205.988,226.552c0.559,3.307,2.029,4.953-1.469,5.511c-3.482,0.544-8.258,0.735-11.932,6.613
			c-3.674,5.878-3.674,13.77-1.294,17.635c2.396,3.85,0.367,4.953-1.102,1.837c-1.469-3.13-2.939-15.254-1.837-18.928
			c1.102-3.674,3.674-7.524,5.878-9.361c1.412-1.175,8.274-7.539,8.817-9.185c0.559-1.66,0.559-1.66,0.559-1.66
			S205.445,223.245,205.988,226.552z"/>
		<path style="fill:#595959;" d="M200.845,57.919c4.409-3.924,3.924,0.485,2.939,2.939c-0.984,2.44-1.47,4.409-4.409,3.909
			c-2.939-0.485-7.348-1.47-12.741,3.438c-5.378,4.894-9.787,12.727-16.165,19.589c-6.363,6.863-11.256,7.348-14.195,9.802
			c-2.939,2.44-5.394,4.894-10.287,5.878c-4.909,0.97-7.348-1.969-0.985-3.438c6.363-1.47,15.181-5.878,19.104-9.788
			c3.924-3.924,10.287-9.802,13.226-14.211c2.939-4.409,6.378-9.802,9.802-11.271C190.558,63.298,200.845,57.919,200.845,57.919z"/>
		<path style="fill:#595959;" d="M198.641,129.928c3.336,0.999,3.38,1.764,2.674,2.013
			C200.434,131.369,199.522,130.691,198.641,129.928z"/>
		<path style="fill:#595959;" d="M201.315,131.941c-0.323,0.103-0.822,0.103-1.205-0.059c-1.219-0.485-11.757,0-17.635,1.719
			c-5.878,1.705-7.097,3.174-9.552,3.909c-2.454,0.735-3.189,2.454-7.348,1.47c-4.158-0.97-3.424-2.939-3.424-2.939
			c1.469,2.454,9.302,0.735,12.726-1.47c3.439-2.204,18.87-6.114,23.763-4.644C199.522,130.691,200.434,131.369,201.315,131.941z"/>
		<path style="fill:#595959;" d="M198.391,81.432c1.47,1.955-0.969,4.894-0.969,4.894s2.439,6.863-0.5,8.332
			c-2.939,1.47-8.317-3.924-8.317-3.924c-4.909-1.955-4.409-7.833,0-10.772C193.013,77.024,196.921,79.464,198.391,81.432z"/>
		<path style="fill:#595959;" d="M192.028,285.334c2.939-2.204,2.572,0-0.735,3.306c-3.307,3.307-3.674,3.674-6.98,4.041
			s-18.737-0.367-18.737-0.367c-1.47-0.367-2.204-2.204,1.837-1.837c4.041,0.367,2.939-1.102,5.143-1.102
			c2.204,0,9.185,0.735,12.491,0.735C188.354,290.11,189.089,287.539,192.028,285.334z"/>
		<path style="fill:#595959;" d="M191.293,259.984c1.72,2.072,3.306,4.041,2.337,4.776c-0.985,0.735-6.613,5.011-9.318,5.629
			c-2.689,0.617-2.439,4.526,0.5,6.613c2.939,2.087,3.541,2.572,4.776,3.057c1.22,0.499,1.337,2.821-1.719,2.087
			c-3.057-0.735-7.348-8.7-8.935-9.802c-1.602-1.102-9.802,0-13.359-0.603c-3.541-0.617-7.465-3.071-8.083-3.071
			c-0.602,0-2.572-0.603-3.056-1.338c-0.485-0.735-1.587,0-3.19-1.719c-1.587-1.719-2.939-2.204-3.908-3.057
			c-0.985-0.867-2.204-1.602-2.705-2.454c-0.484-0.852-5.378-8.2-7.832-12.859l1.381-0.588c0.324,0.558,0.676,1.161,1.074,1.808
			c4.276,6.863,6.98,11.022,8.083,11.639c1.102,0.617,0.852,2.087,2.204,2.572c1.337,0.485,4.041,0.617,4.643,1.352
			c0.618,0.735,0.735,1.837,2.204,2.44c1.47,0.617,3.439,0.617,5.761,1.969c2.321,1.338,7.465,1.705,9.067,1.22
			c1.587-0.485,2.439-1.22,3.541-1.352c1.102-0.118,12.007-8.2,13.359-9.67C189.456,257.163,189.589,257.898,191.293,259.984z"/>
		<path style="fill:#595959;" d="M191.058,113.263c1.955,0.735,1.955,1.969,0.485,5.144c-1.47,3.189-1.72,3.674-2.204,4.908
			c-0.471-0.162-0.897-0.25-1.235-0.25c-1.513,0-1.058,0.926-0.632,1.498c-2.174,0.97-5.613,1.999-6.95,2.661
			c-1.954,0.984-7.833,3.674-9.068,4.908c-1.219,1.22-4.409,2.44-7.097,1.22c-2.689-1.22-2.939-3.424-1.47-4.409
			c0.646-0.426-0.25,3.424,3.674,2.689c3.924-0.735,5.393-3.175,9.067-4.894c3.674-1.719,9.552-3.924,13.226-6.613
			c3.674-2.689,1.22-4.894-1.97-5.629c-2.483-0.573-4.688,0.662-6.583,1.792l-0.294-0.719c2.117-0.751,3.454-2.367,4.924-3.278
			C186.884,111.059,189.089,112.529,191.058,113.263z"/>
		<path style="fill:#595959;" d="M188.104,123.065c0.338,0,0.764,0.087,1.235,0.25c-0.162,0.367-0.868,0.793-1.852,1.248h-0.015
			C187.046,123.991,186.591,123.065,188.104,123.065z"/>
		<path style="fill:#595959;" d="M180.006,115.571l0.294,0.719c-0.529,0.324-1.029,0.633-1.499,0.897
			c-2.204,1.22-5.378,0.25-7.097-0.25c-1.72-0.485-4.659,0.735-8.083,2.454c-3.424,1.719-14.211,0.735-16.416,1.22
			c-2.204,0.499-2.689,1.234-5.378,1.234c-2.705,0-1.97-0.735-3.439-2.454c-0.646-0.765-1.16-1.573-1.513-2.322
			c0.264,0.045,0.514,0.088,0.779,0.118c0.324,0.029,0.573,0.014,0.779-0.073c0.926,1.043,2.513,2.042,5.1,1.793
			c5.143-0.499,9.803-0.985,12.257-0.985c2.439,0,2.439,0,3.674-1.22c1.22-1.234,1.704-1.234,3.908-0.735
			c2.204,0.485,3.674,0.735,6.379,0c2.689-0.735,4.159,0,7.833,0C178.508,115.967,179.302,115.805,180.006,115.571z"/>
		<path style="fill:#595959;" d="M169.015,160.289c1.954,0.25,1.954,1.47,1.47,2.704c-0.5,1.22-2.454,1.22-3.189,0.97
			c-0.735-0.235,0-1.955-0.985-2.689c-0.969-0.735-3.908-3.424-3.908-3.424s-1.719-3.924,0.234-2.204
			C164.606,157.35,167.045,160.054,169.015,160.289z"/>
		<path style="fill:#595959;" d="M166.413,343.867c0.367,0.956,0.75,1.91,1.146,2.85c-1.999-0.808-2.777-1.454-2.454-2.204
			C165.341,343.999,165.634,343.749,166.413,343.867z"/>
		<path style="fill:#595959;" d="M160.432,289.375c2.572,0.367,1.837,1.837-0.367,1.47s-4.776-2.572-6.613-2.204
			c-0.294,0.059-0.484,0.045-0.602-0.044c0-0.25,0-0.485,0-0.719c0.278-0.647,0.969-1.441,0.969-1.441
			C157.86,286.436,157.86,289.008,160.432,289.375z"/>
		<path style="fill:#595959;" d="M160.197,134.822c0.969,0.25,0.969,1.955,0,2.454c-0.985,0.485-1.97,0.97-3.439,1.955
			c-1.47,0.984-4.893,2.939-6.363,3.674c-1.47,0.735-3.674,1.22-5.628,1.469c-1.97,0.25-3.924,0.984-7.113,0.984
			c-3.174,0-11.256,0.735-11.991,0.735s-6.613-1.47-8.083-1.234c-1.469,0.25-3.189,0.735-5.143,0.735
			c-1.97,0-6.613-0.485-8.583-0.485c-1.954,0-7.348-1.22-11.022-1.719c-3.674-0.485-9.552-3.175-10.771-3.909
			c-1.22-0.735-3.674-2.939-4.894-2.204c-0.588,0.353-1,0.632-1.411,0.794c-0.868-1.616-1.691-3.027-2.308-3.924
			c2.234,0.382,5.761,1.088,6.892,1.896c1.72,1.234,16.666,5.878,21.309,6.378c4.659,0.485,13.726,0.97,15.43,0.97
			c1.72,0,4.174,0.499,4.909,0.499c0.735,0,1.704-0.735,3.424-0.735c1.719,0,20.574-2.204,24.248-3.924
			c3.674-1.719,7.598-3.674,7.598-3.674S159.213,134.572,160.197,134.822z"/>
		<path style="fill:#595959;" d="M159.521,412.055c0.587,4.878-0.339,29.229-1.294,30.889c-0.661,1.131-1.293,1.823-1.454,2.527
			l-1.102-0.205c0.22-0.94,0.25-2.117,0.103-2.821c-0.235-1.22,0.985-12.727,0.985-15.915c0-3.042,0.896-14.05,0.133-16.797
			C157.743,410.497,158.625,411.276,159.521,412.055z"/>
		<path style="fill:#595959;" d="M159.447,411.585c0.029,0.132,0.044,0.278,0.074,0.471c-0.897-0.779-1.778-1.559-2.63-2.322
			c-0.045-0.148-0.089-0.266-0.133-0.353C155.774,407.426,159.447,411.585,159.447,411.585z"/>
		<path style="fill:#595959;" d="M155.656,89.882c0.367,4.041-1.47,1.837-1.47,1.837c-1.102-0.735-2.939-28.289-0.367-38.209
			c1.102-9.185,1.102,5.878,1.102,8.45C154.921,64.533,155.288,85.841,155.656,89.882z"/>
		<path style="fill:#595959;" d="M154.98,406.279l-0.837,0.883c-2.748-2.63-5.115-5.188-6.937-7.569l-9.552-12.491
			c-3.027-4.364-5.584-9.67-7.832-15.666l0.808-0.294c0.529,1.559,1.425,2.822,3.35,4.204c5.143,3.674,5.143,10.287,8.083,12.491
			C144.634,389.761,150.586,401.826,154.98,406.279z"/>
		<path style="fill:#595959;" d="M152.85,287.877c0,0.234,0,0.469,0,0.719C152.659,288.478,152.702,288.2,152.85,287.877z"/>
		<path style="fill:#595959;" d="M152.349,211.606c0.25,0.984-0.969,2.572-3.056,3.307c-2.087,0.735-4.894,1.102-4.159,1.837
			c0.735,0.735,0.485,0.984,0.602,1.47c0.133,0.485-0.602,0.25-1.704,0.485c-1.102,0.25-2.939-0.735-4.409,1.234
			c-1.47,1.955-1.102,3.792,0.234,4.159c1.353,0.367,2.939-1.22,4.174-1.837c1.22-0.617,1.469-0.118,1.337,1.719
			c-0.117,1.837,0.25,5.379-0.484,5.629c-0.735,0.25-2.204-2.087-4.041-1.719c-1.837,0.367-6.613,0.617-7.833,1.234
			c-1.235,0.603-0.5,1.587,0.367,2.807c0.852,1.234,1.47,0.367,1.704,1.719c0.25,1.352,0.133,1.719,0.618,3.792
			c0.441,1.896-0.515,3.777,2.483,9.213l-1.381,0.588c-2.455-4.658-3.792-7.833-4.159-8.817c-0.367-0.984-2.572-2.087-2.204-4.159
			c0.367-2.087,0.735-7.112-0.985-7.48c-1.72-0.367-3.557-0.485-3.791,0.617c-0.25,1.102-0.617,1.587-1.102,1.719
			c-0.5,0.118-2.087,1.102-2.572-0.132c-0.5-1.22-1.235-2.322-1.235-2.322s-2.204,0.118-1.704-1.352
			c0.485-1.47,2.689-2.572,4.894-2.204c2.204,0.367,5.628-0.118,6.98,2.336c1.352,2.44,1.954,1.587,3.423,1.47
			c1.47-0.132,2.455-0.867,2.822-1.602c0.367-0.735,1.102-0.735,0.367-2.322c-0.735-1.587-1.587-4.291,0.25-4.894
			c1.837-0.617,4.643-2.572,5.144-2.821c0.485-0.25,2.939-1.22,3.792-1.719c0.852-0.485,1.586-1.102,1.586-1.102
			C151.013,211.121,152.115,210.622,152.349,211.606z"/>
		<path style="fill:#595959;" d="M144.267,404.369c2.939,0.735,4.041,4.409,3.307,6.613c-0.735,2.204-3.674,0.735-6.613-0.735
			c-2.939-1.47-13.961-5.511-21.309-8.083c-3.776-1.323-7.641-2.836-10.963-4.291c-3.145-1.382-5.79-2.718-7.407-3.792
			c-3.306-2.204-16.165-10.287-23.146-22.043c-2.645-4.453-4.291-8.862-5.187-13.24c-1.47-7.157-0.956-14.226,0.411-21.294
			c2.204-11.389,5.878-17.267,9.552-19.104c3.674-1.837,7.715-4.409,14.328-4.041s11.389,1.102,11.389,1.102
			c1.837,1.47,4.041,0.735,2.939-0.367c-1.102-1.102-3.674-2.204-1.47-3.307c2.204-1.102,2.572-5.511,4.409-2.572
			c1.837,2.939,1.837,5.143,2.572,6.98c0.735,1.837-0.367,4.041-3.674,3.674c-3.307-0.367-8.45-0.735-8.45-0.735
			s-1.102-0.367-2.572,0c-1.47,0.367-3.674-1.102-5.511-1.102c-1.837,0-5.511,0-8.083,2.939c-2.572,2.939-9.92,9.919-11.757,19.104
			c-1.837,9.185-1.47,23.88,4.041,31.228c5.511,7.348,25.35,24.983,38.576,29.024c13.226,4.041,21.676,6.613,24.248,7.715
			C146.471,409.145,141.328,403.634,144.267,404.369z"/>
		<path style="fill:#595959;" d="M146.237,192.384c1.954,0.97,1.454,2.44-0.985,3.424c-2.455,0.985-3.424-3.924-3.424-3.924
			c-0.735-0.485-0.25-3.674,0.969-2.44C144.032,190.665,144.267,191.4,146.237,192.384z"/>
		<path style="fill:#595959;" d="M144.634,94.659c0,0-1.47,0.367-3.307-1.102c-1.837-1.469-5.511-5.878-9.185-13.961
			s-2.572-18.737-1.837-21.309c0.735-2.572,0,0,1.469,9.92C133.245,78.126,141.695,92.822,144.634,94.659z"/>
		<path style="fill:#595959;" d="M143.048,180.128c1.47,1.234-0.485,2.454-0.485,2.454l-4.174-1.22
			c-2.689,0-0.484-3.189,1.235-3.674C141.328,177.189,141.578,178.909,143.048,180.128z"/>
		<path style="fill:#595959;" d="M140.843,103.226c1.219,0.984-0.25,2.689-0.485,3.924c-0.25,1.22-1.97,2.44-0.985,3.674
			c0.985,1.22,0.484,2.44,0,3.174c-0.426,0.631,0.22,2.689-0.941,3.116c-0.954-1.043-1.263-2.131-1.263-2.131l-0.985-0.25
			c0,0.544,0.22,1.396,0.691,2.336c-1.94-0.412-3.836-1.66-5.334-5.76c-1.719-4.658,0.234-7.098,1.22-7.098
			c0.985,0,2.689-3.189,2.689-3.189c1.97-1.469,3.674-3.189,4.409-1.469C140.593,101.271,139.624,102.242,140.843,103.226z"/>
		<path style="fill:#595959;" d="M140.108,161.759c1.704,2.204,0,3.189-1.72,3.674c-1.704,0.499-0.484-1.955-1.954-2.44
			c-1.469-0.499-4.894-2.454-5.628-3.189c0,0-0.25-1.47,0.969-0.735c1.235,0.735,2.705,0.735,4.409,0.485
			C137.904,159.319,138.389,159.555,140.108,161.759z"/>
		<path style="fill:#595959;" d="M138.432,117.114c-0.205,0.088-0.455,0.102-0.779,0.073c-0.265-0.03-0.514-0.073-0.779-0.118
			c-0.471-0.94-0.691-1.792-0.691-2.336l0.985,0.25C137.169,114.983,137.478,116.071,138.432,117.114z"/>
		<path style="fill:#595959;" d="M133.98,260.719c3.571,5.937,2.939,20.574-3.674,38.943c-6.613,18.37-5.144,49.965-2.204,59.517
			c1.837,5.966,1.661,9.361,2.528,11.962l-0.808,0.294c-2.661-7.127-4.865-15.24-6.863-24.012
			c-3.674-16.165-1.47-30.861,3.674-47.761c5.143-16.9,8.083-30.126,5.878-36.004C130.306,257.78,132.51,258.265,133.98,260.719z"/>
		<path style="fill:#595959;" d="M124.193,250.182c1.954,4.159,0.485,10.772-0.5,7.833c-0.764-2.277-3.174-8.568-2.204-9.787
			C122.474,246.994,122.223,246.023,124.193,250.182z"/>
		<path style="fill:#595959;" d="M119.284,232.063c1.72,0,2.204,0.735,1.72,1.705c-0.485,0.984-3.924,0-4.894-0.485
			c-0.985-0.485-4.909-0.735-6.128-0.735c-1.22,0-1.954,0.984-3.189,0.25c-1.219-0.735-4.643-3.438-6.613-5.393
			c-1.954-1.955-3.908-4.409-4.893-6.363c-0.441-0.897-1.043-1.587-1.632-1.969l0.279-0.398c0.324,0.28,0.677,0.574,1.102,0.897
			c1.294,0.999,3.513,2.866,5.835,4.762c-0.721,1.748,3.718,4.981,3.968,3.321l0.014-0.132c1.896,1.439,3.527,2.557,4.394,2.821
			C109.248,230.343,117.58,232.063,119.284,232.063z"/>
		<path style="fill:#595959;" d="M116.904,265.274l1.484,0.324l0.161-0.72l-0.294-0.676c-0.015,0.014-0.132,0.073-0.294,0.162
			l0.132-0.339l2.763,0.617l-1.998,0.911l-0.03,0.014l-0.132,0.073c-0.118,0.059-0.279,0.176-0.426,0.309
			c-0.309,0.28-0.529,0.618-0.529,1.043c0,0.28,0.088,0.633,0.426,1.132c1.132,1.632,1.632,3.938,1.646,6.481
			c0,1.807-0.264,3.747-0.793,5.657c-0.264,0.897-0.822,2.308-1.616,4.086c-0.794,1.764-1.793,3.879-2.88,6.113
			c-2.204,4.468-4.791,9.435-6.804,13.094c-1.352,2.454-2.425,4.291-3.028,5.113c-0.514,0.676-1.028,1.191-1.543,1.528
			c-0.514,0.353-0.999,0.558-1.529,0.558c-0.338,0-0.705-0.118-0.984-0.382c-0.279-0.28-0.382-0.662-0.382-1.015
			c0.014-0.735,0.382-1.454,1.072-2.336c2.19-2.674,3.365-4.305,5.056-7.701c1.69-3.364,5.379-12.197,7.583-17.105
			c0.896-1.999,1.249-4.336,1.249-6.524c0-1.441-0.146-2.807-0.382-3.954c-0.235-1.147-0.544-2.072-0.838-2.586
			c-0.323-0.574-0.485-1.132-0.485-1.646c0-0.926,0.5-1.602,0.956-2.101c0.485-0.529,0.97-0.956,1.279-1.427l0.602,0.412
			l-0.161,0.72l0.471,0.102L116.904,265.274z M101.738,309.273l-0.118,0.014h-0.014l-0.014,0.073v0.016l-0.059,0.102l0.117-0.059
			l0.074-0.014v-0.044L101.738,309.273z"/>
		<path style="fill:#595959;" d="M118.256,264.202l0.294,0.676l-0.161,0.72l-1.484-0.324c0.118-0.161,0.25-0.293,0.382-0.411
			l0.279-0.235c0.192-0.014,0.309-0.118,0.397-0.264C118.124,264.275,118.241,264.216,118.256,264.202z"/>
		<path style="fill:#595959;" d="M118.065,262.424c0,0,0.191,0.94,0.029,1.602l-2.072-0.455l-0.191,0.293
			c-0.808-0.587-1.719-1.425-2.909-2.174c-1.97-1.22-6.129-0.485-7.833,0.984c-1.719,1.47-7.113,2.204-9.318,1.719
			c-2.204-0.499-4.158-2.704-6.613-5.143c-2.439-2.454-8.083-1.47-9.302-2.204c-1.235-0.735-4.159-7.112-4.409-9.552
			c-0.25-2.454-0.25-7.112,0.25-9.317c0.485-2.204,1.954-0.485,1.47,1.47c-0.5,1.969-1.47,3.924,0,6.863
			c1.47,2.939,3.174,7.348,4.159,8.332c0.97,0.97,4.158,0.97,8.083,1.47c3.909,0.485,6.363,3.674,9.067,4.644
			c2.689,0.984,4.643-0.735,10.037-1.955C113.891,257.78,116.595,261.689,118.065,262.424z"/>
		<path style="fill:#595959;" d="M116.021,263.571l2.072,0.455l-0.132,0.339c-0.118,0.073-0.25,0.161-0.397,0.264h-0.235
			c-0.485-0.089-0.97-0.382-1.5-0.765L116.021,263.571z"/>
		<path style="fill:#595959;" d="M117.962,264.364c-0.088,0.146-0.205,0.25-0.397,0.264
			C117.712,264.525,117.844,264.438,117.962,264.364z"/>
		<path style="fill:#595959;" d="M117.33,264.628h0.235l-0.279,0.235c-0.132,0.118-0.264,0.25-0.382,0.411l-0.25-0.059
			c0.102-0.132,0.205-0.264,0.308-0.41l-0.618-0.412l-0.602-0.412l0.087-0.118C116.36,264.247,116.845,264.539,117.33,264.628z"/>
		<path style="fill:#595959;" d="M116.963,264.805c-0.103,0.146-0.207,0.278-0.308,0.41l-0.471-0.102l0.161-0.72L116.963,264.805z"
			/>
		<path style="fill:#595959;" d="M113.406,197.763c0.735,0.735-1.219,0.984-1.219,0.984c-1.72-0.735-2.689-3.424-0.985-3.674
			C112.922,194.824,112.671,197.029,113.406,197.763z"/>
		<path style="fill:#595959;" d="M112.922,183.317c0.985,1.719,0,4.159-1.72,3.674c-1.704-0.485-1.954-3.674-1.954-4.409
			c0-1.47,0.735-2.939,2.204-2.689C112.922,180.128,111.936,181.598,112.922,183.317z"/>
		<path style="fill:#595959;" d="M111.702,273.21c0,2.204,2.204,4.409-4.174,4.409c-6.363,0-7.582,0.235-11.022-3.438
			c-3.424-3.674-2.439-4.894-3.908-6.613c-1.47-1.705,1.22-1.705,3.174,0.25c3.336,3.335,5.878,6.863,10.537,5.143
			C110.967,271.241,111.702,271.006,111.702,273.21z"/>
		<path style="fill:#595959;" d="M109.248,173.03c0.735,1.719-0.485,3.924-1.954,2.454c-1.47-1.47-5.393-3.439-5.393-3.439
			c-1.954-1.22-0.735-2.204,1.219-1.705c1.97,0.485,3.439-1.47,4.909-1.234C109.497,169.357,108.513,171.311,109.248,173.03z"/>
		<path style="fill:#595959;" d="M108.469,398.387c1.22,0.617-0.176,1.602-5.099,1.94c-7.348,0.485-23.029,2.44-26.952,2.939
			c-3.909,0.485-5.378,0-8.317,0.485c-2.939,0.485-18.62,2.454-22.544,2.454c-3.909,0-5.378,0-7.833,0
			c-2.454,0-24.497,0.97-30.861,0.97C0.5,407.176,0,402.767,0,398.858c0-3.924,1.485-3.439,3.439-3.439
			c1.954,0,4.129-2.293,7.348-2.939c4.893-0.97,11.256-4.894,15.18-6.848c3.645-1.823,12.344-5.76,17.106-8.259
			c0.426,0.706,1.337,0.999,1.792,0.824l0.133,0.205v0.014c-9.552,5.659-19.355,10.993-23.924,12.595
			c-9.803,3.438-9.317,5.393-13.726,6.863c-4.409,1.47-5.878,3.924,0,5.393c5.878,1.47,28.906-0.499,31.845,0
			c2.939,0.485,9.303-0.984,9.303-0.984s5.393-0.984,8.332-0.984c2.939,0,13.226,0,15.181,0c1.97,0,4.909-0.97,6.863-0.97
			c1.955,0,20.574-2.454,25.968-2.454C106.617,397.873,107.866,398.095,108.469,398.387z"/>
		<path style="fill:#595959;" d="M103.369,218.102c1.66,2.381,1.719,7.569,1.484,9.42c-1.264-0.97-2.645-2.087-3.982-3.189
			l0.044-0.118c0.985-1.705-0.735-8.817-1.47-9.552c-0.735-0.735-0.234-2.204-0.234-3.174c0-0.984-1.719-2.939-2.454-3.674
			c-0.735-0.735-1.469-3.924-2.204-6.613c-0.735-2.704-7.098-11.271-7.348-13.476c-0.25-2.204-1.47-8.332-2.689-11.271
			c-1.235-2.939-4.909-12.491-5.393-15.666c-0.5-3.189-4.409-15.195-4.409-16.665c0-1.47-2.204-6.613-4.894-7.348
			c-1.205-0.323-1.235-3.674-5.143-3.674c-3.924,0-3.924,1.234-5.878,2.939c-1.808,1.573-4.218,0.69-5.923-1.175
			c-0.161-0.162-0.309-0.339-0.456-0.53c0,0,2.455-2.204,5.143-3.439c2.705-1.22,5.394-1.47,9.318-0.97
			c3.908,0.485,5.143,2.204,6.363,3.909l0.205,0.309c-1.132-0.191-1.925-0.309-1.925-0.309s1.469,3.674,2.704,4.173
			c0.646,0.25,1.087,0.235,1.528,0.059c0.926,1.764,1.91,3.747,2.631,5.57c1.47,3.674,4.893,20.089,5.878,20.824
			c0.969,0.735,5.628,17.635,6.128,19.589c0.485,1.955,5.143,12.741,5.378,13.476c0.25,0.735,1.235,4.159,1.97,6.114
			c0.735,1.969,1.704,3.924,2.439,4.173c0.735,0.235,1.47,5.629,1.47,5.629S101.649,215.648,103.369,218.102z"/>
		<path style="fill:#595959;" d="M104.853,227.522l-0.014,0.132c-0.25,1.66-4.688-1.573-3.968-3.321
			C102.208,225.435,103.589,226.552,104.853,227.522z"/>
		<path style="fill:#595959;" d="M104.589,158.335c0.735,1.955,0.985,3.674-1.47,3.674c-2.439,0-6.113-3.674-3.674-3.924
			C100.459,157.996,103.854,156.38,104.589,158.335z"/>
		<polygon style="fill:#595959;" points="101.738,309.273 101.723,309.361 101.723,309.405 101.708,309.391 101.634,309.302 
			101.62,309.288 		"/>
		<polygon style="fill:#595959;" points="101.723,309.405 101.649,309.42 101.708,309.391 		"/>
		<polygon style="fill:#595959;" points="101.634,309.302 101.708,309.391 101.649,309.42 101.533,309.479 101.591,309.377 
			101.591,309.361 		"/>
		<polygon style="fill:#595959;" points="101.634,309.302 101.591,309.361 101.606,309.288 101.62,309.288 		"/>
		<path style="fill:#595959;" d="M97.241,294.754c0.25,1.969,0,7.348,0,8.083c0,0-1.47,1.47-2.204,0.984
			c-0.735-0.485-0.735-2.69-1.954-2.454c-1.235,0.25-10.287,3.439-13.226,3.924c-2.939,0.485-9.068,2.69-12.007,3.674
			c-2.939,0.984-8.817,2.454-10.771,3.924c-1.97,1.47-11.022,2.69-12.491,2.69c-1.47,0-1.22,0.984,3.674,5.878
			c4.893,4.894,5.393,12.491,5.143,18.37c-0.25,5.878-6.863,25.967-7.098,28.171c-0.25,2.204-0.985,2.689-0.735,4.644
			c0.117,1.013,0.117,2.233,0.014,3.262c-0.588,0.382-1.102,0.69-1.499,0.911c-0.308,0.176-0.646,0.353-1.014,0.558
			c-0.338-0.544-0.382-1.307,0.294-2.278c1.704-2.454,0.735-4.658,0.485-5.629c-0.25-0.984-0.25-1.969,1.719-8.083
			c1.954-6.128,4.643-23.028,4.159-28.656c-0.5-5.643-7.098-14.696-10.037-16.9c-2.939-2.204-0.5-3.438,4.894-3.189
			c5.378,0.25,7.832-0.485,11.506-1.955c3.674-1.47,10.287-4.409,18.135-6.128c7.833-1.719,19.589-7.348,20.809-9.552
			C96.271,292.8,97.006,292.8,97.241,294.754z"/>
		<path style="fill:#595959;" d="M93.934,218.674l-0.279,0.398c-0.705-0.485-1.396-0.53-1.792,0
			c-0.735,0.984-3.189,3.189-4.659,4.908c-1.47,1.705-0.485,3.674,0.25,4.644c0.735,0.984-1.719,0.735-2.705-0.485
			c-0.969-1.22-1.954-2.454-3.424-1.47c-1.469,0.984-0.735,5.629,0,8.332c0.735,2.689,1.47,2.204,2.939,1.955
			c1.47-0.25,1.219-0.735,2.454-2.454c1.22-1.705,4.409,1.47,6.113,1.234c1.72-0.25,0,1.469-2.204,2.44
			c-0.779,0.337-1.763,0.69-2.806,0.999c0.293-0.499,0.617-0.499-0.617-0.499c-1.954,0-3.424-0.25-3.424,1.22v0.177
			c-0.367,0.044-0.706,0.073-0.985,0.073c-1.72,0-3.924-1.234-3.424-4.173c0.485-2.939,0.235-6.613,0-8.318
			c-0.25-1.719,2.204-3.439,4.159-3.924c0.102,0.309,0.264,0.221,0.411-0.146c2.028-0.941,5.319-5.086,6.686-6.217
			C91.907,216.293,91.891,216.896,93.934,218.674z"/>
		<path style="fill:#595959;" d="M90.878,245.289c1.954,0.97-0.25,2.44-2.455,1.705c-2.204-0.735-2.939,0.25-3.674-1.22
			c-0.705-1.411-0.955-4.188-0.969-5.702c1.131-0.148,2.631-0.471,4.041-0.897c-0.162,0.28-0.309,0.735-0.133,1.455
			C88.189,242.585,88.585,244.142,90.878,245.289z"/>
		<path style="fill:#595959;" d="M87.204,238.676c1.234,0,0.911,0,0.617,0.499c-1.411,0.426-2.91,0.749-4.041,0.897v-0.177
			C83.78,238.426,85.25,238.676,87.204,238.676z"/>
		<path style="fill:#595959;" d="M83.78,216.383c0.735,1.22,0.969,2.689,0.735,4.658c-0.148,1.117-0.367,2.072-0.573,2.543
			c-0.147,0.057-0.279,0.116-0.411,0.146c-0.25-0.735-2.939-7.348-3.424-9.552c-0.5-2.204-6.128-15.915-6.128-15.915
			s-1.47-2.704-1.47-3.438c0-0.735-4.409-10.772-4.409-10.772l-1.47-1.955v-1.47l-0.735-2.454c0,0-7.598-17.635-8.568-19.589
			c-0.985-1.969-6.613-14.945-6.613-14.945c-2.454,0-3.689,0.25-4.659-0.735c-0.985-0.984-2.689-1.955-0.25-3.424
			c1.587-0.956,3.086-1.602,4.409-1.602c0.705,0,1.367,0.191,1.97,0.617c1.704,1.22,1.954,2.454,2.204,4.658
			c0.235,2.204,4.894,12.727,6.613,18.12c1.704,5.393,5.144,13.711,6.113,15.916c0.985,2.204,1.72,3.438,2.204,4.658
			c0.5,1.22,0.735,1.719,1.235,2.689c0.485,0.984,3.424,8.332,3.909,10.537c0.5,2.204,0.985,1.719,1.72,3.424
			c0.735,1.719,2.939,8.817,3.924,10.287C81.076,210.255,83.045,215.163,83.78,216.383z"/>
		<path style="fill:#595959;" d="M83.53,223.73c0.132-0.03,0.264-0.089,0.411-0.146C83.795,223.951,83.632,224.039,83.53,223.73z"/>
		<path style="fill:#595959;" d="M73.449,134.146c0.617,0.897,1.44,2.308,2.308,3.924c-0.441,0.177-0.883,0.191-1.528-0.059
			c-1.235-0.499-2.704-4.173-2.704-4.173S72.317,133.955,73.449,134.146z"/>
		<path style="fill:#595959;" d="M70.274,359.342c0.206,0.544-0.235,1.63-1.69,3.262c-2.087,2.351-12.682,9.302-23.586,15.798
			l-0.133-0.205l0.206-0.162c0.236-0.353,0.426-1.161,0.514-2.131c5.819-3.762,19.575-14.284,19.575-14.284
			C67.629,359.151,69.893,358.445,70.274,359.342z"/>
		<path style="fill:#595959;" d="M45.586,375.903c-0.088,0.97-0.279,1.778-0.514,2.131l-0.206,0.162
			c-0.455,0.175-1.366-0.118-1.792-0.824c0.367-0.205,0.705-0.382,1.014-0.558C44.484,376.594,44.998,376.285,45.586,375.903z"/>
	</g>
</g>
</svg>
