<?xml version="1.0" encoding="iso-8859-1"?>
<!-- Generator: Adobe Illustrator 18.1.1, SVG Export Plug-In . SVG Version: 6.00 Build 0)  -->
<svg version="1.1" id="_x31_1" xmlns="http://www.w3.org/2000/svg" xmlns:xlink="http://www.w3.org/1999/xlink" x="0px" y="0px"
	 viewBox="0 0 512 512" style="enable-background:new 0 0 512 512;" xml:space="preserve">
<g>
	<path style="fill:#FFFFFF;" d="M179.615,209.019c0,0-10.376,8.738-16.929,10.786c-6.553,2.048-27.852,14.336-34.815,22.527
		c-6.963,8.192-13.926,18.022-15.564,19.251s-8.192-2.867-11.468-8.192c-3.277-5.325-24.575-27.852-29.9-20.48
		c-5.325,7.373-12.697,15.564-16.793,18.432c-4.096,2.867-7.782,11.059-7.373,13.926c0.41,2.867,2.867,52.837,5.734,60.21
		c2.867,7.373,22.528,30.719,28.671,38.501c6.144,7.782,13.107,20.479,14.745,22.937c1.638,2.457,1.229,5.734,4.096,11.469
		c2.867,5.734,13.107,36.863,19.251,45.874c6.144,9.011,13.926,12.697,19.251,10.649c5.325-2.048,8.192-18.841,14.745-15.974
		c6.554,2.867,0.41,4.096,12.697,8.601c12.288,4.505,38.501,7.373,55.704,3.686s25.81-6.553,29.49-4.505
		c3.68,2.047,5.325,7.782,4.915,9.83c-0.41,2.048-3.686,17.203-11.469,22.118s-15.974,18.022-14.336,23.347
		c1.638,5.325,6.144,11.469,17.612,6.144c11.469-5.325,37.682-27.033,57.752-28.671c20.07-1.638,46.693,0,51.199,1.229
		c4.505,1.229-9.011-11.878-10.24-12.288c-1.229-0.41,11.878-0.819,15.564,0c3.686,0.819,13.107,1.638,14.336,1.638
		c1.229,0,12.044-2.661,15.238-5.017c3.193-2.356-21.792-7.271-23.839-8.5c-2.048-1.229,6.553-5.734-1.229-7.373
		c-7.782-1.638-13.926-2.048-23.347,0c-9.421,2.048-13.516,1.229-10.649-0.819s28.671-15.974,40.549-31.538
		c11.878-15.565,22.118-39.321,10.24-46.693c-11.878-7.373-51.199,0-65.944-1.638c-14.745-1.638,7.373-9.421,11.878-15.155
		c4.505-5.734,15.974-27.852,11.469-50.789c-4.506-22.937-1.229-26.623-1.229-26.623s6.144,10.649,9.011,18.841
		c2.867,8.192-0.819,21.299,12.697,33.586c13.516,12.288,20.479,14.745,20.889,10.649c0.41-4.096,18.022-43.417,29.081-52.837
		c11.059-9.421,19.251-11.059,20.479-2.048c1.229,9.011,1.229,38.501,8.601,44.236c5.325,4.506,9.011,2.867,9.011,2.867
		s6.963,4.915,7.782,9.011c0.819,4.096,6.144,13.107,8.192,11.469c2.048-1.638,1.949-2.934,1.949-2.934s-3.611-4.777-4.816-15.498
		c-1.144-10.186,0.056-26.137,2.184-33.586c4.368-15.291-6.553-44.782-11.294-51.675c-4.741-6.893-32.394-12.768-41.133,0.339
		c-8.739,13.107-19.66,13.107-28.398,13.107s-10.923-22.937-9.83-39.321s1.093-20.752-9.11-22.457
		c3.997-4.982,8.017-38.709,3.65-44.169c-4.368-5.461,0-36.044-9.384-54.951c25.569-44.029,0.645-40.074-9.185-40.074
		c-9.83,0-16.384-9.83-24.811-10.716c-8.427,1.299-63.661-34.066-78.952-47.173c-15.291,0-7.882,45.945-7.882,45.945
		s-16.148-9.901-17.612,1.502c-1.464,11.403-1.813,82.53-8.366,106.559C205.829,180.62,191.631,200.281,179.615,209.019z"/>
	<path style="fill:#FFFFFF;" d="M212.382,156.592c4.966-17.385,10.921-98.302,8.366-106.559
		c-2.555-8.257,14.569-11.403,17.612-1.502c3.043,9.9,4.603,41.435,19.894,68.741c15.291,27.306-24.03,56.796-29.49,63.35
		l-61.165,34.952C167.599,215.572,208.014,171.883,212.382,156.592z"/>
	<g>
		<path style="fill:#231815;" d="M277.272,62.047c-1.638,2.458-7.373,9.011,4.915,8.192c12.288-0.819,16.384-4.096,20.479,4.915
			c4.096,9.011-4.915,20.479-8.192,33.586c-3.277,13.107,2.458,22.937,4.096,16.384c1.638-6.553,2.458-10.24,5.734-23.347
			c3.277-13.107,7.373-20.479,4.096-28.671c-3.277-8.192-11.469-7.782-21.299-9.421C277.272,62.047,277.272,62.047,277.272,62.047z"
			/>
		<path style="fill:#231815;" d="M338.301,57.951c7.283,1.214,20.889-2.867,26.214,0.41c5.325,3.277,10.24,15.974,6.963,22.937
			c-3.277,6.963-2.867,8.601-5.325,6.963c-2.457-1.638-2.048-0.41,0-5.734c2.048-5.325,0.819-19.66-2.867-20.889
			c-3.686-1.229-11.059-0.41-18.022,0.819c-6.963,1.229-9.011,0.819-11.059-0.41C332.157,60.818,333.386,57.132,338.301,57.951z"/>
		<path style="fill:#231815;" d="M267.032,124.714c-2.195-3.074-16.793-30.31-16.793-30.31s-10.24-32.767-11.878-45.874
			c-1.638-13.107-0.41-34.815,2.458-39.73c2.867-4.915,9.421-4.505,11.878-0.819c0.557,0.835,2.25,2.344,4.586,4.195
			c7.977,6.323,23.468,16.655,26.953,17.923c4.505,1.638,11.878,5.734,15.564,8.601c3.686,2.867,12.697,9.011,18.022,11.059
			c5.325,2.048,4.096-2.048,7.373,0c3.277,2.048,5.734-2.048,1.229-3.277c-4.505-1.229-7.782-2.048-12.288-3.277
			c-4.506-1.229-13.926-7.782-16.384-8.601c-2.458-0.819-7.782-4.096-9.421-4.915c-1.638-0.819-4.096-3.277-7.373-4.505
			c-3.277-1.229-7.373-4.915-11.469-6.144c-4.096-1.229-10.24-12.697-16.384-15.155c-6.144-2.458-11.469-6.144-15.974-2.048
			c-4.506,4.096-6.144,9.011-6.144,11.059c0,2.048,0.41,17.612,0.819,21.708c0.41,4.096,3.686,20.889,4.505,27.852
			c0.819,6.963,9.421,22.937,10.24,27.442c0.819,4.506,4.096,11.059,5.325,14.745c1.229,3.686,6.144,11.878,8.192,16.793
			c2.048,4.915,0.41,8.601,4.096,8.601C267.851,130.039,269.08,127.581,267.032,124.714z"/>
		<path style="fill:#231815;" d="M279.729,85.803c-1.229-1.229-1.394-6.937,2.457-5.734c6.553,2.048,5.325,6.144,3.686,8.601
			c-1.638,2.458-2.867,2.048-4.915,2.048C278.91,90.718,279.729,85.803,279.729,85.803z"/>
		<path style="fill:#231815;" d="M224.844,56.312c-2.458-9.011-0.819,8.192-1.638,16.384c-0.819,8.192-0.819,50.789-4.096,66.354
			c-3.277,15.564-9.011,31.129-17.203,37.682c-8.192,6.553-6.553,1.638-2.458-3.277c4.096-4.915,15.564-31.948,16.384-40.959
			c0.819-9.011,3.747-54.863,3.277-64.715c-0.274-5.734,2.184-13.379,1.638-17.748s-0.002-5.462,2.184-5.189
			C225.118,45.117,225.937,52.49,224.844,56.312z"/>
		<path style="fill:#231815;" d="M340.47,451.178c7.84-0.603,10.251-6.032,19.902-3.619c9.648,2.413,15.075,0.602,8.441-1.206
			c-6.634-1.808-8.441-2.413-13.87-1.808c-5.425,0.602-9.046,3.014-15.68,3.617C332.631,448.765,340.47,451.178,340.47,451.178z"/>
		<path style="fill:#231815;" d="M334.44,459.619c9.648-1.808,23.518-4.221,33.77-1.808c10.253,2.413,12.062,6.032,23.52,7.237
			c11.457,1.205,8.441-3.621,1.205-4.222c-7.237-0.601-10.249-1.205-14.472-3.014c-4.222-1.81-9.649-6.032-16.283-5.427
			c-6.633,0.602-22.313,3.617-28.343,4.221C327.807,457.208,334.44,459.619,334.44,459.619z"/>
		<path style="fill:#231815;" d="M320.57,467.459c12.06-4.824,45.228,0.603,54.275,2.413c9.044,1.81,6.029,3.015,1.205,3.015
			c-4.824,0-31.961-6.634-42.213-5.427c-10.253,1.206-10.253,3.619-15.076,4.222C313.937,472.285,320.57,467.459,320.57,467.459z"/>
		<path style="fill:#231815;" d="M287.401,474.696c-6.633,3.016-12.664-1.809-3.617-5.427c9.046-3.617,71.765-32.564,87.443-51.863
			c15.678-19.297,18.692-32.563,15.075-37.388c-3.618-4.826,2.413-13.872,4.222-3.016c1.81,10.856-0.001,28.343-18.695,45.229
			c-18.694,16.886-54.879,36.182-63.32,39.801C300.066,465.651,287.401,474.696,287.401,474.696z"/>
		<path style="fill:#231815;" d="M246.997,464.445c5.427-8.443,2.413-18.694,7.84-15.68c5.427,3.014,9.649,4.825,8.443,8.443
			c-1.206,3.618-0.603,6.03-15.077,19.9c-14.473,13.87-22.311,27.139-10.854,30.153c11.457,3.014,49.45-30.756,75.984-31.359
			c26.534-0.603,35.58,0.603,41.007,1.809c5.427,1.206,6.032,7.237-4.221,5.427c-10.253-1.81-29.551-6.032-41.612-1.81
			c-12.061,4.222-41.005,21.71-57.891,28.343c-16.886,6.633-27.137-2.413-27.137-8.441c0-6.032,15.076-24.124,20.504-26.535
			C249.41,472.285,246.997,464.445,246.997,464.445z"/>
		<path style="fill:#231815;" d="M167.999,445.751c13.267,6.029,80.203,3.619,119.402-16.283
			c39.199-19.902,45.231-21.71,48.245-26.535c3.014-4.824,5.425,0,3.014,3.016c-2.411,3.016-15.075,18.696-59.098,32.564
			c-44.023,13.872-71.16,19.9-94.679,15.68c-23.52-4.221-30.756-7.84-27.74-9.648C160.16,442.735,167.999,445.751,167.999,445.751z"
			/>
		<path style="fill:#231815;" d="M196.944,385.445c12.062,3.619,44.023-10.253,50.053-15.68c6.03-5.427,23.52-12.664,37.993-9.046
			c14.473,3.619,89.251,3.619,95.884,2.413c6.633-1.206,7.237,9.046,7.237,12.665c0,3.617-7.84-5.429-7.84-5.429
			s0.002-4.824-18.091-1.81c-18.092,3.016-45.831,4.221-63.32,1.206c-17.489-3.014-27.139-6.032-39.199-0.603
			c-12.06,5.429-28.343,18.695-42.213,20.503c-13.87,1.81-14.473,1.81-21.107,0C189.707,387.858,196.944,385.445,196.944,385.445z"
			/>
		<path style="fill:#231815;" d="M342.883,307.652c0.602,9.649,3.619,37.389-6.633,46.434c-10.253,9.046-12.664,7.841-15.077,6.032
			c-2.413-1.81-3.619-6.03,5.427-8.443c9.046-2.413,11.457-18.091,12.664-27.137c1.206-9.046,1.206-18.695,1.809-23.52
			C341.677,296.195,342.883,307.652,342.883,307.652z"/>
		<path style="fill:#231815;" d="M388.68,263.565c11.469-0.819,23.756-12.288,31.129-18.841c7.373-6.553,25.395-1.638,32.767,11.469
			c7.373,13.107,11.469,23.756,8.192,38.501c-3.277,14.745-5.734,50.789,0.819,58.981c6.553,8.192,9.83,0,5.734-4.915
			c-4.096-4.915-5.734-13.926-4.915-22.937c0.819-9.011,4.915-27.033,3.277-38.501c-1.638-11.469-4.096-31.948-12.288-39.321
			c-8.192-7.373-29.491-12.288-38.501-4.096c-9.011,8.192-22.118,14.745-27.033,14.745S388.68,263.565,388.68,263.565z"/>
		<path style="fill:#231815;" d="M329.699,231.617c9.011,0.819,9.83,9.011,10.649,18.841c0.819,9.83,11.469,63.077,23.756,75.365
			c12.288,12.288,15.564,12.288,20.479,2.458c4.915-9.83,15.564-35.225,26.214-43.417c10.649-8.192,19.66-9.011,22.118-3.277
			c2.458,5.734,0.819,8.192-2.457,5.734c-3.277-2.457-5.734-9.011-13.107-2.457c-7.373,6.553-18.022,18.022-22.118,30.31
			c-4.096,12.288-9.011,28.671-16.384,28.671s-21.299-15.564-25.395-26.214c-4.096-10.649-17.203-38.501-17.203-45.874
			c0-7.373-2.457-22.937-2.457-25.395S329.699,231.617,329.699,231.617z"/>
		<path style="fill:#231815;" d="M348.54,185.743c12.288,1.638,26.214,5.734,27.033,22.118c0.819,16.384-0.819,52.428,5.734,59.8
			c-1.638,8.192-8.192,4.915-8.192-1.638c0-6.553-2.458-43.416-2.458-53.247s-7.373-19.66-16.384-20.48
			c-9.011-0.819-14.745,0-13.107-2.457C342.806,187.381,348.54,185.743,348.54,185.743z"/>
		<path style="fill:#231815;" d="M359.19,100.548c10.649,3.277,8.192,4.915,9.011,16.384c0.819,11.469-4.915,32.767,1.638,49.151
			c6.553,16.384,1.638,20.479-0.819,28.671c-2.457,8.192-4.096,14.745-4.096,4.915c0-9.83,4.915-12.288,3.277-23.756
			c-1.638-11.469-7.373-22.937-8.192-36.863c-0.819-13.926,0.819-22.118-0.819-27.852
			C357.551,105.463,359.19,100.548,359.19,100.548z"/>
		<path style="fill:#231815;" d="M106.063,269.299c-4.915,0.819-6.553,1.638-10.649-13.107
			c-4.096-14.745-8.192-16.384-15.564-18.022c-7.373-1.638-10.649,2.458-22.118,13.926c-11.468,11.469-9.011,22.118-8.192,38.501
			c0.819,16.384,3.277,36.863,6.554,39.321c3.277,2.457,30.31,36.863,33.586,42.597c3.277,5.734-0.819-7.373,1.638-7.373
			c2.458,0,4.915,18.022,5.734,20.48c0.819,2.458-2.458,9.011-4.915,2.458c-2.457-6.554-13.926-27.033-22.937-36.044
			c-9.011-9.011-19.66-23.756-21.299-32.767c-1.638-9.011-3.277-40.959-4.915-54.066c-1.638-13.107,14.745-16.384,21.299-30.31
			c6.553-13.926,22.118-8.192,27.852,0.819c5.734,9.011,20.479,17.203,26.214,17.203
			C124.085,252.916,106.063,269.299,106.063,269.299z"/>
		<path style="fill:#231815;" d="M234.674,164.444c5.734-9.011,7.373-16.384,9.83-16.384c2.458,0-2.458,30.31-15.564,41.778
			c-13.107,11.468-54.066,31.129-66.354,33.586c-12.288,2.458-49.97,40.14-61.438,58.981
			c-11.468,18.841-17.203,29.491-13.926,45.055c3.277,15.565,12.288,69.63,19.66,82.737c7.373,13.107,9.83,31.129,22.937,40.14
			c13.107,9.011,18.841-3.277,18.841-11.469s-9.011-19.66-3.277-14.745c5.734,4.915,7.373,9.011,12.288,7.373
			c4.915-1.638,5.734,3.277,0.819,6.554c-4.915,3.277-9.011,5.734-9.83,10.649c-0.819,4.915-4.915,13.926-17.203,9.011
			s-15.564-10.649-19.66-22.118c-4.096-11.469-23.756-71.269-26.214-79.461c-2.458-8.192-3.277-48.332-2.458-56.523
			c0.819-8.192,8.192-22.118,14.745-28.671c6.553-6.553,24.575-29.49,31.948-36.863c7.373-7.373,25.395-22.118,34.406-22.118
			c9.011,0,39.321-10.649,53.247-24.575S234.674,164.444,234.674,164.444z"/>
		<path style="fill:#231815;" d="M433.735,280.768c0,2.458,0,13.926,2.457,30.31c2.458,16.384,6.553,17.203,6.553,17.203
			s0.819,9.011-4.096,2.458c-4.915-6.553-9.011-8.192-6.553-22.118c2.458-13.926-2.457-26.214-2.457-26.214L433.735,280.768"/>
		<path style="fill:#231815;" d="M439.47,291.417c0,8.232,3.277,35.225,10.649,37.682c5.734,2.457,3.277,6.553,0,5.734
			c-3.277-0.819-10.649-14.745-11.469-27.033c-0.819-12.288-4.096-18.022-4.096-18.022S439.47,288.96,439.47,291.417z"/>
		<path style="fill:#231815;" d="M450.119,296.332c1.638,5.734-1.638,42.597,11.469,48.332c5.734,4.096,0,4.915,0,4.915
			s-7.373-5.734-11.469-20.479c-4.096-14.745-3.277-29.491-4.096-34.406C445.204,289.779,450.119,296.332,450.119,296.332z"/>
		<path style="fill:#231815;" d="M150.299,400.368c0.819-8.192,1.638-23.756,1.638-23.756s13.107-61.439,18.022-68.811
			c4.915-7.373,7.373-20.479,19.66-27.852c12.288-7.373,10.649-9.83,30.31-21.299c19.66-11.469,55.704-42.597,63.077-49.97
			c7.373-7.373,15.564-19.66,23.756-26.214c8.192-6.553,20.48-15.564,22.118-22.937c1.638-7.373,1.638-9.83,3.277-19.66
			c1.638-9.83,3.277-27.033,0.819-30.31c0,0-12.288,2.458-12.288,10.649c0,8.192,0.819,12.288,0,16.384
			c-0.819,4.096-8.192,17.203-10.649,23.756c-2.458,6.553-4.096,12.288-9.83,18.022c-5.734,5.734-1.638,2.458-10.649,9.011
			c-9.011,6.553-10.649,6.553-17.203,14.745c-6.553,8.192-10.649,10.649-13.926,14.745c-3.277,4.096-5.734,8.192-15.564,12.288
			c-9.83,4.096-13.926,7.373-21.299,10.649c-7.373,3.277-13.926,9.83-18.022,13.107c-4.096,3.277-4.096,3.277-10.649,7.373
			c-6.554,4.096-9.011,4.096-18.841,13.107c-9.83,9.011-10.649,4.915-16.384,16.384c-5.734,11.469-5.734,44.236-5.734,50.789
			c0,6.553-0.819,15.564-0.819,21.299c0,5.734-6.554,21.299-6.554,21.299s0,16.384,1.638,21.299
			C147.841,409.379,150.299,400.368,150.299,400.368z"/>
	</g>
</g>
</svg>
