<?xml version="1.0" encoding="iso-8859-1"?>
<!-- Generator: Adobe Illustrator 21.1.0, SVG Export Plug-In . SVG Version: 6.00 Build 0)  -->
<svg version="1.1" id="_x36_" xmlns="http://www.w3.org/2000/svg" xmlns:xlink="http://www.w3.org/1999/xlink" x="0px" y="0px"
	 viewBox="0 0 512 512" style="enable-background:new 0 0 512 512;" xml:space="preserve">
<g>
	<path style="fill:#FFFFFF;" d="M224.646,122.111c-1.943-1.943-19.431-23.965-23.317-31.413
		c-3.886-7.449-17.164-40.481-18.135-45.986c-0.971-5.505-2.267-33.68,0.648-32.061c2.915,1.619,27.851,18.135,32.385,22.669
		c1.295,1.295,4.858,7.125,9.068,15.868c4.21,8.744,9.068,24.936,11.658,32.708c2.591,7.772,6.153,16.516,8.744,24.612
		c2.591,8.096,2.267,4.858,3.562,8.42c1.295,3.562,9.392,2.591,10.687,2.267c1.295-0.324,3.238-8.096,1.619-14.249
		s2.915-29.794,5.505-36.595c2.591-6.801,13.278-30.118,15.221-33.68c1.943-3.562,11.335-14.897,11.335-14.897l19.107-7.772
		l7.125-2.267c0,0-0.971,16.192-1.295,23.641c-0.324,7.448-0.972,19.755-8.744,36.918c-7.772,17.164-17.164,33.356-23.317,40.157
		c-6.153,6.801-16.192,13.925-12.63,16.84c3.562,2.915,12.954,11.335,11.658,26.879c-1.295,15.545,11.335,15.221,18.783,18.459
		c7.448,3.238,11.659,1.619,18.459-2.267c6.801-3.886,21.05-10.039,23.641-10.363c2.591-0.324,5.505,0.972,11.011,5.829
		s8.42,8.744,7.125,10.687s-2.915,7.125-6.801,6.801c-3.886-0.324-8.42-1.943-8.744-2.915c-0.324-0.971-2.591,4.21-7.448,4.21
		c-4.858,0-9.715-0.324-9.715-0.324s-9.391,7.125-13.925,11.982c-4.534,4.858-12.63,13.278-16.84,11.982
		c-4.21-1.295-11.011-6.801-11.011-6.801s-14.897-16.516-16.192-13.925c-1.295,2.591-12.306,20.078-16.192,26.555
		c-3.886,6.477-17.488,26.555-21.698,43.719c-4.21,17.164-6.801,24.612-2.591,31.089c4.21,6.477,10.363,1.943,24.936,4.21
		c14.573,2.267,34.328,14.249,44.367,26.232c10.039,11.982,14.897,22.345,15.868,42.424c0.972,20.078-2.267,37.89-4.21,44.691
		c-1.943,6.801-3.562,9.392-5.505,14.573c-1.943,5.182-7.449,9.068-8.096,13.925s-0.648,9.068,2.591,11.335
		c3.238,2.267,4.534,0.648,4.534,6.153s4.21,12.306,4.21,12.306s3.886,4.21,10.363,4.21s10.363-0.324,12.306,2.267
		c1.943,2.591,1.619,5.829,1.619,5.829s-0.971,3.238-2.915,5.505c-1.943,2.267-4.858,3.562-10.687,4.858
		c-5.829,1.295-10.837,2.312-17.488-1.619c-11.659-1.943-16.84-5.181-18.459-11.011c-1.619-5.829,0.324-13.278-4.534-18.459
		c-4.858-5.181-10.363-6.477-10.039-11.335c0.324-4.858,5.181-12.306,6.801-17.488c1.619-5.182-0.648-14.897-0.648-14.897
		s-0.324-7.772-0.648-20.078c-0.324-12.306,0-9.715-1.943-17.488c-1.943-7.772-41.128-37.242-59.911-34.975
		c-21.374,5.182-33.68,18.459-36.595,28.822c-2.915,10.363-6.153,18.135-3.238,24.612s-0.324,14.573,3.886,22.022
		c4.21,7.448,5.182,10.687,11.335,15.868c6.153,5.182,6.153,11.011,9.715,15.221c3.562,4.21,3.238,9.715-0.648,14.249
		c-3.886,4.534-17.488,10.687-18.783,18.135c-1.295,7.448-6.477,14.249-9.068,20.726c-2.591,6.477-2.915,6.153-6.801,8.096
		c-3.886,1.943-5.182,0.648-7.448-1.619c-2.267-2.267-4.21-1.943-6.153,1.295c-1.943,3.238,1.943,5.505-4.534,1.619
		c-6.477-3.886-10.039-8.096-9.391-11.335c0.648-3.238-0.324-5.505,4.858-8.096c5.182-2.591,12.63-6.477,14.897-10.363
		c2.267-3.886,10.687-15.221,10.363-19.431c-0.324-4.21-1.619-10.039-5.182-12.63c-3.562-2.591-7.448-8.744-7.448-8.744
		s2.915-1.619-2.915-5.181c-5.829-3.562-21.05-18.135-26.555-38.214s-3.562-34.975-3.562-34.975s4.858-25.584,8.42-30.118
		c3.562-4.534,5.182-8.42,5.182-8.42s-2.591-5.829-2.591-7.772c0-1.943-17.812-32.384-11.335-70.274
		c6.477-37.89,12.954-43.719,14.249-47.281c1.295-3.562-0.324-5.182-0.324-5.182s-8.744-4.534-10.039-13.278
		c-1.295-8.744,2.591-14.573,6.801-15.221c4.21-0.648,6.477-1.619,14.573-2.591c8.096-0.972,18.783-0.648,23.965-4.21
		s14.897-10.687,18.135-14.897c3.238-4.21,8.744-6.801,10.687-7.125c1.943-0.324,11.658-2.915,11.658-2.915s2.591-2.591,5.505-5.181
		C220.436,123.082,224.646,122.111,224.646,122.111z"/>
	<g>
		<path style="fill:#231815;" d="M227.063,123.045c-7.019-7.845-21.884-24.774-30.142-46.245s-12.387-30.142-11.561-34.684
			c0.826-4.542,5.781-0.826,12.387-2.477c6.606-1.652,2.064-3.303,2.064-3.303s-7.845-6.194-7.019-9.91
			c0.826-3.716,6.606-1.652,6.606-1.652s11.974,6.193,21.471,21.058c9.497,14.865,11.148,25.187,11.148,25.187
			s6.193,24.774,7.019,28.49c0.826,3.716,0.413-13.213-2.89-22.71c-3.303-9.497-8.671-27.252-12.387-33.445
			c-3.716-6.194-11.148-14.039-19.819-19.819c-8.671-5.781-13.213-8.258-17.342-12.387c-4.129-4.129-5.368-1.652-5.368-1.652
			s0,28.49,0.826,35.51c0.826,7.019,9.497,28.49,12.387,34.684c2.89,6.194,7.432,16.516,12.8,22.71
			c5.368,6.193,11.561,15.69,15.277,18.993C226.237,124.697,227.063,123.045,227.063,123.045z"/>
		<path style="fill:#231815;" d="M245.231,95.794c0,0,4.129,17.755,5.368,20.645c1.239,2.89,1.077,12.063,0,9.91
			c-2.477-4.955-2.064,4.955-2.89,1.652c-0.826-3.303,1.652-4.129,0-10.323C246.057,111.484,245.231,95.794,245.231,95.794z"/>
		<path style="fill:#231815;" d="M259.27,99.923c-0.826,4.955-4.129,13.213-0.826,11.561c3.303-1.652,9.084-2.064,7.019-6.606
			c-2.065-4.542-2.89-18.581,0-28.49c2.89-9.91,13.626-35.923,18.993-43.355c5.368-7.432,10.323-9.91,11.561-10.323
			c1.239-0.413,6.193,0.826,6.193,0.826s6.194-3.303,8.671-4.955c2.477-1.652,2.477-2.477,4.542,3.303
			c2.065,5.781-0.413,25.6-1.652,33.858c-1.239,8.258-13.626,29.316-16.516,35.923c-2.89,6.607-16.103,22.297-20.232,25.6
			c-4.129,3.303-7.432,4.955-7.432,4.955s2.477,6.194,5.368,3.716s11.148-14.039,13.626-17.342c2.478-3.303,12.8-18.581,16.516-25.6
			c3.716-7.019,8.671-21.058,12.387-33.445c3.716-12.387,6.193-32.207,6.193-36.748c0-4.542,0.826-7.845-0.826-10.323
			C321.205,0,319.554,0,319.554,0l-1.652,3.716c0,0-2.065,3.716-9.084,7.432c-7.019,3.716-9.497,3.716-14.452,4.955
			c-4.955,1.239-7.019,8.671-9.497,11.561c-2.477,2.89-19.406,37.574-20.645,45.007C262.986,80.103,259.27,99.923,259.27,99.923z"/>
		<path style="fill:#231815;" d="M243.992,170.529c-4.542-1.652-6.607-8.258-5.368-11.974c1.239-3.716,3.303-7.432,5.368-7.432
			s9.497,1.239,9.497,1.239l3.303,5.781c0,0,1.239,2.89,0,7.432s-6.194,6.606-6.194,6.606L243.992,170.529z"/>
		<path style="fill:#231815;" d="M284.044,168.052c1.442-4.327,2.065-8.671,4.542-11.148c2.478-2.477,3.303-3.303,4.542-0.413
			c1.239,2.89-1.239,6.194-1.652,9.084c-0.413,2.89-4.542,8.671-4.542,8.671S283.218,170.529,284.044,168.052z"/>
		<path style="fill:#231815;" d="M264.224,119.329c2.287,1.906,7.845,2.89,12.8,7.845c4.955,4.955,10.736,25.187,9.91,32.206
			c-0.826,7.019-4.955,17.342-7.019,20.232c-2.065,2.89-6.607,13.626-9.084,14.452S259.27,192,261.747,192
			c2.477,0,2.477,2.064,7.432-1.239c4.955-3.303,3.303-4.129,5.781-7.845c2.477-3.716,6.607-15.277,7.432-18.993
			c0.826-3.716,0.413-15.69-0.413-20.232c-0.826-4.542-2.89-10.736-7.019-13.626c-4.129-2.89-8.258-5.781-9.91-6.606
			C263.399,122.632,261.747,117.265,264.224,119.329z"/>
		<path style="fill:#231815;" d="M204.354,130.89c3.303-2.064,6.606,1.239,3.716,2.89c-2.89,1.652-7.432,2.478-10.736,2.478
			s-10.323,8.258-15.69,13.626c-5.368,5.368-16.516,12.387-22.297,13.626c-5.781,1.239-15.69-0.413-19.819,0
			c-4.129,0.413-10.323,2.89-11.561,6.193c-1.239,3.303-1.239,11.148,2.065,15.277c3.303,4.129,15.69,9.91,19.406,17.342
			c3.716,7.432,6.194,8.671,9.084,12.8c2.89,4.129,9.91,6.606,12.387,3.303c2.477-3.303,5.781-3.716,7.432-5.781
			c1.652-2.065,1.239-1.652-1.652,2.064c-2.89,3.716-6.194,6.606-8.258,7.845c-2.064,1.239-6.194,1.652-9.497-0.413
			c-3.303-2.065-2.89-1.652-5.781-6.194c-2.89-4.542-4.955-10.735-10.323-16.103c-5.368-5.368-11.148-7.845-14.039-10.736
			c-2.89-2.89-5.368-13.626-5.368-18.581c0-4.955,9.497-9.497,12.387-11.148c2.89-1.652,20.232-1.652,24.361-2.89
			c4.129-1.239,14.039-4.129,19.819-9.91c5.781-5.781,11.561-10.322,14.039-11.974C196.508,132.955,204.354,130.89,204.354,130.89z"
			/>
		<path style="fill:#231815;" d="M165.128,182.09c3.716,0.413,7.845,2.89,8.258,7.432c0.413,4.542,0,6.193-2.89,1.652
			S165.128,182.09,165.128,182.09z"/>
		<path style="fill:#231815;" d="M168.018,195.716c2.336,1.752,1.652,7.019,7.019,4.129c5.368-2.89,13.213-10.323,16.516-11.561
			c3.303-1.239,10.736,1.239,15.277,7.019c4.542,5.781,4.542,9.91,1.239,10.735c-3.303,0.826-13.626-4.542-14.039-6.606
			c-0.413-2.065,9.084,7.432,9.91,3.303c0.826-4.129-5.368-10.323-8.671-10.323c-3.303,0-2.477,0-9.084,2.89
			c-6.606,2.89-7.845,6.606-12.387,7.845C169.257,204.387,164.715,193.239,168.018,195.716z"/>
		<path style="fill:#231815;" d="M184.121,206.039c2.89-2.477,7.019,0.413,7.432,2.064c0.413,1.652-4.129-0.826-6.606,0.413
			C182.47,209.755,184.121,206.039,184.121,206.039z"/>
		<path style="fill:#231815;" d="M300.56,169.703c3.303,4.129,7.432,3.716,14.865,0.826c7.432-2.89,9.084-3.303,16.103-7.845
			c7.019-4.542,15.69-5.781,21.058-2.064c5.368,3.716,15.69,9.91,15.69,13.213c0,3.303-4.542,8.671-8.671,10.322
			c-4.129,1.652-10.736-1.652-10.736-1.652s-7.019-10.323-4.129-7.845c2.89,2.477,5.781,9.084,10.736,5.781
			c4.955-3.303,3.303-2.064,2.89-5.368c-0.413-3.303-9.084-9.91-9.084-9.91s2.477-2.477-0.826-3.303
			c-3.303-0.826-8.258,0.413-14.039,2.89c-5.781,2.477-7.432,4.129-11.974,6.606c-4.542,2.478-11.561,3.303-14.864,3.303
			C304.276,174.658,299.321,167.226,300.56,169.703z"/>
		<path style="fill:#231815;" d="M325.747,181.677c5.368,3.716,6.606-2.477,7.845-3.716c1.239-1.239,1.239,2.064,5.368,3.303
			c4.129,1.239,7.019-1.239,7.845,0c0.826,1.239-2.065,3.716-4.129,3.716c-2.065,0-7.019,1.239-10.323,0.826
			c-3.303-0.413-8.671-2.478-10.735-4.129C319.554,180.026,325.747,181.677,325.747,181.677z"/>
		<path style="fill:#231815;" d="M141.108,202.618c-0.292,0.22-0.574,0.352-0.845,0.415c-0.267,0.052-0.493-0.031-0.743-0.094
			c-0.488-0.151-0.979-0.433-1.467-0.789c-0.97-0.703-1.933-1.793-2.957-2.42c-0.252-0.166-0.503-0.314-0.75-0.444l-0.366-0.182
			c-0.032-0.026-0.576-0.22,0.371,0.092c1.141,0.364,1.508,0.475,0.853,0.271c-0.615-0.198-1.204-0.387-1.774-0.57l-0.701-0.232
			l-0.201-0.065l-0.036-0.009l-0.141-0.031c-0.367-0.077-0.665-0.118-0.831-0.088l-0.184,0.182l-0.233,0.367
			c-0.152,0.274-0.295,0.607-0.43,1.007c-1.172,3.307-3.085,8.714-4.44,13.738c-0.339,1.257-0.671,2.491-0.987,3.664
			c-0.267,1.18-0.521,2.298-0.751,3.317c-0.462,2.033-0.878,3.651-1.052,4.589c-0.194,0.934-0.553,2.661-1.023,4.925
			c-0.445,2.267-0.741,5.111-1.198,8.21c-0.34,3.113-0.534,6.523-0.813,9.942c-0.066,3.426-0.132,6.874-0.194,10.087
			c0.117,3.206,0.243,6.694,0.373,10.277c0.376,3.559,0.762,7.212,1.138,10.772c1.177,7.052,2.339,13.727,3.854,18.381
			c2.625,9.4,3.844,10.604,6.432,17.596c2.632,6.951,5.763,2.011,1.278-7.313c-0.564-1.176-1.111-2.383-1.64-3.613
			c-0.458-1.247-0.885-2.52-1.302-3.803c-0.831-2.567-1.595-5.183-2.298-7.768c-0.702-2.586-1.063-5.192-1.536-7.66
			c-0.399-2.481-0.912-4.831-1.106-7.036c-0.208-2.202-0.481-5.933-0.667-10.377c0.111-4.456-0.027-9.626,0.56-14.683
			c0.215-2.53,0.385-5.039,0.812-7.403c0.384-2.366,0.636-4.628,1.051-6.645c0.867-4.027,1.464-7.219,1.9-8.783
			c1.215-6.347,2.671-14.298,5.484-19.4c1.401-2.539,3.207-4.045,4.555-5.139c0.656-0.54,1.233-1.031,1.583-1.506
			c0.175-0.236,0.294-0.469,0.346-0.708c0.012-0.088,0.06-0.294,0.084-0.496C141.138,202.995,141.135,202.804,141.108,202.618z"/>
		<path style="fill:#231815;" d="M234.917,343.032c4.798,2.031,10.649,4.404,16.467,7.479c5.811,3.055,11.589,6.88,16.047,11.315
			c1.168,1.04,2.043,2.231,2.934,3.217c0.425,0.515,0.858,0.981,1.212,1.478c0.34,0.508,0.664,0.992,0.973,1.452
			c0.608,0.923,1.135,1.755,1.59,2.494c0.389,0.786,0.696,1.486,0.954,2.079c1.021,2.375,1.117,3.163,0.641,2.387
			c-0.481-0.781-1.483-1.798-2.939-3.524c-0.827-0.798-1.784-1.762-2.87-2.963c-1.127-1.168-2.52-2.467-4.078-4.059
			c-6.568-6.118-13.118-9.389-16.923-11.077c-1.92-0.846-2.411-1.19-3.848-2.006c-1.435-0.814-3.771-2.197-9.657-4.542
			c-5.896-2.301-9.381-3.933-10.844-5.08c-1.456-1.14-0.898-1.433,0.784-0.869c1.736,0.524,4.125,1.045,6.083,1.471
			C233.404,342.707,234.917,343.032,234.917,343.032z"/>
		<path style="fill:#231815;" d="M284.91,399.982c-0.338,2.185-0.526,4.896-1.303,7.727c-0.389,1.412-0.96,2.812-1.638,4.119
			c-0.72,1.274-1.511,2.482-2.401,3.474c-1.762,2.008-3.303,3.045-4.298,3.557c-0.995,0.515-1.447,0.514-1.186,0.238
			c0.498-0.575,0.701-2.513,2.973-5.394c2.303-2.911,3.067-5.731,3.179-7.373c0.045-0.836,0.205-1.023,0.445-1.642
			c0.249-0.611,0.648-1.632,0.884-4.215c0.369-5.19,1.947-6.21,2.248-4.659C284.1,397.338,284.91,399.982,284.91,399.982z"/>
		<path style="fill:#231815;" d="M209.431,339.565c-4.153,1.46-7.463,2.965-10.924,4.941c-3.431,2.006-7.02,4.533-10.99,8.752
			c-3.881,4.304-5.817,6.924-7.389,9.246c-0.797,1.203-1.384,2.221-2.031,3.365c-0.64,1.152-1.305,2.425-2.008,4.092
			c-1.387,3.349-1.74,4.795-2.335,6.543c-0.24,0.898-0.608,1.856-0.912,3.29c-0.183,0.71-0.362,1.532-0.492,2.524
			c-0.188,0.985-0.258,2.138-0.332,3.501c-0.027,1.36,0.048,2.392,0.072,3.16c0.102,0.763,0.168,1.262,0.211,1.578
			c0.093,0.635,0.1,0.533,0.111,0.328c0.012-0.205,0.03-0.509,0.147-0.285c0.117,0.225,0.287,0.986,0.911,2.82
			c1.273,3.671,3.059,5.774,4.325,6.912c1.294,1.141,2.043,1.471,2.043,1.471c-0.199-1.346-0.415-2.618-0.506-3.894
			c-0.022-1.31-0.151-2.51,0.006-3.751c-2.225-4.156-3.203-8.963-2.7-13.838c0,0,0.131-0.822,0.533-2.102
			c0.332-1.289,0.988-3.019,1.768-4.874c0.821-1.848,1.797-3.815,2.786-5.616c0.493-0.877,0.971-1.824,1.41-2.502
			c0.438-0.699,0.804-1.34,1.207-1.861c1.451-2.133,3.843-4.503,6.307-6.509c2.479-2.004,4.975-3.696,6.599-4.867
			c1.617-1.175,3.852-3.241,6.615-5.204c2.734-1.98,6.019-3.887,9.262-4.723c1.612-0.436,2.709-0.782,3.362-1.193
			c0.648-0.419,0.84-0.883,0.54-1.278c-0.299-0.395-1.1-0.724-2.422-0.865C213.316,338.668,211.51,338.827,209.431,339.565z"/>
		<path style="fill:#231815;" d="M174.144,399.884c2.538,3.292,7.207,6.889,10.912,9.793c1.853,1.473,3.122,2.526,3.874,3.26
			c0.76,0.699,0.958,1.134,0.612,0.996c-0.63-0.268-2.682,0.481-5.947-1.657c-3.154-2.159-5.61-3.944-7.141-4.91
			c-1.496-1.002-0.586-0.876-4.231-4.706c-3.577-3.942-2.8-5.824-1.634-4.862C171.778,398.742,174.144,399.884,174.144,399.884z"/>
		<path style="fill:#231815;" d="M279.242,383.012c-0.268,2.794-0.424,6.217-1.189,9.765c-0.725,3.548-2.231,7.186-4.455,9.915
			c-2.234,2.748-4.573,3.896-5.937,4.313c-1.4,0.405-1.9,0.256-1.469,0.035c0.431-0.232,0.936-0.862,1.688-1.825
			c0.748-0.973,1.765-2.219,3.143-4.04c2.782-3.714,3.454-7.526,3.601-9.648c0.067-1.083,0.195-1.365,0.459-2.182
			c0.241-0.822,0.655-2.178,0.826-5.498c0.204-6.658,1.707-8.024,2.082-6.067c0.168,0.97,0.495,2.266,0.766,3.333
			C279.03,382.182,279.242,383.012,279.242,383.012z"/>
		<path style="fill:#231815;" d="M291.923,199.807c1.381,1.806,2.84,3.663,4.798,4.913c1.942,1.279,4.316,1.911,6.228,1.035
			c0.998-0.421,2.004-1.2,3.075-2.101c1.1-0.918,2.2-1.837,3.294-2.749c2.196-1.816,4.379-3.583,6.498-5.217
			c8.476-6.534,12.621-8.231,11.381-7.213c-1.243,1.02-2.883,4.075-9.086,9.168c-3.101,2.547-5.838,4.902-8.136,6.948
			c-1.16,1.019-2.147,1.973-3.215,2.849c-1.055,0.865-2.198,1.574-3.327,1.979c-1.134,0.399-1.927,0.427-2.619,0.413
			c-0.692-0.048-1.316-0.161-2.156-0.439c-0.832-0.288-1.903-0.716-3.298-1.629c-1.388-0.883-3.124-2.39-4.952-4.617
			c-1.839-2.221-3.074-3.961-4.155-5.189c-0.269-0.304-0.519-0.586-0.75-0.848c-0.177-0.215-0.323-0.349-0.524-0.491
			c-0.385-0.261-0.721-0.408-0.961-0.455c-0.606-0.065-0.695,0.311-0.827,0.056c-0.057-0.111-0.106-0.333,0.014-0.606
			c0.123-0.269,0.458-0.531,0.982-0.593c0.506-0.051,1.018,0.018,1.531,0.187c0.532,0.152,1.04,0.523,1.427,0.769
			c0.84,0.558,1.65,1.19,2.355,1.769C290.868,198.911,291.923,199.807,291.923,199.807z"/>
		<path style="fill:#231815;" d="M254.999,215.231c-3.111,5.258-5.987,9.523-8.887,14.402c-2.875,4.885-5.892,10.377-8.719,18.233
			c-2.719,7.894-3.802,12.469-4.7,16.294c-0.869,3.827-1.498,6.974-1.508,12.285c-0.04,2.658,0.289,4.51,0.372,6.038
			c0.226,1.518,0.402,2.705,0.599,4.027c0.628,2.577,0.817,5.909,3.902,12.867c0.86,1.693,1.504,2.962,1.984,3.907
			c0.536,0.91,0.918,1.49,1.15,1.864c0.473,0.743,0.417,0.617,0.306,0.364c-0.112-0.253-0.277-0.631-0.028-0.393
			c0.125,0.119,0.353,0.39,0.744,0.907c0.392,0.516,0.921,1.298,1.803,2.305c0.857,1.028,1.673,1.961,2.44,2.805
			c0.823,0.786,1.601,1.479,2.318,2.099c0.724,0.614,1.371,1.174,1.998,1.619c0.639,0.431,1.216,0.798,1.731,1.108
			c2.058,1.24,3.106,1.588,3.106,1.588l-2.7-4.698c-0.827-1.587-1.55-3.219-2.286-4.777c-5.147-5.095-9.229-11.221-11.812-18.019
			c0,0-1.415-4.796-1.613-10.707c-0.347-5.915,0.969-12.752,1.885-16.59c0.851-3.869,2.62-8.55,4.624-12.844
			c1.994-4.306,4.206-8.241,5.584-10.919c1.398-2.668,3.202-6.851,5.419-11.456c2.2-4.614,4.801-9.62,7.331-14.128
			c2.535-4.542,2.512-6.885,1.417-6.507C260.339,207.262,258.11,209.991,254.999,215.231z"/>
		<path style="fill:#231815;" d="M244.897,289.593c2.148,2.155,3.749,4.732,5.615,6.817c0.934,1.059,1.919,1.923,3.068,2.547
			c1.156,0.718,2.464,0.971,4.115,1.116c3.3,0.09,8.776,0.925,14.027,2.81c5.259,1.863,10.169,4.726,13.002,6.65
			c1.424,0.953,4.065,2.655,7.189,5.163c3.108,2.517,6.679,5.859,9.973,9.808c3.312,3.93,6.307,8.472,8.557,12.988
			c2.256,4.511,3.829,8.96,4.589,12.579c0.79,3.61,1.578,7.877,1.908,12.454c0.047,1.148,0.152,2.298,0.167,3.485
			c-0.002,1.199-0.006,2.408-0.009,3.622c-0.037,2.402-0.165,4.902-0.353,7.34c-0.701,9.793-2.548,18.944-4.574,23.989
			c-2.855,7.031-2.969,10.748-1.497,11.339c1.35,0.545,4.477-2.588,5.603-10.181c0.421-3.139,1.247-7.548,1.966-12.559
			c0.732-5.007,1.411-10.602,1.84-16.014c0.234-2.705,0.309-5.36,0.416-7.865c-0.012-1.252-0.024-2.466-0.036-3.632
			c-0.024-1.166-0.132-2.28-0.182-3.337c-0.3-4.224-0.865-7.448-0.987-8.957c-0.1-0.744-0.357-2.117-0.781-3.948
			c-0.488-1.813-1.137-4.087-2.079-6.602c-1.832-5.048-4.851-11.031-8.623-16.487c-3.714-5.501-8.215-10.389-12.089-13.923
			c-3.852-3.572-7.049-5.811-7.882-6.648c-1.708-1.609-6.339-4.518-11.674-6.748c-5.305-2.314-11.258-3.826-14.799-4.938
			c-3.528-1.171-7.721-1.667-10.956-1.465c-1.624,0.003-2.995,0.237-3.969,0.363C245.466,289.506,244.897,289.593,244.897,289.593z"
			/>
		<path style="fill:#231815;" d="M213.351,165.842c4.482,3.323,6.634,4.717,6.853,5.742c0.274,0.922-1.453,1.081-3.58-0.336
			c-2.098-1.402-4.145-2.854-5.955-4.426c-1.834-1.54-3.441-3.187-4.622-4.838c-2.372-3.279-4.244-6.985-5.049-10.96
			c-0.485-1.968-0.578-5.023-0.304-6.875c0.287-1.865,0.641-2.544,0.931-0.187c0.326,2.359,0.888,3.943,1.517,5.585
			c0.64,1.643,1.372,3.348,2.565,5.852c1.205,2.504,2.984,5.239,4.619,7.211c0.846,0.958,1.561,1.807,2.139,2.342
			C213.021,165.51,213.351,165.842,213.351,165.842z"/>
		<path style="fill:#231815;" d="M211.129,143.762c1.134,3.457,1.106,5.217,0.412,5.955c-0.65,0.714-1.911,0.159-2.273-1.501
			c-0.706-3.241-1.946-6.404-2.061-9.127c-0.125-2.681,0.045-5.414,0.91-7.973c0.398-1.289,1.37-3.094,2.195-4.086
			c0.833-0.999,1.409-1.252,1.079,0.277c-0.317,1.535-0.304,2.655-0.308,3.819c0,1.167-0.009,2.38-0.147,4.178
			c-0.134,1.8-0.165,3.914-0.071,5.581C210.967,142.549,211.129,143.762,211.129,143.762z"/>
		<path style="fill:#231815;" d="M220.154,138.904c0.95,6.375-3.044,6.133-2.849,3.355c0.24-2.753-0.527-5.485-0.49-7.698
			c0.034-2.203,0.122-4.414,0.641-6.583c0.498-2.192,2.436-6.351,2.529-3.617c0.116,2.725,0.773,3.844,0.621,7.047
			C220.412,134.611,220.154,138.904,220.154,138.904z"/>
		<path style="fill:#231815;" d="M239.388,107.668c2.583,8.514,2.392,12.724,1.735,13.769c-0.702,1.059-1.99-0.927-2.569-4.515
			c-1.158-7.215-3.868-14.043-5.707-19.54c-1.832-5.519-3.896-10.948-5.9-16.425c-1.887-5.496-6.023-16.59-2.347-10.22
			c1.828,3.198,3.119,5.457,4.498,7.869c1.337,2.439,2.672,5.095,4.277,9.24c1.602,4.147,3.181,9.09,4.271,13.013
			C238.731,104.783,239.388,107.668,239.388,107.668z"/>
		<path style="fill:#231815;" d="M311.731,142.441c-8.348,5.988-12.127,8.81-13.447,8.952c-1.257,0.218,0.207-2.082,3.719-4.694
			c6.986-5.21,14.142-10.272,20.4-13.438c6.228-3.182,12.727-5.884,19.484-7.692c6.749-2.056,20.589-3.369,12.165-1.424
			c-4.182,1.026-7.032,2.023-10.059,3.118c-3.025,1.104-6.223,2.321-10.978,4.238c-4.755,1.926-10.158,4.523-14.279,6.801
			c-2.043,1.169-3.821,2.161-5.039,2.939C312.463,141.994,311.731,142.441,311.731,142.441z"/>
		<path style="fill:#231815;" d="M330.296,147.567c-12.356,4.813-17.9,7.319-19.427,7.366c-1.483,0.145,1.239-1.903,6.389-4.075
			c10.269-4.349,20.754-8.271,29.432-10.46c8.658-2.215,17.479-3.859,26.387-4.58c8.929-0.986,26.716-0.081,15.619,0.312
			c-5.535,0.26-9.39,0.722-13.502,1.266c-4.111,0.556-8.482,1.211-15.002,2.363c-6.522,1.162-14.051,2.947-19.889,4.637
			c-2.907,0.881-5.426,1.622-7.187,2.237C331.345,147.219,330.296,147.567,330.296,147.567z"/>
		<path style="fill:#231815;" d="M245.541,191.848c2.047,0.631,2.81,1.432,2.969,2.395c0.158,0.902-0.668,1.757-1.786,1.257
			c-2.097-0.955-4.417-1.607-5.82-2.957c-1.361-1.298-2.514-2.905-2.907-4.778c-0.238-0.923-0.149-2.395,0.196-3.247
			c0.348-0.868,0.777-1.14,1.091-0.221c0.331,0.923,0.802,1.471,1.264,2.015c0.468,0.547,0.939,1.085,1.53,1.956
			c0.597,0.869,1.404,1.822,2.132,2.495C244.94,191.427,245.541,191.848,245.541,191.848z"/>
		<path style="fill:#231815;" d="M221.501,188.655c2.665,0.844,3.667,1.845,3.762,2.815c0.099,0.927-0.9,1.651-2.12,1.048
			c-2.359-1.173-5.012-1.792-6.784-3.063c-1.742-1.238-3.369-2.705-4.461-4.567c-0.571-0.914-1.115-2.473-1.221-3.52
			c-0.106-1.056,0.122-1.57,0.908-0.643c1.638,1.823,2.791,2.073,4.762,3.981c1.014,0.938,2.259,1.973,3.302,2.72
			C220.695,188.166,221.501,188.655,221.501,188.655z"/>
		<path style="fill:#231815;" d="M218.318,175.452c4.465,0.877,6.5,1.417,6.989,2.247c0.492,0.748-0.767,1.544-2.826,1.141
			c-4.032-0.782-8.142-1.59-11.113-3.165c-2.944-1.539-5.706-3.518-7.823-6.089c-1.103-1.245-2.361-3.419-2.884-4.877
			c-0.52-1.471-0.496-2.135,0.717-0.617c1.235,1.507,2.305,2.375,3.433,3.271c1.135,0.891,2.344,1.803,4.156,3.156
			c1.819,1.349,4.105,2.7,6.001,3.58c0.957,0.413,1.781,0.79,2.39,0.993C217.96,175.318,218.318,175.452,218.318,175.452z"/>
		<path style="fill:#231815;" d="M137.339,318.424c0.592,8.119,3.439,9.636,0.281,10.806c-0.787,0.283-1.976,1.659-3.439,3.643
			c-0.675,1.019-1.396,2.202-2.143,3.483c-0.714,1.296-1.383,2.723-2.079,4.174c-2.655,5.877-4.169,12.723-4.213,16.044
			c-0.049,1.66-0.211,3.077-0.545,4.396c-0.281,1.326-0.633,2.568-1.028,3.864c-0.369,1.298-0.669,2.66-0.914,4.203
			c-0.174,1.544-0.252,3.277,0.004,5.289c0.45,4.018,1.778,12.998,4.807,20.997c2.801,8.088,7.145,14.973,8.208,17.114
			c1.064,2.148,2.099,5.188,3.728,7.989c0.404,0.7,0.829,1.393,1.281,2.06c0.481,0.641,0.992,1.252,1.529,1.821
			c1.05,1.157,2.302,2.044,3.657,2.59c5.401,2.202,9.926,5.382,11.321,9.179c1.456,3.715,6.61,3.948-1.312,1.968
			c-1.948-0.59-3.535-1.294-4.816-2.096c-1.263-0.831-2.278-1.688-3.175-2.538c-1.734-1.785-3.056-3.429-5.186-4.882
			c-2.181-1.397-6.091-5.338-9.148-9.73c-3.101-4.361-5.382-9.034-5.885-10.876c-0.587-1.802-3.608-8.069-5.508-14.948
			c-2.04-6.834-2.923-14.143-2.944-16.739c-0.009-0.65-0.053-1.65-0.048-2.911c0.047-1.262,0.059-2.785,0.156-4.474
			c0.24-3.377,0.644-7.428,1.438-11.387c1.425-7.963,4.309-15.402,4.875-17.569c1.144-4.41,4.764-9.29,5.477-14.128
			c0.408-2.42,1.765-4.36,3.123-5.544C136.166,319.008,137.339,318.424,137.339,318.424z"/>
		<path style="fill:#231815;" d="M156.87,438.503c4.955,4.955,4.955,5.781,10.736,7.019c5.781,1.239,9.084,0.826,9.084,4.955
			c0,4.129-5.368,10.323-5.368,10.323s-1.239,10.323-6.606,16.103c-5.368,5.781-12.387,8.671-17.342,11.561
			c-4.955,2.89-7.019,9.91-5.368,11.561c1.652,1.652-0.826,5.781,4.129,7.019c4.955,1.239,6.606,2.065,5.781-9.084
			c5.368,4.542,3.303,14.039-1.239,14.039c-4.542,0-9.084-4.129-12.8-7.845c-3.716-3.716-1.652-11.974-1.652-11.974l11.148-7.019
			l11.148-11.148c0,0,5.368-8.671,6.194-13.213c0.826-4.542,0.826-7.845-1.239-9.91c-2.065-2.064-7.432-9.084-7.432-9.084
			L156.87,438.503z"/>
		<path style="fill:#231815;" d="M162.65,505.806c4.955,1.652,7.845-3.303,7.845-3.303s5.368-19.406,11.974-27.252
			c6.607-7.845,15.277-14.865,15.277-14.865s3.716,2.065,2.477-6.194c-1.239-8.258-6.193-11.148-6.193-11.148l-7.432-8.671
			l7.432-0.413c0,0,3.303,2.064,7.845,6.606c4.542,4.542,5.781,9.084,5.781,14.865c0,5.781-5.781,9.497-5.781,9.497
			s-6.606,1.652-10.735,5.781c-4.129,4.129-6.194,8.258-7.019,11.148c-0.826,2.89-5.781,14.039-6.193,15.277
			s-5.781,4.129-6.607,8.671c-0.826,4.542-3.303,4.542-7.432,5.368c-4.129,0.826-5.781-2.477-5.781-5.368
			C158.108,502.916,162.65,505.806,162.65,505.806z"/>
		<path style="fill:#231815;" d="M276.612,425.152c-0.551-4.955,1.652-9.91,4.404-6.606c2.753,3.303,1.652,13.213-2.752,19.819
			c-4.404,6.607,1.101,11.561,1.101,11.561s7.157,4.405,7.157,12.112c0,7.707,2.752,16.516,12.112,19.819
			c9.359,3.303,9.359,6.056,4.404,5.506c-4.955-0.551-14.314-3.854-16.516-9.91c-2.202-6.056-1.101-14.315-4.955-19.269
			c-3.854-4.955-11.01-6.607-11.01-11.561c0-4.955,2.752-9.91,4.404-14.314C276.612,427.906,276.612,425.152,276.612,425.152z"/>
		<path style="fill:#231815;" d="M303.037,424.052c3.303-6.606,1.101-12.112,4.404-12.662c3.303-0.551,8.809,2.752,4.955,7.707
			c-3.853,4.955-11.01,14.865-11.01,14.865s1.652,7.707,3.303,8.258c1.652,0.551-9.359,2.202-7.707-1.652
			C298.633,436.714,303.037,424.052,303.037,424.052z"/>
		<path style="fill:#231815;" d="M293.128,443.32c3.854,1.652,14.314,0.551,15.965,2.753c1.652,2.202-0.55,13.763,4.405,18.168
			c4.955,4.404,8.808,2.752,15.965,2.752c7.157,0,9.359,5.506,7.707,9.359c0.551,5.506-3.853,9.91-6.606,7.708
			c-2.753-2.202,0-3.303,0-3.303s-0.55-3.303-0.55-6.607c1.652-0.551,6.606,1.652,3.303-1.652s-9.36-3.303-15.415-3.303
			c-6.056,0-11.011-5.506-11.011-9.91c0-4.405-0.551-10.46-3.854-11.561c-3.303-1.102-7.707-1.652-9.91-1.652
			C290.925,446.073,293.128,443.32,293.128,443.32z"/>
		<path style="fill:#231815;" d="M319.554,475.252c2.271,0.413,3.51,1.239,5.368,3.51c1.858,2.271,2.684,3.51,2.271,6.4
			c-0.413,2.89-1.652,4.129-1.652,4.129s-6.194,1.032-10.735,0.826c-4.542-0.206-4.955,0.207-8.052-1.652
			c-3.097-1.858-4.748-5.574-1.652-3.51c3.097,2.065,3.716,2.89,8.671,2.89c4.955,0,8.052-1.858,8.052-1.858l0.619-5.781
			c0,0,0-0.207-1.445-1.858C319.554,476.697,319.554,475.252,319.554,475.252z"/>
		<path style="fill:#231815;" d="M176.421,420.097c-3.514-3.097-3.936-5.49-3.585-6.209c0.399-0.779,1.601-0.264,2.527,1.225
			c1.901,3.06,5.079,4.971,7.408,6.462c2.359,1.537,4.891,2.755,7.516,3.855c1.297,0.598,3.323,1.388,4.645,1.933
			c1.316,0.534,1.881,0.988-0.019,0.944c-1.894-0.068-3.249-0.132-4.693-0.325c-1.44-0.2-2.979-0.546-5.102-1.512
			c-2.123-0.973-4.401-2.487-6.031-3.854c-0.8-0.703-1.491-1.305-1.937-1.782C176.691,420.371,176.421,420.097,176.421,420.097z"/>
		<path style="fill:#231815;" d="M178.399,240.19c-1.159-3.631-0.687-5.485-0.092-5.943c0.621-0.469,1.436,0.339,1.556,1.845
			c0.241,3.048,1.602,5.842,2.388,8.1c0.785,2.279,1.704,4.498,2.536,6.784c0.754,2.289,2.438,7.082,0.573,4.591
			c-1.819-2.54-2.928-3.414-4.452-6.898c-0.742-1.751-1.417-3.868-1.85-5.552C178.626,241.432,178.399,240.19,178.399,240.19z"/>
		<path style="fill:#231815;" d="M192.44,253.973c-2.044-2.207-2.132-3.792-1.71-4.364c0.441-0.594,1.395-0.338,1.898,0.7
			c1.027,2.119,2.975,3.559,4.252,4.846c1.29,1.312,2.667,2.512,4.002,3.82c1.257,1.341,4.096,4.177,1.858,3.241
			c-2.227-1.002-3.399-1.106-5.711-3.018c-1.14-0.973-2.332-2.257-3.188-3.326C192.988,254.801,192.44,253.973,192.44,253.973z"/>
		<path style="fill:#231815;" d="M207.678,257.032c-1.331-1.373-1.133-2.502-0.623-2.952c0.522-0.467,1.337-0.419,1.556,0.232
			c0.462,1.35,1.787,2.101,2.52,2.861c0.748,0.785,1.548,1.492,2.275,2.356c0.655,0.877,2.228,2.969,0.791,2.519
			c-1.44-0.502-2.308-0.39-3.767-1.606c-0.718-0.618-1.441-1.46-1.944-2.16C207.984,257.578,207.678,257.032,207.678,257.032z"/>
		<path style="fill:#231815;" d="M196.047,205.458c-0.104-0.355,0.014-0.362,0.341-0.531c0.323-0.151,0.775-0.448,1.248-0.722
			c0.475-0.272,0.992-0.475,1.439-0.396c0.449,0.063,0.783,0.447,0.71,0.959c-0.179,0.989-0.317,1.815-0.586,2.644
			c-0.262,0.812-0.701,1.602-1.364,2.051c-1.311,0.882-2.835,1.081-4.022,0.53c-0.607-0.267-1.306-1.025-1.525-1.72
			c-0.237-0.698-0.092-1.257,0.435-1.296c1.079-0.133,1.531-1.019,2.106-1.109l0.428-0.079l0.355-0.083
			C195.861,205.602,196.047,205.458,196.047,205.458z"/>
	</g>
</g>
</svg>
