<?xml version="1.0" encoding="iso-8859-1"?>
<!-- Generator: Adobe Illustrator 18.1.1, SVG Export Plug-In . SVG Version: 6.00 Build 0)  -->
<svg version="1.1" id="_x34_" xmlns="http://www.w3.org/2000/svg" xmlns:xlink="http://www.w3.org/1999/xlink" x="0px" y="0px"
	 viewBox="0 0 512 512" style="enable-background:new 0 0 512 512;" xml:space="preserve">
<g>
	<path style="fill:#595959;" d="M82.62,311.275c4.977,0.997,12.866-2.296,17.002-4.594c4.135-2.297,6.892-4.135,9.648-4.135
		c2.757,0,7.811-1.84,9.191-2.298c1.378-0.459,11.028-5.514,11.028-5.514s2.757-4.596,5.514-5.514
		c2.758-0.92,10.109-4.136,11.488-5.514c1.378-1.378,8.27-5.975,11.487-6.433c3.217-0.459,8.27,1.378,7.352,3.217
		c-0.919,1.838-12.866,6.892-13.785,8.271c-0.919,1.376,4.594,0,7.353-1.379c2.756-1.379,8.73-5.054,10.108-3.676
		c1.379,1.378,6.433,2.296,6.433,2.296l5.514-5.054v-3.217c0,0-4.136-2.757-7.352-4.594c-3.216-1.84-10.568-9.19-12.865-8.272
		c-2.297,0.92-6.433,1.379-10.11,6.432c-3.677,5.056-5.054,6.433-8.271,8.272c-3.217,1.839-7.352,2.758-8.271,4.136
		c-0.919,1.378-2.298,2.757-4.135,3.676c-1.839,0.919-8.272,4.594-10.57,6.433c-2.297,1.838-9.19,4.135-15.163,6.433
		c-5.974,2.298-9.19,4.136-11.487,5.513c-2.297,1.377-5.974,3.217-9.65,3.217S80.323,310.816,82.62,311.275z"/>
	<path style="fill:#595959;" d="M184.63,274.516c4.136-0.92,5.974-5.055,5.974-5.055c8.27-3.676,10.109-5.054,13.325-5.974
		c3.217-0.92,12.866-4.136,15.623-5.055c2.758-0.92,0.459,0,0,1.838c-0.459,1.838,2.297-0.459,5.055-1.378
		c2.757-0.919,6.892-4.595,9.19-5.974c2.299-1.378,15.624-12.865,19.759-16.082c4.136-3.215,6.892-7.811,11.487-8.27
		c4.595-0.46,12.406-3.676,12.406-3.676s25.734-19.299,29.41-26.651c3.677-7.353,10.109-11.947,14.244-11.488
		c4.136,0.458,11.487,1.378,13.326,1.378c1.838,0,7.352,0.459,10.569-1.838c3.215-2.297,3.677-7.353,9.19-7.353
		c5.514,0,19.298-2.295,24.814,1.378c5.514,3.677,9.19,3.677,13.784,7.353c4.595,3.676,14.704,16.082,18.839,21.596
		c4.136,5.515,1.839,11.488,7.812,14.246c5.974,2.758,8.731,1.838,11.487,0.918c2.757-0.918,0.46-5.054,10.569-3.215
		c10.109,1.837,22.516,7.811,31.246,20.217c8.73,12.407,22.056,34.924,34.003,37.68c11.947,2.756,0,4.136-1.378,4.136
		c-1.377,0-5.514-5.055-8.271-6.433c-2.758-1.379-23.892-34.004-31.706-40.895c-7.812-6.894-21.137-10.569-25.732-9.191
		c-4.594,1.378,3.216,3.675-4.594,5.513c-7.812,1.839-17.001,1.839-20.678-0.918c-3.676-2.757-11.948-12.406-11.948-15.163
		c0-2.758-20.677-28.03-25.272-28.03c-4.594,0-7.811,1.838-9.19,1.378c-1.378-0.459-2.297-2.757-0.919-3.216
		c1.379-0.459,2.757-2.758,2.757-2.758s0.919-1.836-6.892,0.461c-7.812,2.297-11.948,2.757-17.921,6.892
		c-5.974,4.135-5.514,4.135-9.651,4.135c-4.135,0-3.675,2.299-8.27,0.461c-4.596-1.838-2.297-3.678-4.596-1.838
		c-2.296,1.838-2.296,3.675-3.675,3.675c-1.378,0-4.135,0.46-4.135,0.46s0.459,2.757-1.379,5.054
		c-1.838,2.297-7.81,7.812-11.027,9.65c-6.433,3.676-7.812,5.973-7.812,5.973s-10.111,8.271-12.867,9.19
		c-2.758,0.92-5.055,4.136-7.352,4.136c-2.298,0-6.433-0.92-8.272,0.459c-1.837,1.38-4.135,3.678-5.513,4.595
		c-1.376,0.92-15.162,11.028-20.676,16.082c-5.515,5.055-14.246,11.03-18.84,11.948c-4.595,0.92-7.812-0.459-7.812-0.459
		c-4.135,0.459-9.19,3.677-11.487,3.677c-2.297,0-3.217,0.458-5.973,2.296c-2.757,1.839-2.298,4.136-5.514,5.054
		C186.927,276.354,184.63,274.516,184.63,274.516z"/>
	<path style="fill:#595959;" d="M0.804,302.755c4.959,0,17.007-6.378,23.384-10.63c6.377-4.253,11.338-8.504,16.299-9.213
		c4.96-0.708,0.707-2.833-8.504,0.709c-9.212,3.543-19.132,13.463-26.927,14.881C-2.74,299.919,0.804,302.755,0.804,302.755z"/>
	<path style="fill:#595959;" d="M49.698,279.37c10.629-2.835,31.888-9.921,36.14-11.338c4.252-1.417,17.007-5.669,19.132-7.086
		c2.126-1.418,6.378-6.378,9.922-6.378c3.542,0,14.173-2.125,18.423-6.377c4.253-4.252,7.086-1.417,3.543,1.417
		c-3.543,2.834-19.841,6.377-22.675,9.212c-2.835,2.835-7.794,6.378-10.629,7.796c-2.834,1.417-17.716,5.668-17.716,5.668
		s-7.794,3.544-12.755,3.544c-4.96,0-17.007,4.253-20.55,5.669C48.99,282.912,49.698,279.37,49.698,279.37z"/>
	<path style="fill:#595959;" d="M138.984,241.812c3.544,0.709,8.503-6.377,9.921-8.503c1.417-2.125,6.378-2.125,11.338-2.125
		c4.96,0,11.338-3.543,15.59-2.835c4.252,0.709,14.172,17.007,24.8,21.259c10.63,4.253,3.545-4.252,3.545-4.252
		s-0.708-10.63-2.835-9.212c-2.126,1.416-7.795-2.126-12.756-4.961c-4.96-2.835-9.212-7.796-14.171-7.087
		c-4.96,0.709-20.55,3.544-24.093,2.836c-3.543-0.709-4.96,4.251-7.795,7.085c-2.835,2.834-2.835,4.252-6.378,7.086
		C132.607,243.938,138.984,241.812,138.984,241.812z"/>
	<path style="fill:#595959;" d="M212.681,238.979c2.835-1.418,12.046-3.544,19.133,7.085c7.086,10.63,6.378,6.378,4.251,2.126
		c-2.124-4.252-10.629-14.882-14.172-14.882C212.681,233.309,212.681,238.979,212.681,238.979z"/>
	<path style="fill:#595959;" d="M296.298,316.926c13.485-8.09,35.905-24.565,33.07-27.4c-2.834-2.835-10.393-10.393,0-7.558
		c10.393,2.834,16.062,10.393,11.337,10.393c-4.724,0-6.614,4.723-9.448,4.723c-2.835,0-31.18,21.732-31.18,21.732
		s-5.395,4.477-9.449,5.669C274.568,329.21,286.85,322.595,296.298,316.926z"/>
	<path style="fill:#595959;" d="M267.953,266.851c8.503-2.836,25.512-9.448,28.345-13.228c2.835-3.778,12.284,3.78,12.284,3.78
		s-5.551,3.897-8.741,6.731c-3.188,2.835,1.772,1.063,4.962-1.063c3.189-2.125,6.023-4.605,6.023-4.605s3.188,3.188,0.708,5.668
		c-2.48,2.48-18.424,13.109-24.093,14.173c-5.669,1.063-14.526,0.355-12.754,3.188c1.77,2.835-0.709,6.024,3.897,3.544
		c4.606-2.48,36.495-18.778,40.037-24.093c3.544-5.315,17.361-12.755,23.384-16.298c6.023-3.544,11.692-3.898,17.008-0.355
		c5.314,3.544,10.983,2.835,12.754,3.544c1.772,0.709,3.544,2.833,4.961,5.669c1.417,2.834,4.606,10.275,3.898,13.819
		c-0.709,3.542,3.543,3.897,3.543,3.897l0.708-7.087c0,0,0.355,0.355,4.607,5.669c4.251,5.315,8.858,2.126,5.668,0.709
		c-3.189-1.418-7.085-6.732-9.92-9.567c-2.835-2.835-3.189-4.607-3.189-6.732c0-2.125,3.543-5.315,2.125-5.668
		c-1.417-0.355-3.189-5.315-5.669-6.024c-2.48-0.709-3.543-1.417-6.732-2.125c-3.189-0.708-2.126-3.189-3.897-3.898
		c-1.772-0.708-7.087-4.961-8.15-4.252c-1.063,0.708-1.771-0.709-5.669,0.354c-3.898,1.063-3.898,0.354-6.024,0
		c-2.125-0.354-3.898-4.252-5.314-2.126c-1.417,2.126-2.126,4.251-6.732,6.023c-4.606,1.771-6.732,0.353-7.795,0.708
		c-1.062,0.354-3.188,3.189-3.188,3.189s-1.772,3.188-4.607,3.188s-3.543,4.607-3.543,4.607s1.417,1.417-1.064,2.835
		c-2.479,1.417-4.605,3.542-6.377,2.48c-1.771-1.063-8.148-5.669-9.212-5.315c-1.063,0.355-10.275,5.67-13.463,7.086
		c-3.189,1.417-9.922,7.086-15.944,7.794C264.765,263.78,266.182,267.442,267.953,266.851z"/>
	<path style="fill:#595959;" d="M417.474,270.512c3.188,2.125,17.006,15.235,20.196,19.486c3.189,4.252,13.818,8.504,13.464,17.361
		c-0.355,8.858,2.125,12.047,3.188,12.401c1.064,0.354,6.379-0.354,3.544-1.417c-2.834-1.063-2.834-1.063-3.189-3.543
		c-0.355-2.48-1.771-7.441-1.771-9.212c0-1.772,0.354-5.315-1.771-7.439c-2.126-2.126-6.732-8.15-7.796-9.213
		c-1.063-1.064-6.732-7.441-9.212-9.922c-2.481-2.479-3.19-6.023-8.149-7.439c-4.96-1.418-3.543-1.063-7.441-2.835
		C414.639,266.968,417.474,270.512,417.474,270.512z"/>
	<path style="fill:#595959;" d="M455.385,279.724c0.708-1.771-0.709-3.189,3.897,1.416c4.607,4.607,5.669,9.922,9.567,11.339
		c3.897,1.417,0.709,3.898-1.417,2.835c-2.125-1.063-2.835-1.771-6.378-6.023C457.509,285.039,455.385,279.724,455.385,279.724z"/>
	<path style="fill:#595959;" d="M386.647,292.125c0.355-6.024,6.024-16.299,9.213-15.236c3.188,1.063,4.252,1.772,5.669,6.023
		c1.417,4.252,2.48,5.315,3.898,5.669c1.417,0.355,8.503-3.189,8.503-3.189s-1.062-2.125-3.542-4.253
		c-2.48-2.126-7.441-8.503-4.252-7.085c3.188,1.417,7.441,4.96,9.212,8.503c1.771,3.543,2.479,6.023,6.73,8.504
		c4.254,2.48,5.316,3.543,7.087,3.897c1.771,0.355-0.353,4.607-1.771,5.315c-1.417,0.709-4.606,2.835-6.732,3.543
		c-2.126,0.709-7.441,1.064-6.023,3.898c1.417,2.835,3.897,6.378,3.897,7.441c0,1.063-0.708,3.543-2.124,3.898
		c-1.418,0.354-9.213,2.479-10.63,2.125c-1.418-0.354-8.503-6.732-9.212-7.795c-0.709-1.062-6.732-13.109-6.378-14.172
		c0.354-1.061,1.062-4.96-1.417-4.252c-2.48,0.709-9.213,5.669-9.213,8.15c0,2.48,4.252,9.213,4.962,11.338
		c0.708,2.126,1.062,6.732,1.062,6.732l-1.417,0.708c0,0-1.417,2.126-3.189,1.772c-1.772-0.355-1.772,0.354-2.48-2.835
		c-0.71-3.189-1.063-3.898-1.417-4.96c-0.354-1.063-4.252-4.607-5.315-4.252c-1.063,0.353-4.606,4.959-6.732,6.376
		c-2.125,1.418-6.377,10.277-9.211,7.796c-2.835-2.48-8.859,4.96-10.984,7.086c-2.126,2.126-7.441,0-4.96-1.417
		c2.48-1.417,1.417,0.355,3.898-1.771c2.479-2.125,8.148-6.731,9.212-7.44c1.063-0.709,1.418-4.253,1.418-4.253
		s-0.355-6.376,1.417-6.376c1.771,0,3.543-0.355,5.669-1.063c2.125-0.709,4.251-1.771,4.961-3.189
		c0.708-1.417,3.188-4.605,4.251-5.668c1.063-1.064,3.542-2.127,4.607-2.482c1.062-0.354,4.251-1.77,4.251-1.77L386.647,292.125z"/>
</g>
</svg>
