<?xml version="1.0" encoding="iso-8859-1"?>
<!-- Generator: Adobe Illustrator 18.1.1, SVG Export Plug-In . SVG Version: 6.00 Build 0)  -->
<svg version="1.1" id="_x31_0" xmlns="http://www.w3.org/2000/svg" xmlns:xlink="http://www.w3.org/1999/xlink" x="0px" y="0px"
	 viewBox="0 0 512 512" style="enable-background:new 0 0 512 512;" xml:space="preserve">
<g>
	<path style="fill:#595959;" d="M156.537,91.769c3.113,3.113,15.354,0.512,16.889-1.023c1.534-1.535,20.47-16.378,30.708-20.984
		c10.235-4.607,11.26-2.56,11.77,10.747c0.512,13.306,0.512,41.455,5.632,47.597c5.119,6.142,11.769,1.023,9.722-2.049
		c-2.047-3.07-8.185-5.628-8.7-9.723c-0.509-4.094-3.072-34.29-3.581-42.48c-0.513-8.188-1.535-12.794-10.748-9.211
		c-9.213,3.582-30.195,17.911-39.408,19.96c-9.213,2.048-11.26,0.512-11.26,0.512S155,90.233,156.537,91.769z"/>
	<path style="fill:#595959;" d="M191.339,86.139c1.022-3.583,2.044-9.214,5.116-4.606c3.072,4.606,10.238,1.023,11.26,4.606
		c1.025,3.582,0,10.236-7.166,11.259c-7.166,1.024-7.676-7.677-7.676-7.677L191.339,86.139z"/>
	<path style="fill:#595959;" d="M231.77,82.556c3.072,3.071,4.606,4.606,10.238-1.023c5.628-5.63,11.257-15.355,11.257-9.212
		c0,6.142,0,18.425,3.585,22.519c3.581,4.095,10.235,2.559,6.141-1.535c-4.094-4.094-5.632-5.119-5.632-10.237
		c0-5.117-1.531-12.795-1.531-15.354c0-2.559-4.097-4.094-7.678,0.512c-3.581,4.606-10.238,10.236-12.794,10.236
		C232.794,78.462,231.77,82.556,231.77,82.556z"/>
	<path style="fill:#595959;" d="M157.559,139.365c-6.332-4.22-8.701-15.354-4.094-10.747c4.606,4.606,27.126,32.243,32.242,37.361
		c5.119,5.118,7.676,11.773,3.072,8.189c-4.606-3.583-9.725-10.236-12.285-13.818C173.935,156.767,159.094,140.389,157.559,139.365z
		"/>
	<path style="fill:#595959;" d="M186.22,186.964c4.094,0,7.679-3.072,6.141-6.654c-1.535-3.582,0.512-3.582,2.56,0.512
		c2.047,4.094,3.581,10.237-3.072,10.237C185.195,191.058,186.22,186.964,186.22,186.964z"/>
	<path style="fill:#595959;" d="M171.891,179.286c-3.378-6.001-25.592-39.408-45.552-56.298S96.143,93.304,95.121,88.697
		c-1.025-4.606,3.069-10.236,10.747-9.723c7.675,0.512,22.517,3.07,27.123,4.094c4.61,1.023,19.448,2.048,22.008,2.048
		c2.559,0,7.678-8.7-1.022-7.165c-8.701,1.535-21.495,2.559-30.195,1.024c-8.704-1.536-22.523-2.56-29.686,1.023
		c-7.163,3.584-14.329,5.631-11.772,9.214c2.56,3.581,3.585,2.559,6.654,5.118c3.072,2.559,9.725,5.118,14.332,10.236
		c4.606,5.118,16.376,17.912,19.957,22.519c3.585,4.606,18.426,18.424,23.545,27.125c5.119,8.701,13.816,18.426,17.401,23.032
		C167.794,181.845,176.498,187.475,171.891,179.286z"/>
	<path style="fill:#595959;" d="M233.307,94.84c7.166,6.141,74.723,48.11,126.926,52.717c52.203,4.606,85.47,5.628,100.312,14.841
		c14.841,9.213,43.502,36.338,48.621,106.454c1.534,39.921,10.235,54.763-13.307,56.809c-23.542,2.048-34.802-6.141-25.079-4.605
		c9.725,1.535,24.055,1.536,28.661-2.559c4.607-4.097,9.213-5.118,6.657-15.355c-2.56-10.236,0.509-72.164-16.892-97.754
		c-17.401-25.59-29.686-40.432-47.087-42.479c-17.401-2.048-71.651-8.701-88.03-10.748c-16.376-2.048-74.21-26.613-88.027-32.756
		c-13.82-6.142-26.614-17.914-32.755-18.937C227.163,99.447,233.307,94.84,233.307,94.84z"/>
	<path style="fill:#595959;" d="M154.328,219.304c7.519,4.421,7.075,10.612,2.213,10.17c-4.866-0.444-3.097,0.883-7.075-5.749
		c-3.981-6.632-44.218-34.932-55.272-42.891c-11.054-7.959-9.285-7.075-4.422-5.307c4.866,1.77,6.632,2.211,12.382,6.632
		c5.747,4.423,15.916,11.498,20.782,15.034C127.801,200.732,154.328,219.304,154.328,219.304z"/>
	<path style="fill:#595959;" d="M164.213,177.24c6.475,0.942,15.319,4.479,7.36,5.364c-7.96,0.883-42.449-3.98-56.156-6.633
		c-13.707-2.653-22.548-1.327-28.739-2.211c-6.191-0.884-8.844-7.074-5.747-10.611c3.094-3.538,19.01-4.422,39.352-7.517
		c20.339-3.095,22.992-0.443,19.898,0c-3.097,0.441-14.151,1.768-26.089,3.537c-11.938,1.769-26.53,3.095-28.742,4.864
		c-2.209,1.77-4.863,4.422,3.097,5.749c7.957,1.327,22.107,1.327,28.742,2.21c6.632,0.884,24.761,3.095,28.739,3.537
		C149.906,175.971,164.213,177.24,164.213,177.24z"/>
	<path style="fill:#595959;" d="M359.874,308.983c-45.099,0-116.728,14.59-126.013,46.425
		c-9.285,31.834,92.852,51.731,116.725,53.058c23.879,1.326,14.595,11.937,7.96,13.264c-6.632,1.327,11.938,6.632,13.263-3.979
		c1.328-10.612,6.632-19.897-19.895-17.244c-26.53,2.652-38.468-3.979-55.709-7.959c-17.245-3.979-51.112-7.211-53.059-34.487
		c-1.328-18.57,33.136-32.008,51.731-34.488c19.898-2.653,54.384-9.285,62.344-9.285
		C365.177,314.288,359.874,308.983,359.874,308.983z"/>
	<path style="fill:#595959;" d="M218.591,269.121c12.97,21.813,24.17,37.143,38.321,43.627c14.151,6.485,20.045,2.947,14.151,6.485
		c-5.897,3.538-5.307,5.307-10.613,2.359c-5.307-2.949-14.738-5.895-28.889-21.224c-14.148-15.33-16.507-20.636-17.689-25.351
		C212.693,270.301,218.591,269.121,218.591,269.121z"/>
	<path style="fill:#595959;" d="M462.667,341.636c-5.303,10.024-27.117,32.426-83.717,30.658c-27.12,1.768-14.738-5.896-4.125-4.717
		c10.61,1.179,37.73,1.179,54.828-5.896c17.098-7.075,27.12-17.097,29.48-24.761c2.356-7.665,10.022-7.665,8.841-2.359
		C466.795,339.867,462.667,341.636,462.667,341.636z"/>
	<path style="fill:#595959;" d="M380.131,376.421c7.072,1.769,30.952,17.685,29.77,34.784
		c-4.716,20.635-10.907,22.992-16.801,24.171c-5.897,1.181-5.307-2.358-1.769-3.537c3.538-1.179,14.151-12.97,11.791-25.35
		c-3.003-15.756-20.045-24.762-28.299-28.299C366.571,374.652,380.131,376.421,380.131,376.421z"/>
	<path style="fill:#595959;" d="M192.799,214.439c4.863-5.748,15.916-8.4,9.285,0c-6.632,8.402-43.334,54.387-52.619,63.23
		c-9.285,8.843-33.164,34.047-43.331,36.7c-10.172,2.653-13.266-3.536-16.804-9.285c-3.538-5.748,2.21-16.36,2.21-11.497
		c0,4.864,0,5.307,1.769,10.612c1.769,5.307,3.538,7.959,11.938,5.307c8.401-2.654,30.067-22.109,35.374-27.415
		c5.307-5.307,29.183-37.585,33.161-42.449C177.763,234.779,192.799,214.439,192.799,214.439z"/>
	<path style="fill:#595959;" d="M217.559,252.465c3.094-6.632,0.884-12.38,7.516-11.053c6.632,1.327,6.191,6.19,3.982,9.727
		c-2.213,3.538-34.933,46.427-48.64,52.619c-13.707,6.191-15.035,0.442-9.285-2.212c5.747-2.652,9.285-1.326,24.761-17.244
		C201.815,278.212,217.559,252.465,217.559,252.465z"/>
	<path style="fill:#595959;" d="M151.968,310.39c9.435-5.306,6.485-8.255,9.435-5.306c2.947,2.948,5.303,2.358-2.359,7.075
		c-7.663,4.716-53.062,32.426-70.157,35.373c-17.098,2.949-34.783,2.359-38.911,1.769c-4.128-0.59-2.356-5.306,4.128-3.537
		c6.485,1.768,18.863-0.001,29.477-0.59c10.613-0.589,27.708-7.075,43.037-17.097C141.946,318.055,151.968,310.39,151.968,310.39z"
		/>
	<path style="fill:#595959;" d="M97.14,336.33c-5.897,0.59-40.68-0.591-54.831-5.306c-14.148-4.717-18.276-5.896-21.811-7.075
		c-3.538-1.179-8.844,4.127-2.95,5.896c5.897,1.769,12.382,1.768,18.867,2.948c6.485,1.18,21.814,5.306,33.014,5.306
		c11.204,0,21.814,1.768,27.12,1.768C101.856,339.867,97.14,336.33,97.14,336.33z"/>
	<path style="fill:#595959;" d="M95.962,316.875c1.766,4.717-7.075,8.254-17.688,7.664c-10.61-0.589-13.56,3.538-25.939-8.254
		c-12.382-11.791-11.204-15.327-15.329-14.151c-4.128,1.181-6.485,5.307-2.36,7.665c4.128,2.359,7.075,4.127,15.329,9.433
		c8.254,5.306,12.382,8.254,17.688,8.254c5.303,0,18.276,0,25.348-1.769c7.075-1.768,10.613-7.073,10.613-9.433
		C103.625,313.927,95.962,316.875,95.962,316.875z"/>
	<path style="fill:#595959;" d="M118.366,250.255c7.122,0,18.276-13.559,21.814-19.456c3.538-5.896,7.663,2.358,5.894,5.896
		c-1.769,3.536-14.738,16.507-22.992,17.097C114.828,254.382,114.828,250.255,118.366,250.255z"/>
	<path style="fill:#595959;" d="M110.113,249.077c-5.897-5.896-18.867-31.247-30.067-37.144
		c-11.204-5.894-20.636-14.148-28.889-14.148c-8.254,0-7.076,0-20.636,3.537c-13.56,3.537-24.17,2.949-27.708,1.769
		c-3.538-1.18-4.716,4.128,2.356,7.074c7.075,2.948,13.56,1.768,18.279-1.179c4.716-2.947,5.303-4.127,14.735-6.485
		c9.435-2.359,13.563-2.359,23.586,2.948c10.019,5.305,4.125,7.074,6.485,7.664c2.357,0.59,5.307,0,11.201,4.717
		c5.897,4.717,15.92,14.739,21.226,23.583c5.303,8.844,5.894,12.97,10.61,12.97C116.007,254.382,110.113,249.077,110.113,249.077z"
		/>
	<path style="fill:#595959;" d="M68.254,215.471c-4.128,0-4.719-0.001-10.613-1.179c-5.894-1.18-2.359-1.178,5.894-2.359
		C71.789,210.754,68.254,215.471,68.254,215.471z"/>
	<path style="fill:#595959;" d="M87.708,243.181c-7.075-6.485-19.454-9.433-30.067-20.635
		c-10.613-11.202-10.613-11.202-10.613-11.202s-4.716-1.768-7.072,0c-2.36,1.769-3.538,4.717,1.178,5.307
		c4.716,0.59,6.485,0.001,11.791,5.896c5.307,5.895,15.92,17.686,25.352,21.224C87.708,247.308,87.708,243.181,87.708,243.181z"/>
	<path style="fill:#595959;" d="M94.196,253.793c7.072,1.178,12.379,23.582,21.223,27.709c8.841,4.127,22.992-2.358,25.348-2.948
		c2.359-0.589,1.181,3.538-5.303,5.306c-6.488,1.768-20.636,5.896-25.351,1.768c-4.719-4.127-8.254-19.455-14.739-24.761
		C88.886,255.561,94.196,253.793,94.196,253.793z"/>
	<path style="fill:#595959;" d="M32.29,218.419c-7.663,0-1.769,8.843,0,8.843c1.772,0,25.942,12.381,31.245,12.381
		c5.307,0,0.591-1.767-6.485-4.717c-7.072-2.948-21.814-10.023-20.635-11.791C37.596,221.365,32.29,218.419,32.29,218.419z"/>
	<path style="fill:#595959;" d="M363.033,443.041c-31.836,11.496-38.912,2.653-68.094-4.422c-29.183-7.075-30.952,1.769-40.68,2.653
		c-9.729,0.884-12.379-7.961-5.307-7.961c7.075,0,15.035-3.536,18.573-3.536c3.538,0,21.223-3.537,33.602,4.422
		c12.382,7.959,31.839,11.497,47.756,6.19C364.802,435.082,363.033,443.041,363.033,443.041z"/>
	<path style="fill:#595959;" d="M337.385,428.892c-27.414-3.538-34.486-15.919-56.597-16.803c-22.108-0.884-20.339,4.42-29.183,4.42
		c-8.844,0-7.96-7.957,0.884-7.957c8.844,0,17.686-0.884,22.992-0.884c5.307,0,15.035-2.653,30.067,4.422
		c15.035,7.075,21.226,10.612,28.302,10.612C340.922,422.701,337.385,428.892,337.385,428.892z"/>
	<path style="fill:#595959;" d="M383.372,435.967c-14.148,2.652-22.992,5.306-12.379,6.19
		C381.603,443.041,383.372,435.967,383.372,435.967z"/>
	<path style="fill:#595959;" d="M338.272,412.089c0,0-20.342-11.497-26.533-12.381c-6.191-0.884-23.876-5.306-15.916-2.652
		c7.96,2.652,21.223,7.958,29.183,13.265C332.966,415.626,338.272,412.089,338.272,412.089z"/>
	<path style="fill:#595959;" d="M315.277,208.691c-10.376-2.395-21.223-7.959-14.151-11.497c7.076-3.537,14.151-7.958,18.573-2.653
		C324.121,199.848,326.775,211.344,315.277,208.691z"/>
	<path style="fill:#595959;" d="M370.105,224.609c-8.841-1.768-8.841-9.728,2.653-10.612c11.498-0.884,17.689,11.497,12.382,11.497
		C379.834,225.494,370.105,224.609,370.105,224.609z"/>
	<path style="fill:#595959;" d="M388.678,252.909c-7.075-1.77-2.653-5.307,0.884-6.191c3.538-0.885,6.191-9.727,9.725-4.421
		c3.541,5.306,14.238,14.149,9.729,14.149C394.869,256.445,388.678,252.909,388.678,252.909z"/>
	<path style="fill:#595959;" d="M393.985,294.472c-10.613-3.538-7.96-7.959-2.653-10.612c5.307-2.653,12.379,0,12.379,6.19
		C403.71,296.241,393.985,294.472,393.985,294.472z"/>
	<path style="fill:#595959;" d="M346.229,314.812c0.885,8.843,7.076,29.183,7.96,20.339c0.885-8.843,3.031-20.864,3.031-20.864
		L346.229,314.812z"/>
	<path style="fill:#595959;" d="M335.619,315.696c-1.769,4.422,2.653,9.729-4.422,13.266c-7.075,3.537-5.307-4.422-11.498-7.075
		C313.508,319.233,335.619,315.696,335.619,315.696z"/>
	<path style="fill:#595959;" d="M249.836,135.29c-6.191-3.537-6.191-10.611,2.653-5.305c8.844,5.305,14.151,12.381,21.226,13.265
		c7.072,0.884,8.841,7.075,3.535,7.075c-5.307,0-13.263-6.191-18.57-7.959C253.374,140.597,249.836,135.29,249.836,135.29z"/>
	<path style="fill:#595959;" d="M297.592,164.475c-9.479-2.369-16.804-10.612-7.96-8.843c8.844,1.768,16.801,0.884,16.801,3.537
		C306.433,161.822,301.126,165.359,297.592,164.475z"/>
	<path style="fill:#595959;" d="M315.277,166.243c10.613-0.884,10.613-1.768,14.151,1.769c3.538,3.538,1.769,2.653,12.379,3.538
		c10.613,0.884,6.191,5.306,15.92,6.19c9.729,0.885,10.61,6.191,21.223,6.191c10.613,0,22.111,4.422,14.151,7.075
		c-7.96,2.653-5.307,6.19-17.685,3.537c-12.382-2.653-9.732-3.537-16.804-6.189c-7.075-2.654-9.729-3.538-16.804-6.192
		c-7.072-2.652-7.957-4.421-15.032-6.189c-7.075-1.769,6.191,3.538-7.075-1.769C306.433,168.895,315.277,166.243,315.277,166.243z"
		/>
	<path style="fill:#595959;" d="M409.017,202.501c-7.075-1.769-4.422-5.307,3.538-5.307s8.844-1.769,14.151,0.885
		c5.307,2.652,6.188,4.421,13.263,8.842c7.075,4.421,10.613,5.306,13.266,7.959c2.653,2.653,0.884,4.422,3.538,11.497
		c2.653,7.075,14.148,17.686,7.072,15.918c-7.072-1.769-7.957-6.19-12.379-11.497c-4.422-5.306-8.844-12.38-14.151-15.034
		c-5.303-2.652-10.61-6.189-17.685-8.843C412.555,204.269,409.017,202.501,409.017,202.501z"/>
	<path style="fill:#595959;" d="M198.546,219.304c0.884,5.306,9.729,11.496,3.538,11.496c-6.191,0-10.613-4.421-10.613-4.421
		L198.546,219.304z"/>
	<path style="fill:#595959;" d="M187.048,232.568c0.884,5.306,9.729,9.728,6.191,14.149c-3.538,4.421-6.191,1.769-10.613,0.884
		c-4.422-0.884-13.263-4.421-8.844-7.959C178.204,236.106,187.048,232.568,187.048,232.568z"/>
	<path style="fill:#595959;" d="M171.132,265.289c-6.191-0.884-11.497-6.19-3.538-7.075c7.96-0.884,10.61,5.306,7.076,6.19
		C171.132,265.289,171.132,265.289,171.132,265.289z"/>
	<path style="fill:#595959;" d="M220.653,157.399c-7.075-1.768-5.306-7.074-5.306-10.611c0-3.538,6.191-2.653,7.96,1.768
		C225.075,152.978,220.653,157.399,220.653,157.399z"/>
	<path style="fill:#595959;" d="M143.718,102.571c-3.538-7.075-4.422-8.844-9.729-11.496c-5.307-2.653-3.538-4.421,4.422-2.653
		c7.96,1.769,9.729,3.537,11.494,7.075c1.769,3.538,3.928,12.133-0.884,9.727C143.718,102.571,143.718,102.571,143.718,102.571z"/>
	<path style="fill:#595959;" d="M116.301,96.38c-7.075-1.768-4.419-5.305,0-6.189C120.723,89.306,116.301,96.38,116.301,96.38z"/>
</g>
</svg>
