<?xml version="1.0" encoding="iso-8859-1"?>
<!-- Generator: Adobe Illustrator 18.1.1, SVG Export Plug-In . SVG Version: 6.00 Build 0)  -->
<svg version="1.1" id="_x36_" xmlns="http://www.w3.org/2000/svg" xmlns:xlink="http://www.w3.org/1999/xlink" x="0px" y="0px"
	 viewBox="0 0 512 512" style="enable-background:new 0 0 512 512;" xml:space="preserve">
<g>
	<g>
		<path style="fill:#FFFFFF;" d="M22.831,269.048H22.1c8.407-0.365,15.718-5.483,23.759-8.041
			c8.773-2.925,16.449-6.58,25.222-10.601c4.021-2.193,7.676-4.752,10.966-7.311c2.193-1.827,5.117-3.29,6.58-5.483
			c1.462-1.462,2.559-4.021,5.117-3.29c1.828,0.366,2.193,2.924,3.656,4.021c1.462,1.828,3.655,2.559,5.849,2.925
			c4.386,0.731,8.407,1.462,12.428-1.462c4.021-2.924,6.945-5.117,11.332-1.462c4.386,3.656,5.849,5.849,11.332,2.559
			c3.655-2.559,8.773-4.386,12.063-7.676c2.924-3.29,3.655-6.58,8.041-8.042c8.042-2.924,19.008-7.311,26.684-1.828
			c6.945,4.752,11.697,15.352,21.566,16.083c4.021,0.366,7.311-3.655,10.235-6.214c3.655-2.559,8.407-3.29,12.428-5.483
			c1.462-0.731,0.731-1.462,2.193-1.097c0.731,0,2.193,1.462,2.559,1.827c2.193,1.462,4.021,3.29,5.848,5.118
			c2.193,1.827,2.193,2.193,4.386,0.731c1.828-1.097,3.29-2.924,4.021-4.752c0.731-1.827,0.365-3.29,1.827-5.483
			c1.097-1.827,2.559-3.29,5.117-4.021c1.828-0.366,4.021,0,6.214-0.366c2.193-0.365,4.386-1.462,6.58-1.462
			c5.117-0.366,5.848,3.655,9.504,6.214c2.924,2.559,6.945,1.827,10.235,3.29c4.386,1.827,5.848,5.849,9.504,8.773
			c3.29,2.193,9.504-0.366,11.697,2.559c2.559,3.655-3.29,6.214,1.828,8.773c3.655,2.193,8.407,2.558,12.063,4.751
			c1.097,0.732,2.559,3.29,4.021,3.29c1.462,0,4.021-2.558,5.117-3.29c3.655-1.827,8.773-2.924,12.794-1.827
			c4.386,1.462,7.676,4.021,12.428,4.021c4.752,0,8.773-1.097,12.794-2.924c6.214-2.559,12.428-9.139,18.276-2.193
			c1.462,1.827,1.828,2.924,4.021,4.021c1.097,0.366,3.655,0.732,4.386,1.828c1.097,1.462,0.366,3.29,2.559,4.751
			c1.462,0.732,3.29,1.462,5.117,2.559c3.655,2.193,5.483,1.462,9.504,0c4.021-1.096,6.58,1.097,10.235,1.827
			c3.655,0.732,8.042-0.731,12.063-0.365c2.924,0.365,6.214,1.097,9.138,1.097c0,2.924-24.125,7.31-27.781,8.041
			c-9.869,2.193-19.739,1.828-29.608,2.193c-2.558,0-4.752-0.365-6.945,1.462c-1.828,1.462-1.828,2.193-4.752,2.193
			c-3.29,0-8.773-0.731-12.063,0.366c-2.193,0.731-3.655,1.828-6.214,1.828c-2.924,0-5.849,0-8.773-0.366
			c-4.021-0.365-7.676-1.097-11.697-1.827c-5.848-1.462-7.676,0.366-12.063,3.29c-4.021,2.559-10.235,3.655-14.621,4.752
			c-5.118,0.731-10.601,1.462-15.718,1.827c-4.752,0.366-11.332-1.462-15.718,0.731c-2.193,0.731-2.924,1.828-5.483,2.193
			c-2.559,0.366-4.386,0.731-7.311,0.366c-2.559,0-5.117-0.366-7.676-0.731c-3.29-0.366-4.752-1.462-7.31-3.29
			c-4.021-2.559-9.504-1.828-13.891-1.097c-5.117,0.731-9.869,1.462-14.987,2.558c-3.29,0.731-6.945,1.462-10.601,1.828
			c-4.021,0.365-6.945-1.097-10.966-1.828c-0.365,4.386-8.041,5.118-10.966,5.849c-5.483,1.097-10.6,2.559-16.083,3.29
			c-6.579,1.097-11.697,2.559-17.546-0.731c-1.462-1.097-2.924-2.559-4.752-2.925c-1.827-0.731-4.752-0.731-6.945-1.097
			c-5.483-1.828-9.869-3.29-15.718-2.924c-1.097,0-3.29,0.366-4.386,0c-1.097-0.731-0.366-1.097-1.462-2.193
			c-1.462-1.462-2.924-3.655-4.386-5.117c-0.365-0.366-2.193-0.731-2.559-1.097c-0.731-1.462,0.731-1.097,1.097-2.559
			c0-3.29-1.828-3.29-4.752-3.655c-5.483-0.365-11.332-0.365-16.815-0.365c-1.827,0-4.021,0-5.848,0c-3.29,0-3.29,0-5.483-2.193
			c-3.655-3.29-6.58-1.097-10.601-2.559c0-0.366,0-1.097,0-1.462c-2.924,1.828-8.773,1.462-12.063,2.193
			c-4.752,0.731-9.138,2.925-13.89,3.656c-4.021,0.366-6.58,0.366-10.235-1.097c-4.752-1.827-8.407-0.366-13.159,0.366
			c-4.386,0.365-7.676,0.365-11.331-2.559c-1.828-1.097-9.138-4.386-8.042-6.58c1.462-2.924,13.525,1.462,15.352,2.559
			L22.831,269.048z"/>
	</g>
	<g>
		<path style="fill:#231815;" d="M79.082,263.298c2.964-1.111,5.149-2.403,6.179-3.432c1.03-1.03,2.403-1.373,3.776-2.747
			c1.373-1.372,3.776-4.462,6.522-2.745c2.746,1.716,3.776,4.462,6.866,4.806c3.089,0.343,0.686,2.06-0.687,2.06
			c-1.373,0-4.119-1.03-4.806-2.06c-0.687-1.03,0-2.06-1.717-2.403c-1.716-0.343-2.059,0.343-3.089,0.687
			c-1.03,0.343-2.403,1.03-2.403,1.03s-1.03,1.03-2.059,1.373c-1.03,0.343-1.717,2.403-3.09,2.746
			c-1.373,0.343-1.716,1.373-2.746,1.373c-1.029,0,0,0.686-3.089,1.716C75.65,266.731,76.336,264.328,79.082,263.298z"/>
		<path style="fill:#231815;" d="M91.783,263.984c-2.746,0-1.373-3.089,0-2.746c1.373,0.343,5.493,0,5.493,0l3.432-1.717
			c0,0,5.149-1.717,6.522-1.717c1.373,0,5.493-1.716,6.866-2.059c1.373-0.344,3.432-1.031,4.806-1.031
			c1.373,0,4.462-1.029,5.835-1.716c1.373-0.687,4.806-2.746,5.492-4.462c0.686-1.717,2.746-5.493,4.119-5.493
			c1.374,0,3.776-2.059,3.776-2.059l2.746-2.06c2.403-2.059,4.119,0.001,2.403,1.03c-1.717,1.03-4.806,3.776-6.523,5.149
			c-1.715,1.373-3.078,3.097-4.119,4.462c-0.433,0.568-3.679,2.596-4.694,3.002c-1.014,0.406-4.666,2.84-6.695,3.043
			c-2.029,0.203-1.826,0.609-3.855,1.015c-2.029,0.406-2.638,0.812-4.261,1.42c-1.623,0.609-2.638,1.623-4.464,1.826
			c-1.826,0.203-2.638-0.202-4.869,0c-2.231,0.203-2.434,0.406-4.058,1.015c-1.622,0.609-3.043,1.623-4.463,1.623
			c-1.42,0-1.42,0.406-2.028,0.812C92.636,263.728,91.783,263.984,91.783,263.984z"/>
		<path style="fill:#231815;" d="M144.371,236.541c1.399-1.679,2.638-3.449,4.058-3.652c1.42-0.203,2.029-0.812,2.232-1.623
			c0.203-0.812-0.406-3.043,0.812-3.855c1.218-0.811,4.058-1.826,5.478-3.246c1.421-1.421,2.638-4.058,4.87-3.449
			c2.232,0.609,5.681,0.812,6.492,0.406c0.812-0.406,1.623-2.232,2.435-2.232c0.812,0,3.044-0.203,3.044-0.203
			s1.826-2.232,2.84-1.826c1.015,0.406,1.015,0.203,1.826,1.217c0.812,1.014,7.913,3.855,9.739,5.681
			c1.826,1.826,4.463,4.666,6.492,5.275c2.029,0.608,3.247,0.811,4.058,2.637c0.811,1.826,1.42,3.044,3.043,3.855
			c1.623,0.811,3.449,2.434,5.275,2.84c1.826,0.406,2.029,0.406,3.044,2.029c1.014,1.623,2.232,3.044,3.246,3.652
			c1.015,0.608,0.609,1.42,2.841,1.217c2.232-0.203,1.622-0.203,3.246-0.203c1.623,0,3.449,0.203,2.84,0.609
			c-0.608,0.406-1.42,0.609-2.84,0.609c-1.42,0-1.826-0.406-2.638-0.203c-0.812,0.203-1.826,0.203-2.84,0.406
			c-1.015,0.202-2.638-0.406-3.044-1.218c-0.406-0.811-1.218-2.232-2.232-3.246c-1.015-1.015-1.42-1.217-3.044-2.029
			c-1.623-0.812-1.826-1.623-3.043-2.029c-1.217-0.405-0.811,0-2.232-0.405c-1.42-0.406-2.637-1.015-2.84-1.623
			c-0.203-0.608-0.812-1.623-1.42-3.043c-0.609-1.421,0.202-0.406-0.609-1.421c-0.812-1.014-3.449-1.826-5.072-2.029
			c-1.623-0.203-2.638-1.623-3.246-2.232c-0.609-0.608-1.015-1.42-2.029-1.826c-1.014-0.406-1.217,1.015-2.638,0.406
			c-1.42-0.609-1.826-1.014-2.434-1.623c-0.609-0.609-1.623-1.421-2.232-1.421c-0.609,0-1.42-0.405-3.652,0
			c-2.232,0.406-2.435,0.406-3.449,0.812c-1.014,0.406-2.029,0-2.029,0s-1.217-0.406-2.84-0.406c-1.623,0-2.028,0-4.26,0.609
			c-2.232,0.609-2.435,1.217-3.652,1.623c-1.217,0.406-2.84,1.42-3.855,2.435c-1.015,1.015-0.609,1.42-0.812,2.84
			c-0.203,1.42,0,2.84-0.812,3.449c-0.811,0.609-0.406,1.826-1.826,1.623c-1.42-0.203-3.043-0.203-3.043-0.203s-0.405,0-1.42,1.014
			c-1.014,1.015-2.028,2.841-2.638,2.232C142.951,238.164,143.357,237.759,144.371,236.541z"/>
		<path style="fill:#231815;" d="M18.989,266.974c2.171,0.241,4.058,0.609,6.289,0.203c2.232-0.406,4.058-1.42,5.883-2.232
			c1.826-0.811,1.218-2.029,4.261-2.029c3.043,0,5.68-1.42,6.898-1.826c1.218-0.406,4.869-1.218,6.086-2.435
			c1.217-1.217,3.449-0.609,1.826,0.406c-1.623,1.014-4.261,2.84-5.883,3.246c-1.623,0.406-1.623,0.609-4.058,0.812
			c-2.435,0.203-4.058,1.015-5.681,1.623c-1.623,0.609-1.623,1.421-3.652,2.435c-2.029,1.015-1.826,1.623-4.058,2.232
			c-2.232,0.609-2.841,0.812-4.058,0.812c-1.217,0-1.826-1.421-3.449-1.623C17.771,268.395,17.163,266.771,18.989,266.974z"/>
		<path style="fill:#231815;" d="M53.682,255.41c3.043-0.406,5.073,0,7.913-1.421c2.84-1.42,2.435-0.811,5.072-3.246
			c2.638-2.435,2.638-2.84,4.667-4.058c2.028-1.217,2.84,0.406,4.26-1.217c1.421-1.623,2.029,0.812,0.406,1.623
			c-1.623,0.812-1.826,1.218-3.449,2.435c-1.623,1.217-1.623,2.029-2.84,2.435c-1.217,0.406-2.232,0.406-3.855,1.42
			c-1.623,1.015-2.232,1.826-3.449,2.232c-1.218,0.406-1.218,1.218-3.449,1.218s-1.826-0.406-4.463-0.406
			C51.856,256.424,53.682,255.41,53.682,255.41z"/>
		<path style="fill:#231815;" d="M80.463,243.034c2.029-1.217,3.246-3.246,5.072-4.667c1.826-1.42,1.623-0.406,2.84-2.232
			c1.217-1.826,1.217-2.029,2.638-3.043c1.42-1.015,2.232-2.435,3.652-0.609c1.42,1.826,3.246,4.058,4.869,5.072
			c1.623,1.014,7.709,3.043,7.709,3.043l3.449-0.406c0,0-0.406-1.014,1.42-0.811c1.826,0.203,3.246-0.609,3.246-0.609
			s1.826-3.043,2.638-4.463c0.812-1.42,2.435-3.043,3.652-1.42c1.218,1.623,3.652,2.435,4.464,2.232
			c0.812-0.203,1.015-1.015,2.84-0.609c1.826,0.406,2.435,0.812,3.449,2.029c1.015,1.218,1.218,5.072,3.449,5.275
			c2.232,0.203,1.014,1.014,0.203,2.232c-0.811,1.217-1.421,3.449-3.246,2.435c-1.826-1.015-2.028-0.812-2.028-2.435
			c0-1.623,0.202-1.623-0.609-2.84c-0.811-1.217-1.42-0.406-2.637-1.217c-1.217-0.812,0.609,0.405-1.217-0.812
			c-1.826-1.218-3.043-1.42-4.261-1.015c-1.217,0.406-2.232,0.406-3.652,1.218c-1.42,0.811-3.731,1.031-2.435,2.029
			c2.638,2.029,1.623,3.449,3.855,2.637c2.232-0.812,1.826,0.203,1.421,1.217c-0.406,1.015-1.217,1.623-1.217,1.623
			s-4.906-0.401-5.478-0.608c-2.232-0.812-2.435-0.609-3.652-0.203c-1.217,0.406-2.434,0.203-3.043,0.406
			c-0.609,0.202-1.826,0-1.826,0s-1.42-1.623-2.84-2.638c-1.42-1.015-1.218-1.826-3.449-2.841c-2.232-1.014-2.637-1.826-2.637-1.826
			l-1.623-1.42c-2.435-0.812-3.873-0.062-4.667,0.202c-1.826,0.609-1.826,0.609-1.826,0.609s2.638-1.42,0,0
			c-2.637,1.42-3.043,1.826-4.058,2.435c-1.014,0.609-1.42,1.42-2.232,1.826c-0.811,0.406,0.406,1.015-1.42,1.421
			C79.448,244.656,80.463,243.034,80.463,243.034z"/>
		<path style="fill:#231815;" d="M131.387,268.8c0.755-1.22,3.043-4.26,5.681-4.26s6.492-2.232,7.303-3.043
			c0.812-0.812,2.232-2.841,2.841-3.652c0.609-0.811,1.015,0.406,3.449-0.811c2.435-1.218,2.435-2.232,3.044-3.652
			c0.608-1.42,1.826-3.246,2.638-3.449c0.812-0.203,1.623-0.609,3.044-2.841c1.42-2.232,0-0.811,1.42-2.232
			c1.42-1.42,2.434-3.246,4.666-0.608c2.232,2.637,3.246,3.449,6.087,3.855c2.84,0.406,3.246,1.014,4.058,1.014
			c0.812,0,1.218,1.421,0.406,2.638c-0.812,1.218-1.42,1.421-2.232,1.421c-0.812,0-4.464-3.044-4.464-3.044s-1.42-0.609-2.841-1.623
			c-1.421-1.015,0.811-2.435-1.421-1.015c-2.232,1.42-1.826,2.638-2.637,3.246c-0.811,0.608-1.217,1.623-2.637,1.623
			c-1.42,0-3.449,0.406-4.058,0.812c-0.609,0.405-0.811,1.42-1.421,2.029c-0.608,0.608-1.622,2.232-3.246,2.84
			c-1.623,0.609-3.246,1.217-3.246,1.217l-1.421,2.435c0,0-0.203,1.42-1.217,1.826c-1.014,0.406-1.826,0.811-2.638,1.217
			c-0.812,0.406-3.652,1.421-4.667,1.826c-1.015,0.406-2.232,1.42-2.84,1.826c-0.608,0.405-2.028,1.014-2.028,1.623
			c0,0.609-1.421,1.42-1.421,1.42s0.609-0.609-1.015,0.609c-1.623,1.217-2.84,2.232-5.275,2.029c-2.435-0.203,0,0.609-2.029,1.015
			c-2.029,0.405-2.029,0.202-0.406-1.218c1.623-1.42,2.232-1.42,3.246-1.42C127.126,272.452,128.749,273.06,131.387,268.8z"/>
		<path style="fill:#231815;" d="M207.942,238.706c1.893-0.271,3.246-1.083,3.788-2.706c0.541-1.623,1.893-2.163,3.517-2.435
			c1.622-0.27,9.467-2.975,10.82-5.681c1.353-2.705,1.894-5.14,2.706-5.41c0.811-0.271,3.787,1.893,5.14,3.787
			c1.352,1.894,3.516,3.787,5.68,4.869c2.164,1.083,3.246,2.436,2.435,3.517c-0.811,1.082-1.352,1.082-2.435,0.541
			c-1.082-0.541-1.352-0.811-3.246-2.164c-1.894-1.353-2.435-2.976-4.869-4.058c-2.435-1.083-2.164,1.081-4.328,2.163
			c-2.164,1.083-1.893,1.893-3.787,2.165c-1.894,0.27,0.27,1.893-2.976,1.893s-3.246,0.541-5.41,0.811
			c-2.164,0.271-1.893,1.353-2.976,2.435c-1.082,1.083-2.435,1.624-3.246,1.894C207.942,240.599,207.942,238.706,207.942,238.706z"
			/>
		<path style="fill:#231815;" d="M221.198,241.14c2.988,0,5.41,0,9.197-1.083c3.787-1.082,4.598-2.704,5.41-3.246
			c0.811-0.541,2.976-0.541,3.787-0.541c0.812,0,0.812,0,2.435-1.623c1.623-1.623,2.975-0.541,2.975-0.541s1.624-4.328,2.705-7.574
			c1.082-3.246,2.435-5.14,2.435-7.304s2.704,0,4.327,0.27c1.624,0.27,2.976,0,5.14-1.623c2.164-1.623,3.787-0.271,3.787,0.811
			c0,1.082-0.812,2.706-2.975,3.788c-2.164,1.081-2.975,1.893-4.869,1.623c-1.894-0.271-2.435-2.435-3.517-0.812
			c-1.082,1.624-1.895,2.434-2.435,4.328c-0.541,1.893-0.27,3.247-0.811,4.328c-0.541,1.083-1.082,3.247-2.435,3.517
			c-1.352,0.27-1.352,0.27-1.352,0.27s-3.516,1.082-4.598,1.893c-1.083,0.812-1.071,1.413-2.435,1.623
			c-3.517,0.541-3.699,1.678-5.14,1.894c-5.41,0.812-6.222,0.541-9.198,0.812C220.657,242.222,220.386,241.14,221.198,241.14z"/>
		<path style="fill:#231815;" d="M268.538,220.04c1.796-0.599,4.328,0.541,5.951,2.435c1.624,1.893,2.705,3.246,3.787,3.787
			c1.082,0.541,3.517,0.271,3.247-1.352c-0.271-1.624-0.812-1.353-2.435-2.976c-1.622-1.623-1.622-3.246-3.246-2.435
			c-1.623,0.812-0.271,0.812-3.517-0.812c-3.246-1.623-5.139-0.541-5.951-0.811C265.562,217.606,266.102,220.852,268.538,220.04z"/>
		<path style="fill:#231815;" d="M288.826,229.778c-1.893-3.246-2.435-9.197,0.812-4.869c3.246,4.327,4.058,8.657,8.927,8.927
			c4.869,0.27,4.058,2.434,7.303,2.705c3.246,0.27,6.222,1.353,5.41,2.976c-0.812,1.623-2.164,5.951-0.541,7.304
			c1.623,1.352,4.869,2.975,8.386,4.327c3.516,1.353,4.869,2.976,7.574,4.869c2.706,1.893,3.517,3.788,1.353,3.788
			c-2.164,0-2.705-0.541-4.057-2.706c-1.353-2.164-1.353-2.976-4.058-3.787c-2.706-0.812-5.14-2.705-7.304-3.247
			c-2.165-0.541-4.058-1.083-4.329-2.164c-0.27-1.082-0.541-3.246-0.541-5.14c0-1.894,0.541-4.058-1.082-4.329
			c-1.624-0.27-5.681,0-6.763,0c-1.082,0-1.353-0.54-2.435-1.623c-1.082-1.082-1.622-2.164-3.516-2.705
			c-1.894-0.541-1.894,0.541-2.976-0.811C289.908,231.942,288.826,229.778,288.826,229.778z"/>
		<path style="fill:#231815;" d="M244.732,255.477c1.843-0.921,6.493-4.057,8.657-5.41c2.164-1.352,4.328-2.435,5.41-3.246
			c1.082-0.812,1.082,1.353,1.082-0.812c0-2.164-1.082-3.246-1.082-3.246s-0.811,0.541-2.976,1.353
			c-2.165,0.811-5.14-0.27-2.706-0.812c2.435-0.541,3.246-0.27,4.869-1.893c1.624-1.623,0-0.541,1.624-1.623
			c1.622-1.082,3.246-2.164,3.246-0.27s-0.541,2.976,0.541,4.869c1.082,1.893,1.894,1.893,2.705,1.893
			c0.812,0,1.624,0.271,3.246,0.541c1.623,0.27,2.976,0.811,5.951,0c2.975-0.812,3.246,0.27,4.869,0.811
			c1.623,0.541,3.246,3.246,2.434,4.058c-0.811,0.812-1.353,0.27-3.246-1.082c-1.893-1.353-3.246-1.624-4.869-1.893
			c-1.623-0.27-1.623,0-3.246-0.27c-1.623-0.271-3.309,1.061-4.869,0.54c-4.058-1.352-3.247-0.54-6.222,0
			c-2.976,0.541-3.788,1.353-4.869,2.435c-1.082,1.083-1.352,1.624-2.435,2.706c-1.082,1.082-3.246,1.624-3.246,1.624
			s-1.893,0.811-3.246,1.082c-1.352,0.27,1.353,0-2.705,0.811C239.592,258.453,242.567,256.559,244.732,255.477z"/>
		<path style="fill:#231815;" d="M328.591,251.149c-2.435,0.541,0.811,2.976,2.975,2.435c2.164-0.541,4.869,0,5.681-1.353
			c0.812-1.352,0-2.975,2.164-2.975c2.164,0,3.517,0.541,5.41,1.353c1.894,0.811,1.623,1.623,5.41,2.975
			c3.788,1.353,7.034,0.27,4.869,0c-2.164-0.27-1.893-0.541-5.41-2.164c-3.517-1.623-1.081-1.352-4.598-2.435
			c-3.517-1.082-4.058-1.893-5.411-1.352c-1.352,0.541-1.082-0.271-3.516,1.352c-2.435,1.624-0.812,0.541-2.435,1.624
			C332.108,251.69,328.591,251.149,328.591,251.149z"/>
		<path style="fill:#231815;" d="M340.764,262.241c-2.976,0.54-3.246-2.165-1.353-4.329c1.893-2.163,1.083-3.787,3.246-3.246
			c2.164,0.541,4.869,1.623,6.221,1.083c1.353-0.541,6.763-0.813,8.386-2.165c1.624-1.353,3.517,0,4.869-0.27
			c1.353-0.271,3.246,0.27,4.328-1.083c1.082-1.352,3.787,0.811,1.082,1.353c-2.705,0.541-5.14,1.352-6.763,1.623
			c-1.624,0.27-1.082,0.27-2.705,1.082c-1.624,0.812-2.976,1.623-4.058,1.623c-1.083,0-1.353,0-3.517,0
			c-2.164,0-2.729,0.315-3.787,0.541c-3.787,0.812-3.787,1.353-4.058,2.164C342.388,261.429,340.764,262.241,340.764,262.241z"/>
		<path style="fill:#231815;" d="M358.347,269.273c0.271-1.352,1.894-2.164,3.788-3.516c1.893-1.353,1.894-1.082,3.246-2.705
			c1.353-1.623,2.164-2.706,5.14-0.541c2.976,2.164,5.68,5.411,4.869,5.411s-3.787-0.27-4.869-0.812
			c-1.082-0.541-1.893-2.164-2.976-1.083c-1.082,1.083-4.598,2.165-5.41,2.976c-0.812,0.812,2.705-0.271-0.812,0.812
			C357.807,270.896,358.347,269.273,358.347,269.273z"/>
		<path style="fill:#231815;" d="M370.791,252.502c1.352,0.54,1.353,2.164,3.517,0.27c2.164-1.893,2.705-1.894,4.058-3.246
			c1.353-1.353-0.541-3.246,4.058-1.893c4.598,1.352,7.574,3.788,9.197,6.492c1.622,2.705,6.222,5.68,8.386,7.574
			c2.164,1.893,10.279,5.681,11.362,5.41c1.082-0.271-2.164-1.083,1.082-0.271c3.246,0.812,0,0,0,0s6.763,1.083,8.116,1.083
			c1.352,0-1.893-2.435-7.034-2.706c-5.14-0.271-8.927-3.245-10.28-3.787c-1.353-0.541-2.975-1.895-4.328-3.788
			c-1.353-1.893-2.706-2.976-4.599-4.869c-1.893-1.893-3.517-2.976-5.41-4.599c-1.894-1.623-3.517-3.517-3.517-3.517
			s-2.164-0.811-4.328,0c-2.164,0.812-2.706,0.27-4.328,1.082c-1.624,0.811-2.164,1.082-2.976,2.164
			c-0.812,1.082,0.812,1.082-1.893,1.893C369.169,250.608,370.791,252.502,370.791,252.502z"/>
		<path style="fill:#231815;" d="M413.803,262.241c1.894,0,6.492-0.813,9.468,1.082c2.975,1.893,1.893,2.435,7.033,2.435
			c5.14,0,7.845,0,9.738,0c1.894,0,3.247,1.353,5.952,0.541c2.705-0.812,2.705,0.54,1.082,1.082
			c-1.624,0.541-2.705,1.623-4.599,1.623c-1.894,0-2.976,0-4.599-0.27c-1.623-0.272-3.517-0.812-5.411-1.083
			c-1.893-0.27-4.327-0.812-5.41-0.812c-1.082,0-3.246,0.001-4.599-1.352c-1.352-1.352-0.541-1.352-3.246-1.623
			c-2.706-0.271-1.895-0.541-4.599-0.271C411.91,263.864,411.369,262.241,413.803,262.241z"/>
		<path style="fill:#231815;" d="M451.675,268.733c-1.353-0.272-0.541-4.058,2.976-3.247c3.517,0.812,5.14,0.812,8.115,1.352
			c2.975,0.541,3.787,0.541,5.681,0c1.893-0.54,1.893-0.27,3.517-1.352c1.622-1.083,1.893-2.164,3.246-1.623
			c1.353,0.54,2.705,1.082,3.516,1.893c0.812,0.811,3.246,0.811,6.492,0.811c3.246,0,4.058,1.353,5.681,0.27
			c1.623-1.082,3.787-1.893,5.951-1.893c0,0,6.763-0.54,7.845-0.27c1.081,0.27,2.975,1.893,0.27,1.893
			c-2.706,0-2.164-0.27-4.599-0.27c-2.434,0-2.975,0.541-5.681,0.811c-2.706,0.27-3.787,1.082-4.869,1.082
			c-1.083,0-2.976-0.27-3.788-0.27c-0.812,0-5.41,0-6.222-0.271c-0.812-0.27-3.787-1.624-3.787-1.624s-1.083-0.27-2.976,0.271
			c-1.893,0.54-2.435,2.164-5.681,2.435c-3.246,0.27-7.034,0.54-8.115,0.54C458.168,269.273,451.675,268.733,451.675,268.733z"/>
		<path style="fill:#231815;" d="M313.172,275.495c-3.246-0.541-6.221-2.975-7.845-2.975c-1.623,0-2.975,0.542-8.927-2.164
			c-5.951-2.706-11.091-6.223-11.903-6.763c-0.811-0.541-5.139-2.435-5.951-3.246c-0.812-0.812-2.705-1.623-5.41-2.435
			c-2.705-0.811-1.624-2.705-5.41-1.082c-3.787,1.623-6.493,2.164-5.952,3.516c0.541,1.353,0.541,1.895-1.082,3.517
			c-1.622,1.623-3.246,2.705-5.68,3.516c-2.435,0.812-2.435,2.705-0.27,1.893c2.164-0.812,8.386-1.353,8.927-2.435
			c0.541-1.082,4.058-1.082,4.058-1.082s3.517,0.541,4.058-0.812c0.541-1.353,1.622-1.893,2.164-2.704
			c0.541-0.812,3.787,1.622,5.41,2.975c1.623,1.353,2.705,2.706,4.058,2.706c1.353,0,2.434-0.27,3.517,0
			c1.082,0.27,2.164,0.54,2.705,1.893c0.541,1.352-2.435,0.812,0.541,1.352c2.976,0.541,4.599,0.541,6.222,0.812
			c1.624,0.27-0.27,1.353,2.435,2.435c2.705,1.082,4.328,0.812,5.41,0.812c1.082,0,1.353-0.271,3.517,0.54
			c2.164,0.812,3.246,2.435,5.14,2.976c1.893,0.541,5.681,0.811,5.139-0.812c-0.541-1.623-3.787-2.164-3.787-2.164L313.172,275.495z
			"/>
		<path style="fill:#231815;" d="M240.133,267.109c1.894-0.541,3.788-2.164,5.951-2.435c2.164-0.271,1.893,1.894,4.599-0.812
			c2.705-2.705,3.517-3.516,4.328-2.975c0.812,0.54,0.812,3.516-0.27,4.328c-1.083,0.811-4.329,1.623-5.681,3.516
			c-1.353,1.895-3.517,2.435-3.517,2.435s-1.893-1.352-2.705-1.352c-0.811,0-3.895,1.832-4.869,1.893
			c-4.328,0.27-8.116-0.812-8.657-1.893c-0.541-1.083-2.976-2.435-3.787-2.164c-0.811,0.27-2.975,0.811-4.869,0
			c-1.895-0.812-1.893-2.975-3.788-3.516c-1.893-0.541-3.787-3.518-2.164-2.706c1.624,0.812,6.222,3.788,8.386,3.788
			c2.164,0,3.517,0.271,6.492,2.164c2.975,1.893,7.575,1.893,8.386,1.623C238.781,268.732,240.133,267.109,240.133,267.109z"/>
		<path style="fill:#231815;" d="M210.106,257.37c-0.939-0.537-5.41-2.163-7.575-3.787c-2.164-1.623-2.975-2.435-3.517-1.623
			c-0.541,0.812-1.352,2.975-1.352,2.975s-1.623,0.541-2.976,0.541c-1.352,0-2.329-0.749-3.246-1.082
			c-2.975-1.083-4.328-1.083-4.328-1.083s-1.352,2.164-0.541,2.164c0.811,0,2.976-0.27,5.14,1.353
			c2.164,1.623,4.869,2.164,4.869,2.164s2.164-1.622,2.975-2.164c0.811-0.541,1.894,0.27,3.246,1.082
			c1.352,0.812,4.328,3.246,4.328,2.435c0-0.812,2.164-1.352,2.164-1.352S213.894,259.534,210.106,257.37z"/>
		<path style="fill:#231815;" d="M182.785,246.82c1.353,0.271,5.411,0.271,6.492,0.271c1.082,0,1.082,1.082,3.516,1.624
			c2.435,0.54,3.788,3.516,2.164,2.975c-1.622-0.541-3.517-1.352-4.598-1.623c-1.082-0.27-1.893-0.27-3.517-0.27
			c-1.623,0-1.352-0.27-2.976-1.082C182.244,247.903,182.785,246.82,182.785,246.82z"/>
		<path style="fill:#231815;" d="M182.244,253.854c-3.247,0.27-4.058-1.353-1.352-1.353
			C183.596,252.501,182.244,253.854,182.244,253.854z"/>
		<path style="fill:#231815;" d="M168.177,258.994c3.246-1.082,4.328-2.165,5.14-2.705c0.811-0.541,2.704,0.541,1.622,1.893
			c-1.082,1.353-0.54,2.705-1.893,3.787c-1.353,1.082-3.516,2.435-3.246,4.328c0.27,1.894-0.271,2.976,1.081,4.058
			c1.353,1.083,4.058,5.14,4.058,5.14s5.951,0.27,6.493,1.624c0.541,1.352,0.541,1.352,0.541,1.352s-2.435,0.811-4.599,0
			c-2.164-0.812-3.246-0.541-3.246-0.541s-1.623,0-2.435-1.894c-0.812-1.893-1.353-2.164-2.976-2.705
			c-1.623-0.541-1.894,0.271-1.894-1.893c0-2.164-0.27-2.704-1.082-3.246c-0.812-0.541-2.706-0.541-3.788-0.541
			c-1.082,0-2.434-1.082-3.246-0.541c-0.812,0.541-2.435,1.353-2.975,2.164c-0.541,0.812-2.706,2.164-2.706,2.164h-2.975
			c0,0-3.559,3.973-4.058,2.975c-1.083-2.163,2.705-4.869,3.517-5.139c0.811-0.27,3.246,0,3.246,0s2.976-2.976,3.246-3.787
			c0.27-0.812,3.517-0.812,3.517-0.812c3.787-1.893,4.328-1.893,4.598-3.516C164.39,259.534,168.177,258.994,168.177,258.994z"/>
		<path style="fill:#231815;" d="M65.139,245.233c-0.167-1.338-0.497-2.81-0.976-4.326c-0.238-0.759-0.512-1.528-0.822-2.298
			l-0.239-0.576l-0.124-0.288l-0.118-0.22c-0.216-0.395-0.419-0.796-0.612-1.199c-0.778-1.616-1.434-3.273-2.137-4.845
			c-0.351-0.786-0.711-1.55-1.096-2.276c-0.194-0.358-0.394-0.713-0.606-1.063c-0.2-0.347-0.397-0.641-0.628-0.944
			c-0.92-1.192-1.964-2.123-2.767-2.97c-0.818-0.838-1.425-1.582-1.807-2.179c-0.752-1.214-0.742-1.69-0.502-1.256
			c0.269,0.423,0.835,0.94,1.809,1.681l1.793,1.349c0.704,0.553,1.545,1.215,2.392,2.196c1.644,2.055,2.505,4.133,3.33,5.855
			c0.792,1.73,1.454,3.128,2.021,4.092l0.354,0.612l0.134,0.244l0.095,0.191l0.051,0.129c0.13,0.324,0.224,0.629,0.363,1.072
			l0.576,1.926c0.255,0.9,0.601,2.11,0.943,3.848c0.681,3.492,0.203,5.714-0.207,6.607c-0.436,0.904-0.61,0.646-0.499-0.302
			c0.095-0.963-0.036-2.255-0.257-3.274C65.392,245.995,65.135,245.234,65.139,245.233z"/>
		<path style="fill:#231815;" d="M70.772,239.659c0.095,0.425,0.168,0.861,0.224,1.286c0.074,0.6,0.202,1.758,0.22,2.847
			c0.022,1.09-0.048,2.102-0.212,2.412c-0.425,0.837-0.265,2.035,1.625,1.965c1.548-0.06,1.564-1.421,1.053-2.009
			c-0.163-0.193-0.385-1.238-0.661-2.366c-0.271-1.13-0.604-2.341-0.802-2.925c-0.207-0.616-0.369-1.199-0.406-1.614
			c-0.031-0.3-0.408-2.211-1.174-4.442c-0.743-2.238-1.937-4.753-2.94-6.43c-0.983-1.651-1.628-2.544-2.01-3.11
			c-0.383-0.565-0.528-0.789-0.661-1.016c-0.592-0.908-2.865,0.563-1.503,1.395c0.329,0.211,0.577,0.363,1.012,0.803
			c0.427,0.446,1.061,1.171,2.008,2.635c1.015,1.56,2.201,3.95,2.957,6.116C70.282,237.368,70.685,239.263,70.772,239.659z"/>
		<path style="fill:#231815;" d="M67.008,248.7c0.502,0.761,0.658,1.593,0.574,2.246c-0.084,0.658-0.376,1.13-0.714,1.359
			c-0.334,0.234-0.694,0.239-0.986,0.059c-0.294-0.183-0.508-0.536-0.651-1.095c-0.135-0.557-0.428-1.948-1.523-3.678
			c-0.536-0.864-1.244-1.805-2.07-2.791l-1.309-1.521l-0.675-0.776l-0.717-0.763c-1.962-2.11-3.894-4.324-5.681-6.18
			c-1.776-1.868-3.426-3.354-4.526-4.301c-0.321-0.353,0.726,0.171,2.409,1.374c1.681,1.202,3.916,3.164,6.159,5.304l3.388,3.192
			c1.104,1.079,2.134,2.102,3.045,3.092c0.905,0.985,1.656,1.932,2.196,2.735C66.473,247.753,66.81,248.403,67.008,248.7z"/>
		<path style="fill:#231815;" d="M58.576,248.191l0.868,0.641c0.382,0.3,1.114,0.878,1.63,1.495c0.535,0.618,0.745,1.24,0.636,1.443
			c-0.117,0.303-0.162,0.451,0.065,0.576c0.23,0.112,0.716,0.343,1.657,0.448c0.762,0.085,1.225-0.281,1.302-0.82
			c0.088-0.533-0.216-1.095-0.571-1.282c-0.218-0.154-0.9-1.001-1.74-1.557c-0.828-0.586-1.743-1.04-2.199-1.245
			c-0.489-0.208-0.882-0.445-1.137-0.685c-0.176-0.173-1.479-1.088-3.201-1.905c-1.715-0.832-3.797-1.589-5.226-2.156
			c-2.809-1.117-3.11-1.429-3.448-1.65c-0.646-0.465-2.192,1.772-0.765,1.901c0.684,0.038,1.009,0.075,3.749,1.021
			c1.46,0.501,3.513,1.202,5.178,1.975C57.052,247.148,58.315,248.006,58.576,248.191z"/>
		<path style="fill:#231815;" d="M44.194,251.646l-0.126,0.954c-0.064,0.493-0.072,1.306-0.148,2.05
			c-0.067,0.744-0.231,1.364-0.425,1.515c-0.506,0.451-0.484,0.814,1.257,1.554c0.719,0.276,1.21,0.115,1.438-0.219
			c0.224-0.326,0.179-0.763-0.038-1.017c-0.131-0.178-0.25-0.977-0.436-1.753l-0.44-1.978c-0.069-0.405-0.062-0.825,0.026-1.084
			c0.064-0.192,0.258-1.46,0.727-2.941c0.453-1.485,1.175-3.175,1.739-4.341c1.117-2.293,1.393-2.565,1.603-2.844
			c0.437-0.562-1.844-2.007-1.878-0.816c-0.014,0.581-0.01,0.846-0.962,3.115c-0.504,1.212-1.208,2.963-1.656,4.547
			C44.414,249.965,44.228,251.355,44.194,251.646z"/>
		<path style="fill:#231815;" d="M38.133,256.147c-0.217,1.65-1.283,2.531-2.065,2.594c-0.791,0.072-1.317-0.559-0.903-1.717
			c0.202-0.587,0.827-1.963,1.401-3.913c0.579-1.938,1.097-4.485,1.466-7.145c0.174-1.344,0.359-2.749,0.582-4.111
			c0.109-0.683,0.231-1.358,0.364-2.019l0.208-0.978l0.112-0.479c0.043-0.155,0.058-0.301,0.137-0.535
			c0.451-1.272,0.996-2.296,1.398-3.219c0.414-0.916,0.694-1.718,0.86-2.371c0.151-0.422,0.253,0.692-0.322,2.602
			c-0.27,0.95-0.726,2.09-1.029,3.359c-0.199,1.302-0.344,2.748-0.454,4.224l-0.277,4.46c-0.12,1.473-0.273,2.879-0.465,4.146
			C38.778,253.579,38.223,255.506,38.133,256.147z"/>
		<path style="fill:#231815;" d="M35.8,258.593c-0.065,1.068-0.441,2.004-0.989,2.648c-0.539,0.65-1.245,0.951-1.705,0.888
			c-0.471-0.055-0.655-0.377-0.689-0.713c-0.031-0.35,0.043-0.695,0.304-1.302c0.131-0.302,0.37-0.865,0.597-1.71
			c0.229-0.842,0.444-1.954,0.6-3.257c0.156-1.302,0.26-2.795,0.29-4.386c0.024-1.597,0.008-3.268-0.259-4.901
			c-0.26-1.656-0.729-3.351-1.188-5.051c-0.229-0.85-0.455-1.703-0.648-2.554l-0.071-0.319l-0.015-0.069l-0.049-0.155l-0.185-0.622
			l-0.321-1.208c-0.393-1.575-0.726-3.007-1.149-4.214c-0.414-1.208-0.919-2.179-1.421-2.875c-0.323-0.475,0.901,0.355,1.977,2.695
			c0.545,1.152,1.028,2.636,1.566,4.257l0.432,1.232l0.243,0.64l0.196,0.656c0.27,0.875,0.576,1.765,0.882,2.671
			c0.616,1.809,1.23,3.692,1.549,5.598c0.316,1.907,0.38,3.738,0.413,5.376C36.227,255.196,35.876,257.745,35.8,258.593z"/>
		<path style="fill:#231815;" d="M25.212,247.129c0.402,0.753,0.765,1.537,1.091,2.309c0.22,0.546,0.546,1.345,0.85,2.275
			c0.169,0.474,0.282,0.964,0.504,1.525l0.582,1.542c0.779,2.024,1.32,3.908,1.31,4.51c0.015,0.821,0.164,1.734,0.473,2.394
			c0.316,0.65,0.812,1.15,1.76,1.089c0.772-0.051,1.167-0.851,1.153-1.756c-0.002-0.905-0.373-1.852-0.781-2.361
			c-0.25-0.351-1.09-2.264-2.117-4.229l-0.755-1.488l-0.348-0.71l-0.307-0.727c-0.417-0.952-0.814-1.775-1.1-2.299
			c-0.591-1.114-1.165-2.146-1.497-2.882c-0.124-0.267-0.623-1.242-1.437-2.608c-0.789-1.372-1.984-3.11-3.149-5.017
			c-0.581-0.971-1.178-2.014-1.928-3.007c-0.375-0.495-0.79-0.975-1.26-1.407c-0.472-0.446-1.004-0.786-1.491-1.126
			c-1.005-0.671-2.023-1.258-2.982-1.801c-0.973-0.535-1.829-1.055-2.696-1.511c-1.697-0.868-3.101-1.335-4.204-1.705l-2.541-0.806
			c-1.237-0.396-1.698-0.58-2.149-0.761c-0.906-0.357-1.792-0.007-2.097,0.514c-0.303,0.511,0.044,1.246,1.66,1.493
			c0.775,0.114,1.345,0.18,2.557,0.445c0.604,0.134,1.37,0.314,2.382,0.603c1.008,0.294,2.276,0.689,3.777,1.422
			c0.782,0.39,1.714,0.933,2.664,1.438c0.953,0.521,1.946,1.08,2.909,1.709l0.714,0.484c0.224,0.159,0.431,0.325,0.637,0.506
			c0.407,0.363,0.779,0.781,1.126,1.228c0.693,0.896,1.286,1.906,1.882,2.887c1.239,1.992,2.419,3.677,3.244,5.08
			C24.492,245.763,25.025,246.777,25.212,247.129z"/>
		<path style="fill:#231815;" d="M27.538,245.955c-0.658-2.61-1.655-5.698-3.121-8.666c-0.743-1.477-1.551-2.967-2.536-4.205
			c-0.992-1.257-2.157-2.348-3.374-3.244c-0.609-0.448-1.199-0.828-1.757-1.151c-0.515-0.315-1.052-0.523-1.569-0.736
			c-1.031-0.408-1.903-0.783-2.489-1.205c-0.597-0.413-0.874-0.857-0.945-1.074c-0.07-0.224-0.023-0.216,0.119-0.015
			c0.307,0.417,1.018,0.711,2.171,0.936c0.582,0.124,1.284,0.233,2.15,0.467c0.422,0.111,0.931,0.299,1.392,0.536
			c0.474,0.235,0.977,0.512,1.489,0.859c2.057,1.378,3.629,3.006,4.747,4.556c1.102,1.565,1.836,2.907,2.401,3.913
			c0.548,1.008,0.635,1.328,0.913,2.18c0.263,0.856,0.744,2.241,1.701,5.48c1.808,6.486,1.308,7.917,0.668,6.114
			C28.851,248.888,27.546,245.948,27.538,245.955z"/>
		<path style="fill:#231815;" d="M27.07,259.983c-0.513-0.903-0.996-1.712-1.42-2.495l-0.299-0.579l-0.072-0.151
			c-0.042-0.093-0.089-0.154-0.112-0.199l-0.174-0.295c-0.235-0.394-0.465-0.796-0.715-1.194c-0.986-1.607-2.154-3.288-3.799-5.442
			c-0.823-1.078-1.428-1.941-1.903-2.674l-0.175-0.268l-0.083-0.13l-0.12-0.17l-0.356-0.463l-0.644-0.819
			c-0.82-1.012-1.487-1.846-2.843-2.969c-1.374-1.096-1.981-1.447-2.692-1.951l-1.32-0.883c-0.594-0.377-1.213-0.775-2.119-1.51
			c-1.781-1.48-1.796-1.527-1.68-1.378c0.107,0.134,0.349,0.405-1.044-0.616c-1.409-1.028-2.631-1.519-3.437-1.697
			c-0.811-0.185-1.205-0.116-1.202-0.123c0.983,0.794,1.736,1.708,2.405,2.667c2.047,1.208,4.064,2.881,6.391,3.933
			c-0.009,0.009,1.452,0.857,2.989,2.098c1.559,1.22,3.066,2.939,3.869,3.98c0.105,0.126,0.206,0.263,0.31,0.403l0.158,0.212
			c0.066,0.09,0.033,0.046,0.104,0.163l0.596,1.016l1.25,2.11c0.835,1.396,1.632,2.699,2.197,3.54
			c0.564,0.842,1.546,2.006,2.567,3.344c0.918,1.38,2.144,2.891,2.855,4.353c0.719,1.449,0.994,2.001,1.309,1.728
			C28.181,263.233,28.131,261.783,27.07,259.983z"/>
		<path style="fill:#231815;" d="M16.339,254.593c0.274,0.184,0.545,0.379,0.795,0.586c0.353,0.289,1.026,0.855,1.596,1.444
			c0.57,0.587,1.038,1.188,1.078,1.469c0.124,0.751,0.829,1.268,2.175-0.059c1.1-1.091,0.374-1.883-0.3-1.852
			c-0.218,0.004-0.93-0.42-1.707-0.855c-0.776-0.439-1.622-0.886-2.051-1.079c-0.452-0.204-0.854-0.426-1.084-0.645
			c-0.167-0.159-1.377-0.993-2.913-1.883c-1.53-0.9-3.378-1.853-4.676-2.513c-2.559-1.292-2.879-1.54-3.192-1.775
			c-0.636-0.463-2.093,1.817-0.791,1.89c0.627,0.039,0.942,0.014,3.401,1.106c1.31,0.586,3.139,1.482,4.664,2.338
			C14.865,253.612,16.083,254.421,16.339,254.593z"/>
		<path style="fill:#231815;" d="M17.783,262.456c0.216,0.092,0.431,0.198,0.635,0.313c0.568,0.327,2.232,1.24,2.428,1.686
			c0.252,0.615,0.984,0.724,1.597-1.065c0.503-1.461-0.086-1.717-0.548-1.399c-0.298,0.223-2.254-0.207-2.92-0.308
			c-0.349-0.049-0.66-0.141-0.84-0.277c-0.132-0.097-1.061-0.544-2.231-1.012c-1.166-0.475-2.599-0.915-3.634-1.139
			c-2.039-0.421-2.35-0.439-2.624-0.556c-0.592-0.168-0.81,2.506-0.022,2.048c0.392-0.191,0.588-0.402,2.398-0.162
			c0.964,0.139,2.316,0.507,3.46,0.936C16.628,261.943,17.581,262.371,17.783,262.456z"/>
		<path style="fill:#231815;" d="M14.352,266.074c0.213,0.02,0.428,0.052,0.637,0.093c0.58,0.136,2.3,0.389,2.635,0.714
			c0.44,0.474,1.127,0.274,0.942-1.609c-0.146-1.538-0.668-1.538-0.929-1.068c-0.152,0.332-1.883,0.646-2.476,0.758
			c-0.307,0.068-0.596,0.081-0.783,0.007c-0.27-0.087-3.622-0.57-5.521-0.591c-1.857-0.022-2.14-0.011-2.401-0.073
			c-0.557-0.066-0.249,2.598,0.35,2.018c0.307-0.26,0.438-0.48,2.07-0.592C10.614,265.605,13.944,266.051,14.352,266.074z"/>
		<path style="fill:#231815;" d="M102.307,227.479c1.758-0.406,1.489-2.029,6.087-3.246c4.598-1.217,5.004-0.271,4.463,0.405
			c-0.541,0.677-1.758,2.571-4.194,2.706c-2.434,0.134-4.598,0.54-3.11,0.676c1.488,0.136,3.787,0.677,5.004,0.136
			c1.217-0.541,3.923-2.841,4.058-4.329c0.135-1.488-1.083-1.758-4.869-1.082c-3.787,0.676-5.14,2.03-6.222,2.976
			C102.442,226.667,102.307,227.479,102.307,227.479z"/>
		<path style="fill:#231815;" d="M100.548,232.619c1.353,0.135,4.869-2.029,7.304-1.489c2.435,0.541,3.11,2.705,4.058,3.246
			c0.27,0.677-6.087,0.27-7.98,0c-1.894-0.27-2.164,0.542-0.947,0.677c1.217,0.135,8.657,0.946,10.28-0.135
			c0.27-0.541-0.541-0.812-0.812-1.218c-0.271-0.405-1.758-2.164-2.976-2.84c-1.218-0.676-2.434-1.352-4.464-0.676
			c-2.029,0.676-3.517,1.759-5.275,2.029C97.979,232.484,100.548,232.619,100.548,232.619z"/>
		<path style="fill:#231815;" d="M97.032,220.986c-1.623-1.082-2.435-4.462-1.894-5.41s3.111-2.975,3.923-2.435
			c0.812,0.54,2.84,2.435,1.893,3.516c-0.947,1.082-2.435,3.516-2.435,4.058c0,0.541,1.894-2.3,3.111-3.787
			c1.217-1.488,1.488-2.028,0.405-2.975c-1.082-0.947-1.353-2.706-2.705-2.165c-1.353,0.541-4.869,2.57-5.275,3.246
			c-0.405,0.676,0,2.569,1.217,4.734C96.491,221.934,97.032,220.986,97.032,220.986z"/>
		<path style="fill:#231815;" d="M81.477,230.455c1.42-1.218,2.637-1.623,1.826,0c-0.811,1.623-2.029,2.435-5.883,2.232
			c-3.855-0.203-3.449,1.014-3.044-2.435c0.406-3.449,0.609-5.072,2.232-5.275c1.623-0.202,3.043,0.203,2.435,0.812
			c-0.608,0.609-1.623-0.609-2.435,1.218c-0.811,1.826-1.217,4.261-1.217,4.261S79.043,232.889,81.477,230.455z"/>
		<path style="fill:#231815;" d="M79.854,239.382c-0.406-2.435-1.217-5.681,0-6.898c1.217-1.217,1.42-1.42,1.217-0.406
			c-0.203,1.015-1.015,2.232-0.609,3.449c0.406,1.217,0.406,3.246,1.015,2.84c0.609-0.406,1.623-1.014,1.623-1.014
			S83.1,239.788,79.854,239.382z"/>
		<path style="fill:#231815;" d="M88.781,226.397c0-1.838-0.812-3.855,1.826-3.45c2.638,0.406,5.478,1.827,6.289,3.45
			c0.812,1.623,3.246,2.435,1.623,0.609c-1.623-1.826-1.015-2.435-3.043-3.246c-2.029-0.812-2.84-1.42-5.072-2.029
			c-2.232-0.609-2.638,1.014-2.638,2.84C87.767,226.397,88.781,227.208,88.781,226.397z"/>
		<path style="fill:#231815;" d="M91.824,230.658c0.201-1.914,0.812-3.449-0.811-4.26c0.811-1.015,2.84,0.811,2.638,2.435
			C93.447,230.455,91.419,234.512,91.824,230.658z"/>
		<path style="fill:#231815;" d="M87.767,227.208c-1.826,0-3.246,1.218-1.826,1.218c1.421,0,1.623-0.609,3.247-0.203
			C90.81,228.629,87.767,227.208,87.767,227.208z"/>
		<path style="fill:#231815;" d="M425.513,258.272c1.7,0.021,0.99,2.884-0.277,2.542c-0.618-0.181-2.853-1.36-5.104-3.034
			c-1.117-0.839-2.218-1.823-3.047-2.836c-0.839-1.005-1.377-2.034-1.589-2.739c-0.003-0.264,0.35,0.212,1.035,0.919
			c0.682,0.712,1.742,1.612,2.961,2.382C421.922,257.059,424.855,258.245,425.513,258.272z"/>
		<path style="fill:#231815;" d="M427.737,256.577c1.181,0.52-1.162,2.217-1.798,1.654c-0.314-0.277-1.004-1.642-1.768-3.151
			c-0.756-1.51-1.546-3.178-1.768-4.082c0.038-0.362,1.177,0.901,2.4,2.321C426.031,254.732,427.283,256.375,427.737,256.577z"/>
		<path style="fill:#231815;" d="M439.269,255.158c0.5,1.335-0.052,2.397-0.716,2.737c-0.668,0.351-1.433,0.07-1.578-0.961
			c-0.079-0.518-0.117-1.794-0.387-3.463c-0.263-1.668-0.787-3.73-1.637-5.782c-1.642-4.141-4.601-8.077-5.974-9.994
			c-0.384-0.692,3.087,2.327,5.871,6.582c1.396,2.112,2.555,4.537,3.24,6.612C438.79,252.959,439.069,254.639,439.269,255.158z"/>
		<path style="fill:#231815;" d="M447.839,254.027c-0.514,2.444-1.802,3.969-2.702,4.313c-0.903,0.349-1.392-0.379-0.699-2.277
			c0.35-0.954,1.278-3.269,2.422-6.446c1.16-3.158,2.589-7.209,4.632-11.172c2.009-3.945,4.419-7.864,6.968-11.029
			c2.523-3.181,5.272-5.523,7.336-6.563c0.718-0.251-0.941,0.646-3.133,2.937c-2.212,2.27-4.841,5.969-7.08,10.111
			c-1.128,2.067-2.18,4.233-3.101,6.352c-0.916,2.116-1.66,4.204-2.288,6.092C448.964,250.126,448.064,253.071,447.839,254.027z"/>
		<path style="fill:#231815;" d="M479.872,260.772c0.617,1.766-0.034,3.185-0.728,3.588c-0.711,0.425-1.415,0.013-1.518-1.289
			c-0.069-0.655-0.084-2.276-0.673-4.346c-0.565-2.073-1.783-4.551-3.485-6.898c-3.396-4.715-8.296-8.954-10.352-11.252
			c-0.293-0.415,0.712,0.313,2.424,1.65c1.706,1.344,4.128,3.296,6.458,5.595c2.337,2.285,4.517,5,5.829,7.533
			C479.178,257.87,479.639,260.097,479.872,260.772z"/>
		<path style="fill:#231815;" d="M483.543,259.629c0.464,0.788-0.092,1.46-0.762,1.604c-0.669,0.157-1.431-0.074-1.569-0.589
			c-0.074-0.266-0.1-0.911-0.254-1.804c-0.149-0.892-0.426-2.029-0.811-3.214c-0.758-2.37-1.868-4.935-2.174-6.278
			c-0.002-0.469,1.429,1.657,2.857,4.111c0.706,1.234,1.367,2.581,1.821,3.742C483.114,258.355,483.362,259.324,483.543,259.629z"/>
		<path style="fill:#231815;" d="M490.277,258.987c-0.033,1.922-0.983,3.139-1.765,3.424c-0.794,0.293-1.412-0.268-1.123-1.734
			c0.135-0.739,0.633-2.505,0.985-4.901c0.367-2.394,0.511-5.422,0.265-8.588c-0.229-3.165-0.779-6.46-1.239-9.388
			c-0.469-2.927-0.82-5.49-0.944-7.16c0.027-0.548,0.357,0.755,0.924,3.038c0.556,2.286,1.404,5.537,2.13,8.993
			c0.735,3.451,1.197,7.158,1.165,10.2C490.669,255.914,490.283,258.237,490.277,258.987z"/>
		<path style="fill:#231815;" d="M494.47,261.28c-0.185,0.842-0.988,0.94-1.598,0.629c-0.614-0.306-1.07-0.959-0.799-1.477
			c0.138-0.263,0.584-0.809,1.193-1.575c0.612-0.761,1.387-1.749,2.275-2.751c0.884-1.001,1.91-1.999,2.942-2.732
			c1.027-0.742,2.052-1.187,2.738-1.355c0.255,0.011-0.209,0.34-0.932,0.957c-0.727,0.616-1.656,1.587-2.478,2.709
			c-0.827,1.121-1.581,2.37-2.188,3.406C495.022,260.129,494.545,260.952,494.47,261.28z"/>
		<path style="fill:#231815;" d="M502.094,260.04c-0.871,1.323-2.782-0.901-1.862-1.713c0.463-0.387,2.544-1.468,5.05-2.234
			c1.249-0.377,2.601-0.629,3.797-0.69c1.197-0.066,2.226,0.046,2.875,0.201c0.422,0.248-2.112,0.366-4.59,1.365
			C504.881,257.926,502.449,259.536,502.094,260.04z"/>
		<path style="fill:#231815;" d="M463.625,262.748c-0.724,2.08-3.594,1.092-2.687-0.485c0.461-0.775,2.732-3.496,5.603-6.057
			c1.43-1.279,3.019-2.491,4.501-3.428c1.48-0.943,2.849-1.607,3.767-1.952c0.664-0.098-2.536,1.873-5.388,4.742
			C466.529,258.39,463.921,261.931,463.625,262.748z"/>
		<path style="fill:#231815;" d="M455.895,259.168c-0.881,3.196-4.169,3.32-3.105,0.715c0.271-0.648,1.069-2.176,2.258-4.149
			c1.194-1.967,2.788-4.388,4.749-6.681c1.944-2.303,4.295-4.424,6.605-5.929c2.306-1.519,4.523-2.42,5.98-2.862
			c0.502-0.069-0.61,0.458-2.427,1.558c-1.816,1.101-4.258,2.925-6.387,5.245C459.254,251.679,456.281,257.943,455.895,259.168z"/>
		<path style="fill:#231815;" d="M472.574,261.152c1.72,0.678,0.382,3.331-0.926,2.461c-0.642-0.441-2.76-2.678-4.417-5.544
			c-0.835-1.423-1.538-2.992-1.992-4.426c-0.46-1.433-0.663-2.724-0.698-3.562c0.116-0.575,0.952,2.527,2.846,5.367
			C469.205,258.334,471.887,260.881,472.574,261.152z"/>
	</g>
</g>
</svg>
