<?xml version="1.0" encoding="iso-8859-1"?>
<!-- Generator: Adobe Illustrator 18.1.1, SVG Export Plug-In . SVG Version: 6.00 Build 0)  -->
<svg version="1.1" id="_x36_" xmlns="http://www.w3.org/2000/svg" xmlns:xlink="http://www.w3.org/1999/xlink" x="0px" y="0px"
	 viewBox="0 0 512 512" style="enable-background:new 0 0 512 512;" xml:space="preserve">
<g>
	<path style="fill:#FFFFFF;" d="M14.42,295.233c12.058-4.64,59.069-28.769,80.853-34.318c21.786-5.55,44.804-23.715,56.621-31.174
		c11.817-7.458,21.996-10.852,33.023,1.872c11.028,12.724,17.814-9.33,30.537,1.697c12.724,11.027,14.691,9.79,14.691,9.79
		s1.07-2.625,18.391-8.943c15.874-5.788,50.519-34.251,59.189-40.029c8.671-5.775,14.609-1.536,25.636-4.079
		c11.027-2.546,17.981-13.222,25.108-7.883c7.126,5.337,22.276,30.939,36.302,38.777c14.026,7.837,17.737-1.751,28.505,3.035
		c22.903,10.179,32.738,40.323,49.876,46.882c17.135,6.558,33.252,23.522,38.342,32.854c5.089,9.331-29.689,16.965-42.413,16.965
		c-12.723,0-25.447,1.696-50.047,5.938c-24.599,4.241-18.66,4.241-45.805,4.241c-27.145,0-32.235-5.09-47.503-4.241
		c-15.269,0.848-25.448,4.241-36.475,4.241c-11.028,0-32.234-0.848-43.26,0c-11.027,0.848-26.297-0.001-42.413-1.697
		c-16.117-1.696-33.93-7.634-45.806-5.089c-11.876,2.545-32.233,7.633-51.742,7.633c-19.511,0-14.421-3.392-32.234-4.241
		c-17.814-0.848-19.51-4.241-39.868-2.545C13.571,326.618,0,322.378,0,315.59C0,308.804,3.392,299.474,14.42,295.233z"/>
	<g>
		<path style="fill:#231815;" d="M92.384,299.738c4.468,0.894,11.551-2.063,15.263-4.125c3.712-2.062,6.188-3.712,8.664-3.712
			c2.475,0,7.013-1.652,8.25-2.063c1.238-0.411,9.903-4.951,9.903-4.951s2.474-4.126,4.949-4.95
			c2.476-0.825,9.076-3.713,10.313-4.951c1.239-1.237,7.426-5.363,10.314-5.775c2.889-0.412,7.426,1.238,6.601,2.888
			c-0.825,1.65-11.551,6.187-12.376,7.426c-0.825,1.237,4.125,0,6.601-1.238c2.476-1.238,7.838-4.537,9.075-3.3
			c1.238,1.237,5.776,2.062,5.776,2.062l4.951-4.536v-2.888c0,0-3.713-2.475-6.602-4.124c-2.886-1.652-9.488-8.251-11.551-7.427
			c-2.063,0.827-5.775,1.238-9.075,5.776c-3.301,4.538-4.538,5.776-7.426,7.426c-2.887,1.651-6.601,2.476-7.425,3.713
			c-0.826,1.237-2.063,2.476-3.712,3.3c-1.651,0.826-7.427,4.125-9.49,5.775c-2.062,1.65-8.251,3.713-13.614,5.776
			c-5.362,2.063-8.251,3.713-10.313,4.951c-2.063,1.236-5.362,2.887-8.663,2.887C89.496,297.675,90.322,299.325,92.384,299.738z"/>
		<path style="fill:#231815;" d="M183.967,266.736c3.713-0.825,5.363-4.537,5.363-4.537c7.426-3.3,9.075-4.538,11.965-5.363
			c2.887-0.827,11.549-3.713,14.025-4.539c2.475-0.825,0.412,0,0,1.65c-0.413,1.65,2.062-0.413,4.538-1.237
			c2.475-0.824,6.187-4.125,8.25-5.363c2.064-1.237,14.028-11.55,17.74-14.438c3.712-2.887,6.186-7.012,10.312-7.425
			c4.125-0.413,11.139-3.3,11.139-3.3s23.103-17.326,26.403-23.929c3.299-6.6,9.075-10.726,12.788-10.312
			c3.713,0.414,10.314,1.239,11.964,1.239s6.601,0.411,9.488-1.653c2.888-2.061,3.302-6.598,8.252-6.598
			c4.951,0,17.327-2.063,22.277,1.238c4.95,3.3,8.251,3.3,12.375,6.601c4.125,3.298,13.201,14.438,16.913,19.387
			c3.713,4.951,1.651,10.314,7.013,12.789c5.362,2.476,7.839,1.65,10.314,0.825c2.474-0.825,0.412-4.537,9.488-2.887
			c9.075,1.649,20.214,7.012,28.051,18.15c7.839,11.139,19.802,31.353,30.529,33.829c10.724,2.474,0,3.712-1.238,3.712
			c-1.238,0-4.951-4.538-7.426-5.775c-2.476-1.239-21.451-30.529-28.465-36.716c-7.014-6.188-18.977-9.489-23.101-8.251
			c-4.126,1.237,2.886,3.299-4.126,4.949c-7.013,1.651-15.263,1.651-18.564-0.824c-3.3-2.475-10.725-11.138-10.725-13.613
			c0-2.475-18.563-25.163-22.69-25.163c-4.125,0-7.012,1.648-8.251,1.236c-1.237-0.412-2.062-2.475-0.824-2.889
			c1.237-0.411,2.475-2.472,2.475-2.472s0.825-1.653-6.188,0.411c-7.012,2.061-10.727,2.475-16.09,6.187
			c-5.362,3.716-4.951,3.716-8.663,3.716c-3.713,0-3.3,2.061-7.426,0.409c-4.126-1.65-2.063-3.3-4.126-1.65
			c-2.061,1.65-2.061,3.302-3.3,3.302c-1.237,0-3.712,0.411-3.712,0.411s0.413,2.475-1.237,4.537
			c-1.65,2.064-7.013,7.015-9.901,8.666c-5.775,3.3-7.013,5.362-7.013,5.362s-9.076,7.426-11.551,8.251
			c-2.476,0.826-4.538,3.713-6.601,3.713c-2.064,0-5.776-0.825-7.426,0.412c-1.649,1.239-3.712,3.301-4.951,4.126
			c-1.237,0.826-13.611,9.901-18.563,14.438c-4.95,4.539-12.788,9.902-16.913,10.726c-4.126,0.827-7.015-0.412-7.015-0.412
			c-3.712,0.412-8.249,3.302-10.312,3.302c-2.063,0-2.888,0.412-5.363,2.061c-2.476,1.651-2.062,3.713-4.95,4.538
			C186.029,268.386,183.967,266.736,183.967,266.736z"/>
		<path style="fill:#231815;" d="M18.93,292.088c4.454,0,15.27-5.726,20.995-9.543c5.726-3.817,10.18-7.634,14.633-8.271
			c4.454-0.636,0.637-2.544-7.634,0.637c-8.27,3.18-17.177,12.087-24.175,13.36C15.749,289.543,18.93,292.088,18.93,292.088z"/>
		<path style="fill:#231815;" d="M62.827,271.094c9.543-2.544,28.629-8.907,32.446-10.178c3.817-1.273,15.268-5.09,17.178-6.363
			c1.908-1.272,5.726-5.725,8.907-5.725c3.181,0,12.724-1.909,16.541-5.726c3.816-3.817,6.362-1.272,3.181,1.272
			c-3.181,2.545-17.814,5.725-20.359,8.271c-2.544,2.544-6.997,5.725-9.543,6.998c-2.544,1.273-15.904,5.09-15.904,5.09
			s-6.998,3.181-11.451,3.181c-4.454,0-15.269,3.817-18.45,5.09C62.191,274.274,62.827,271.094,62.827,271.094z"/>
		<path style="fill:#231815;" d="M142.987,237.376c3.181,0.636,7.635-5.726,8.908-7.634c1.272-1.909,5.725-1.909,10.178-1.909
			c4.454,0,10.18-3.18,13.997-2.544c3.816,0.636,12.724,15.268,22.266,19.085c9.543,3.818,3.181-3.817,3.181-3.817
			s-0.636-9.543-2.545-8.27c-1.908,1.272-6.998-1.909-11.451-4.454c-4.453-2.544-8.27-6.998-12.724-6.362
			c-4.452,0.637-18.449,3.182-21.63,2.546c-3.181-0.637-4.454,3.816-6.999,6.361c-2.545,2.545-2.545,3.817-5.725,6.363
			C137.262,239.284,142.987,237.376,142.987,237.376z"/>
		<path style="fill:#231815;" d="M209.152,234.831c2.544-1.272,10.815-3.182,17.176,6.362c6.363,9.543,5.726,5.725,3.818,1.908
			c-1.909-3.817-9.542-13.36-12.724-13.36C209.152,229.741,209.152,234.831,209.152,234.831z"/>
		<path style="fill:#231815;" d="M284.222,304.812c12.106-7.264,32.234-22.055,29.69-24.6c-2.545-2.544-9.332-9.331,0-6.785
			c9.329,2.545,14.42,9.33,10.178,9.33c-4.242,0-5.938,4.241-8.482,4.241c-2.545,0-27.993,19.511-27.993,19.511
			s-4.843,4.019-8.482,5.089C264.712,315.839,275.738,309.901,284.222,304.812z"/>
		<path style="fill:#231815;" d="M258.774,259.854c7.634-2.546,22.903-8.482,25.448-11.875c2.545-3.393,11.027,3.393,11.027,3.393
			s-4.983,3.498-7.846,6.044c-2.864,2.544,1.589,0.954,4.453-0.954c2.863-1.909,5.407-4.135,5.407-4.135s2.864,2.862,0.637,5.089
			c-2.227,2.226-16.541,11.769-21.629,12.723c-5.09,0.955-13.042,0.319-11.452,2.864c1.59,2.544-0.637,5.408,3.499,3.181
			c4.135-2.227,32.763-16.859,35.945-21.631c3.181-4.772,15.587-11.451,20.994-14.632c5.407-3.18,10.497-3.499,15.268-0.318
			c4.773,3.181,9.862,2.544,11.452,3.181c1.59,0.636,3.181,2.545,4.452,5.089c1.273,2.545,4.136,9.225,3.5,12.406
			c-0.637,3.181,3.181,3.499,3.181,3.499l0.636-6.362c0,0,0.318,0.318,4.135,5.09c3.818,4.771,7.953,1.908,5.09,0.636
			c-2.863-1.272-6.362-6.043-8.907-8.589c-2.545-2.545-2.863-4.135-2.863-6.044c0-1.908,3.181-4.772,1.909-5.089
			c-1.273-0.319-2.863-4.772-5.09-5.408c-2.226-0.636-3.181-1.271-6.043-1.908c-2.863-0.636-1.909-2.863-3.5-3.499
			c-1.59-0.636-6.361-4.453-7.316-3.816c-0.954,0.636-1.59-0.637-5.089,0.318c-3.5,0.954-3.5,0.318-5.408,0
			c-1.909-0.318-3.498-3.817-4.772-1.909c-1.272,1.909-1.908,3.816-6.043,5.407c-4.135,1.59-6.044,0.318-6.998,0.637
			c-0.954,0.318-2.864,2.863-2.864,2.863s-1.589,2.863-4.135,2.863c-2.544,0-3.181,4.135-3.181,4.135s1.272,1.272-0.954,2.546
			c-2.226,1.271-4.134,3.18-5.725,2.226c-1.59-0.955-7.316-5.089-8.27-4.772c-0.955,0.319-9.225,5.09-12.088,6.363
			c-2.862,1.271-8.906,6.361-14.314,6.998C255.91,257.098,257.184,260.385,258.774,259.854z"/>
		<path style="fill:#231815;" d="M393.01,263.141c2.863,1.909,15.268,13.678,18.131,17.495c2.863,3.817,12.406,7.634,12.087,15.587
			c-0.318,7.952,1.908,10.815,2.863,11.133c0.954,0.319,5.727-0.318,3.181-1.272c-2.544-0.954-2.544-0.954-2.862-3.18
			c-0.319-2.226-1.59-6.68-1.59-8.271c0-1.59,0.317-4.772-1.591-6.679c-1.909-1.909-6.044-7.316-6.998-8.271
			c-0.955-0.954-6.044-6.68-8.27-8.908c-2.228-2.225-2.863-5.407-7.317-6.679c-4.454-1.273-3.18-0.955-6.679-2.545
			C390.465,259.96,393.01,263.141,393.01,263.141z"/>
		<path style="fill:#231815;" d="M427.046,271.411c0.637-1.59-0.636-2.862,3.499,1.272c4.135,4.136,5.089,8.907,8.589,10.179
			s0.637,3.499-1.273,2.546c-1.909-0.954-2.544-1.591-5.725-5.407C428.955,276.183,427.046,271.411,427.046,271.411z"/>
		<path style="fill:#231815;" d="M365.335,282.545c0.318-5.407,5.408-14.632,8.27-13.677c2.863,0.954,3.817,1.59,5.09,5.406
			c1.273,3.817,2.227,4.772,3.499,5.09c1.272,0.318,7.634-2.863,7.634-2.863s-0.954-1.909-3.18-3.818
			c-2.227-1.909-6.68-7.633-3.817-6.362c2.863,1.272,6.679,4.453,8.27,7.634c1.59,3.181,2.227,5.408,6.044,7.634
			c3.817,2.227,4.772,3.181,6.362,3.499c1.59,0.319-0.318,4.136-1.59,4.771c-1.273,0.637-4.136,2.546-6.044,3.181
			c-1.908,0.636-6.68,0.954-5.407,3.499c1.272,2.545,3.499,5.726,3.499,6.68c0,0.955-0.637,3.181-1.908,3.499
			c-1.273,0.318-8.271,2.227-9.543,1.909c-1.273-0.318-7.634-6.045-8.271-6.999c-0.637-0.954-6.043-11.77-5.726-12.724
			c0.318-0.954,0.954-4.453-1.272-3.817c-2.227,0.636-8.27,5.09-8.27,7.316c0,2.226,3.816,8.271,4.453,10.178
			c0.636,1.909,0.954,6.045,0.954,6.045l-1.272,0.636c0,0-1.273,1.908-2.863,1.59c-1.591-0.319-1.591,0.318-2.228-2.544
			c-0.636-2.863-0.954-3.499-1.272-4.454c-0.32-0.954-3.818-4.136-4.772-3.817c-0.954,0.318-4.135,4.453-6.044,5.724
			c-1.908,1.273-5.725,9.226-8.271,7c-2.544-2.228-7.952,4.453-9.86,6.362c-1.909,1.909-6.681,0-4.453-1.273
			c2.226-1.272,1.271,0.319,3.499-1.589c2.226-1.909,7.316-6.044,8.271-6.681c0.954-0.636,1.272-3.818,1.272-3.818
			s-0.318-5.724,1.271-5.724c1.591,0,3.181-0.319,5.09-0.954c1.908-0.637,3.816-1.59,4.453-2.863
			c0.637-1.273,2.863-4.135,3.817-5.09c0.954-0.954,3.181-1.908,4.135-2.227c0.954-0.318,3.818-1.59,3.818-1.59L365.335,282.545z"/>
	</g>
</g>
</svg>
