<?xml version="1.0" encoding="iso-8859-1"?>
<!-- Generator: Adobe Illustrator 21.1.0, SVG Export Plug-In . SVG Version: 6.00 Build 0)  -->
<svg version="1.1" id="_x36_" xmlns="http://www.w3.org/2000/svg" xmlns:xlink="http://www.w3.org/1999/xlink" x="0px" y="0px"
	 viewBox="0 0 512 512" style="enable-background:new 0 0 512 512;" xml:space="preserve">
<g>
	<path style="fill:#D9D9DA;" d="M478.182,284.474c1.607,1.607,7.633,4.82,10.043,1.607c2.41-3.214,8.436-4.82,8.436-4.82
		s11.65,2.008,11.65,4.419c0,2.41-15.265,6.829-18.88,7.231c-3.615,0.402-9.641-2.41-11.65-4.017
		C475.772,287.286,478.182,284.474,478.182,284.474z"/>
	<g>
		<path style="fill:#FFFFFF;" d="M485.815,289.562c-4.017-1.071-4.821-5.088-4.821-5.088l3.214-4.017l-2.142-2.143
			c0,0-4.017,1.339-7.766,2.41c-3.75,1.071-6.16-1.071-10.713-3.214c-4.553-2.142-10.98-8.034-12.587-10.98
			c-1.607-2.946-0.296-5.343-3.75-3.214c-3.453,2.129-11.784,1.607-11.784,1.607c-3.214-0.803-4.633-0.161-9.909,0.268
			c-5.276,0.429-7.231,0.803-15.8-1.607c-8.265-2.324-17.025-10.623-18.359-11.212c1.27,0.185,9.871,1.035,12.735,1.035
			c3.214,0,1.339,0.803,3.214,0.536c1.874-0.268,4.285-0.803,6.427-3.749c2.142-2.946,3.242-5.976,2.946-10.712
			c-0.402-6.428,1.606-9.641,1.606-9.641s2.946-0.268,9.105-0.803c6.16-0.536,17.14-1.339,20.621-0.536
			c3.482,0.803,6.696,3.214,12.32,3.749c5.624,0.536,5.892-2.41,7.498-5.624c0.901-1.8,1.365-2.834,1.424-3.592
			c0.016-0.007,0.033-0.017,0.049-0.023c2.008-0.803,8.436-8.436,8.837-10.043c0.402-1.607-4.419,0.803-6.427,0.803
			c-2.008,0-1.205-2.812-1.205-2.812s-8.436-0.402-10.043,2.41c0.393,1.964-0.369,3.829-1.435,5.413
			c-0.102-0.155-0.203-0.283-0.306-0.459c-1.874-3.214-5.892-0.268-5.892-0.268s0.268,3.214-1.606,4.553
			c-1.875,1.339-9.373,0.536-12.052,0.268c-2.678-0.268-5.089-2.41-6.695-2.946c-1.607-0.536-8.302,0.803-13.391-0.803
			c-5.088-1.607-2.945-3.482-6.963-6.695c-4.017-3.214-3.749,3.214-3.481,4.553c0.268,1.339,1.072,6.16,0.536,8.034
			c-0.536,1.875-4.821,7.766-6.16,9.909c-1.339,2.143-3.75,2.41-7.498,1.875c-3.75-0.536-6.963,1.875-9.373,2.41
			c-2.41,0.536-2.142,0-1.071-2.41c1.071-2.41-0.268-1.071-2.946-0.536c-2.678,0.536-2.41-1.339-2.41-1.339l0.535-1.875
			c0,0-2.142-0.536-4.821,0.268c-2.678,0.803-3.482,0-1.071-2.142c2.41-2.143-5.624-1.071-6.427-1.607
			c-0.804-0.536-1.607-0.536-5.625,0.803c-4.017,1.339-10.444,1.875-10.444,1.875s-8.034,0.803-11.515,1.071
			c-0.997,0.077-1.788,0.2-2.503,0.346c0.716-1.271,0.805-2.33,1.699-3.225c1.406-1.406,1.808-3.214,0.603-2.812
			c-1.205,0.402-7.432,2.209-12.855,0.602c-5.424-1.607-10.043-6.628-10.846-9.641c-0.803-3.013-5.423-8.838-9.44-13.056
			c-4.017-4.218-8.235-7.231-11.65-8.637c-3.415-1.406-6.829-0.402-10.645-3.816c-3.816-3.415-6.83-7.833-10.846-9.842
			c-3.975-1.987-11.876-5.15-16.323-5.801c16.313-6.385,32.878-12.277,35.939-12.41c6.159-0.268,14.194-2.946,19.818-4.82
			c5.624-1.875,9.105-5.356,12.587-9.373c3.482-4.017,5.892-6.695,5.892-6.695l-4.553,2.678c0,0,0.803-0.803,7.766-7.766
			c6.963-6.963,8.57-12.319,4.285-9.641c5.625-6.695,6.428-12.855,4.553-10.177c-1.874,2.678-10.444,8.838-10.444,8.838
			s4.285-4.285,5.357-7.499s-1.875-0.536-4.018,1.875c-2.142,2.41-3.481,2.946-10.712,7.499c-7.231,4.553-17.408,6.963-22.496,9.105
			c-5.089,2.142-15.533,5.892-23.299,14.194c-2.556,2.732-15.108,9.661-31.107,17.806c-4.92-5.036-12.217-12.016-16.228-13.521
			c-4.123-1.546-7.475-1.425-9.684-0.619c-1.624-0.344-3.184-0.131-4.309,1.154c-0.535,1.071-4.586,6.796-6.695,8.838
			c-1.746,1.69-8.034,1.607-8.837,1.875c-0.804,0.268-0.536,2.678-0.536,3.749s-1.607,1.607-4.017,4.017
			c-2.41,2.41-4.438,6.724-2.946,8.302c0.083,0.087,0.119,0.207,0.136,0.34c-0.27-0.269-0.499-0.572-0.652-0.938
			c-0.131,0.117-0.22,0.196-0.22,0.196c-1.808,1.004-6.026,4.218-6.026,4.218s-3.214,3.415-8.235,5.021
			c-5.022,1.607-12.855,2.209-16.068,1.808c-2.729-0.341-6.461-0.396-8.88-0.773c1.824,0.127,3.676,0.304,4.327,0.304
			c1.339,0,3.482-1.607,5.892-3.749c2.41-2.142-1.607-3.481-3.214-4.553c-1.606-1.071-5.624-2.41-7.766-2.678
			c-2.142-0.268-4.821,2.41-9.105,3.749c-1.824,0.57-3.945,0.652-6.641,0.437c-0.828-0.577-1.659-1.105-2.464-1.508
			c-3.749-1.875-7.766-3.482-9.641-3.482c-1.59,0-4.506,2.104-5.362,2.748c-9.256-0.874-14.325-3.62-15.794-4.354
			c-1.607-0.803-1.607-4.821,0.535-4.285c2.142,0.536,12.587-1.071,17.14-2.678c4.553-1.607,17.408-11.248,19.283-13.391
			c1.874-2.142,7.766-5.088-5.892-8.57c-13.659-2.946-16.069,6.427-17.408,9.641c-1.339,3.214-13.658,9.105-13.658,9.105
			s-4.018-0.268-5.625-2.143c-1.606-1.875-9.641-8.302-12.587-8.838c-2.946-0.535-8.302-0.268-12.319,0
			c-4.018,0.268-5.763,1.077-4.285,4.553c-0.536,1.875-1.339,6.427,1.338,9.106c2.41,2.678-2.142,1.607-2.142,1.607
			s-4.553-0.268-3.481,0c1.071,0.268,3.214,2.143,4.017,3.749c0.803,1.607-4.017,4.553-9.105,3.214
			c-5.089-1.339-9.909-6.963-11.784-9.373c-1.874-2.41-2.946-3.214-6.428-3.214c-3.482,0-8.301,1.071-6.427,3.214
			c1.874,2.142,4.821,2.41,4.821,2.41s-1.875,1.875-1.071,3.749c0.803,1.875,5.892,2.678,7.766,4.285
			c1.874,1.607,9.373,10.98,10.98,11.516c1.606,0.536,6.695-2.678,8.569-2.678c1.874,0,6.695,6.695,9.909,9.909
			c-3.214,17.943,5.891,24.103,5.891,24.103s1.875,2.678,2.678,3.481c0.804,0.803-2.945,5.892-2.945,5.892l-10.191,3.882
			c-1.243,0.116-2.091,0.169-2.396,0.135c-2.41-0.268-9.106,0.536-10.713,0c-1.607-0.536-4.553-3.749-6.695-6.16
			c-2.143-2.41-6.428-1.071-4.018-2.678c2.41-1.607,5.624-3.482,1.874-4.553c-3.749-1.071-4.017-0.268-8.301,0.536
			c-4.285,0.803-5.892-1.875-3.482-4.553c2.41-2.678,2.41-5.624,1.338-7.231c-1.071-1.607-3.214,2.678-4.82,3.481
			c-1.607,0.804-1.071,2.946-3.482,4.821c-2.41,1.875-2.946,2.946-4.553,3.482c-1.606,0.536-4.82,3.482-6.159,4.82
			c-1.339,1.339-8.302,7.766-13.658,8.034c-5.357,0.268-4.553,1.071-3.482,3.481c1.071,2.41,1.339,3.482,3.482,4.285
			c0,0,1.243,0,3.214,0v0c-5.892,13.123-5.089,15.265-1.875,14.462c3.214-0.803,2.547-7.332,5.357-8.034
			c1.978-2.054,3.24-4.03,3.866-5.659c0.445,0.17,0.687,0.303,0.687,0.303l-1.606,2.41c0,0,1.338,2.143,5.624,2.41
			c4.285,0.268,2.142-0.268,3.481-0.803c1.338-0.536,7.766,0.536,8.569,0.268c0.804-0.268,1.514,0.402,5.356,2.946
			c3.843,2.544,7.231,11.784,7.231,11.784s1.607,1.339,2.41,2.41c0.803,1.071-0.535,2.946-0.803,4.017
			c-0.268,1.071-4.553,1.071-7.766,1.071c-3.214,0-3.481,1.607-2.946,3.749c0.536,2.142,0.583,6.007-0.535,8.57
			c-1.119,2.563-1.339,5.356,0.535,5.624c1.874,0.268,6.428-1.875,7.231-2.678c0.803-0.803,2.142,0.536,4.017,0.268
			c1.875-0.268,7.499-1.339,11.249-1.875c3.749-0.536,3.214-3.749,3.481-5.356c0.267-1.607,1.606-0.536,3.482,1.071
			c1.874,1.607,1.338,1.607,1.338,2.946c0,1.339,0.804,2.142-1.874,5.088s-5.356,3.482-9.373,4.553
			c-4.017,1.071-2.946,3.749-2.946,9.105c-0.803,4.285,0,6.16,1.874,7.231c1.875,1.071,0.585,1.487,2.678,3.482
			c2.094,1.994,4.285-0.536,5.088-0.268c0.804,0.268,3.75-1.875,3.481-2.946c-0.267-1.071-1.071-0.803-2.142-5.624
			c-1.071-4.82,8.57-8.302,12.32-8.57c3.749-0.268,12.855-1.339,14.461-2.678c1.607-1.339,0.268-6.427,0.268-6.427
			s5.892,0.268,7.766,0.268c1.875,0,21.157,1.339,22.228,1.339c1.071,0,4.017-3.214,5.624-3.214c1.607,0,6.16-1.071,9.909-1.875
			c0.295-0.063,0.726-0.23,1.249-0.468c0.036,0.068,0.049,0.132,0.09,0.2c1.607,2.678,2.678,4.285,5.892,4.821
			c3.214,0.536,6.428-1.607,8.302-2.678l6.428,1.339c0,0,1.071-0.268,2.946-0.268c1.875,0,10.98-1.339,13.39-1.071
			c2.41,0.268,10.98,1.071,13.123,0c2.142-1.071,6.16,1.339,6.16,1.339s11.248,6.695,14.461,10.177
			c3.214,3.482,5.089,7.767,5.089,7.767s-1.071,1.071-5.089,3.481c-4.017,2.41-2.735,4.053-2.41,6.427
			c0.325,2.374,1.875,4.82,1.875,4.82s1.071,5.624,2.678,11.784c1.607,6.16,1.339,5.624-0.535,7.766
			c-1.874,2.143-1.874,4.285-0.535,5.624c1.338,1.339,3.481,2.678,6.159,4.553c2.678,1.875,7.074,6.276,7.766,6.427
			c0.693,0.151,1.607,1.875,3.482,4.285c1.875,2.41,1.607,15.533,1.607,19.282s1.339,1.071,3.214,1.607
			c1.875,0.536,4.018,3.214,5.357,3.214c0.288,0,0.674-0.085,1.099-0.21c4.982,1.774,12.962,3.959,12.962,3.959
			s0.803-4.821,1.204-6.427c0.402-1.607-5.222-6.829-5.222-6.829s-4.279,0.177-7.968,0.177c0.322-0.385,0.689-0.75,0.871-1.115
			c0.535-1.071-0.268-2.946,0.535-4.821c0.804-1.875-0.535-0.803-1.606-0.536s-3.214,0-3.214,0l-1.071-1.607l-2.946-2.142
			c0,0-0.268-8.838-0.268-9.909c0-1.071-0.535-2.41,0.268-2.678c0.804-0.268,2.946-2.678,4.018-5.088s8.034-6.16,10.176-7.767
			c2.142-1.607,8.57-4.82,11.248-5.892c2.678-1.071,16.248-2.161,22.764-0.803c6.517,1.358,7.499-2.142,9.373-4.553
			c1.875-2.41-0.267-2.678-1.07-4.017c-0.804-1.339-3.482-3.482-4.285-4.821c-0.803-1.339,7.231-0.268,8.57-0.803
			c0.317-0.127,0.559-0.363,0.808-0.693c1.006-0.875,2.661-2.368,3.209-3.19c0.804-1.205,6.026-4.419,9.641-6.427
			c0.01-0.006,0.027-0.012,0.037-0.018c4.45-1.496,9.787-2.749,15.228-4.669c0.516-0.182,1.061-0.377,1.619-0.576
			c4.47-1.234,8.636-2.388,10.834-3.173c5.624-2.009,16.47-7.231,16.47-7.231s9.005-3.537,16.638-6.34
			c1.588,0.946,2.851,2.081,3.18,3.394c1.071,4.285,2.447,8.265,4.82,10.98c2.374,2.715,5.892,5.892,8.57,4.285
			c1.874-1.875-1.339-2.946-1.607-4.82c-0.267-1.875,7.499,0.535,8.57,1.339c1.071,0.803,6.428,4.821,6.695,0.803
			c2.678,0.536,5.089-0.268,4.285-2.142c-0.804-1.875-3.214-3.749-3.749-5.088c-0.536-1.339,5.088,1.071,5.088,1.071
			s1.895-1.565,0.268-4.017c-1.627-2.452-4.017-3.749-7.498-4.553c-3.481-0.803-5.357,0.268-7.767-1.875
			c-1.122-0.998-1.603-2.759-2.043-4.673c2.211,0.28,5.247,0.656,6.595,0.656c1.607,0,9.106,1.607,13.391,1.071
			c4.285-0.536,8.837-3.214,12.319-5.088c3.482-1.875,12.587-4.017,15.533-4.285c2.946-0.268,2.79-0.141,9.105,2.142
			c6.314,2.283,3.214,0.268,4.285,0c1.071-0.268,9.373,2.678,12.855,3.214c3.481,0.536,16.604,9.641,18.211,11.784
			c1.607,2.142,6.428,2.678,6.428,2.678s4.017-2.143,5.088-3.482C491.975,291.437,489.831,290.634,485.815,289.562z
			 M210.843,221.405c0,1.808-0.401,5.825-2.812,7.633c-2.41,1.808-6.628,4.218-9.239,4.419c-2.611,0.201-2.008-0.603-2.812-2.41
			c-0.803-1.808-1.406-2.209-2.209-0.603c-0.803,1.607-1.205,3.013-2.209,5.021c-1.004,2.008-3.852,6.417-4.888,7.499
			c0,0-2.841,1.588-4.111,2.787c-0.09-0.849-0.519-1.713-1.513-2.519c-4.285-3.482-1.874-14.729-1.874-14.729
			s6.159-1.339,5.624-2.946c-0.536-1.607-2.678-3.481-0.536-4.553c2.142-1.071,8.302-5.892,5.089-5.892
			c-3.214,0-6.427-1.339-11.248-3.481c0.728-0.089,1.546-0.234,2.432-0.422c0.393-0.013,0.786-0.027,1.183-0.047
			c4.018-0.201,11.249-0.402,16.671-1.205c5.423-0.803,11.65-0.402,15.667-3.214c4.017-2.812,1.205,2.611,10.042,6.227
			c1.942,0.795,3.639,1.397,5.133,1.872c-0.754,0.779-1.81,1.838-3.325,2.949c-3.012,2.21-7.833,6.227-9.842,5.423
			c-2.008-0.803-3.214-4.62-4.62-5.423C210.039,216.986,210.843,219.598,210.843,221.405z M242.913,186.456L242.913,186.456
			L242.913,186.456c-1.083-0.295,0.109-0.582,2.246-0.999C244.484,185.743,243.743,186.063,242.913,186.456z M125.345,192.884
			c-0.402,0.08-0.857,0.032-1.348-0.07C124.607,192.855,125.103,192.884,125.345,192.884z M171.676,255.015
			c-0.879,0.352-3.946,1.394-5.953,2.07c2.392-2.037,5.448-3.976,6.489-5.016c1.143-1.143,3.491-1.332,5.049-1.252
			c-0.465,0.437-0.764,0.717-0.764,0.717S173.015,254.48,171.676,255.015z M195.52,244.067c1.172-1.525,2.215-2.92,2.468-3.38
			c0.649-1.174,3.013-3.214,3.615-3.816c0.603-0.603,4.62,0,7.03-0.803c2.41-0.803,8.436-8.637,9.842-10.043
			c1.406-1.406,2.209-0.603,5.222-1.205c3.013-0.602,7.03-3.816,8.637-6.026c0.752-1.034,1.453-1.887,1.973-2.611
			c1.97,0.409,3.072,0.519,3.45,0.803c0.803,0.603,4.218,3.616,4.218,3.616s5.722,3.601,6.681,5.482
			c-2.078,1.521-5.401,2.725-7.351,4.025c-3.214,2.142-6.963,7.231-8.837,8.57c-0.76,0.543-1.24,1.439-1.437,2.383
			c-1.539,0.643-3.249,1.462-4.12,2.237c-1.808,1.607-7.231,1.607-7.231,1.607s-0.201-3.816-0.402-6.829
			c-0.201-3.013-0.602-3.816-2.812-2.41c-2.209,1.406-2.209,3.816-3.013,6.026c-0.803,2.209-0.803,2.812-3.615,5.222
			c-1.571,1.347-4.291,1.934-6.585,2.335c0.248-0.424,0.528-0.838,0.827-1.197c1.339-1.607-1.607-3.481-3.481-4.553
			c-1.874-1.071-3.482,0-3.482,0S196.058,246.411,195.52,244.067z M240.235,338.571c-8.034,4.285-11.711,4.889-12.855,5.356
			c-1.144,0.467-3.214,3.482-3.214,3.482s-2.791-3.074-4.553-5.892c-1.762-2.818-2.678-3.482-2.946-6.16
			c-0.267-2.678-0.518-11.733-0.267-12.319c0.25-0.586,0.267-2.946,0.267-2.946s1.875-1.339,2.143-2.41
			c1.338,1.071,2.677,0.803,5.624,0.536c2.946-0.268,5.891,1.607,8.034,3.482c2.142,1.875,6.427,6.963,10.98,5.624
			c3.482,1.071,6.428,2.946,6.428,2.946S248.269,334.286,240.235,338.571z M254.696,263.317c-1.874,0.536-9.641,4.553-14.997,4.553
			c-5.356,0-16.068-0.803-16.872-0.803c-0.803,0,0.803-0.803,1.874-2.946c1.071-2.142,0.268-2.946-2.945-2.946
			s-8.57,1.071-10.712,0.536c-2.142-0.536-2.946-1.339-2.946-1.339s-0.804-2.143-0.536-2.946c0.126-0.379,0.069-0.698-0.021-1.014
			c0.029-0.021,0.059-0.036,0.088-0.057c2.41-1.808,7.432-5.624,9.239-7.432c1.808-1.808,3.214,0.201,5.022,0.603
			c1.807,0.402,5.022-0.201,7.833-1.205c1.49-0.532,3.14-1.744,4.521-3.092c1.546,0.262,3.044,0.146,3.044,0.146
			s5.892,2.678,8.035,1.071c4.553,1.339,6.427,0.803,7.766-0.268c1.339-1.071,3.213-1.339,2.677-2.678
			c-0.535-1.339-2.945-3.481-1.606-5.356c1.339-1.875,9.909-2.946,12.855-3.214c0.768-0.07,2.129-0.376,3.943-0.691
			c0.584,0.332,1.016,0.791,0.945,1.428c-0.201,1.808-4.62,0.602-3.816,2.812c0.745,2.05,0.64,3.758,1.582,5.758
			c0.301-0.189,0.911-0.281,2.033-0.135c4.62,0.603-7.432,10.645-3.615,11.449c0.35,0.074,0.815,0.053,1.368-0.043l-9.135,6.471
			C260.32,261.978,256.571,262.781,254.696,263.317z M280.18,251.072c4.748-2.442,8.997-4.961,8.997-4.961s5.825-2.41,9.641-0.201
			c0.147,0.085,0.282,0.174,0.42,0.261L280.18,251.072z"/>
		<path style="fill:#FFFFFF;" d="M269.894,244.704c-0.087-0.159-0.152-0.313-0.225-0.468
			C268.728,244.827,270.807,246.377,269.894,244.704z"/>
	</g>
	<g>
		<path style="fill:#231815;" d="M214.6,161.555c-2.895,4.053-3.289,6.665-8.856,7.358c-1.957,0.244-3.318,0.063-4.281,2.079
			c-0.401,0.839-0.395,4.289-1.808,1.912c-0.703-1.183,0.2-4.116,1.208-4.829c1.608-1.137,5.079-0.177,6.981-0.768
			c2.017-0.628,3.172-1.783,4.359-3.493C212.62,163.212,215.286,160.595,214.6,161.555z"/>
		<path style="fill:#231815;" d="M196.661,176.106c0.258-0.143,1.711-1.12,2.196-0.976c0.08,0.024-3.569,4.731-3.715,5.032
			c-0.508,1.048-1.468,3.389-0.773,4.54c1.707,2.829,7.069,0.356,9.207-0.358c2.408-0.804,2.517,0.472,0.38,1.676
			c-2.282,1.286-6.118,1.117-8.558,0.408C190.709,185.065,193.189,178.189,196.661,176.106z"/>
		<path style="fill:#231815;" d="M197.059,190.259c0.935,4.208,5.76,1.32,7.891,2.227c2.375,1.011,1.783,5.096,4.695,6.365
			c0.687,0.3,3.013,0.982,3.735,0.535c1.267-0.784,0.283-2.113,0.825-3.078c0.62-1.103,5.549-2.094,6.05-0.402
			c0.28,0.944-3.701,0.369-3.856,0.474c-1.281,0.864,0.223,1.721-0.354,2.823c-0.635,1.214-3.012,1.728-4.28,1.974
			c-2.425,0.47-2.908,0.262-4.115-1.9c-0.898-1.61-1.318-3.703-3.216-4.434c-1.638-0.631-3.638,0.252-5.296-0.433
			c-1.456-0.602-2.108-1.129-2.376-2.78C196.724,191.393,196.818,189.174,197.059,190.259z"/>
		<path style="fill:#231815;" d="M204.833,177.9c2.242,2.69,7.753-0.439,7.894,4.377c0.057,1.96-3.527,7.054-5.502,7.009
			c-1.188-0.027,2.097-2.826,2.28-3.037c0.796-0.917,2.564-3.547,2.15-4.886c-0.407-1.32-8.275-1.353-7.916-2.791
			C203.822,178.243,204.548,177.99,204.833,177.9z"/>
		<path style="fill:#231815;" d="M214.091,158.169c0-4.074,5.275-1.936,7.698-2.917c3.209-1.298,4.61-3.881,8.332-4.637
			c6.11-1.241,12.593-1.729,18.811-1.906c3.272-0.093,6.69-0.13,9.911,0.549c3.66,0.771,6.438,3.445,10.019,4.385
			c6.179,1.623,11.33-4.692,17.678-4.59c8.443,0.135,10.373,7.676,10.019,14.922c-0.406,8.325-4.009,15.567-12.31,18.372
			c-8.488,2.868-14.81-2.725-22.977-2.627c-3.659,0.044-7.32,0.337-10.975,0.492c-2.346,0.099-6.774,1.026-8.644-0.843
			c-2.105-2.104,1.082-2.991-0.309-5.203c-0.913-1.451-2.908-1.034-3.798-2.712c-0.582-1.097-0.249-2.656-0.818-3.85
			c-1.807-3.792-7.845-6.68-11.783-7.705C223.258,159.46,214.091,159.877,214.091,158.169z"/>
		<path style="fill:#231815;" d="M245.483,185.077c1.904-1.269,5.988-2.931,8.371-2.093c1.901,0.668,3.109,3.082,0.588,3.563
			c-1.305,0.249-2.613-0.619-4.125-0.298c-3.141,0.665-6.055,2.847-7.921,5.401c-2.673,3.658-4.226,10.139-2.954,14.624
			c1.704,6.006,10.432,7.931,15.188,10.925c4.965,3.126,8.824,8.753,15.237,8.576c1.227-0.034,5.574-2.058,6.336-0.373
			c0.961,2.128-4.672,2.317-5.713,2.342c-6.046,0.149-8.311-3.065-12.122-6.77c-4.285-4.166-10.819-5.393-15.702-8.776
			c-5.757-3.988-7.285-8.662-5.371-15.335C238.747,191.8,241.141,188.14,245.483,185.077z"/>
		<path style="fill:#231815;" d="M263.422,180.892c4.561,0.912,9.178,3.271,13.065,5.768c4.713,3.026,7.181,7.477,12.949,8.838
			c10.62,2.506,16.915,10.459,23.502,18.695c1.101,1.376,1.787,3.434,2.9,4.666c1.587,1.755,1.823,0.768,1.094-1.158
			c-1.729-4.574-6.022-9.032-9.259-12.551c-4.007-4.357-8.261-7.692-13.902-9.667c-3.701-1.296-7.647-1.617-10.475-4.497
			c-4.838-4.928-8.34-8.805-15.187-10.929c-0.768-0.238-7.348-2.021-7.673-0.656C260.261,180.138,262.853,180.733,263.422,180.892z"
			/>
		<path style="fill:#231815;" d="M319.331,221.851c3.905,3.905,7.578,6.129,13.131,5.959c2.167-0.067,5.594-1.538,7.548-1.125
			c2.627,0.555-0.125,1.484-1.191,1.806c-4.704,1.42-10.088,2.861-14.746,0.5c-1.816-0.92-3.697-2.502-4.931-4.129
			C318.453,223.951,316.83,219.351,319.331,221.851z"/>
		<path style="fill:#231815;" d="M271.494,194.645c0.854,0.925,9.635,8.883,10.688,7.938c-2.069,1.857-8.018-2.289-9.455-3.64
			C271.992,198.251,268.347,193.866,271.494,194.645z"/>
		<path style="fill:#231815;" d="M279.268,203.913c3.129,2.086,6.501,2.079,9.473,4.56c0.82,0.684,7.549,5.292,7.176,5.941
			c-0.378,0.658-8.98-5.738-9.947-6.138c-2.036-0.843-4.902-0.607-6.703-1.97C278.253,205.536,277.1,202.468,279.268,203.913z"/>
		<path style="fill:#231815;" d="M288.536,214.377c2.008,2.41,7.138,5.469,6.111,9.043c-0.77,2.681-4.023,5.658-5.837,7.665
			c-1.873,2.073-3.811,4.38-6.525,5.236c-1.344,0.424-12.372,1.942-12.188,0.308c0.022-0.191,10-2.039,11.092-2.553
			c3.319-1.562,6.719-3.957,9.36-6.483c2.718-2.601,4.576-6.075,1.236-9.045c-1.182-1.051-3.583-1.446-4.457-2.759
			C286.516,214.57,287.142,212.704,288.536,214.377z"/>
		<path style="fill:#231815;" d="M205.842,210.379c-3.085-0.156-5.911,0.23-8.846,1.079c-1.9,0.549-6.442,2.62-8.282,1.319
			c0.868,0.678,9.623-3.457,11.073-3.723c1.348-0.247,10.035-0.138,9.814,0.56C209.466,210.044,206.449,210.252,205.842,210.379z"/>
		<path style="fill:#231815;" d="M193.906,208.726c-5.836,0.747-11.528,5.512-17.65,4.596c0.706,0.106,3.93-1.672,4.813-1.937
			c2.335-0.702,4.443-1.659,6.695-2.533c1.645-0.638,3.492-1.2,5.233-1.484c0.233-0.038,5.317,0.032,4.638,0.747
			C197.33,208.433,194.655,208.419,193.906,208.726z"/>
		<path style="fill:#231815;" d="M180.151,209.419c-5.033,1.465-12.941,5.977-18.286,3.93c0.775,0.297,21.854-6.354,21.84-5.927
			C183.692,207.886,180.724,209.085,180.151,209.419z"/>
		<path style="fill:#231815;" d="M166.343,210.588c-2.775,1.127-8.12,2.949-11.085,1.53c0.571,0.273,12.711-3.563,12.799-3.408
			C168.249,209.051,166.568,210.402,166.343,210.588z"/>
		<path style="fill:#231815;" d="M156.927,210.396c-3.936,0.115-11.751,0.387-14.588-3.009c1.016,1.216,17.616,1.258,17.64,1.629
			C160.012,209.526,157.201,210.303,156.927,210.396z"/>
		<path style="fill:#231815;" d="M132.889,202.378c-3.242-1.668-7.534-2.369-10.531-4.304c0.132,0.086,1.658-0.251,2.001-0.238
			c1.603,0.061,3.437,0.858,4.907,1.454c0.91,0.369,6.488,2.988,6.185,3.441C135.192,203.12,133.456,202.477,132.889,202.378z"/>
		<path style="fill:#231815;" d="M142.042,203.261c-2.053-0.609-2.891-1.618-4.487-2.567c1.352,0.741,4.398,0.509,5.574,1.792
			C143.518,202.914,142.216,203.218,142.042,203.261z"/>
		<path style="fill:#231815;" d="M143.161,200.296c-0.987-0.771-1.7-1.997-2.342-2.602
			C141.121,197.968,146.087,199.955,143.161,200.296z"/>
		<path style="fill:#231815;" d="M144.418,197.613c-2.548-0.78-2.55-1.978-3.897-3.501c0.269,0.29,4.929,3.119,4.963,3.107
			C145.121,197.342,144.791,197.515,144.418,197.613z"/>
		<path style="fill:#231815;" d="M141.123,191.997c-3.214-3.55-7.636-5.772-12.174-7.167c-1.815-0.558-3.966-1.206-5.887-0.868
			c-1.828,0.322-3.242,1.738-5.063,2.083c2.567-0.485,3.625-3.241,6.789-3.197c3.065,0.043,6.305,1.356,9.072,2.52
			c1.7,0.715,12.742,9.435,12.052,9.886C145.11,195.769,141.552,192.367,141.123,191.997z"/>
		<path style="fill:#231815;" d="M125.629,188.131c-0.062,0.323-0.026,3.302,0.841,3.459c-1.339-0.263-3.602-2.687-1.701-4.324
			C125.147,186.946,125.544,187.927,125.629,188.131z"/>
		<path style="fill:#231815;" d="M125.456,193.65c-2.36-0.37-3.923-0.486-6.133-1.281c-0.825,0.651-0.694,1.485-0.542,2.44
			c-0.209-1.312-1.936-3.141,0.792-3.537c1.151-0.167,8,2.344,8.105,2.191C127.47,193.767,125.982,193.563,125.456,193.65z"/>
		<path style="fill:#231815;" d="M148.914,195.242c4.131-0.435,8.41,0.526,12.548,0.717c4.389,0.202,8.817,0.387,13.2-0.033
			c4.317-0.414,7.917-1.71,11.097-4.717c0.866-0.819,4.745-4.496,2.019-4.582c-1.364-0.043-2.982,2.493-3.88,3.373
			c-2.114,2.073-4.559,3.514-7.496,4.092c-4.182,0.822-8.877,0.625-13.125,0.539c-2.029-0.041-8.67,0.42-10.062-0.972
			c0.285,0.285,1.282,0.315,1.679,0.388C153.278,193.629,149.437,192.888,148.914,195.242z"/>
		<path style="fill:#231815;" d="M210.204,204.212c2.12-0.283,5.66-2.09,7.287-0.23c0.527,0.603,0.64,2.325,1.111,3.122
			c0.864,1.461,2.302,2.693,3.635,3.691c4.934,3.69,11.594,4.583,17.565,5.376c-5.595,1.143-11.464,0.45-16.522-2.307
			c-2.767-1.508-4.44-4.172-6.837-6.155C214.529,206.125,212.222,205.631,210.204,204.212z"/>
		<path style="fill:#231815;" d="M215.586,177.902c1.537,1.537,3.896,2.623,2.791,4.893c-0.699,1.437-1.678,1.814-2.567,0.451
			C215.172,182.267,216.415,179.472,215.586,177.902z"/>
		<path style="fill:#231815;" d="M253.555,226.037c1.738-0.772,5.421-0.289,2.99,2.093c-1.053,1.031-3.303,1.105-4.655,1.213
			c-3.208,0.257-6.228-0.65-9.051,1.072c-2.894,1.766-4.924,4.589-7.223,6.984c-1.166,1.214-3.261,2.324-3.656,4.064
			c-0.186,0.819,1.359,4.568,0.269,4.89c-1.102,0.325-2.481-2.663-2.559-3.436c-0.179-1.775,0.826-2.769,1.933-4.015
			c2.387-2.686,5.164-5.263,7.983-7.491C244.236,227.736,247.868,227.09,253.555,226.037z"/>
		<path style="fill:#231815;" d="M244.586,237.697c3.698-0.528,3.149,2.828,4.401,5.097c0.419,0.76,5.855,4.498,6.278,3.482
			c-0.993,2.384-6.385-0.423-7.25-1.565C246.449,242.642,245.489,240.104,244.586,237.697z"/>
		<path style="fill:#231815;" d="M290.544,245.273c1.177-2.059,0.148-3.025,2.833-2.962c3.238,0.076,6.4,2.311,8.16,4.869
			c4.858,7.061,2.53,16.15,3.893,24.071c1.54,8.953,8.012,12.369,15.379,16.439c2.836,1.567,5.629,3.463,8.661,4.641
			c0.798,0.31,6.489,1.497,6.664,1.005c-0.693,1.947-5.462,1.309-6.88,0.837c-3.283-1.09-6.225-3.366-9.233-5.017
			c-5.691-3.123-12.738-6.759-15.923-12.789c-2.818-5.334-0.527-12.48-1.088-18.229
			C302.225,250.089,298.427,246.171,290.544,245.273z"/>
		<path style="fill:#231815;" d="M325.625,235.307c6.225,2.83,5.255,11.959,5.622,17.463c0.176,2.636,0.715,5.468,2.542,7.496
			c0.244,0.271,3.394,2.582,3.41,2.56c-0.572,0.785-3.302-0.93-3.77-1.271c-2.919-2.131-3.343-5.411-3.65-8.771
			c-0.318-3.478-0.221-7.484-1.569-10.764C327.306,239.82,324.441,237.915,325.625,235.307z"/>
		<path style="fill:#231815;" d="M340.376,292.314c5.29,0,10.639-2.883,15.873-3.688c1.789-0.275,7.524-1.182,8.857,0.357
			c0.845,0.976,0.351,0.522-0.811,0.939c-1.737,0.624-4.489,0.202-6.379,0.399c-3.5,0.365-6.907,0.98-10.256,2.071
			c-2.393,0.78-5.038,2.195-7.585,2.33C336.146,294.931,336.84,292.314,340.376,292.314z"/>
		<path style="fill:#231815;" d="M332.801,264.807c2.567,1.834,6.018,2.954,9.155,3.122c1.457,0.078,6.424-0.544,2.605,0.864
			C341.814,269.807,332.181,269.542,332.801,264.807z"/>
		<path style="fill:#231815;" d="M338.781,271.584c3.144,0.898,7.14-0.387,10.28-0.819c0.963-0.133,10.029-0.22,8.861,1.883
			c-0.342,0.616-3.192-0.652-3.726-0.741c-3.175-0.529-6.098,0.744-9.184,1.218C343.77,273.316,335.116,273.691,338.781,271.584z"/>
		<path style="fill:#231815;" d="M358.315,275.172c1.597,0.532,3.19,1.081,4.823,0.381c0.195-0.084,2.272-1.877,2.367-1.727
			c1.166,1.841-4.267,3.707-5.197,3.738c-0.808,0.027-2.978-0.056-3.176-1.151C357.018,275.777,357.511,274.904,358.315,275.172z"/>
		<path style="fill:#231815;" d="M281.773,267.199c0-1.202-0.204-4.272,1.069-5.029c1.548-0.92,2.685,0.757,3.919,1.528
			c1.234,0.772,3.864,1.398,3.906,3.032c0.071,2.75-6.529,7.031-8.406,8.464c-3.994,3.049-8.339,5.627-12.208,8.843
			c-7.309,6.073-12.815,15.549-15.386,24.663c-1.531,5.429-1.202,14.939,5.978,16.303c-6.095,0-9.418-8.681-9.407-13.562
			c0.016-7.821,4.447-16.449,9.207-22.451C266.587,281.243,277.566,276.438,281.773,267.199z"/>
		<path style="fill:#231815;" d="M293.334,305.071c1.686-1.124,8.924-1.73,7.466,1.797c-0.953,2.305-7.557,3.333-9.577,4.593
			c-6.861,4.282-5.183,11.986-0.281,17.13c-4.407-2.339-9.119-7.153-6.997-12.448C285.695,311.78,289.796,308.039,293.334,305.071z"
			/>
		<path style="fill:#231815;" d="M297.321,320.22c-1.931,2.482-1.576-1.335-1.127-2.569c0.637-1.751,0.705-1.664,2.522-2.688
			c6.13-3.452,12.304-5.953,19.095-7.718c6.771-1.76,13.425-4.091,20-6.468c2.689-0.972,5.401-1.934,8.022-3.08
			c1.859-0.812,6.368-4.047,8.345-3.215c0.184,0.077-7.716,4.475-8.455,4.804c-5.509,2.449-11.114,4.736-16.815,6.701
			c-6.557,2.261-13.254,4.073-19.731,6.576C304.805,314.254,300.088,316.21,297.321,320.22z"/>
		<path style="fill:#231815;" d="M250.678,339.754c4.226-1.878,8.3-3.998,12.906-4.816c3.664-0.651,7.408-0.383,11.109-0.402
			c4.314-0.022,15.907,0.564,16.249-5.944c2.476,2.123-0.932,5.657-2.693,6.842c-4.212,2.837-9.754,1.91-14.529,1.688
			c-4.703-0.219-9.167-0.588-13.745,0.762C258.012,338.463,252.035,342.499,250.678,339.754z"/>
		<path style="fill:#231815;" d="M374.66,272.382c6.213-1.912,11.083-1.281,11.995,5.906c0.384,3.028,0.114,6.613,2.308,9.023
			c0.835,0.917,5.898,4.02,1.714,3.634c-4.767-0.44-5.737-10.052-6.964-13.42c-0.964-2.648-2.726-3.873-5.552-4.005
			c-1.016-0.047-8.785,1.457-8.783,1.438C369.514,273.749,373.954,272.599,374.66,272.382z"/>
		<path style="fill:#231815;" d="M368.68,290.321c6.05,3.025,4.903,11.967,9.975,16.15c2.194,1.81,2.977,1.897,5.041,0.727
			c0.603-0.342,0.45-1.089,1.258-1.046c0.47,0.025,2.065,1.789,1.945,2.189c-0.529,1.769-5.38,0.518-6.515-0.072
			c-2.739-1.422-5.537-4.221-6.829-7.011c-1.12-2.418-0.947-5.352-2.352-7.61c-0.935-1.503-2.309-1.388-3.385-2.459
			C367.017,290.392,367.104,289.533,368.68,290.321z"/>
		<path style="fill:#231815;" d="M380.241,296.035c0.718,2.153,2.213,4.766,4.111,6.111c2.241,1.587,4.648,0.55,7.055,1.358
			c1.183,0.397,4.641,4.205,6.098,2.623c0.918-0.997-1.064-2.356-2.116-1.055c-1.359-3.115,5.109-0.809,3.317,1.993
			c-1.297,2.028-7.149-2.015-9.013-2.319c-4.421-0.72-6.528-0.938-9.32-4.857C379.534,298.71,376.319,294.41,380.241,296.035z"/>
		<path style="fill:#231815;" d="M385.291,295.769c1.985,2.233,3.175,2.982,5.98,3.455c2.881,0.486,3.904,1.631,5.955,3.699
			c1.138,1.147,4.018,3.877,4.941,0.952c1.225-3.879-3.161-0.696-4.119-1.312c-0.877-0.564,2.353-2.036,3.056-2.01
			c-1.202-0.184-1.877-1.577-2.176-2.674c0.068,0.249,2.382,2.009,2.885,2.612c0.812,0.973,2.444,2.312,2.103,3.712
			c-0.919,3.78-6.172,0.966-7.609-0.387c-1.268-1.194-2.35-2.586-4.037-3.21c-1.31-0.484-2.72-0.223-4.022-0.784
			C387.295,299.413,382.863,296.106,385.291,295.769z"/>
		<path style="fill:#231815;" d="M394.672,290.915c2.652,0.589,7.977,2.042,9.414,4.681c1.274,2.338,0.358,2.909-1.638,2.413
			c-1.141-0.284-6.481-4.004-7.395-2.112c-0.224,0.463,4.919,1.957,5.424,2.275c2.009,1.266,4.207,4.737,5.508,0.676
			c0.861-2.686-1.074-4.872-3.211-6.112c-2.017-1.171-4.814-2.49-7.065-3.202C394.139,289.035,393.137,289.058,394.672,290.915z"/>
		<path style="fill:#231815;" d="M362.415,279.779c1.151,0.035,4.568-1.013,5.586-1.459c-1.716,0.767-2.865,2.64-5.011,2.61
			C361.287,280.906,360.893,280.501,362.415,279.779z"/>
		<path style="fill:#231815;" d="M364.783,282.477c1.852-0.1,6.285-0.359,7.478,1.719c-0.043-0.074-3.778-0.438-4.289-0.487
			c-1.307-0.125-3.288,0.367-4.476-0.087C362.922,283.409,364.688,282.513,364.783,282.477z"/>
		<path style="fill:#231815;" d="M366.225,286.147c2.16,0.666,6.932,1.688,8.139,4.027c-0.143-0.277-10.41-3.117-10.182-3.76
			C364.269,286.167,366.011,286.126,366.225,286.147z"/>
		<path style="fill:#231815;" d="M331.733,233.269c3.078,0.553,5.289-2.713,8.116-2.541c-0.72-0.044-4.07,3.26-5.5,3.615
			c-0.305,0.076-5.136,0.136-4.547-0.847C329.863,233.394,331.464,233.266,331.733,233.269z"/>
		<path style="fill:#231815;" d="M332.845,236.643c1.048-0.058,1.876-0.841,2.889-0.984c0.737-0.104,1.584,0.224,2.094,0.187
			c-1.289,0.129-4.322,3.176-5.827,1.775C331.701,237.348,332.685,236.741,332.845,236.643z"/>
		<path style="fill:#231815;" d="M332.257,243.923c2.019-1.528,1.682-5.117,2.249-7.086c-0.471,1.546,1.015,3.61,0.415,5.39
			c-0.182,0.541-3.088,4.487-3.639,3.229C331.206,245.282,332.129,244.061,332.257,243.923z"/>
		<path style="fill:#231815;" d="M241.655,241.502c0.69,3.268,2.928,4.188,5.545,5.34c0.001,0-0.887,0.485-1.1,0.493
			c-1.147,0.043-2.033-0.499-2.936-1.188c-0.808-0.617-3.933-6.604-2.448-6.355C240.955,239.831,241.54,241.136,241.655,241.502z"/>
		<path style="fill:#231815;" d="M237.112,243.824c0.581,2.1,4.881,3.919,6.8,3.399c-2.222,0.565-4.589,1.025-6.567-0.795
			c-0.415-0.382-2.326-4.544-1.114-4.243C236.434,242.234,237.001,243.492,237.112,243.824z"/>
		<path style="fill:#231815;" d="M253.945,238.591c0.764,1.457,1.26,4.121,2.031,5.318c-0.877-1.43-3.469-3.635-3.407-5.669
			C252.585,237.646,253.815,238.501,253.945,238.591z"/>
		<path style="fill:#231815;" d="M258.557,235.37c4.835-1.713,10.328-3.031,15.515-2.271c-0.567-0.083-2.312,0.862-3.056,0.985
			c-2.062,0.341-4.126,0.183-6.182,0.654c-1.087,0.249-8.784,3.094-8.898,2.946C255.594,237.232,258.136,235.626,258.557,235.37z"/>
		<path style="fill:#231815;" d="M239.753,218.613c2.221,1.413,7.42,4.618,6.74,7.932c0.344-1.676-9.274-7.976-9.074-8.296
			C237.643,217.891,239.268,218.463,239.753,218.613z"/>
		<path style="fill:#231815;" d="M148.017,275.069c1.101-2.893-0.098-7.042,4.608-6.212c3.717,0.656,6.498,4.746,7.84,7.932
			c1.286,3.053,4.171,11.845,2.032,15.082c-1.125,1.702-4.213,2.215-4.4-0.218c-0.087-1.134,1.031-2.984,1.194-4.156
			c0.236-1.687,0.226-3.585-0.147-5.252c-0.605-2.707-2.382-5.893-4.796-7.388C151.995,273.399,150.343,274.398,148.017,275.069z"/>
		<path style="fill:#231815;" d="M171.636,252.646c0.522-1.298,3.733-3.498,4.558-1.344c1.181,3.083-5.943,4.705-7.579,5.131
			c-4.075,1.061-4.433,2.461-6.226,5.93c-1.207,2.334-4.743,7.169-7.45,7.899c-0.578-2.167,2.086-3.504,3.316-4.786
			c1.592-1.659,2.291-3.65,3.33-5.654C164.048,255.072,167.981,255.791,171.636,252.646z"/>
		<path style="fill:#231815;" d="M236.841,174.016c-2.6,5.739-4.266,10.856-8.932,15.298c-2.403,2.287-5.079,4.29-7.816,6.155
			c-1.99,1.356-5.556,4.573-8.001,4.844c0.902-0.1,2.48-2.201,3.239-2.831c1.778-1.477,3.66-2.816,5.511-4.199
			c3.586-2.679,7.074-5.577,9.61-9.308c1.988-2.926,3.167-6.105,4.514-9.352c0.736-1.773,2.69-6.986,5.258-7.504
			C238.993,167.367,237.106,173.122,236.841,174.016z"/>
		<path style="fill:#231815;" d="M214.127,168.149c0.425,1.141,3.858,2.295,4.99,1.744c-1.551,0.729-3.259,1.494-4.948,0.228
			c-0.491-0.368-1.995-3.103-0.948-2.983C213.328,167.15,214.066,168.051,214.127,168.149z"/>
		<path style="fill:#231815;" d="M216.608,164.096c1.929-0.164,6.877,2.506,4.706,5.002c0.712-0.819-2.316-3.19-2.932-3.44
			C217.452,165.282,213.427,165.154,216.608,164.096z"/>
		<path style="fill:#231815;" d="M210.432,172.206c0.752,1.125,4.066,3.207,5.4,3.525c-1.928-0.474-7.029-0.677-6.859-4.071
			C209.001,171.279,210.241,172.045,210.432,172.206z"/>
		<path style="fill:#231815;" d="M228.654,163.167c1.086-0.604,5.852-3.941,6.908-1.383c-0.4-1.035-7.034,3.848-7.618,2.945
			C227.792,164.495,228.513,163.342,228.654,163.167z"/>
		<path style="fill:#231815;" d="M229.479,165.871c1.063-0.604,6.358-4.011,7.291-1.294c-0.38-1.165-7.498,3.65-8.031,2.943
			C228.563,167.286,229.33,166.04,229.479,165.871z"/>
		<path style="fill:#231815;" d="M231.809,168.616c1.392-0.34,2.759-0.989,4.214-1.01c0.92-0.013,2.018,0.642,2.651,0.652
			c-1.497,0.021-3.559,1.128-5.058,1.453C232.544,169.943,229.11,170.433,231.809,168.616z"/>
		<path style="fill:#231815;" d="M232.179,171.82c2.064,0.121,3.044,0.641,4.709,1.172c-1.374-0.397-4.287,0.649-5.573-0.324
			C230.927,172.376,232.046,171.881,232.179,171.82z"/>
		<path style="fill:#231815;" d="M230.123,173.71c0.243,0.536,2.642,3.324,3.127,3.445c-1.346-0.329-2.578-0.042-3.702-1.498
			C228.7,174.559,228.059,172.69,230.123,173.71z"/>
		<path style="fill:#231815;" d="M228.818,176.702c0.273,0.543,2.663,3.342,3.113,3.507c-1.306-0.539-2.855-0.327-3.814-1.886
			C227.388,177.135,226.914,175.83,228.818,176.702z"/>
		<path style="fill:#231815;" d="M226.587,179.686c0.204,0.57,2.269,2.57,2.808,2.67c-1.344-0.312-3.16-0.205-3.726-1.97
			C225.333,179.342,225.529,179.039,226.587,179.686z"/>
		<path style="fill:#231815;" d="M223.663,182.152c0.164,0.906,2.426,3.634,3.203,3.822c-1.534-0.442-4.825-1.013-4.567-3.674
			C222.422,181.036,223.032,181.167,223.663,182.152z"/>
		<path style="fill:#231815;" d="M235.693,191.104c2.63-1.796,4.488-4.238,7.295-5.852c1.98-1.138,9.169-3.88,6.904-6.75
			c0.267,0.326,1.525,0.372,1.399,1.296c-0.228,1.666-1.065,2.498-2.355,3.55c-2.097,1.71-4.676,2.727-6.882,4.268
			c-1.424,0.995-2.642,2.24-3.94,3.384c-1.07,0.943-2.426,2.359-4.01,2.31c0.567,0.017-2.922-0.493-2.147-1.073
			C232.82,191.574,234.525,192.526,235.693,191.104z"/>
		<path style="fill:#231815;" d="M283.393,146.694c9.467-6.621,19.98-9.344,30.696-12.958c4.453-1.502,8.575-3.726,12.536-6.233
			c2.061-1.304,4.068-2.692,6.085-4.061c1.136-0.771,4.056-2.002,4.805-3.038c-3.09,4.277-8.963,8.172-13.428,10.836
			c-6.447,3.847-13.473,5.191-20.355,7.874c-5.007,1.952-10.108,3.834-14.78,6.514c-2.781,1.595-5.498,3.414-7.856,5.598
			c-0.564,0.523-5.454,5.698-4.929,6.324C274.225,155.132,282.161,147.762,283.393,146.694z"/>
		<path style="fill:#231815;" d="M322.284,134.73c7.717-3.805,12.83-9.436,18.712-15.402c-0.463,0.469-0.751,2.2-1.156,2.936
			c-0.636,1.157-1.463,2.171-2.343,3.149c-2.147,2.388-4.822,4.715-7.44,6.578c-1.227,0.873-12.173,6.199-12.177,5.817
			C317.873,137.2,321.571,135.267,322.284,134.73z"/>
		<path style="fill:#231815;" d="M326.389,138.323c4.672-2.467,8.416-6.331,12.258-9.877c1.724-1.591,6.334-6.937,9.06-6.854
			c-0.979-0.03-4.633,4.635-5.504,5.46c-2.488,2.353-4.862,4.852-7.394,7.157c-1.893,1.723-4.014,3.189-6.196,4.532
			c-0.165,0.102-7.232,3.351-7.14,2.655C321.546,140.83,325.815,138.776,326.389,138.323z"/>
		<path style="fill:#231815;" d="M315.018,152.236c6.193-2.1,11.363-6.518,16.104-10.869c2.265-2.079,4.463-4.232,6.75-6.287
			c1.265-1.137,3.883-4.161,5.638-4.508c-1.715,0.339-5.655,6.266-6.998,7.596c-3.041,3.011-6.127,6.003-9.384,8.782
			c-2.696,2.299-5.734,4.125-8.956,5.604c-2.209,1.014-7.804,3.57-10.396,2.092C308.82,155.242,313.717,152.876,315.018,152.236z"/>
		<path style="fill:#231815;" d="M304.278,162.118c5.386-1.053,10.811-2.999,15.139-6.445c4.575-3.642,8.382-9.846,14.38-11.341
			c-2.472,0.619-5.681,4.827-7.374,6.539c-2.797,2.827-5.458,5.827-8.814,8.011c-2.477,1.612-5.164,2.566-7.983,3.405
			c-2.822,0.839-9.66,3.464-12.613,1.925C297.912,164.68,302.931,162.569,304.278,162.118z"/>
		<path style="fill:#231815;" d="M308.608,147.175c4.225-1.522,9.38-5.756,13.909-5.87c-0.635,0.016-15.077,10.528-16.585,7.904
			C305.783,148.95,308.321,147.395,308.608,147.175z"/>
		<path style="fill:#231815;" d="M198.544,295.997c-1.959,0.327-3.591,1.133-4.295-0.746c-0.147-0.394-0.565-5.698-0.414-5.906
			c1.192-1.645,10.419,3.845,11.803,4.974c2.985,2.435,5.333,5.62,7.365,8.863c1.326,2.116,2.443,4.83,4.506,6.363
			c5.05,3.753,12.549,0.083,17.51,4.69c-1.173,0-2.477-0.736-3.607-0.995c-2.357-0.54-4.701-0.582-7.1-0.389
			c-4.349,0.351-6.79,0.643-9.888-2.883C210.101,305.05,205.964,296.59,198.544,295.997z"/>
		<path style="fill:#231815;" d="M248.772,330.38c0.732-1.398,2.173-4.834,4.236-3.542c1.917,1.201,0.165,3.593-0.765,4.75
			c-1.329,1.654-3.057,2.633-4.821,3.785c-3.602,2.351-7.269,4.652-11.104,6.608c-0.651,0.332-10.308,4.003-10.081,2.414
			c0.103-0.719,9.339-3.817,10.222-4.263C240.885,337.893,246.382,334.943,248.772,330.38z"/>
		<path style="fill:#231815;" d="M240.401,346.823c0.565-0.521,9.411-6.845,9.646-5.938c0.289,1.112-5.503,4.214-6.245,4.742
			c-3.276,2.328-5.151,4.224-6.904,7.732c-0.604,1.207-1.19,2.526-2.75,2.327c-3.24-0.412-0.444-1.491,0.073-2.128
			C236.306,350.991,237.184,348.517,240.401,346.823z"/>
		<path style="fill:#231815;" d="M224.555,345.927c-1.868,1.168-3.127,2.171-2.808,4.493c0.214,1.554,1.398,2.923,1.828,4.432
			c0.399,1.402,0.211,2.784,0.435,4.189c0.33,2.068,1.237,2.157,2.403,3.676c0.919,1.197,1.113,3.167,1.373,4.604
			c0.807,4.457,0.899,9.098,0.356,13.585c-0.265,2.188-0.735,3.164,1.193,4.259c1.059,0.602,4.685,1.294,5.448,0.036
			c1.3-2.144-1.454-1.068-2.444-1.659c-0.67-0.4-1.424-2.409-1.673-3.116c-1.803-5.12-0.725-11.033-1.985-16.276
			c-0.686-2.853-2.501-4.752-3.473-7.361c-0.659-1.77-1.372-3.963-1.509-5.842c-0.203-2.781,0.91-2.998,2.586-4.674
			C226.478,346.08,224.755,345.915,224.555,345.927z"/>
		<path style="fill:#231815;" d="M149.811,272.677c-1.425,4.75-6.986,5.514-10.212,8.333c-2.779,2.428-1.821,6.309,0.382,8.776
			c2.4,2.687,5.79,2.765,9.173,2.062c0.788-0.164,7.019-2.182,6.095-3.89c-0.436-0.806-4.744,1.677-5.219,1.855
			c-2.068,0.771-4.086,1.006-6.197,0.205c-3.202-1.215-5.811-4.338-3.206-7.215c2.755-3.042,7.022-3.975,9.952-6.626
			C152.722,274.237,152.818,269.669,149.811,272.677z"/>
		<path style="fill:#231815;" d="M145.625,287.327c-2.535-0.317-2.093-3.588,0.299-3.588
			C148.316,283.74,148.017,287.626,145.625,287.327z"/>
		<path style="fill:#231815;" d="M163.564,282.544c1.057,0.106,11.832-0.85,11.615-1.696c0.693,2.709-10.582,4.086-11.914,4.054
			C159.736,284.817,160.769,282.264,163.564,282.544z"/>
		<path style="fill:#231815;" d="M191.966,271.78c0.589-1.569-0.086-4.022,1.808-4.477c1.747-0.42,5.057,3.601,6.526,4.365
			c5.46,2.843,12.576-0.57,17.753-2.712c1.657-0.686,7.101-2.367,6.778-4.877c-0.22-1.707-3.328-2.189-4.612-2.165
			c-2.724,0.05-5.25,1.179-8.059,0.959c-1.355-0.106-4.627-0.393-2.834-1.726c1.59-1.182,6.753,0.155,8.784,0.047
			c2.333-0.124,5.939-1.728,8.06-0.406c5.396,3.365-6.761,8.933-8.996,9.887c-5.16,2.202-9.239,5.296-14.944,3.776
			c-2.336-0.622-4.35-2.387-6.563-2.982C194.491,271.153,193.266,271.544,191.966,271.78z"/>
		<path style="fill:#231815;" d="M192.265,281.647c3.34,1.113,9.859,1.778,12.835-0.704c0.946-0.789,0.896-1.199,1.419-2.216
			c0.174-0.338-0.424-1.254-0.178-1.488c0.743-0.707,2.608,0.444,2.988,1.452c1.675,4.454-8.38,5.122-10.729,5.103
			C197.732,283.786,189.184,282.274,192.265,281.647z"/>
		<path style="fill:#231815;" d="M194.956,277.162c1.2,0,8.719-1.175,4.617,1.74c-0.816,0.58-3.937,0.723-4.651,0.088
			C194.568,278.674,193.382,277.162,194.956,277.162z"/>
		<path style="fill:#231815;" d="M162.667,289.42c3.016,0.603,6.484-0.339,9.481-0.63c4.094-0.398,7.862-0.051,11.928,0.333
			c2.368,0.223,3.993,0.049,6.06-0.957c1.346-0.655,5.718-2.129,2.706,0.539c-4.279,3.79-12.793,1.458-17.814,1.36
			c-3.077-0.06-6.029,0.217-9.073,0.551c-0.686,0.075-3.326,0.654-3.748-0.376C162.032,289.812,161.731,289.233,162.667,289.42z"/>
		<path style="fill:#231815;" d="M152.203,292.111c0.631-0.057,9.073-1.665,6.554,0.72c-0.615,0.582-9.198,0.635-8.946-0.122
			C149.975,292.217,152.16,292.115,152.203,292.111z"/>
		<path style="fill:#231815;" d="M249.084,250.854c3.652,1.217,1.358,5.739,3.999,8.042c1.129,0.984,7.729,3.176,6.131,4.685
			c-2.041,1.928-7.289-2.111-8.135-3.654c-1.551-2.832-2.047-5.483-5.185-7.08C246.958,252.183,248.021,251.519,249.084,250.854z"/>
		<path style="fill:#231815;" d="M223.968,268.395c8.066,0.733,16.967,1.373,24.591-1.817c1.482-0.62,2.934-1.361,4.461-1.869
			c0.909-0.303,2.915-0.328,3.57-0.895c2.58-2.233-1.683-1.943-3.122-1.399c-3.695,1.396-6.921,3.691-10.91,4.29
			c-3.011,0.452-6.168,0.189-9.194,0.026c-2.63-0.142-5.375-0.697-7.995-0.694C223.274,266.04,219.919,268.027,223.968,268.395z"/>
		<path style="fill:#231815;" d="M267.023,258.03c2.883-0.206,5.963,0.09,8.741-0.856c3.025-1.031,5.318-3.499,8.163-4.923
			c4.316-2.16,10.546-5.021,15.387-5.383c-2.649-3.096-5.878-2.37-9.316-1.212c-3.537,1.191-6.851,0.839-10.469,1.062
			c-3.748,0.231-6.088,4.296-8.754,6.65C269.262,254.704,262.005,256.543,267.023,258.03z"/>
		<path style="fill:#231815;" d="M293.334,281.949c-2.797-0.509-3.03-0.903-1.697-3.189c0.801-1.373,2.782-5.899,4.463-4.857
			c1.079,0.669,0.273,2.585,0.479,3.438c0.276,1.143,1.133,1.492,1.406,2.549C298.711,282.697,294.985,282.289,293.334,281.949z"/>
		<path style="fill:#231815;" d="M278.185,295.105c-4.711,0-2.062-4.914,1.641-4.63
			C283.598,290.763,280.936,295.105,278.185,295.105z"/>
		<path style="fill:#231815;" d="M271.408,311.45c-4.565,0-1.563-6.489,2.244-6.039C277.542,305.871,273.676,311.45,271.408,311.45z
			"/>
		<path style="fill:#231815;" d="M298.118,296.301c-2.018,1.345-2.791-2.392,0-3.189
			C300.909,292.314,299.314,295.504,298.118,296.301z"/>
		<path style="fill:#231815;" d="M314.463,298.693c-3.775-0.629-0.739-4.208,0.905-3.326c0.728,0.39,1.046,2.836,1.48,3.703
			C316.971,299.315,314.692,298.778,314.463,298.693z"/>
		<path style="fill:#231815;" d="M343.565,257.233c-6.786-1.939,1.127-11.442,4.594-7.625c1.942,2.138-0.312,4.091-1.252,5.911
			C346.041,257.194,346.013,258.596,343.565,257.233z"/>
		<path style="fill:#231815;" d="M363.498,258.827c-5.025-2.512,0.822-6.309,2.907-4.045c0.231,0.251,0.348,3.158,0.248,3.316
			C366.088,258.985,364.431,258.93,363.498,258.827z"/>
		<path style="fill:#231815;" d="M356.322,267.996c-2.552-3.19,2.627-6.247,3.468-2.963
			C360.352,267.227,357.79,267.446,356.322,267.996z"/>
		<path style="fill:#231815;" d="M382.234,267.598c-2.791,0-3.588-2.791,0.399-3.588
			C386.62,263.212,382.234,267.598,382.234,267.598z"/>
		<path style="fill:#231815;" d="M397.383,269.591c-2.791,0-2.392-3.189,0.797-3.189
			C401.37,266.402,397.383,269.591,397.383,269.591z"/>
		<path style="fill:#231815;" d="M395.39,283.943c8.161,2.4,16.721,0.131,24.132-3.53c3.168-1.565,6.319-3.588,9.832-4.284
			c0.719-0.142,8.248-0.954,8.368,0.169c0.049,0.458-8.693,1.741-9.382,1.994c-5.303,1.946-9.502,5.982-14.97,7.757
			c-3.625,1.177-7.471,1.443-11.262,1.477C400.964,287.537,390.842,286.662,395.39,283.943z"/>
		<path style="fill:#231815;" d="M433.262,265.206c2.728,1.515,6.314,1.177,9.243,0.561c1.502-0.316,4.837-2.242,6.285-1.361
			c1.434,0.873,1.279,3.944,2.811,5.185c0.395,0.32,2.187,1.443,2.615,1.266c0.971-0.403,0.049-0.741-0.223-1.664
			c-0.533-1.809-1.634-3.48-2.143-5.384c-0.297-1.108-0.122-1.968-1.146-2.621c-2.577-1.643-6.24,1.922-8.328,2.878
			c-1.022,0.468-2.076,0.767-3.202,0.792c-1.645,0.036-3.583-1.412-5.035-1.227C433.051,263.769,432.155,263.891,433.262,265.206z"
			/>
		<path style="fill:#231815;" d="M440.837,276.368c2.253,0.451,4.495,1.366,6.794,1.565c1.112,0.096,4.332-1.074,4.991-0.556
			c0.598,0.47-1.426,1.742-1.645,1.869c-1.688,0.974-3.943,0.933-5.787,0.625c-1.445-0.241-3.834-0.781-4.909-1.862
			C439.417,277.139,438.562,275.913,440.837,276.368z"/>
		<path style="fill:#231815;" d="M459.293,280.769c4.218-0.469,8.638,3.983,11.944,6.015c3.457,2.125,6.913,4.011,10.042,6.573
			c1.222,1.001,2.934,2.562,4.699,2.098c1.397-0.367,1.688-1.834,2.919-2.462c0.742-0.379,3.175-0.777,3.424,0.403
			c0.311,1.472-2.848,2.976-3.724,3.476c-1.098,0.627-2.739,1.93-4.004,1.833c-1.861-0.143-3.619-2.428-4.765-3.683
			c-2.722-2.978-5.791-4.85-9.404-6.679c-3.917-1.983-7.918-3.577-12.062-5.01C452.751,281.392,459.104,281.597,459.293,280.769z"/>
		<path style="fill:#231815;" d="M459.293,273.645c3.406-0.31,3.757,0.063,6.422,2.447c2.453,2.194,4.872,3.958,8.218,4.484
			c4.308,0.676,4.431-2.21,7.983-3.045c2.776-0.652,5.282,4.066,1.932,3.146c-0.684-0.188-0.857-1.277-1.877-1.358
			c-1.304-0.104-3.087,1.851-4.316,2.382c-3.67,1.584-7.018,0.491-10.336-1.293C464.427,278.852,460.766,276.732,459.293,273.645z"
			/>
		<path style="fill:#231815;" d="M481.101,283.145c0.36-0.84,1.832-2.254,2.718-1.527c0.243,0.199-2.013,4.655-2.169,5.243
			c-0.28,1.055,0.168,3.143-1.469,1.156C479.014,286.603,480.131,284.32,481.101,283.145z"/>
		<path style="fill:#231815;" d="M486.682,285.338c2.029-1.184,3.263-3.25,5.092-4.657c1.004-0.772,4.037-2.735,3.081-0.326
			c-0.439,1.106-9.23,8.804-10.133,6.275C484.59,286.262,486.365,285.469,486.682,285.338z"/>
		<path style="fill:#231815;" d="M497.446,279.956c3.708,0.247,5.015-0.55,7.801,2.209c1.248,1.236,1.494,1.295,3.306,1.866
			c0.8,0.252,3.557,0.76,3.444,2.105c-0.121,1.453-12.583,5.191-14.066,4.552c-0.052-0.022,6.849-3.678,7.077-4.145
			c0.944-1.932-1.45-2.671-2.938-2.46c-2.265,0.322-4.365,2.302-6.094,3.448c-1.438,0.952-5.974,3.205-7.913,2.628
			c0.27,0.08,11.372-8.167,11.177-8.566c-0.154-0.316-3.591,0.389-3.686-0.413C495.501,280.725,497.064,280.087,497.446,279.956z"/>
		<path style="fill:#231815;" d="M382.633,247.067c4.838,1.451,8.62,4.354,12.662,7.25c0.894,0.64,10.573,5.357,10.592,6.024
			c0.011,0.371-5.707-1.986-6.071-2.159c-3.662-1.748-6.851-3.916-10.198-6.186c-1.322-0.897-2.572-1.739-4.106-2.214
			c-1.447-0.448-3.38-0.169-4.69-1.03C378.423,247.177,380.685,247.132,382.633,247.067z"/>
		<path style="fill:#231815;" d="M401.569,260.821c2.8,2.333,6.46,3.822,10.091,4.123c1.04,0.086,9.5-1.537,9.509-1.529
			c-0.271-0.249-2.075,0.419-2.427,0.46c-2.223,0.257-4.569-0.114-6.761-0.468c-2.323-0.375-4.633-0.908-6.834-1.748
			C403.956,261.203,402.771,260.274,401.569,260.821z"/>
		<path style="fill:#231815;" d="M421.701,265.206c1.092,0.128,8.874-0.8,9.132-0.443c0.28,0.387-12.935,4.072-13.043,0.893
			C417.763,264.846,421.46,265.177,421.701,265.206z"/>
		<path style="fill:#231815;" d="M400.772,252.249c4.723,2.598,7.239,5.717,11.673,1.023c3.664-3.878,4.623-6.49,4.587-11.735
			c-0.019-2.763-0.54-8.176,1.322-10.536c1.804-2.286,8.006,0.688,9.078-2.796c0.096-0.312-7.587-0.744-8.521-0.473
			c-1.63,0.472-2.047,1.349-2.417,2.896c-0.859,3.595-0.162,7.554-0.931,11.171c-0.297,1.396-1.373,2.597-1.664,3.958
			c-0.361,1.684,0.942,3.074-0.685,4.564c-1.312,1.202-1.135,0.721-2.593,0.267c-2.234-0.695-1.155-0.896-3.147,0.358
			c-1.478,0.93-1.013,0.853-2.914,0.739C403.117,251.598,402.102,251.428,400.772,252.249z"/>
		<path style="fill:#231815;" d="M431.07,229.128c-2.311,0.231-1.096-1.497,0.399-1.794c0.926-0.184,2.366,0.151,3.325,0.173
			c3.671,0.085,7.347-0.016,11.017,0.128c3.358,0.132,5.676,1.266,8.767,2.624c5.055,2.221,7.484,2.423,10.464-2.591
			c0.507-0.854,1.145-3.519,2.519-2.496c1.415,1.053-0.513,4.35-1.239,5.27c-3.827,4.849-8.524,2.59-13.221,0.66
			C446.216,228.274,438.374,229.128,431.07,229.128z"/>
		<path style="fill:#231815;" d="M470.536,223.945c-6.018,0,6.957-6.432,4.614-8.699c-0.571-0.553-2.594,0.44-3.318,0.427
			c0.038,0.001-2.59-0.37-2.418-0.417c-2.793,0.758-2.613,4.901-4.26,6.696c-0.566,0.618-2.665,1.914-3.641,1.345
			c-1.23-0.717,2.958-3.31,3.441-4.734c0.325-0.957-0.185-2.411,0.383-3.24c0.78-1.138,2.619-0.634,3.579-1.318
			c1.818-1.296,1.859-2.857-0.61-2.352c-1.386,0.284-6.512,1.797-7.138,2.724c-0.296,0.438-0.091,2.743-0.373,3.589
			c-0.478,1.437-1.285,3.159-2.617,3.985c-0.72,0.447-2.229,1.256-2.543,0.201c-0.384-1.289,2.609-2.73,3.209-3.44
			c2.038-2.413-1.114-3.545,0.187-5.318c1.01-1.376,5.371-1.572,6.89-2.395c1.526-0.826,4.556-5.606,5.998-5.622
			c4.451-0.048-2.576,8.455,3.43,6.297c1.786-0.642,3.616-2.381,5.256-2.864c4.563-1.343-0.241,3.027-1.222,4.121
			c-2.103,2.346-3.113,5.486-5.154,7.864C473.205,221.991,471.751,222.933,470.536,223.945z"/>
		<path style="fill:#231815;" d="M453.793,221.553c-0.489-1.345,1.399-7.516-1.374-4.766c-2.424,2.404,0.603,4.568-3.58,5.796
			c-2.681,0.787-6.773,0.513-9.474-0.035c-1.685-0.342-6.176-4.886-7.79-3.131c0.042-0.046,3.857,3.021,4.1,3.196
			c2.618,1.885,4.452,1.185,7.554,1.134C445.969,223.7,453.122,225.699,453.793,221.553z"/>
		<path style="fill:#231815;" d="M426.684,219.56c-3.029-0.568-6.352-0.964-8.955-2.762c-2.111-1.458-3.662-5.702-6.4-5.933
			c-6.591-0.555-1.998,9.744-2.453,12.598c-0.64,4.011-5.001,10.541-8.916,11.888c-1.093,0.376-5.458-0.238-5.492,1.276
			c-0.034,1.533,6.888,1.565,7.835,1.085c2.101-1.065,4.222-5.502,5.486-7.452c2.941-4.538,3.511-6.306,1.826-11.545
			c-0.473-1.469-1.9-5.654,1.324-5.534c1.959,0.073,3.848,4.664,5.348,5.976c2.492,2.181,5.368,2.023,8.436,2.48
			C426.661,221.927,430.208,222.079,426.684,219.56z"/>
		<path style="fill:#231815;" d="M341.97,231.918c2.293-0.809,4.35-0.603,6.615-1.053c1.805-0.359,2.875-1.77,4.349-2.422
			c4.23-1.873,9.6,0.611,14.174-2.136c2.745-1.649,5.129-4.763,6.822-7.473c0.595-0.952,2.161-6.278,2.937-5.505
			c1.186,1.183-0.877,5.165-1.327,6.138c-0.542,1.172-4.431,5.805-4.254,6.753c0.189,1.013,7.82-5.664,7.908-5.664
			c0.129,0-3.256,5.361-3.883,6.025c-2.505,2.649-5.584,3.196-8.322,5.212c-2.051,1.51-0.637,2.947-3.144,4.144
			c-2.903,1.386-2.833,0.64-4.652-1.169c-3.931-3.908-8.256-0.56-13.037-0.757c-1.588-0.065-3.481,0.437-4.983,0.299
			C338.349,234.051,339.84,232.67,341.97,231.918z"/>
		<path style="fill:#231815;" d="M373.065,232.317c2.249-0.947,4.236-2.643,6.097-4.188c0.613-0.509,3.218-3.445,3.887-3.308
			c0.355,0.073-4.956,6.035-5.598,6.499c-0.91,0.658-5.902,4.261-7.223,2.466C370.036,233.527,373.139,232.286,373.065,232.317z"/>
		<path style="fill:#231815;" d="M376.255,235.107c1.011-0.303,9.036-3.796,8.586-5.315c0.961,3.242-9.978,8.931-10.762,6.618
			C373.857,235.756,376.334,235.084,376.255,235.107z"/>
		<path style="fill:#231815;" d="M379.842,239.094c1.723-0.323,3.097-1.125,4.384-2.28c0.393-0.353,2.007-2.699,2.644-2.467
			c1.493,0.543-4.691,5.514-5.522,5.817C378.928,241.048,375.999,239.814,379.842,239.094z"/>
		<path style="fill:#231815;" d="M382.633,241.885c2.399-0.514,5.506-4.793,7.591-4.66c0.531,0.034-3.571,4.696-4.458,5.091
			C384.953,242.677,381.197,243.71,382.633,241.885z"/>
		<path style="fill:#231815;" d="M384.626,244.476c1.551,0,4.775-2.651,5.958-2.187c0.759,0.298-6.762,5.951-7.14,3.31
			C383.38,245.143,384.31,244.645,384.626,244.476z"/>
		<path style="fill:#231815;" d="M231.344,357.295c-1.168-1.946,1.911-4.428,2.275-0.406c0.277,3.053-1.238,7.387,0.529,10.209
			c0.476,0.761,1.429,0.837,1.815,1.516c0.42,0.739-0.224,1.703,0.28,2.094c1.401,1.087,6.454-1.824,6.013,1.83
			c-0.167,1.383-0.727,0.955-1.466,1.032c-0.227,0.024-0.786-0.883-1.085-0.989c-0.861-0.307-1.798-0.07-2.691-0.255
			c-2.099-0.435-1.624-0.893-2.574-2.355c-0.516-0.794-1.848-1.969-2.185-2.654C231.051,364.874,231.568,360.104,231.344,357.295z"
			/>
		<path style="fill:#231815;" d="M240.911,377.228c2.005-0.437,5.434-1.456,7.383-0.614c1.583,0.684,2.192,2.348,3.545,3.487
			c1.63,1.373,7.427,4.898,6.367,7.884c-1.311,3.693-3.172-2.024-4.143-1.331c-1.034,0.738,0.835,8.146-3.216,6.516
			c-0.936-0.376-1.345-2.157-2.321-2.721c-0.546-0.315-5.141-0.591-4.774-1.387c0.598-1.296,5.676-0.285,6.927-0.274
			c-0.254-3.237-1.49-4.153-4.801-3.586c-2.345,0.401-3.338,3.267-5.763,2.988c0.553,2.432-2.621,2.178-2.996,0.268
			c-0.423-2.152,6.466-0.915,5.388-3.856c-0.351-0.958-3.74-0.554-2.999-1.635c0.742-1.083,2.854-0.112,3.802,0.085
			c1.748,0.364,4.689,1.447,6.429,1.158c1.443-0.24,1.136,1.063,1.34-0.804c0.102-0.935-0.951-2.4-1.493-3.028
			c-1.956-2.27-3.935-2.132-6.602-1.578c-0.704,0.146-1.851,0.644-2.46,0.213C239.662,378.405,239.644,377.228,240.911,377.228z"/>
		<path style="fill:#231815;" d="M234.931,376.231c-1.595-0.598-2.99-2.791-0.797-2.392
			C236.327,374.238,234.931,376.231,234.931,376.231z"/>
		<path style="fill:#231815;" d="M236.526,318.825c3.057,0.18,5.758,4.632,7.682,6.582c1.107,1.122,2.212,2.169,3.599,2.934
			c0.906,0.499,3.418,0.583,2.443,1.837C248.114,332.922,235.319,321.002,236.526,318.825z"/>
		<path style="fill:#231815;" d="M221.975,317.031c2.415,0.878,5.14,0.55,7.53,1.387c1.98,0.694,2.916,1.935,4.362,3.471
			c1.646,1.749,3.392,3.765,5.753,4.528c0.613,0.198,4.863,0.377,4.557,1.394c-1.089,3.618-11.171-4.689-12.105-5.667
			c-2.23-2.336-3.881-2.436-7.095-2.939C223.789,319.019,220.068,319.003,221.975,317.031z"/>
		<path style="fill:#231815;" d="M212.009,309.058c-2.854,1.903-6.054,1.362-6.233,5.909c-0.073,1.852,0.728,3.647,1.647,5.208
			c0.391,0.664,1.941,3.999,2.488,4.096c2.626,0.469-1.12-4.449-1.088-4.401c-1.382-2.05-1.209-4.607,0.07-6.737
			c1.161-1.935,2.009-0.974,3.316-2.082c0.457-0.387,1.129-0.052,1.001-0.957C213.157,309.721,212.529,308.711,212.009,309.058z"/>
		<path style="fill:#231815;" d="M218.985,314.24c0.988,2.223,1.504,3.921-0.598,5.781c-0.898,0.794-2.386,1.922-2.591,0
			C219.756,321.893,214.907,310.439,218.985,314.24z"/>
		<path style="fill:#231815;" d="M208.421,325.403c4.153,1.51,3.7,6.687,4.324,10.6c0.222,1.391,1.219,4.316,0.84,5.684
			c-0.404,1.459-2.188,1.486-2.767,2.613c-1.364,2.654,1.275,4.129,3.333,5.096c4.515,2.124,7.42,6.011,9.418,10.49
			c-2.714-2.903-5.827-5.641-9.044-7.973c-2.635-1.91-7.495-4.181-4.942-8.224c0.926-1.466,2.144-1.709,2.387-3.716
			c0.217-1.794-0.439-3.871-0.821-5.61C210.478,331.302,209.627,328.299,208.421,325.403z"/>
		<path style="fill:#231815;" d="M216.992,323.609c0.633,4.75-0.629,10.522,0.86,15.09c0.431,1.322,6.305,5.949,4.542,7.15
			c-0.917,0.625-4.835-4.562-5.199-5.267c-1.083-2.104-0.941-4.13-1.023-6.398c-0.031-0.865-1.439-11.477,0.477-11.732
			C216.917,322.775,217.031,323.16,216.992,323.609z"/>
		<path style="fill:#231815;" d="M168.945,294.204c2.745-3.842,3.493,5.15,3.541,5.738c0.454,5.558,1.037,11.646,3.777,16.607
			c5.093,9.223,16.061,19.972,27.357,18.79c12.939-1.354,25.536-8.493,34.774-17.372c7.195-6.916,9.195-15.74,12.308-25.037
			c1.964-5.867,4.04-11.801,4.929-17.949c0.522-3.607,1.666-11.468-1.469-14.127c4.448,3.774,3.103,9.522,2.556,14.978
			c-0.476,4.747-1.256,8.009-3.075,11.618c-4.006,7.947-5.2,17.883-9.878,25.969c-6.255,10.81-19.397,15.977-30.363,20.615
			c-5.566,2.355-10.477,3.725-16.596,2.7c-6.274-1.051-9.996-5.532-14.286-9.76c-5.127-5.053-8.694-11.65-10.384-18.546
			c-0.755-3.079-0.907-6.185-1.842-9.232C169.851,297.755,168.426,295.535,168.945,294.204z"/>
		<path style="fill:#231815;" d="M162.974,292.58c4.597,1.839,8.206,7.58,11.37,11.189c2.997,3.417,6.44,7.176,10.299,9.659
			c2.52,1.622,5.78,2.574,8.648,3.38c2.689,0.756,5.124,1.006,7.899,0.493c1.148-0.212,4.916-0.635,5.779-1.458
			c-1.928,1.837-5.647,1.538-8.116,2.118c-3.499,0.822-4.9,0.262-8.313-0.845c-3.004-0.974-6.158-1.267-8.582-3.416
			c-1.551-1.374-2.738-3.116-4.186-4.587c-2.154-2.188-4.595-4.091-6.761-6.272c-2.039-2.053-3.952-4.17-6.236-5.96
			c-0.674-0.529-1.805-1.068-2.351-1.759C162.032,294.625,160.971,291.779,162.974,292.58z"/>
		<path style="fill:#231815;" d="M193.936,272.514c-5.256,7.008-11.582,13.645-18.55,18.875c-2.785,2.09-4.459,4.592-5.711,7.651
			c-1.302,3.181-8.761,6.171-4,1.953c2.268-2.009,3.308-4.704,5.123-7.225c2.945-4.092,6.308-6.251,10.115-9.428
			c2.258-1.884,4.277-4.087,6.48-6.038C189.115,276.78,191.581,272.455,193.936,272.514z"/>
		<path style="fill:#231815;" d="M200.049,264.276c1.534,0.128,5.138,0.138,6.431,1.111c1.83,1.378-0.171,1.49-2.08,1.522
			c-1.07,0.018-4.046,0.066-4.934-0.49C198.587,265.869,197.845,264.092,200.049,264.276z"/>
		<path style="fill:#231815;" d="M172.409,299.224c2.137,0.372,4.086,0.628,6.223,0.617c0.975-0.005,3.152-0.603,1.352,0.914
			c-1.212,1.021-9.619-0.025-8.64-1.51C171.684,299.093,172.039,299.086,172.409,299.224z"/>
		<path style="fill:#231815;" d="M215.075,168.499c-1.016,0.339,0.072-3.417,1.4-3.284
			C217.804,165.348,216.67,167.967,215.075,168.499z"/>
		<path style="fill:#231815;" d="M168.524,272.573c-2.146-0.307-1.505-3.678,0.407-3.663
			C171.698,268.93,172.028,273.073,168.524,272.573z"/>
		<path style="fill:#231815;" d="M173.408,263.618c0.989,2.969,4.857,2.412,6.02,5.432c0.297,0.77,0.486,1.681,0.332,2.517
			c-0.176,0.958-1.934,2.322-1.934,2.739c0,2.187,2.894-2.238,2.935-2.325c0.744-1.612,1.248-3.338,1.004-5.126
			c-0.391-2.866-0.641-1.607-2.671-1.831C178.422,264.952,173.188,262.957,173.408,263.618z"/>
		<path style="fill:#231815;" d="M182.499,246.658c3.551-0.986,5.064-3.43,6.951-6.3c0.477-0.726,3.945-4.989,1.594-5.63
			c-0.443-0.121-5.493,7.915-6.584,8.714c-0.715,0.524-2.174,0.781-2.717,1.381C180.939,245.712,180.562,247.195,182.499,246.658z"
			/>
		<path style="fill:#231815;" d="M191.861,247.608c0.881-0.471,1.726-1.025,2.475-1.686c1.141-1.008,1.893-3.364,3.004-4.06
			c2.059-1.29,5.022,1.489,6.159,3.184c2.483,3.705,1.005,5.002-2.003,7.443c-1.048,0.851-6.607,5.584-5.183,1.804
			c0.815-2.164,4.112-2.687,5.454-4.379c1.854-2.339,1.108-4.408-1.495-5.859c-3.276-1.825-3.495,2.369-5.537,4.095
			c-0.489,0.414-2.991,1.906-3.822,1.357C189.746,248.737,191.112,247.696,191.861,247.608z"/>
		<path style="fill:#231815;" d="M191.725,232.547c0.335-1.338,1.051-4.99,2.867-4.398c0.915,0.298,3.546,4.646,3.771,5.821
			c0.376,1.963-0.202,3.684-1.438,1.548c-0.3-0.518-2.236-5.874-3.084-5.383c-0.119,0.069-0.968,4.367-1.945,3.518
			C191.669,233.313,191.612,232.945,191.725,232.547z"/>
		<path style="fill:#231815;" d="M198.238,240.416c0.688-0.826,1.377-3.281,2.281-3.799c1.018-0.583,1.153,0.019,2.347-0.091
			c1.599-0.147,2.799-0.354,4.246-0.974c2.683-1.151,4.604-2.82,6.48-5.029c1.067-1.257,3.419-4.774,5.286-4.675
			c0.765,0.04-3.696,5.143-4.002,5.464c-1.776,1.865-3.624,4.819-6.018,5.861c-2.299,1.001-4.224-0.515-6.391-0.083
			C200.375,237.508,199.579,242.411,198.238,240.416z"/>
		<path style="fill:#231815;" d="M199.866,232.411c3.704,0,6.833-2.088,8.754-5.249c1.823-3.001,0.027-5.761,1.151-8.726
			c1.43-3.774,3.019-0.213,4.454,1.518c0.541,0.653,2.62,2.365,0.406,1.924c-1.371-0.273-2.118-3.023-3.457-3.552
			c0.711,0.281-0.191,6.458-0.457,7.382c-0.675,2.343-2.225,4.371-4.085,5.959c-1.697,1.449-4.008,1.838-6.188,2.259
			C197.629,234.47,197.817,232.411,199.866,232.411z"/>
		<path style="fill:#231815;" d="M216.554,222.235c2.838,0.334,4.997-2.014,6.936-3.649c0.468-0.395,5.036-3.742,5.27-3.63
			c1.917,0.92-6.608,6.58-7.301,6.97c-0.997,0.562-2.92,1.632-3.921,1.716C215.795,223.789,213.373,221.861,216.554,222.235z"/>
		<path style="fill:#231815;" d="M221.168,224.678c4.018-1.461,5.791-1.43,8.649-4.461c0.367-0.389,4.387-4.65,5.025-3.921
			c0.975,1.115-6.823,7.279-7.704,7.84c-0.988,0.629-1.599,1.095-2.779,1.376C223.915,225.616,219.152,225.41,221.168,224.678z"/>
		<path style="fill:#231815;" d="M269.016,239.293c-0.1,1.406-0.233,3.237,1.053,4.12c0.644,0.442,2.034-0.215,2.535,0.265
			c1.108,1.062-2.404,7.513-3.712,7.599c-1.929,0.127-1.01-3.698-0.948-4.544c0.149-2.06-0.278-2.986-1.086-4.885
			C265.705,239.136,265.991,237.52,269.016,239.293z"/>
		<path style="fill:#231815;" d="M300.112,242.881c4.64-0.232,9.563-2.987,14.122-2.52c5.157,0.528-5.755,4.14-7.273,4.515
			c-2.257,0.558-7.657,2.968-9.872,1.815C293.14,244.639,298.211,242.976,300.112,242.881z"/>
		<path style="fill:#231815;" d="M203.836,247.466c2.437,0.406,5.061-0.308,6.792-1.917c2.792-2.595,1.989-5.688,3.622-8.646
			c1.255-2.273,3.693-4.242,5.412-1.69c0.775,1.15,1.031,9.56,0.118,10.44c-2.344,2.261-0.8-7.581-1.134-8.585
			c-0.628-1.891-2.006-1.995-3.272-0.266c-1.041,1.421-0.849,4.082-1.47,5.694c-0.759,1.97-2.676,4.786-4.304,5.919
			C207.277,250.031,202.298,252.121,203.836,247.466z"/>
		<path style="fill:#231815;" d="M221.576,243.878c3.208,0,5.343-0.972,7.575-3.189c-0.727,3.249-3.849,4.143-6.712,4.396
			C219.843,245.314,217.537,243.878,221.576,243.878z"/>
		<path style="fill:#231815;" d="M206.826,257.033c3.212-2.409,6.88-8.589,10.909-9.327c2.016-0.369,4.28,0.668,6.396,0.593
			c1.554-0.055,5.662-1.838,7.021-0.878c0.583,0.412-5.82,2.919-6.255,3.013c-1.614,0.352-2.023,0.606-3.786,0.003
			c-1.2-0.411-2.586-1.517-3.867-1.261c-1.979,0.396-4.709,4.389-5.952,5.828c-0.686,0.793-0.98,1.556-1.905,2.2
			C208.837,257.586,205.091,258.335,206.826,257.033z"/>
		<path style="fill:#231815;" d="M200.448,259.425c0.865,0.162,8.09-0.131,8.303,0.148
			C209.225,260.193,198.008,262.514,200.448,259.425z"/>
		<path style="fill:#231815;" d="M259.05,242.35c5.388-1.197,11.481-0.316,17.009-0.93c-0.572,2.309-7.247,1.8-9.006,1.905
			c-2.384,0.143-5.024-0.119-7.343,0.509c-1.021,0.276-3.483,2.553-4.511,2.08C255.117,245.876,258.7,242.898,259.05,242.35z"/>
		<path style="fill:#231815;" d="M226.493,252.449c5.316,1.519,10.118,1.158,15.277-0.66c1.166-0.411,6.686-4.512,7.081-3.327
			c0.24,0.719-6.005,4.514-6.752,4.926c-2.258,1.247-4.187,1.215-6.716,1.089c-2.245-0.112-4.54,0.13-6.747,0.03
			c-0.714-0.032-2.485,0.08-2.912-0.622C225.357,253.284,225.352,252.123,226.493,252.449z"/>
		<path style="fill:#231815;" d="M229.683,266.136c3.135-2.911,5.236-4.197,9.825-3.017c0.875,0.225,8.742,2.602,8.895,1.788
			c-0.142,0.755-3.85,1.787-4.674,1.736c-2.413-0.148-4.368-2.758-7.004-2.899c-2.527-0.136-2.667,0.879-4.236,2.043
			C231.456,266.554,230.237,267.722,229.683,266.136z"/>
		<path style="fill:#231815;" d="M135.759,232.316c4.088-0.227,6.597,3.225,8.572,6.283c0.841,1.302,2.222,2.786,2.8,4.171
			c0.885,2.12-0.232,2.798-0.661,4.859c-0.675,3.236,1.576,6.972,3.757,9.171c0.93,0.938,8.817,4.541,8.636,5.135
			c-1.56,5.128-13.576-7.601-14.366-9.261c-1.869-3.924-0.441-8.51-2.758-12.551c-1.144-1.995-2.664-3.352-4.454-4.72
			C136.125,234.516,134.352,234.156,135.759,232.316z"/>
		<path style="fill:#231815;" d="M175.667,220.897c1.926,1.656,7.212,7.483,3.921,10.217c1.124-0.934-2.118-5.904-2.741-6.694
			c-0.456-0.578-3.889-3.812-3.706-4.081C173.449,219.887,175.125,220.711,175.667,220.897z"/>
		<path style="fill:#231815;" d="M177.081,230.834c1.484,2.419,4.591,6.113,5.373,8.783c0.08,0.271-2.814-1.809-3.036-2.067
			c-0.888-1.036-1.71-2.322-2.383-3.51c-0.198-0.349-2.545-4.077-2.095-4.428C175.257,229.364,176.908,230.686,177.081,230.834z"/>
		<path style="fill:#231815;" d="M177.417,238.984c1.423,2.846,4.158,3.596,6.143,5.714c0.378,0.403-2.684-0.196-2.654-0.184
			c-0.907-0.369-2.068-1.302-2.781-1.989c-0.63-0.607-3.451-4.57-2.283-4.834C176.056,237.643,177.287,238.82,177.417,238.984z"/>
		<path style="fill:#231815;" d="M184.333,213.912c3.121,0.032,5.912-0.169,8.88,0.868c-0.572,0.983-1.695,2.929-3.216,2.713
			c0.237,0.036,0.963-1.557,1.139-1.901c-0.959-0.199-9.058,0.13-9.037-0.637C182.113,214.494,183.817,214.081,184.333,213.912z"/>
		<path style="fill:#231815;" d="M180.715,220.875c1.251,0.477,4.941-1.755,5.605,0.21c0.084,0.25-4.447,1.411-4.914,1.37
			C179.853,222.318,178.448,221.05,180.715,220.875z"/>
		<path style="fill:#231815;" d="M185.066,218.485c0.637-0.036,4.283-0.932,4.742-1.169c-1.178,0.581-1.905,2.201-3.509,2.433
			C184.922,219.949,183.479,219.9,185.066,218.485z"/>
		<path style="fill:#231815;" d="M78.991,250.589c-1.363-7.136,23.582-8.621,26.789-9.138c2.307-0.372,6.061-2.056,6.116-4.786
			c0.042-2.09-3.405-5.863-4.733-7.205c-1.491-1.505-2.663-2.28-3.703-4.114c-0.631-1.114-1.488-3.77-3.113-3.802
			c-2.599-0.052-1.603,4.654-0.534,5.852c1.105,1.239,2.897,1.458,4.215,2.673c1.803,1.662,5.234,4.907,3.486,7.379
			c-1.469,2.078-5.539,2.319-7.759,2.768c-4.165,0.843-8.231,1.999-12.302,3.217C83.952,244.48,77.443,245.401,78.991,250.589z"/>
		<path style="fill:#231815;" d="M84.796,255.324c1.618,1.031,3.247,2.086,4.987,2.904c1.419,0.667,3.368,0.873,4.648,1.723
			c-0.101-0.067-3.67,0.201-4.556-0.106c-0.86-0.298-8.185-3.894-7.623-4.826C82.519,254.577,84.233,255.216,84.796,255.324z"/>
		<path style="fill:#231815;" d="M93.298,253.421c0.754,0.479,4.808,1.537,5.644,1.541c-1.851-0.037-3.653,1.182-5.632,0.099
			C91.881,254.28,91.168,253.068,93.298,253.421z"/>
		<path style="fill:#231815;" d="M98.205,249.21c2.029,0.406,6.594,0.466,8.212,2.067c0.027,0.027-10.309,0.522-10.122-1.343
			C96.326,249.626,97.968,249.229,98.205,249.21z"/>
		<path style="fill:#231815;" d="M102.253,290.651c4.539,0.511,9.081,1.044,13.646,1.253c3.551,0.163,7.213-0.498,10.723-0.228
			c-1.21-0.093-3.721,1.367-5.255,1.556c-3.281,0.405-6.722,0.113-10.015-0.041c-1.798-0.084-14.417-2.081-14.454-1.997
			C97.175,290.569,101.383,290.707,102.253,290.651z"/>
		<path style="fill:#231815;" d="M128.69,287.835c2.837,0.507,7.535-2.282,10.01-0.379c0.94,0.722-13.438,2.928-12.201,0.75
			C126.59,288.047,128.553,287.866,128.69,287.835z"/>
		<path style="fill:#231815;" d="M118.983,239.102c7.713,0.609,17.332,0.321,24.449,3.789c-0.807-0.393-3.159,0.035-4.204-0.065
			c-3.549-0.339-7.013-1.171-10.583-1.398c-1.781-0.113-14.971-1.735-15.005-1.658C113.911,239.157,118.109,239.193,118.983,239.102
			z"/>
		<path style="fill:#231815;" d="M79.482,248.666c-1.258,5.084-3.25,6.822-8.49,5.022c-0.061-0.021,1.459-0.779,1.801-0.85
			c1.757-0.365,2.909,0.571,4.168-0.941c0.336-0.403,2.186-6.426,2.6-5.511C79.781,246.908,79.338,247.973,79.482,248.666z"/>
		<path style="fill:#231815;" d="M70.394,240.792c-5.444-0.774,0.241,2.604-0.558,4.587c0.265-0.653-4.607-2.7-3.139-5.189
			c0.771-1.306,5.866-1.228,5.676-0.079C72.33,240.37,70.619,240.773,70.394,240.792z"/>
		<path style="fill:#231815;" d="M69.974,248.661c-0.707,1.281-2.441,3.827-1.304,5.421c1.217,1.707,1.167,0.421,2.926-0.562
			c-1.062,0.59-0.699,3.968-3.263,2.569c-1.227-0.669-1.709-3.212-1.507-4.508c0.129-0.833,2.363-5.822,2.879-5.812
			C70.378,245.783,70.024,248.428,69.974,248.661z"/>
		<path style="fill:#231815;" d="M74.753,237.704c0.964,0.074,4.702-0.402,5.315-0.932c-1.155,0.934-1.965,2.272-3.8,2.451
			C75.018,239.344,72.209,238.704,74.753,237.704z"/>
		<path style="fill:#231815;" d="M81.051,234.926c1.243-0.48,2.034-1.619,3.133-2.308c0.662-0.415,2.03-0.627,2.462-0.935
			c-1.585,1.169-2.411,3.92-4.664,4.445C80.753,236.414,79.426,236.392,81.051,234.926z"/>
		<path style="fill:#231815;" d="M89.418,232.017c-7.996,0.589-8.572-10.994-7.435-16.544c1.011-4.94,4.251-9.257,7.942-12.558
			c1.795-1.605,5.878-6.942,8.411-5.165c1.071,0.751,1.633,3.14,0.932,4.247c-0.831,1.312-3.552,1.394-4.873,1.937
			c-3.924,1.613-7.087,4.638-9.141,8.325c-2.105,3.777-2.051,7.31-1.406,11.505C84.235,226.277,85.508,232.761,89.418,232.017z"/>
		<path style="fill:#231815;" d="M90.552,292.548c-1.654-1.233-3.106-3.521-4.252-5.205c-1.503-2.209-0.675-3.297,0.464-5.781
			c0.904-1.973,2.562-5.154,5.041-5.478c2.928-0.383,2.05,1.333,1.361,3.33c-0.998,2.893-0.792,1.347-3.259,2.898
			c-1.051,0.66-1.386,1.368-1.52,2.478c-0.244,2.032,1.064,3.639,1.996,5.242C90.614,290.431,92.43,293.949,90.552,292.548z"/>
		<path style="fill:#231815;" d="M93.077,294.706c0.278-3.058,2.18-1.596,2.328,0.693c0.117,1.8-1.342,3.27-2.645,4.235
			c-3.965,2.935-7.656,1.646-12.15,0.949c-3.613-0.56-9.337,0.238-12.254,2.629c-1.746,1.432-2.429,3.591-2.255,5.798
			c0.081,1.026,0.283,1.926,0.818,2.794c0.26,0.422,1.946,1.516,2.025,1.942c0.205,1.102-1.256,2.127-2.669,1.422
			c-1.365-0.68-1.643-2.875-1.818-4.246c-0.657-5.154,2.356-8.441,6.81-10.448c4.532-2.042,8.17-1.161,12.963-0.946
			C88.096,299.7,90.352,297.128,93.077,294.706z"/>
		<path style="fill:#231815;" d="M65.437,292.027c1.012-1.497,0.87-3.952,3.083-2.75c2.045,1.111,1.217,3.632,0.058,5.049
			c-1.758,2.148-4.019,1.729-6.507,2.25c-2.514,0.526-6.559,0.593-7.461,3.279c-0.648,1.93,0.474,3.088,0.539,4.824
			c0.071,1.874-1.232,3.852-0.925,5.721c0.242,1.472,5.044,4.589,2.344,4.752c-5.056,0.304-2.779-8.683-2.69-10.937
			c0.198-4.975-0.906-7.331,4.423-8.809C60.801,294.713,63.194,293.305,65.437,292.027z"/>
		<path style="fill:#231815;" d="M61.982,314.235c-0.484-2.17,1.157-0.401,1.53,0.353c-0.084-0.169,1.238,2.942,1.229,2.177
			c0.038,3.3-4.885,2.121-4.573,1.556c0.354-0.64,1.065-0.883,1.454-1.801C61.901,315.861,61.927,314.948,61.982,314.235z"/>
		<path style="fill:#231815;" d="M62.466,263.041c1.632-2.751,4.374-9.835,5.327-2.587c0.559,4.251-4.979,6.344-6.859,9.865
			c-1.434,2.684-0.716,2.802,0.693,4.983c0.905,1.402,0.362,2.588,1.179,4.112c0.872,1.627,9.872,7.192,9.831,7.339
			c-0.303,1.072-7.249-2.273-7.877-2.675c-1.404-0.898-3.463-2.219-4.25-3.751c-0.872-1.699,0.195-3.799-1.053-5.259
			c-0.959-1.121-1.157,0.38-1.615-1.333c-0.282-1.054,1.014-3.841,1.264-5.094C59.457,266.87,59.682,261.914,62.466,263.041z"/>
		<path style="fill:#231815;" d="M54.141,234.707c1.285,1.731,0.874,2.785,3.156,3.554c3.032,1.022,6.072,0.173,9.116,0.274
			c2.651,0.088,2.711,1.685-0.088,2.215c-2.33,0.441-6.089-1.725-7.39,1.328C58.853,242.272,49.889,233.713,54.141,234.707z"/>
		<path style="fill:#231815;" d="M35.538,230.39c2.432,1.216,3.899-0.853,5.827-1.916c1.899-1.048,4.889-1.853,7.063-1.14
			c5.59,1.833-3.111,5.167-4.835,6.226c-1.815,1.114-7.947,5.615-7.659,7.917c0.493,3.93,3.693-2.123,4.295-3.182
			c2.046-3.598,4.382-4.082,8.1-5.275c2.216-0.712,7.528-4.627,4.852-6.86c-2.169-1.81-8.695-0.702-10.875,0.511
			c-1.533,0.853-2.594,1.54-4.242,2.125C36.985,229.178,35.766,228.987,35.538,230.39z"/>
		<path style="fill:#231815;" d="M31.817,221.756c2.621,0.213,4.49-6.065,6.126-5.58c1.556,0.461-0.25,5.516-0.975,6.365
			c-1.801,2.111-5.05,1.18-6.615,2.84c-2.239,2.375,1.551,1.369,2.945,0.977c2.271-0.639,4.517-1.388,6.043-3.277
			c1.896-2.349,2.717-11.999-1.935-7.764c-0.972,0.884-1.821,1.888-2.856,2.709c-0.561,0.445-3.809,1.865-4.034,2.414
			C30.27,221.043,29.8,221.96,31.817,221.756z"/>
		<path style="fill:#231815;" d="M35.536,253.543c5.874-2.033,9.507,11.486,12.147,14.92c0.616,0.801,10.62,9.848,10.488,9.931
			c-0.694,0.44-7.181-4.985-8.078-5.702c-2.562-2.045-4.733-4.665-6.562-7.373c-1.583-2.345-2.744-5.462-5.057-7.166
			C36.484,256.686,34.931,256.607,35.536,253.543z"/>
		<path style="fill:#231815;" d="M22.382,255.038c1.286,2.52,3.346,4.721,5.461,6.564c0.735,0.641,7.589,5.267,7.479,5.366
			c-1.056,0.949-8.516-3.379-9.485-4.179c-1.248-1.031-2.128-2.641-3.308-3.783c-1.394-1.351-3.143-2.356-4.267-3.968
			C19.636,255.038,21.009,255.038,22.382,255.038z"/>
		<path style="fill:#231815;" d="M37.664,267.052c1.151,0.092,11.93,1.183,12.033-0.127c-0.27,3.433-14.159,2.149-13.799,0.384
			C35.986,266.875,37.626,267.049,37.664,267.052z"/>
		<path style="fill:#231815;" d="M52.015,264.807c2.8-0.807,5.495-2.303,7.979-3.793c0.649-0.39,6.371-4.946,6.616-4.787
			c1.272,0.821-7.249,7.084-7.772,7.389c-2.09,1.218-4.553,2.482-6.921,2.949C48.406,267.257,49.406,265.56,52.015,264.807z"/>
		<path style="fill:#231815;" d="M47.63,271.614c-0.441-1.656,0.673-2.155,1.726-1.071c0.711,0.733,0.54,3.099,0.275,4.013
			c-0.893,3.076-3.709,1.412-6.386,1.426c-2.763,0.014-5.795-0.086-5.315,3.309c0.238,1.681,1.412,2.864,1.141,4.584
			c-0.062,0.395-0.852,0.815-0.983,1.249c-0.259,0.857,0.072,1.79-0.02,2.659c-0.081,0.769-0.384,3.444-1.468,3.626
			c-1.198,0.201-1.603-1.241-1.632-1.751c-0.134-2.319,2.176-4.64,1.871-7.296c-0.464-4.051-2.014-6.953,3.278-8.189
			C41.846,273.769,47.96,274.981,47.63,271.614z"/>
		<path style="fill:#231815;" d="M58.023,281.898c-1.084,0.15-2.304,1.131-3.365,0.815c-1.366-0.407-1.63-3.07-3.157-3.287
			c0.26,0.037-0.945,3.026-1.131,3.224c-1.207,1.286-2.882,0.802-4.156,1.852c-2.589,2.134-3.398,6.92,0.335,2.229
			c1.45-1.823,4.111-2.304,6.42-2.849c1.519-0.359,3.483,0.363,4.896-0.414C58.859,282.922,59.679,282.214,58.023,281.898z"/>
		<path style="fill:#231815;" d="M46.168,289.03c3.19,1.853,5.087,1.01,8.335,0.24c1.142-0.271,7.97,0.096,7.505,0.587
			c-0.945,0.996-3.821,0.368-4.955,0.301c-2.915-0.172-4.186,0.081-6.735,1.415c-2.414,1.263-3.649-0.101-6.3,0.626
			c-2.275,0.624-1.326,1.526-2.775,2.618c-1.041,0.785-4.302,0.438-4.227-1.453C37.043,292.677,44.602,289.86,46.168,289.03z"/>
		<path style="fill:#231815;" d="M25.837,225.847c1.385-0.115,5.134-1.275,6.402-0.535c0.114,0.067-6.904,4.525-7.541,4.934
			c-3.17,2.033-5.88,4.835-8.937,7.047c-2.505,1.813-5.163,2.635-8.127,3.39c-0.901,0.229-5.536,0.796-5.633,0.944
			c0.069-0.106,3.479,3.112,1.93,4.143c-1.468,0.977-3.526-2.203-3.757-3.093c-0.656-2.522,0.613-2.315,2.582-2.719
			c2.242-0.46,4.531-1.161,6.704-1.907c3.17-1.088,6.04-2.956,8.703-5.007C20.153,231.512,23.441,226.046,25.837,225.847z"/>
		<path style="fill:#231815;" d="M6.303,247.338c2.225,0.339,10.955-1.03,12.008,1.154c-0.297-0.616-6.595,0.771-7.431,0.983
			c-1.618,0.412-3.892,1.113-5.389-0.093C4.236,248.372,4.104,247.003,6.303,247.338z"/>
		<path style="fill:#231815;" d="M18.322,250.825c-3.124-4.038-8.767,9.531-10.755,10.296c-5.114,1.969,0.519-8.907,2.124-10.296
			c-2.796,1.72-4.595,3.543-5.246,6.769c-0.379,1.879-1.082,6.197,1.509,6.668c3.195,0.581,5.415-4.837,6.615-6.951
			C14.068,254.673,15.598,252.317,18.322,250.825z"/>
		<path style="fill:#231815;" d="M35.133,249.741c0.805,0.502,4.94,2.172,5.776,1.306c-1.667,1.672-8.021-0.532-7.289-1.402
			C33.744,249.498,34.966,249.694,35.133,249.741z"/>
		<path style="fill:#231815;" d="M38.478,245.962c0.723,0.328,3.615,0.847,4.27,0.846c-0.987,0.001-4.674,1.698-5.351-0.292
			C37.255,246.11,38.273,246.004,38.478,245.962z"/>
		<path style="fill:#231815;" d="M41.541,239.999c1.216,0.161,3.398,0.819,4.397,0.829c-1.227-0.026-3.98,1.35-5.239,0.081
			C40.342,240.546,41.347,240.09,41.541,239.999z"/>
		<path style="fill:#231815;" d="M24.271,234.779c2.986-1.489,4.312,0.395,6.342,1.649c-2.226-1.349-4.546-0.724-6.703-0.112
			C23.195,236.517,24.094,235.004,24.271,234.779z"/>
		<path style="fill:#231815;" d="M22.441,238.069c0.816,2.315,3.813,20.134-1.075,19.288c3.058,0.54,1.159-9.626,0.969-10.689
			c-0.341-1.908-0.348-3.62-0.538-5.518c-0.028-0.274-1.48-6.821-1.524-6.837C20.727,234.452,22.057,237.43,22.441,238.069z"/>
		<path style="fill:#231815;" d="M24.943,246.506c3.367-0.288,5.905-3.992,9.146-4.109c-0.081,0.003-1.405,1.522-1.643,1.717
			c-1.125,0.925-2.631,1.963-3.95,2.596c-0.7,0.336-6.182,1.296-5.643,0.341C22.964,246.856,24.665,246.617,24.943,246.506z"/>
		<path style="fill:#231815;" d="M15.058,254.548c1.229,0.4,4.154,2.22,5.354,2.227C19.357,256.71,11.445,255.307,15.058,254.548z"
			/>
		<path style="fill:#231815;" d="M7.737,255.736c0.934-2.207,3.978-5.937,6.615-6.152c-1.316,0.107-5.849,8.295-6.271,8.246
			C7.621,257.777,7.682,256.186,7.737,255.736z"/>
		<path style="fill:#231815;" d="M19.197,248.788c0.904,0.152,1.805,0.319,2.703,0.502c0.565,0.123,0.879,0.423,0.942,0.9
			c-0.949-0.311-3.873,0.825-4.551-0.692C18.115,249.112,18.973,248.854,19.197,248.788z"/>
		<path style="fill:#231815;" d="M295.588,230.985c-1.917,2.65-5.951,8.192-9.965,6.251c1.513,0.732,5.692-2.982,6.639-3.977
			c0.646-0.678,4.379-4.908,4.467-4.514C296.827,229.199,295.79,230.355,295.588,230.985z"/>
		<path style="fill:#231815;" d="M234.301,202.822c-0.615,3.552-3.724,9.618-7.81,10.236c1.747-0.264,4.672-5.61,5.455-7.235
			c0.409-0.849,2.194-5.795,2.202-5.789C234.53,200.313,234.21,202.163,234.301,202.822z"/>
		<path style="fill:#231815;" d="M236.364,208.53c-1.196,2.171-3.617,6.816-6.708,6.543c1.436,0.127,6.54-8.872,6.885-8.661
			C236.774,206.554,236.432,208.316,236.364,208.53z"/>
		<path style="fill:#231815;" d="M244.49,181.321c-0.309,1.77-0.831,6.043-3.044,6.783c0.519-0.174,1.869-8.506,2.471-8.408
			C244.145,179.733,244.453,181.049,244.49,181.321z"/>
		<path style="fill:#231815;" d="M180.116,225.938c0.82,0.075,5.661,0.461,5.746-1.037c0.065-1.132-1.934-0.943-1.361-2.152
			c1.774,5.273,16.859-5.53,18.899-7.226c1.697-1.41,3.262-2.829,4.466-4.694c0.729-1.128,1.114-3.572,2.747-2.831
			c2.83,1.284-3.75,6.237-4.831,7.162c-3.875,3.313-8.443,5.949-12.748,8.66c-2.767,1.743-5.535,3.508-8.588,4.71
			C180.44,230.109,180.116,230.055,180.116,225.938z"/>
		<path style="fill:#231815;" d="M141.248,187.468c3.612-0.903,6.182-4.049,9.475-5.608c3.99-1.888,5.236-0.448,7.882,2.23
			c1.674,1.695,7.044,3.112,7.115,5.419c0.082,2.659-6.841,5.482-6.893,4.605c-0.058-0.987,0.832-1.228,0.06-2.27
			c-0.462-0.624-1.496-0.308-2.003-0.848c-1.298-1.382-0.051-2.223,0.908-3.928c-2.431-0.371-4.487-2.591-6.851-1.681
			c-1.274,0.49-1.678,2.103-2.741,2.628c-1.549,0.764-0.186,0.033-1.413-0.09c-0.276-0.027-0.411,1.757-0.95,1.895
			c-0.903,0.232-0.265-1.179-0.824-1.321c-1.394-0.354-3.008,0.969-4.363,0.495C139.114,188.457,139.588,187.883,141.248,187.468z"
			/>
		<path style="fill:#231815;" d="M105.568,176.704c7.084-0.644,13.208-1.225,19.556-4.84c3.67-2.09,10.127-5.616,11.996-9.712
			c0.781-1.712,0.348-3.721-0.644-5.294c-0.479-0.759-3.562-4.07-3.364-4.93c0.193-0.838,5.185,0.391,6.155,0.493
			c2.598,0.272,3.18,1.03,5.5,2.102c2.304,1.065,3.966,0.392,3.435,2.86c-0.428,1.988-3.86,4.736-5.38,5.889
			c-4.768,3.617-10.711,5.461-15.593,8.948c-4.006,2.862-7.354,4.638-12.319,5.078c-2.761,0.245-5.547,0.361-8.319,0.388
			c-0.245,0.002-5.567-0.69-4.755-1.27C102.361,176.042,104.882,176.767,105.568,176.704z"/>
		<path style="fill:#231815;" d="M101.382,170.525c6.955,0,13.144-6.026,17.019-11.089c2.105-2.75,4.104-5.564,7.329-7.056
			c1.784-0.825,3.713-1.239,5.682-1.043c0.498,0.05,4.877,1.13,4.563,1.569c-0.978,1.369-8.025-0.419-9.641,0.078
			c-4.046,1.244-6.302,6.984-8.583,10.166c-2.744,3.829-6.903,6.046-10.992,8.177c-1.545,0.805-3.718,2.512-5.577,1.789
			C99.511,172.467,98.969,170.525,101.382,170.525z"/>
		<path style="fill:#231815;" d="M102.379,184.079c6.923-10-6.209-18.146-13.148-22.458c-3.239-2.013-5.288-2.685-9.166-2.671
			c-1.496,0.005-14.519-0.029-12.169,2.605c1.273,1.427,7.531-0.154,9.116-0.368c3.053-0.412,5.845-1.01,8.791,0.108
			c4.212,1.598,10.472,6.194,12.075,10.568c0.171,0.466-0.369,1.375-0.074,1.725c0.508,0.602,1.984,0.216,2.584,0.923
			c0.558,0.658,0.406,3.51,0.469,4.376c0.087,1.201,0.303,2.373-0.077,3.568c-0.214,0.671-1.446,1.787-1.1,2.495
			C100.326,186.28,101.992,184.639,102.379,184.079z"/>
		<path style="fill:#231815;" d="M105.767,181.688c2.809,0.803,5.473,2.071,8.298,2.856c1.099,0.305,8.66,0.843,8.846,1.714
			c0.242,1.128-10.564-0.786-11.563-1.181c-1.427-0.565-8.237-1.996-8.719-3.269C101.66,179.248,104.944,181.025,105.767,181.688z"
			/>
		<path style="fill:#231815;" d="M102.379,184.079c3.337,2.605,7.191,6.235,11.352,7.364c0.639,0.173,4.626,0.115,4.173,1.632
			c-0.192,0.643-3.545-0.041-3.844-0.13c-2.475-0.732-4.691-2.643-6.959-3.881c-1.722-0.939-4.25-1.495-5.423-3.186
			C100.959,184.843,100.179,182.726,102.379,184.079z"/>
		<path style="fill:#231815;" d="M120.916,196.238c5.025-0.503,7.918,2.163,12.084,4.41c1.105,0.596,8.752,3.599,3.357,3.115
			c-2.863-0.257-5.932-2.639-8.376-3.982C125.747,198.554,122.891,197.804,120.916,196.238z"/>
		<path style="fill:#231815;" d="M102.752,205.622c0.11,1.657,2.258,5.605,4.156,5.688c-2.061-0.12-3.197-0.149-4.548-2.143
			c-0.504-0.744-1.943-5.347-0.559-5.152C102.01,204.043,102.692,205.433,102.752,205.622z"/>
		<path style="fill:#231815;" d="M109.705,205.081c2.057,3.782,5.054,4.177,8.346,6.14c0.031,0.019-2.252,0.459-2.641,0.404
			c-1.603-0.226-3.611-1.438-4.762-2.587c-0.708-0.707-3.827-5.328-2.869-5.632C108.248,203.258,109.231,204.708,109.705,205.081z"
			/>
		<path style="fill:#231815;" d="M117.744,205.974c0.564,0.72,4.385,3.92,5.503,3.751c-1.77,0.182-3.188,0.246-4.865-0.972
			c-0.436-0.317-3.092-2.835-2.233-3.356C116.343,205.279,117.574,205.864,117.744,205.974z"/>
		<path style="fill:#231815;" d="M122.7,203.935c1.163,0.626,2.519,0.85,3.656,1.516c0.599,0.351,1.552,1.511,1.922,1.664
			c-1.435-0.607-3.451-0.505-4.992-1.236C122.114,205.323,119.744,203.499,122.7,203.935z"/>
		<path style="fill:#231815;" d="M180.687,250.278c2.258-0.932,6.711-2.344,9.084-1.365c0.1,0.041-4.823,1.81-5.493,1.959
			c-0.706,0.157-4.722,1.449-4.879,1.159C179.217,251.695,180.402,250.551,180.687,250.278z"/>
		<path style="fill:#231815;" d="M69.077,162.296c-0.008,0.152,1.554,2.693,1.521,2.673c-0.802-0.528-3.26-0.407-2.967-2.326
			C67.783,161.652,68.365,161.726,69.077,162.296z"/>
		<path style="fill:#231815;" d="M69.536,167.465c-0.387,3.879,2.329,5.337,2.911,8.477c0.011,0.058-1.907-0.935-2.241-1.27
			c-0.916-0.921-1.842-2.628-2.126-3.908c-0.176-0.793-0.243-5.63,0.729-5.417C69.108,165.414,69.465,167.197,69.536,167.465z"/>
		<path style="fill:#231815;" d="M68.826,176.265c-2.717-0.372-2.145-0.403-1.503,0.865c-0.255-0.515-4.942,0.763-4.179-2.098
			c0.391-1.465,7.838-0.099,7.734,0.499C70.824,175.845,69.09,176.202,68.826,176.265z"/>
		<path style="fill:#231815;" d="M69.813,178.339c2.024,1.621,7.525,5.799,6.303,9.039c0.683-1.812-9.365-8.565-8.813-9.495
			C67.521,177.515,69.585,178.272,69.813,178.339z"/>
		<path style="fill:#231815;" d="M89.143,192.254c6.114-1.799,9.549-6.948,14.428-10.468c-0.712,0.522-1.849,3.529-2.731,4.466
			c-1.538,1.634-3.442,3.28-5.291,4.554c-1.235,0.851-2.507,1.493-3.899,2.069c-0.309,0.128-6.446,1.792-6.114,0.851
			C85.653,193.393,88.552,192.61,89.143,192.254z"/>
		<path style="fill:#231815;" d="M81.943,170.428c-3.995,0.773-3.052-4.734-0.011-4.794
			C86.426,165.546,83.388,172.12,81.943,170.428z"/>
		<path style="fill:#231815;" d="M78.236,156.049c5.658-2.064,14.851-3.015,20.645-0.742c-1.107-0.434-24.75,2.076-24.122,3.741
			C74.496,158.353,77.622,156.434,78.236,156.049z"/>
		<path style="fill:#231815;" d="M79.513,152.636c6.198-5.051,11.352-12.522,19.88-13.993c-1.172,0.202-4.51,3.116-5.7,3.829
			c-2.607,1.565-4.885,3.263-7.061,5.4c-1.49,1.464-2.955,2.953-4.485,4.381c-0.209,0.195-6.557,4.936-6.485,3.802
			C75.695,155.544,78.912,153.372,79.513,152.636z"/>
		<path style="fill:#231815;" d="M79.985,147.701c2.521-3.206,7.025-9.952,11.687-9.688c-0.324-0.018-2.425,2.129-2.758,2.412
			c-1.687,1.43-3.072,2.96-4.597,4.545c-0.772,0.802-5.877,6.035-5.966,5.407C78.299,150.001,79.781,148.341,79.985,147.701z"/>
		<path style="fill:#231815;" d="M77.662,197.169c0.149-1.783-0.771-4.762,2.385-2.378c1.896,1.431,0.887,1.91-0.291,3.652
			c-2.661,3.936-3.275,8.237-3.34,12.928c-0.056,4.016,0.932,7.537,2.592,11.081c1.074,2.293,4.255,3.8,5.129,5.998
			c-0.175-0.439-3.748-1.984-4.482-2.844c-1.077-1.26-1.49-2.736-2.237-4.156c-1.152-2.191-1.89-2.801-2.068-5.254
			C74.954,210.722,73.06,201.427,77.662,197.169z"/>
		<path style="fill:#231815;" d="M75.137,198.763c-4.272-2.441-6.595-9.043-12.358-6.246c-3.118,1.513-4.758,2.282-7.147-0.49
			c-2.862-3.321-5.621-6.512-9.181-9.078c-1.839-1.326-3.245-0.459-4.933-1.595c-0.826-0.556-1.584-1.91-1.569-2.928
			c0.013-0.865,1.29-2.127,1.054-2.836c-0.348-1.044-2.272,0.884-2.448,1.275c-0.509,1.134,0.187,3.021,0.837,3.957
			c1.7,2.45,5.119,0.84,6.54,3.161c0.472,0.771-0.156,1.995,0.137,2.486c0.542,0.909,2,0.832,2.881,1.322
			c2.84,1.58,4.709,4.801,6.62,7.28c2.158,2.8,4.299,0.698,7.244-0.286c3.686-1.232,4.203-0.803,6.723,2.298
			c1.075,1.323,4.11,5.804,6.139,5.29C78.049,201.773,77.809,198.702,75.137,198.763z"/>
		<path style="fill:#231815;" d="M40.454,170.99c-2.02,0.144-7.931,1.287-3.005,3.33c0.884,0.367,8.572,0.35,4.218,1.587
			c-2.369,0.673-6.387-0.29-7.06-2.924c-0.813-3.185,3.632-2.812,5.98-3.987c-0.219-0.021-1.536,0.033-1.463-0.408
			c0.304-1.823,6.499-0.337,7.507,0.356c1.499,1.031,2.105,3.492,3.114,4.934c1.286,1.838,2.943,3.416,4.695,4.801
			c2.577,2.036,6.035,3.644,9.444,3.232c1.59-0.192,7.054-3.406,5.287,0.192c-2.425,4.939-13.481,0.359-16.243-1.877
			c-2.627-2.126-3.899-5.308-6.23-7.689C44.387,170.173,43.197,171.003,40.454,170.99z"/>
		<path style="fill:#231815;" d="M31.95,168.598c-4.34-0.62-8.728-4.596-12.114-7.159c-3.264-2.471-6.372-5.186-9.22-8.127
			c-0.777-0.802-1.803-1.479-2.526-2.269c-1.264-1.381-1.692-3.561-2.979-4.813c-0.877-0.853-2.514-1.728-3.508-0.422
			c-0.618,0.813,0.427,5.022,0.922,5.485c1.654,1.549,0.969-0.613,2.318-0.519c1.256,0.087,2.49,2.694,3.337,3.609
			c3.383,3.654,7.508,7.074,11.656,9.831c3.495,2.323,7.277,4.497,11.135,6.161c1.644,0.709,2.808,0.835,4.618,0.532
			c0.452-0.076,6.088-1.606,6.032-1.735C41.103,167.981,33.35,168.799,31.95,168.598z"/>
	</g>
</g>
</svg>
