<?xml version="1.0" encoding="iso-8859-1"?>
<!-- Generator: Adobe Illustrator 18.1.1, SVG Export Plug-In . SVG Version: 6.00 Build 0)  -->
<svg version="1.1" id="_x34_" xmlns="http://www.w3.org/2000/svg" xmlns:xlink="http://www.w3.org/1999/xlink" x="0px" y="0px"
	 viewBox="0 0 512 512" style="enable-background:new 0 0 512 512;" xml:space="preserve">
<g>
	<path style="fill:#595959;" d="M79.082,273.873c2.964-1.111,5.149-2.403,6.179-3.432c1.03-1.029,2.403-1.373,3.776-2.747
		c1.373-1.372,3.776-4.462,6.522-2.745c2.746,1.716,3.776,4.462,6.866,4.805c3.089,0.344,0.686,2.06-0.687,2.06
		c-1.373,0-4.119-1.03-4.806-2.06c-0.686-1.03,0-2.06-1.717-2.403c-1.716-0.343-2.059,0.343-3.089,0.687
		c-1.03,0.344-2.402,1.03-2.402,1.03s-1.03,1.03-2.059,1.373c-1.03,0.344-1.717,2.403-3.09,2.746
		c-1.373,0.344-1.716,1.374-2.746,1.374c-1.029,0,0,0.685-3.089,1.716C75.65,277.306,76.336,274.903,79.082,273.873z"/>
	<path style="fill:#595959;" d="M91.783,274.561c-2.746,0-1.373-3.09,0-2.746c1.373,0.343,5.493,0,5.493,0l3.432-1.717
		c0,0,5.149-1.717,6.522-1.717c1.373,0,5.493-1.717,6.866-2.059c1.373-0.344,3.432-1.03,4.806-1.03c1.373,0,4.462-1.029,5.835-1.715
		c1.373-0.688,4.806-2.747,5.492-4.462c0.686-1.717,2.746-5.493,4.119-5.493c1.374,0,3.776-2.059,3.776-2.059l2.746-2.06
		c2.403-2.059,4.119,0.001,2.403,1.03c-1.717,1.03-4.806,3.777-6.523,5.149c-1.715,1.373-3.078,3.097-4.119,4.462
		c-0.433,0.568-3.679,2.596-4.694,3.002c-1.014,0.406-4.666,2.841-6.695,3.043c-2.029,0.202-1.826,0.608-3.855,1.014
		c-2.029,0.406-2.638,0.812-4.261,1.42c-1.623,0.609-2.638,1.624-4.464,1.826c-1.826,0.203-2.638-0.202-4.869,0
		c-2.231,0.203-2.434,0.406-4.058,1.015c-1.622,0.608-3.043,1.622-4.464,1.622c-1.42,0-1.42,0.406-2.028,0.812
		C92.636,274.304,91.783,274.561,91.783,274.561z"/>
	<path style="fill:#595959;" d="M144.371,247.117c1.399-1.678,2.638-3.448,4.058-3.652c1.42-0.202,2.029-0.812,2.232-1.622
		c0.203-0.812-0.406-3.044,0.812-3.855c1.218-0.812,4.058-1.826,5.478-3.246c1.421-1.421,2.638-4.058,4.869-3.449
		c2.232,0.608,5.681,0.812,6.492,0.406c0.812-0.406,1.623-2.232,2.435-2.232c0.812,0,3.044-0.204,3.044-0.204
		s1.826-2.232,2.84-1.826c1.015,0.406,1.015,0.203,1.826,1.218c0.812,1.014,7.913,3.855,9.739,5.681
		c1.826,1.826,4.463,4.666,6.492,5.275c2.029,0.608,3.247,0.811,4.058,2.637c0.811,1.827,1.42,3.043,3.043,3.855
		c1.623,0.812,3.449,2.434,5.275,2.84c1.826,0.406,2.029,0.406,3.044,2.029c1.014,1.624,2.232,3.044,3.246,3.652
		c1.015,0.608,0.609,1.42,2.841,1.217c2.232-0.203,1.622-0.203,3.246-0.203c1.623,0,3.449,0.203,2.84,0.609
		c-0.608,0.406-1.42,0.608-2.84,0.608s-1.826-0.406-2.638-0.202c-0.812,0.202-1.826,0.202-2.84,0.406
		c-1.015,0.202-2.638-0.406-3.044-1.218c-0.406-0.812-1.218-2.232-2.232-3.246c-1.015-1.015-1.42-1.218-3.044-2.029
		c-1.623-0.812-1.826-1.624-3.044-2.029c-1.217-0.405-0.811,0-2.232-0.405c-1.42-0.406-2.637-1.015-2.84-1.624
		c-0.203-0.608-0.812-1.624-1.42-3.044c-0.609-1.42,0.202-0.406-0.609-1.42c-0.812-1.014-3.449-1.826-5.072-2.029
		c-1.623-0.202-2.638-1.622-3.246-2.232c-0.609-0.608-1.015-1.42-2.029-1.826c-1.014-0.406-1.217,1.015-2.637,0.406
		c-1.42-0.608-1.826-1.014-2.434-1.622c-0.609-0.609-1.623-1.421-2.232-1.421c-0.609,0-1.42-0.405-3.652,0
		c-2.232,0.406-2.435,0.406-3.449,0.812c-1.014,0.406-2.029,0-2.029,0s-1.217-0.406-2.84-0.406c-1.623,0-2.028,0-4.26,0.609
		c-2.232,0.608-2.435,1.217-3.652,1.622c-1.217,0.406-2.84,1.421-3.855,2.435c-1.015,1.014-0.609,1.42-0.812,2.84
		c-0.203,1.42,0,2.841-0.812,3.449c-0.811,0.608-0.406,1.826-1.826,1.623c-1.42-0.203-3.043-0.203-3.043-0.203s-0.405,0-1.42,1.014
		c-1.014,1.015-2.028,2.841-2.638,2.232C142.951,248.74,143.357,248.334,144.371,247.117z"/>
	<path style="fill:#595959;" d="M18.989,277.549c2.171,0.241,4.058,0.609,6.289,0.203c2.232-0.406,4.058-1.42,5.884-2.232
		c1.826-0.812,1.218-2.029,4.261-2.029s5.681-1.42,6.898-1.826c1.218-0.406,4.869-1.217,6.086-2.434
		c1.217-1.218,3.449-0.609,1.826,0.406c-1.623,1.014-4.261,2.84-5.883,3.246c-1.623,0.406-1.623,0.608-4.058,0.812
		c-2.435,0.202-4.058,1.014-5.681,1.622c-1.623,0.609-1.623,1.421-3.652,2.435s-1.826,1.622-4.058,2.232
		c-2.232,0.608-2.841,0.812-4.058,0.812c-1.217,0-1.826-1.421-3.449-1.624C17.771,278.971,17.163,277.347,18.989,277.549z"/>
	<path style="fill:#595959;" d="M53.682,265.986c3.044-0.406,5.073,0,7.913-1.421c2.84-1.42,2.435-0.811,5.072-3.246
		c2.638-2.434,2.638-2.84,4.667-4.058c2.028-1.218,2.84,0.406,4.26-1.218c1.421-1.622,2.029,0.812,0.406,1.624
		c-1.623,0.812-1.826,1.217-3.449,2.434c-1.623,1.218-1.623,2.029-2.84,2.435c-1.217,0.406-2.232,0.406-3.855,1.42
		c-1.623,1.014-2.232,1.826-3.449,2.232c-1.218,0.406-1.218,1.218-3.449,1.218c-2.232,0-1.826-0.406-4.463-0.406
		C51.856,267,53.682,265.986,53.682,265.986z"/>
	<path style="fill:#595959;" d="M80.463,253.61c2.029-1.218,3.246-3.246,5.072-4.667c1.826-1.42,1.623-0.406,2.841-2.232
		c1.217-1.826,1.217-2.028,2.638-3.042c1.42-1.015,2.232-2.435,3.652-0.609c1.42,1.826,3.246,4.058,4.869,5.073
		c1.623,1.014,7.709,3.042,7.709,3.042l3.449-0.406c0,0-0.406-1.014,1.42-0.811c1.826,0.202,3.246-0.609,3.246-0.609
		s1.826-3.042,2.638-4.464c0.812-1.42,2.435-3.042,3.652-1.42c1.218,1.624,3.652,2.435,4.464,2.232
		c0.812-0.202,1.015-1.014,2.84-0.608c1.826,0.406,2.435,0.812,3.449,2.028c1.015,1.217,1.218,5.073,3.449,5.275
		c2.232,0.204,1.014,1.014,0.203,2.232c-0.811,1.217-1.421,3.449-3.247,2.435c-1.826-1.015-2.028-0.812-2.028-2.435
		c0-1.623,0.202-1.623-0.609-2.84c-0.811-1.218-1.42-0.406-2.637-1.218c-1.217-0.812,0.609,0.406-1.217-0.812
		c-1.826-1.218-3.043-1.42-4.261-1.014c-1.217,0.406-2.232,0.406-3.652,1.218c-1.42,0.811-3.731,1.03-2.435,2.028
		c2.638,2.029,1.623,3.449,3.855,2.638c2.232-0.812,1.826,0.203,1.421,1.217c-0.406,1.014-1.217,1.622-1.217,1.622
		s-4.906-0.4-5.478-0.608c-2.232-0.812-2.435-0.608-3.652-0.202c-1.217,0.406-2.434,0.202-3.043,0.406c-0.609,0.202-1.826,0-1.826,0
		s-1.42-1.623-2.84-2.638c-1.42-1.015-1.217-1.826-3.449-2.841c-2.232-1.014-2.637-1.826-2.637-1.826l-1.623-1.42
		c-2.435-0.812-3.873-0.062-4.667,0.202c-1.826,0.609-1.826,0.609-1.826,0.609s2.637-1.42,0,0c-2.638,1.42-3.043,1.826-4.058,2.434
		c-1.014,0.609-1.42,1.42-2.232,1.826c-0.811,0.406,0.406,1.015-1.42,1.421C79.448,255.232,80.463,253.61,80.463,253.61z"/>
	<path style="fill:#595959;" d="M131.387,279.375c0.755-1.22,3.044-4.26,5.681-4.26c2.638,0,6.492-2.232,7.303-3.043
		c0.812-0.812,2.232-2.84,2.841-3.652c0.609-0.812,1.015,0.406,3.449-0.812c2.435-1.218,2.435-2.232,3.044-3.652
		c0.608-1.42,1.826-3.246,2.638-3.449c0.812-0.202,1.623-0.608,3.043-2.84c1.42-2.232,0-0.812,1.42-2.232
		c1.42-1.42,2.434-3.246,4.666-0.608c2.232,2.637,3.246,3.448,6.087,3.854c2.84,0.406,3.246,1.014,4.058,1.014
		c0.812,0,1.218,1.421,0.406,2.638c-0.812,1.217-1.42,1.421-2.232,1.421c-0.812,0-4.464-3.044-4.464-3.044s-1.42-0.609-2.841-1.623
		c-1.421-1.014,0.811-2.434-1.421-1.014c-2.232,1.42-1.826,2.638-2.637,3.246c-0.811,0.608-1.217,1.623-2.638,1.623
		c-1.42,0-3.449,0.406-4.058,0.812c-0.609,0.405-0.811,1.42-1.421,2.028c-0.608,0.608-1.622,2.232-3.246,2.84
		c-1.623,0.609-3.246,1.218-3.246,1.218l-1.421,2.435c0,0-0.203,1.42-1.217,1.826c-1.014,0.406-1.826,0.811-2.638,1.217
		c-0.812,0.406-3.652,1.421-4.667,1.826c-1.015,0.406-2.232,1.421-2.84,1.827c-0.608,0.405-2.028,1.014-2.028,1.622
		c0,0.609-1.421,1.42-1.421,1.42s0.609-0.608-1.015,0.609c-1.623,1.217-2.84,2.232-5.275,2.028c-2.435-0.202,0,0.609-2.029,1.015
		c-2.029,0.405-2.029,0.202-0.406-1.217c1.623-1.42,2.232-1.42,3.246-1.42C127.126,283.028,128.749,283.637,131.387,279.375z"/>
	<path style="fill:#595959;" d="M207.942,249.281c1.893-0.271,3.246-1.083,3.788-2.705c0.541-1.623,1.893-2.163,3.517-2.435
		c1.622-0.27,9.467-2.975,10.82-5.68c1.353-2.705,1.894-5.14,2.706-5.41c0.811-0.271,3.787,1.893,5.14,3.787
		c1.352,1.894,3.516,3.788,5.68,4.869c2.164,1.083,3.246,2.435,2.435,3.517c-0.811,1.083-1.352,1.083-2.435,0.541
		c-1.082-0.541-1.353-0.811-3.246-2.163c-1.894-1.354-2.435-2.976-4.869-4.058c-2.435-1.083-2.164,1.082-4.329,2.163
		c-2.164,1.083-1.893,1.893-3.787,2.164c-1.894,0.27,0.27,1.893-2.976,1.893s-3.246,0.542-5.41,0.812
		c-2.164,0.271-1.893,1.353-2.975,2.434c-1.082,1.083-2.435,1.625-3.246,1.895C207.942,251.174,207.942,249.281,207.942,249.281z"/>
	<path style="fill:#595959;" d="M221.198,251.716c2.988,0,5.41,0,9.197-1.083c3.787-1.082,4.598-2.705,5.41-3.246
		c0.811-0.541,2.976-0.541,3.787-0.541c0.812,0,0.812,0,2.435-1.623c1.623-1.622,2.975-0.541,2.975-0.541s1.624-4.329,2.705-7.575
		c1.082-3.246,2.435-5.139,2.435-7.303c0-2.164,2.704-0.001,4.327,0.27c1.624,0.271,2.976,0,5.14-1.622
		c2.164-1.624,3.787-0.272,3.787,0.811c0,1.083-0.812,2.706-2.975,3.788c-2.164,1.082-2.976,1.893-4.869,1.623
		c-1.894-0.271-2.435-2.435-3.517-0.812c-1.082,1.623-1.894,2.434-2.435,4.327c-0.541,1.893-0.27,3.247-0.811,4.328
		c-0.541,1.083-1.082,3.247-2.435,3.517c-1.352,0.271-1.352,0.271-1.352,0.271s-3.516,1.082-4.598,1.892
		c-1.083,0.812-1.071,1.414-2.435,1.624c-3.517,0.542-3.699,1.678-5.14,1.894c-5.41,0.812-6.222,0.541-9.198,0.812
		C220.657,252.798,220.386,251.716,221.198,251.716z"/>
	<path style="fill:#595959;" d="M268.538,230.616c1.796-0.6,4.328,0.541,5.951,2.434c1.624,1.893,2.705,3.246,3.787,3.787
		c1.082,0.542,3.517,0.271,3.247-1.352c-0.271-1.623-0.812-1.354-2.435-2.976c-1.622-1.623-1.622-3.247-3.246-2.435
		c-1.623,0.812-0.271,0.812-3.517-0.812c-3.246-1.622-5.139-0.541-5.951-0.811C265.562,228.181,266.102,231.427,268.538,230.616z"/>
	<path style="fill:#595959;" d="M288.826,240.354c-1.893-3.246-2.435-9.197,0.812-4.868c3.246,4.327,4.058,8.656,8.927,8.927
		c4.869,0.27,4.058,2.433,7.303,2.704c3.246,0.271,6.222,1.354,5.41,2.976c-0.812,1.623-2.164,5.951-0.541,7.305
		c1.623,1.351,4.869,2.975,8.386,4.328c3.516,1.353,4.869,2.975,7.574,4.869c2.706,1.893,3.517,3.788,1.353,3.788
		c-2.164,0-2.705-0.542-4.058-2.706c-1.353-2.163-1.353-2.975-4.058-3.787c-2.706-0.812-5.14-2.705-7.304-3.246
		c-2.165-0.542-4.058-1.083-4.328-2.164c-0.27-1.082-0.541-3.247-0.541-5.14c0-1.893,0.541-4.058-1.082-4.329
		c-1.624-0.27-5.681,0-6.763,0c-1.082,0-1.353-0.54-2.435-1.622c-1.082-1.082-1.622-2.164-3.516-2.705
		c-1.894-0.542-1.894,0.541-2.976-0.812C289.908,242.518,288.826,240.354,288.826,240.354z"/>
	<path style="fill:#595959;" d="M244.732,266.052c1.843-0.921,6.493-4.057,8.657-5.409c2.164-1.352,4.328-2.435,5.41-3.246
		c1.082-0.812,1.082,1.353,1.082-0.812c0-2.164-1.082-3.247-1.082-3.247s-0.811,0.541-2.976,1.352
		c-2.165,0.812-5.14-0.27-2.706-0.812c2.435-0.541,3.246-0.27,4.87-1.893c1.623-1.622,0-0.541,1.623-1.622
		c1.622-1.083,3.246-2.164,3.246-0.271c0,1.893-0.541,2.976,0.541,4.869c1.082,1.893,1.894,1.893,2.705,1.893
		c0.812,0,1.623,0.271,3.246,0.542c1.623,0.27,2.976,0.811,5.951,0c2.975-0.812,3.246,0.27,4.869,0.811
		c1.623,0.541,3.246,3.247,2.434,4.058c-0.811,0.812-1.352,0.271-3.246-1.081c-1.893-1.353-3.246-1.624-4.869-1.893
		c-1.623-0.271-1.623,0-3.246-0.271c-1.624-0.271-3.309,1.061-4.869,0.541c-4.058-1.353-3.247-0.541-6.222,0
		c-2.976,0.541-3.788,1.352-4.869,2.434c-1.082,1.083-1.353,1.624-2.435,2.706c-1.082,1.082-3.246,1.624-3.246,1.624
		s-1.893,0.811-3.246,1.082c-1.352,0.27,1.353,0-2.705,0.811C239.592,269.028,242.567,267.135,244.732,266.052z"/>
	<path style="fill:#595959;" d="M328.591,261.725c-2.435,0.541,0.811,2.975,2.975,2.434c2.164-0.541,4.869,0,5.681-1.353
		c0.812-1.352,0.001-2.975,2.164-2.975c2.164,0,3.517,0.541,5.41,1.353c1.894,0.811,1.623,1.622,5.41,2.975
		c3.788,1.354,7.034,0.271,4.869,0c-2.164-0.27-1.893-0.541-5.41-2.164c-3.517-1.622-1.082-1.352-4.598-2.434
		c-3.517-1.082-4.058-1.893-5.411-1.353c-1.352,0.541-1.082-0.271-3.516,1.353c-2.435,1.624-0.812,0.541-2.435,1.624
		C332.108,262.266,328.591,261.725,328.591,261.725z"/>
	<path style="fill:#595959;" d="M340.764,272.816c-2.975,0.541-3.246-2.164-1.352-4.328c1.893-2.163,1.083-3.787,3.246-3.246
		c2.164,0.541,4.869,1.624,6.221,1.083c1.353-0.542,6.763-0.813,8.386-2.165c1.623-1.353,3.517,0,4.869-0.27
		c1.353-0.271,3.246,0.27,4.328-1.083c1.082-1.352,3.787,0.812,1.082,1.353c-2.705,0.542-5.14,1.353-6.763,1.624
		c-1.624,0.27-1.082,0.27-2.705,1.082c-1.623,0.812-2.975,1.624-4.058,1.624c-1.083,0-1.353,0-3.517,0
		c-2.164,0-2.729,0.315-3.787,0.541c-3.787,0.812-3.787,1.354-4.058,2.164C342.388,272.004,340.764,272.816,340.764,272.816z"/>
	<path style="fill:#595959;" d="M358.347,279.849c0.271-1.351,1.894-2.164,3.788-3.516c1.893-1.354,1.894-1.083,3.246-2.705
		c1.352-1.624,2.164-2.706,5.14-0.542c2.976,2.164,5.68,5.411,4.869,5.411c-0.811,0-3.787-0.271-4.869-0.812
		c-1.082-0.542-1.893-2.164-2.976-1.083c-1.082,1.083-4.598,2.164-5.41,2.976c-0.812,0.812,2.705-0.271-0.812,0.812
		C357.807,281.472,358.347,279.849,358.347,279.849z"/>
	<path style="fill:#595959;" d="M370.791,263.078c1.352,0.541,1.353,2.164,3.517,0.271c2.164-1.893,2.706-1.894,4.058-3.247
		c1.353-1.353-0.541-3.246,4.058-1.893c4.598,1.353,7.574,3.788,9.197,6.493c1.622,2.705,6.222,5.68,8.386,7.574
		c2.164,1.893,10.28,5.68,11.362,5.41c1.082-0.271-2.164-1.083,1.082-0.271c3.246,0.812,0,0,0,0s6.763,1.083,8.116,1.083
		c1.352,0-1.893-2.435-7.034-2.706c-5.14-0.27-8.927-3.245-10.279-3.787c-1.353-0.541-2.975-1.894-4.328-3.788
		c-1.353-1.892-2.706-2.975-4.599-4.868c-1.893-1.893-3.517-2.976-5.41-4.599c-1.894-1.624-3.517-3.517-3.517-3.517
		s-2.164-0.811-4.328,0c-2.164,0.812-2.706,0.271-4.328,1.083c-1.624,0.811-2.164,1.082-2.976,2.164
		c-0.812,1.082,0.812,1.082-1.893,1.893C369.169,261.184,370.791,263.078,370.791,263.078z"/>
	<path style="fill:#595959;" d="M413.803,272.816c1.894,0,6.492-0.813,9.468,1.082c2.975,1.893,1.893,2.435,7.033,2.435
		s7.845,0,9.738,0c1.894,0,3.247,1.353,5.952,0.541c2.705-0.812,2.705,0.541,1.082,1.082c-1.624,0.542-2.705,1.623-4.599,1.623
		c-1.894,0-2.976,0-4.599-0.27c-1.623-0.272-3.517-0.812-5.411-1.083c-1.893-0.271-4.327-0.812-5.41-0.812
		c-1.082,0-3.246,0.001-4.599-1.353c-1.352-1.353-0.541-1.353-3.246-1.622c-2.706-0.271-1.895-0.542-4.6-0.271
		C411.91,274.44,411.369,272.816,413.803,272.816z"/>
	<path style="fill:#595959;" d="M451.675,279.309c-1.353-0.272-0.541-4.059,2.976-3.247c3.517,0.812,5.14,0.812,8.115,1.353
		s3.787,0.541,5.681,0c1.893-0.541,1.893-0.271,3.517-1.353c1.622-1.083,1.893-2.164,3.246-1.622
		c1.353,0.54,2.705,1.082,3.516,1.893c0.812,0.811,3.246,0.811,6.492,0.811s4.058,1.354,5.681,0.271
		c1.623-1.082,3.787-1.893,5.951-1.893c0,0,6.763-0.541,7.845-0.271c1.082,0.271,2.976,1.893,0.271,1.893
		c-2.706,0-2.164-0.27-4.599-0.27c-2.434,0-2.975,0.542-5.681,0.812c-2.706,0.27-3.787,1.081-4.869,1.081
		c-1.083,0-2.976-0.27-3.788-0.27c-0.812,0-5.41,0-6.222-0.271c-0.812-0.271-3.787-1.623-3.787-1.623s-1.083-0.27-2.976,0.271
		c-1.893,0.541-2.435,2.164-5.681,2.435c-3.246,0.27-7.034,0.54-8.115,0.54C458.168,279.849,451.675,279.309,451.675,279.309z"/>
	<path style="fill:#595959;" d="M313.172,286.071c-3.246-0.541-6.221-2.975-7.845-2.975c-1.623,0-2.975,0.542-8.927-2.164
		c-5.951-2.705-11.091-6.223-11.903-6.763c-0.811-0.541-5.139-2.435-5.951-3.247c-0.812-0.812-2.705-1.623-5.41-2.434
		c-2.705-0.812-1.623-2.705-5.41-1.082c-3.787,1.622-6.493,2.163-5.951,3.516c0.541,1.354,0.541,1.894-1.082,3.518
		c-1.622,1.622-3.246,2.704-5.681,3.516c-2.435,0.812-2.435,2.705-0.271,1.893c2.164-0.812,8.386-1.353,8.927-2.434
		c0.541-1.082,4.058-1.082,4.058-1.082s3.517,0.541,4.058-0.812c0.541-1.353,1.622-1.893,2.164-2.705
		c0.541-0.812,3.787,1.622,5.41,2.975c1.623,1.352,2.705,2.706,4.058,2.706c1.353,0,2.434-0.271,3.517,0
		c1.082,0.27,2.164,0.54,2.705,1.893c0.541,1.353-2.435,0.812,0.541,1.353c2.976,0.541,4.599,0.541,6.222,0.812
		c1.623,0.27-0.27,1.353,2.435,2.434c2.705,1.082,4.328,0.812,5.41,0.812c1.082,0,1.353-0.271,3.517,0.541
		c2.164,0.812,3.246,2.434,5.14,2.976c1.893,0.541,5.681,0.811,5.139-0.812c-0.541-1.623-3.787-2.164-3.787-2.164L313.172,286.071z"
		/>
	<path style="fill:#595959;" d="M240.133,277.685c1.894-0.541,3.788-2.163,5.952-2.434c2.164-0.271,1.893,1.893,4.599-0.812
		c2.705-2.705,3.517-3.517,4.328-2.975c0.812,0.54,0.812,3.516-0.271,4.328c-1.083,0.812-4.329,1.624-5.681,3.517
		c-1.353,1.894-3.517,2.434-3.517,2.434s-1.893-1.351-2.705-1.351c-0.811,0-3.895,1.832-4.869,1.893
		c-4.328,0.27-8.116-0.812-8.657-1.893c-0.541-1.083-2.976-2.435-3.787-2.164c-0.811,0.27-2.976,0.811-4.869,0
		c-1.895-0.812-1.893-2.976-3.788-3.517c-1.893-0.541-3.787-3.517-2.164-2.706c1.624,0.812,6.222,3.788,8.386,3.788
		c2.164,0,3.517,0.271,6.492,2.164c2.975,1.893,7.575,1.893,8.386,1.623C238.781,279.308,240.133,277.685,240.133,277.685z"/>
	<path style="fill:#595959;" d="M210.106,267.946c-0.939-0.536-5.41-2.163-7.575-3.787c-2.164-1.622-2.975-2.434-3.517-1.622
		c-0.541,0.812-1.353,2.975-1.353,2.975s-1.623,0.541-2.975,0.541c-1.352,0-2.329-0.749-3.246-1.082
		c-2.975-1.083-4.328-1.083-4.328-1.083s-1.353,2.164-0.541,2.164c0.811,0,2.975-0.27,5.14,1.354
		c2.164,1.622,4.869,2.163,4.869,2.163s2.164-1.622,2.975-2.163c0.811-0.542,1.894,0.27,3.246,1.082
		c1.352,0.812,4.328,3.246,4.328,2.434c0-0.812,2.164-1.353,2.164-1.353S213.894,270.11,210.106,267.946z"/>
	<path style="fill:#595959;" d="M182.785,257.396c1.353,0.271,5.411,0.271,6.492,0.271c1.082,0,1.082,1.082,3.516,1.623
		c2.435,0.54,3.788,3.516,2.164,2.975c-1.622-0.541-3.517-1.353-4.598-1.623c-1.082-0.27-1.893-0.27-3.517-0.27
		c-1.623,0-1.353-0.271-2.976-1.082C182.244,258.479,182.785,257.396,182.785,257.396z"/>
	<path style="fill:#595959;" d="M182.244,264.43c-3.247,0.27-4.058-1.352-1.353-1.352
		C183.596,263.078,182.244,264.43,182.244,264.43z"/>
	<path style="fill:#595959;" d="M168.177,269.569c3.246-1.082,4.328-2.164,5.14-2.705c0.811-0.541,2.705,0.542,1.622,1.893
		c-1.082,1.352-0.54,2.705-1.893,3.788c-1.353,1.082-3.516,2.434-3.246,4.328c0.27,1.894-0.271,2.976,1.082,4.057
		c1.353,1.083,4.058,5.14,4.058,5.14s5.951,0.271,6.493,1.624c0.541,1.353,0.541,1.353,0.541,1.353s-2.435,0.811-4.598,0
		c-2.164-0.812-3.246-0.541-3.246-0.541s-1.623,0-2.435-1.894c-0.812-1.893-1.353-2.164-2.976-2.705
		c-1.623-0.541-1.894,0.271-1.894-1.893c0-2.164-0.27-2.704-1.082-3.246c-0.812-0.541-2.706-0.541-3.788-0.541
		c-1.081,0-2.434-1.083-3.246-0.542c-0.812,0.542-2.435,1.352-2.975,2.164c-0.541,0.812-2.706,2.164-2.706,2.164h-2.975
		c0,0-3.559,3.973-4.058,2.975c-1.083-2.163,2.705-4.868,3.517-5.139c0.811-0.27,3.246,0,3.246,0s2.976-2.976,3.246-3.787
		c0.27-0.812,3.517-0.812,3.517-0.812c3.787-1.893,4.329-1.893,4.598-3.517C164.39,270.11,168.177,269.569,168.177,269.569z"/>
	<path style="fill:#595959;" d="M65.139,255.808c-0.167-1.338-0.497-2.81-0.976-4.325c-0.238-0.759-0.512-1.528-0.822-2.298
		l-0.239-0.576l-0.124-0.288l-0.118-0.219c-0.216-0.395-0.419-0.797-0.612-1.199c-0.778-1.615-1.434-3.273-2.137-4.845
		c-0.351-0.785-0.711-1.55-1.096-2.276c-0.194-0.358-0.394-0.713-0.605-1.062c-0.2-0.347-0.397-0.641-0.628-0.944
		c-0.92-1.193-1.964-2.124-2.767-2.97c-0.818-0.838-1.425-1.582-1.807-2.179c-0.752-1.214-0.742-1.691-0.502-1.256
		c0.269,0.424,0.835,0.94,1.809,1.681l1.793,1.349c0.703,0.552,1.545,1.214,2.392,2.195c1.644,2.055,2.505,4.132,3.33,5.854
		c0.792,1.731,1.454,3.128,2.021,4.092l0.353,0.611l0.135,0.244l0.095,0.192l0.051,0.128c0.13,0.325,0.224,0.629,0.363,1.072
		l0.576,1.925c0.255,0.9,0.601,2.111,0.943,3.848c0.681,3.492,0.203,5.714-0.207,6.607c-0.437,0.904-0.61,0.646-0.499-0.302
		c0.095-0.964-0.036-2.255-0.257-3.275C65.392,256.571,65.135,255.809,65.139,255.808z"/>
	<path style="fill:#595959;" d="M70.772,250.235c0.095,0.424,0.168,0.86,0.224,1.286c0.074,0.6,0.202,1.757,0.22,2.846
		c0.022,1.09-0.048,2.102-0.212,2.413c-0.425,0.836-0.265,2.035,1.625,1.964c1.547-0.06,1.563-1.421,1.053-2.009
		c-0.163-0.193-0.385-1.238-0.661-2.366c-0.271-1.13-0.604-2.341-0.802-2.924c-0.207-0.616-0.369-1.2-0.406-1.614
		c-0.031-0.3-0.408-2.211-1.174-4.442c-0.743-2.238-1.937-4.753-2.94-6.43c-0.983-1.651-1.628-2.544-2.01-3.11
		c-0.383-0.566-0.529-0.789-0.661-1.016c-0.592-0.907-2.865,0.563-1.502,1.395c0.329,0.211,0.577,0.363,1.012,0.802
		c0.427,0.447,1.061,1.171,2.008,2.635c1.015,1.56,2.201,3.951,2.957,6.116C70.282,247.943,70.685,249.839,70.772,250.235z"/>
	<path style="fill:#595959;" d="M67.008,259.276c0.502,0.761,0.658,1.593,0.574,2.247c-0.083,0.658-0.376,1.13-0.714,1.359
		c-0.334,0.233-0.694,0.239-0.986,0.059c-0.293-0.183-0.508-0.537-0.651-1.095c-0.135-0.557-0.428-1.948-1.523-3.677
		c-0.536-0.864-1.244-1.805-2.07-2.792l-1.309-1.521l-0.675-0.776l-0.717-0.762c-1.963-2.11-3.894-4.324-5.681-6.18
		c-1.776-1.868-3.426-3.354-4.526-4.301c-0.321-0.353,0.726,0.17,2.409,1.374c1.681,1.203,3.916,3.164,6.159,5.303l3.388,3.192
		c1.104,1.079,2.134,2.102,3.045,3.092c0.905,0.985,1.656,1.932,2.196,2.735C66.473,258.329,66.81,258.979,67.008,259.276z"/>
	<path style="fill:#595959;" d="M58.576,258.767l0.867,0.642c0.382,0.3,1.114,0.878,1.63,1.495c0.535,0.619,0.745,1.24,0.636,1.444
		c-0.117,0.303-0.162,0.451,0.065,0.576c0.23,0.111,0.716,0.343,1.657,0.448c0.762,0.086,1.225-0.281,1.302-0.82
		c0.088-0.533-0.216-1.094-0.571-1.282c-0.218-0.154-0.9-1.001-1.74-1.556c-0.828-0.587-1.743-1.041-2.199-1.245
		c-0.489-0.208-0.882-0.445-1.137-0.685c-0.176-0.172-1.478-1.088-3.2-1.904c-1.715-0.832-3.797-1.589-5.226-2.157
		c-2.809-1.117-3.11-1.428-3.448-1.65c-0.646-0.465-2.192,1.772-0.765,1.901c0.684,0.038,1.009,0.075,3.749,1.02
		c1.46,0.501,3.513,1.203,5.178,1.975C57.052,257.724,58.315,258.582,58.576,258.767z"/>
	<path style="fill:#595959;" d="M44.194,262.222l-0.126,0.953c-0.064,0.494-0.072,1.306-0.148,2.05
		c-0.068,0.744-0.231,1.364-0.425,1.515c-0.506,0.452-0.484,0.814,1.257,1.554c0.719,0.276,1.21,0.116,1.438-0.219
		c0.224-0.326,0.179-0.764-0.038-1.016c-0.131-0.178-0.25-0.977-0.436-1.753l-0.44-1.978c-0.069-0.405-0.062-0.825,0.026-1.084
		c0.064-0.192,0.258-1.46,0.727-2.941c0.453-1.485,1.175-3.175,1.739-4.341c1.117-2.293,1.393-2.565,1.603-2.844
		c0.437-0.562-1.844-2.007-1.878-0.816c-0.014,0.582-0.01,0.846-0.962,3.114c-0.504,1.212-1.208,2.963-1.656,4.547
		C44.413,260.54,44.228,261.931,44.194,262.222z"/>
	<path style="fill:#595959;" d="M38.133,266.723c-0.217,1.649-1.283,2.53-2.065,2.594c-0.791,0.072-1.317-0.559-0.903-1.717
		c0.202-0.587,0.827-1.963,1.401-3.913c0.579-1.938,1.097-4.485,1.466-7.144c0.174-1.344,0.359-2.749,0.582-4.111
		c0.109-0.682,0.231-1.358,0.364-2.019l0.208-0.978l0.113-0.479c0.043-0.155,0.058-0.302,0.137-0.536
		c0.451-1.271,0.996-2.295,1.398-3.219c0.414-0.916,0.693-1.718,0.86-2.371c0.152-0.422,0.253,0.692-0.322,2.602
		c-0.27,0.95-0.726,2.09-1.029,3.359c-0.199,1.302-0.344,2.748-0.454,4.224l-0.277,4.46c-0.12,1.472-0.273,2.879-0.465,4.145
		C38.778,264.155,38.223,266.082,38.133,266.723z"/>
	<path style="fill:#595959;" d="M35.8,269.169c-0.065,1.068-0.441,2.005-0.988,2.648c-0.539,0.65-1.245,0.951-1.705,0.888
		c-0.471-0.055-0.655-0.378-0.689-0.713c-0.031-0.35,0.043-0.695,0.304-1.302c0.131-0.303,0.37-0.865,0.597-1.71
		c0.229-0.842,0.444-1.954,0.6-3.258c0.156-1.302,0.26-2.795,0.29-4.385c0.023-1.598,0.007-3.268-0.259-4.902
		c-0.26-1.657-0.729-3.352-1.188-5.051c-0.229-0.849-0.455-1.703-0.648-2.553l-0.071-0.319l-0.015-0.068l-0.049-0.155l-0.185-0.622
		l-0.321-1.208c-0.393-1.575-0.726-3.007-1.149-4.214c-0.414-1.208-0.919-2.179-1.42-2.875c-0.323-0.474,0.901,0.355,1.977,2.694
		c0.545,1.152,1.028,2.637,1.566,4.257l0.432,1.233l0.243,0.64l0.196,0.656c0.27,0.875,0.576,1.765,0.882,2.671
		c0.616,1.81,1.23,3.693,1.549,5.598c0.316,1.907,0.38,3.737,0.413,5.376C36.227,265.772,35.876,268.32,35.8,269.169z"/>
	<path style="fill:#595959;" d="M25.212,257.705c0.402,0.753,0.765,1.537,1.091,2.309c0.22,0.546,0.546,1.345,0.85,2.274
		c0.169,0.475,0.282,0.965,0.504,1.525l0.582,1.542c0.779,2.024,1.32,3.908,1.31,4.511c0.015,0.82,0.164,1.734,0.473,2.393
		c0.316,0.65,0.812,1.15,1.76,1.089c0.771-0.051,1.167-0.851,1.153-1.756c-0.002-0.906-0.373-1.853-0.781-2.361
		c-0.25-0.35-1.09-2.264-2.117-4.229l-0.756-1.489l-0.347-0.71l-0.307-0.726c-0.417-0.952-0.814-1.775-1.1-2.299
		c-0.591-1.114-1.165-2.146-1.497-2.883c-0.124-0.267-0.623-1.242-1.437-2.608c-0.789-1.372-1.984-3.11-3.148-5.016
		c-0.581-0.971-1.178-2.014-1.928-3.007c-0.375-0.495-0.79-0.974-1.26-1.407c-0.472-0.445-1.004-0.786-1.491-1.125
		c-1.005-0.671-2.023-1.258-2.982-1.801c-0.973-0.535-1.829-1.055-2.695-1.511c-1.697-0.868-3.101-1.334-4.204-1.705l-2.541-0.805
		c-1.237-0.396-1.698-0.58-2.149-0.761c-0.906-0.357-1.792-0.006-2.097,0.514c-0.303,0.512,0.044,1.246,1.66,1.493
		c0.775,0.115,1.345,0.181,2.557,0.446c0.604,0.134,1.37,0.314,2.382,0.603c1.008,0.295,2.276,0.69,3.777,1.422
		c0.782,0.39,1.715,0.933,2.664,1.438c0.953,0.522,1.946,1.081,2.909,1.709l0.714,0.484c0.224,0.158,0.431,0.324,0.636,0.505
		c0.407,0.363,0.779,0.781,1.126,1.228c0.693,0.896,1.286,1.906,1.882,2.887c1.239,1.992,2.419,3.676,3.244,5.08
		C24.492,256.339,25.025,257.352,25.212,257.705z"/>
	<path style="fill:#595959;" d="M27.538,256.531c-0.658-2.61-1.655-5.698-3.121-8.667c-0.743-1.477-1.551-2.967-2.536-4.205
		c-0.992-1.257-2.157-2.348-3.374-3.244c-0.609-0.448-1.199-0.828-1.757-1.151c-0.515-0.315-1.052-0.523-1.569-0.736
		c-1.031-0.407-1.903-0.783-2.489-1.205c-0.597-0.413-0.874-0.857-0.946-1.073c-0.069-0.225-0.023-0.216,0.119-0.015
		c0.307,0.417,1.018,0.71,2.171,0.936c0.582,0.123,1.284,0.232,2.15,0.467c0.422,0.111,0.931,0.299,1.392,0.537
		c0.474,0.235,0.977,0.512,1.489,0.859c2.057,1.378,3.629,3.006,4.747,4.556c1.102,1.564,1.835,2.908,2.401,3.913
		c0.548,1.008,0.635,1.328,0.913,2.18c0.263,0.856,0.744,2.242,1.701,5.48c1.808,6.486,1.308,7.917,0.668,6.114
		C28.851,259.464,27.546,256.523,27.538,256.531z"/>
	<path style="fill:#595959;" d="M27.07,270.559c-0.513-0.903-0.996-1.711-1.42-2.494l-0.299-0.579l-0.072-0.15
		c-0.042-0.093-0.089-0.154-0.112-0.199l-0.174-0.296c-0.235-0.394-0.465-0.796-0.715-1.193c-0.986-1.607-2.154-3.289-3.799-5.442
		c-0.822-1.077-1.428-1.94-1.903-2.674l-0.175-0.268l-0.083-0.129l-0.12-0.17l-0.355-0.463l-0.644-0.818
		c-0.82-1.012-1.488-1.846-2.843-2.969c-1.374-1.097-1.981-1.448-2.692-1.951l-1.32-0.883c-0.594-0.377-1.213-0.775-2.119-1.51
		c-1.781-1.48-1.796-1.527-1.68-1.378c0.107,0.134,0.349,0.405-1.044-0.616c-1.409-1.028-2.631-1.519-3.437-1.697
		c-0.811-0.184-1.205-0.116-1.202-0.123c0.983,0.794,1.736,1.708,2.405,2.667c2.047,1.208,4.064,2.881,6.391,3.933
		c-0.009,0.009,1.452,0.857,2.989,2.098c1.559,1.22,3.067,2.939,3.869,3.98c0.105,0.126,0.206,0.263,0.31,0.403l0.158,0.212
		c0.066,0.09,0.033,0.046,0.104,0.163l0.596,1.016l1.25,2.111c0.835,1.395,1.632,2.699,2.197,3.54
		c0.564,0.842,1.546,2.006,2.568,3.344c0.918,1.38,2.144,2.89,2.855,4.352c0.719,1.45,0.994,2.001,1.309,1.728
		C28.181,273.809,28.131,272.359,27.07,270.559z"/>
	<path style="fill:#595959;" d="M16.339,265.169c0.274,0.183,0.545,0.379,0.795,0.586c0.353,0.289,1.027,0.856,1.596,1.445
		c0.57,0.587,1.038,1.188,1.078,1.469c0.124,0.751,0.829,1.268,2.175-0.06c1.1-1.09,0.374-1.883-0.3-1.852
		c-0.217,0.003-0.93-0.421-1.707-0.856c-0.776-0.439-1.623-0.886-2.051-1.078c-0.452-0.205-0.854-0.426-1.084-0.645
		c-0.167-0.16-1.377-0.994-2.913-1.884c-1.53-0.899-3.378-1.853-4.676-2.513c-2.559-1.292-2.879-1.54-3.192-1.774
		c-0.636-0.463-2.093,1.817-0.791,1.89c0.627,0.038,0.942,0.014,3.401,1.106c1.31,0.586,3.139,1.482,4.664,2.338
		C14.865,264.188,16.083,264.997,16.339,265.169z"/>
	<path style="fill:#595959;" d="M17.783,273.031c0.216,0.093,0.431,0.198,0.635,0.314c0.568,0.327,2.232,1.239,2.428,1.686
		c0.252,0.616,0.984,0.725,1.597-1.064c0.503-1.462-0.086-1.718-0.548-1.399c-0.298,0.223-2.254-0.208-2.92-0.308
		c-0.349-0.048-0.66-0.14-0.84-0.277c-0.132-0.097-1.061-0.543-2.231-1.012c-1.166-0.476-2.599-0.915-3.634-1.139
		c-2.039-0.421-2.35-0.439-2.624-0.556c-0.592-0.168-0.81,2.506-0.022,2.048c0.392-0.191,0.588-0.402,2.398-0.162
		c0.964,0.139,2.316,0.508,3.46,0.937C16.628,272.52,17.58,272.947,17.783,273.031z"/>
	<path style="fill:#595959;" d="M14.352,276.65c0.213,0.02,0.428,0.053,0.637,0.093c0.58,0.136,2.3,0.389,2.635,0.713
		c0.44,0.474,1.127,0.274,0.942-1.608c-0.146-1.539-0.668-1.539-0.928-1.069c-0.152,0.332-1.883,0.646-2.476,0.758
		c-0.307,0.068-0.596,0.08-0.783,0.006c-0.27-0.087-3.622-0.57-5.522-0.59c-1.857-0.023-2.14-0.011-2.401-0.073
		c-0.557-0.066-0.249,2.597,0.35,2.018c0.307-0.26,0.438-0.48,2.071-0.592C10.614,276.181,13.944,276.626,14.352,276.65z"/>
	<path style="fill:#595959;" d="M102.307,238.055c1.758-0.406,1.489-2.029,6.087-3.246c4.598-1.218,5.004-0.272,4.464,0.405
		c-0.541,0.677-1.759,2.571-4.194,2.706c-2.434,0.135-4.598,0.541-3.11,0.676c1.488,0.136,3.787,0.677,5.004,0.136
		c1.217-0.542,3.923-2.841,4.058-4.329c0.135-1.487-1.083-1.758-4.87-1.083c-3.787,0.677-5.14,2.03-6.222,2.976
		C102.442,237.243,102.307,238.055,102.307,238.055z"/>
	<path style="fill:#595959;" d="M100.548,243.195c1.353,0.135,4.869-2.029,7.304-1.488c2.435,0.541,3.11,2.705,4.058,3.246
		c0.271,0.677-6.086,0.271-7.98,0c-1.894-0.27-2.164,0.542-0.947,0.677c1.217,0.135,8.656,0.947,10.28-0.135
		c0.27-0.542-0.541-0.812-0.812-1.218c-0.271-0.406-1.758-2.164-2.976-2.84c-1.218-0.677-2.434-1.353-4.464-0.677
		c-2.029,0.677-3.517,1.759-5.275,2.029C97.979,243.059,100.548,243.195,100.548,243.195z"/>
	<path style="fill:#595959;" d="M97.032,231.562c-1.623-1.082-2.435-4.462-1.894-5.409c0.541-0.948,3.111-2.975,3.923-2.435
		c0.812,0.541,2.84,2.435,1.893,3.517c-0.947,1.082-2.435,3.516-2.435,4.058c0,0.541,1.894-2.3,3.111-3.788
		c1.216-1.487,1.487-2.028,0.405-2.975s-1.353-2.705-2.705-2.164c-1.353,0.541-4.869,2.57-5.275,3.246
		c-0.405,0.677,0,2.569,1.217,4.734C96.491,232.51,97.032,231.562,97.032,231.562z"/>
	<path style="fill:#595959;" d="M81.477,241.031c1.421-1.218,2.637-1.624,1.826,0c-0.811,1.622-2.029,2.434-5.884,2.232
		c-3.855-0.203-3.449,1.014-3.044-2.435c0.406-3.448,0.609-5.072,2.232-5.275c1.623-0.202,3.043,0.203,2.435,0.812
		c-0.608,0.609-1.623-0.608-2.435,1.218c-0.811,1.826-1.217,4.261-1.217,4.261S79.043,243.465,81.477,241.031z"/>
	<path style="fill:#595959;" d="M79.854,249.958c-0.406-2.435-1.218-5.681,0-6.899c1.217-1.217,1.42-1.42,1.217-0.406
		c-0.203,1.015-1.015,2.232-0.609,3.449c0.406,1.217,0.406,3.246,1.015,2.84c0.609-0.406,1.623-1.014,1.623-1.014
		S83.1,250.364,79.854,249.958z"/>
	<path style="fill:#595959;" d="M88.781,236.973c0-1.838-0.812-3.855,1.826-3.449c2.638,0.406,5.478,1.826,6.289,3.449
		c0.812,1.622,3.246,2.434,1.623,0.608c-1.623-1.826-1.015-2.434-3.043-3.246c-2.029-0.812-2.84-1.42-5.072-2.029
		c-2.232-0.608-2.638,1.014-2.638,2.841C87.767,236.973,88.781,237.784,88.781,236.973z"/>
	<path style="fill:#595959;" d="M91.824,241.233c0.201-1.914,0.812-3.449-0.811-4.26c0.811-1.015,2.84,0.811,2.638,2.434
		C93.447,241.031,91.419,245.089,91.824,241.233z"/>
	<path style="fill:#595959;" d="M87.767,237.784c-1.826,0-3.246,1.218-1.826,1.218c1.421,0,1.623-0.608,3.247-0.202
		C90.81,239.205,87.767,237.784,87.767,237.784z"/>
	<path style="fill:#595959;" d="M425.513,268.849c1.7,0.021,0.99,2.884-0.277,2.542c-0.618-0.182-2.853-1.36-5.104-3.034
		c-1.118-0.838-2.218-1.823-3.047-2.837c-0.839-1.005-1.377-2.034-1.589-2.739c-0.003-0.264,0.35,0.212,1.035,0.919
		c0.682,0.712,1.742,1.612,2.961,2.383C421.922,267.635,424.855,268.821,425.513,268.849z"/>
	<path style="fill:#595959;" d="M427.737,267.153c1.181,0.519-1.162,2.217-1.798,1.653c-0.314-0.277-1.004-1.642-1.768-3.151
		c-0.756-1.51-1.547-3.178-1.768-4.082c0.038-0.362,1.177,0.901,2.4,2.321C426.031,265.308,427.283,266.951,427.737,267.153z"/>
	<path style="fill:#595959;" d="M439.269,265.733c0.5,1.335-0.052,2.397-0.716,2.737c-0.668,0.35-1.433,0.07-1.578-0.961
		c-0.079-0.518-0.117-1.794-0.387-3.463c-0.263-1.668-0.787-3.73-1.637-5.782c-1.642-4.141-4.601-8.078-5.973-9.994
		c-0.384-0.692,3.087,2.327,5.871,6.582c1.396,2.112,2.555,4.537,3.239,6.612C438.79,263.535,439.069,265.215,439.269,265.733z"/>
	<path style="fill:#595959;" d="M447.839,264.602c-0.514,2.444-1.802,3.969-2.702,4.313c-0.903,0.349-1.392-0.378-0.699-2.277
		c0.35-0.954,1.278-3.269,2.422-6.446c1.16-3.158,2.589-7.209,4.632-11.173c2.009-3.944,4.419-7.864,6.968-11.028
		c2.523-3.181,5.272-5.523,7.336-6.564c0.719-0.251-0.941,0.646-3.134,2.938c-2.212,2.269-4.841,5.968-7.08,10.11
		c-1.128,2.068-2.18,4.233-3.101,6.353c-0.916,2.115-1.66,4.203-2.287,6.091C448.965,260.702,448.064,263.647,447.839,264.602z"/>
	<path style="fill:#595959;" d="M479.872,271.348c0.617,1.766-0.034,3.186-0.728,3.589c-0.711,0.424-1.415,0.013-1.518-1.289
		c-0.069-0.655-0.084-2.276-0.673-4.347c-0.565-2.072-1.783-4.551-3.485-6.898c-3.396-4.715-8.296-8.954-10.352-11.252
		c-0.293-0.414,0.712,0.314,2.424,1.65c1.705,1.343,4.128,3.295,6.458,5.594c2.337,2.285,4.516,5,5.829,7.534
		C479.178,268.446,479.639,270.672,479.872,271.348z"/>
	<path style="fill:#595959;" d="M483.543,270.205c0.464,0.787-0.092,1.46-0.762,1.603c-0.669,0.157-1.431-0.074-1.569-0.589
		c-0.074-0.266-0.1-0.911-0.254-1.805c-0.15-0.892-0.426-2.028-0.811-3.214c-0.758-2.371-1.868-4.936-2.174-6.279
		c-0.002-0.468,1.429,1.658,2.857,4.111c0.706,1.234,1.367,2.581,1.821,3.742C483.114,268.931,483.362,269.9,483.543,270.205z"/>
	<path style="fill:#595959;" d="M490.277,269.563c-0.033,1.922-0.983,3.139-1.765,3.425c-0.794,0.292-1.412-0.268-1.123-1.734
		c0.135-0.739,0.633-2.506,0.985-4.901c0.367-2.393,0.511-5.422,0.264-8.587c-0.229-3.166-0.779-6.461-1.239-9.389
		c-0.469-2.927-0.82-5.489-0.944-7.159c0.027-0.548,0.357,0.755,0.924,3.038c0.556,2.285,1.404,5.536,2.13,8.992
		c0.735,3.451,1.197,7.159,1.165,10.2C490.669,266.489,490.283,268.812,490.277,269.563z"/>
	<path style="fill:#595959;" d="M494.47,271.857c-0.185,0.842-0.988,0.94-1.598,0.629c-0.614-0.306-1.07-0.958-0.799-1.477
		c0.138-0.263,0.584-0.81,1.193-1.575c0.612-0.762,1.387-1.75,2.275-2.751c0.885-1.001,1.91-1.998,2.942-2.732
		c1.027-0.742,2.052-1.187,2.738-1.355c0.255,0.011-0.209,0.34-0.932,0.957c-0.727,0.616-1.656,1.586-2.478,2.709
		c-0.827,1.121-1.581,2.37-2.188,3.405C495.022,270.705,494.545,271.528,494.47,271.857z"/>
	<path style="fill:#595959;" d="M502.094,270.617c-0.871,1.322-2.782-0.902-1.862-1.714c0.463-0.387,2.544-1.467,5.05-2.234
		c1.249-0.377,2.601-0.629,3.797-0.69c1.197-0.067,2.226,0.046,2.875,0.201c0.422,0.248-2.112,0.366-4.59,1.365
		C504.881,268.502,502.449,270.112,502.094,270.617z"/>
	<path style="fill:#595959;" d="M463.625,273.324c-0.724,2.08-3.593,1.091-2.687-0.485c0.461-0.774,2.732-3.496,5.603-6.057
		c1.43-1.28,3.019-2.491,4.501-3.429c1.481-0.942,2.849-1.606,3.767-1.952c0.664-0.098-2.536,1.873-5.388,4.743
		C466.529,268.965,463.921,272.507,463.625,273.324z"/>
	<path style="fill:#595959;" d="M455.895,269.744c-0.881,3.195-4.169,3.32-3.105,0.714c0.271-0.648,1.069-2.176,2.258-4.149
		c1.194-1.967,2.788-4.387,4.75-6.681c1.944-2.304,4.295-4.425,6.605-5.93c2.306-1.519,4.523-2.42,5.98-2.863
		c0.502-0.068-0.61,0.458-2.427,1.558c-1.816,1.101-4.258,2.925-6.387,5.244C459.254,262.255,456.281,268.519,455.895,269.744z"/>
	<path style="fill:#595959;" d="M472.574,271.728c1.72,0.678,0.382,3.331-0.926,2.461c-0.642-0.441-2.76-2.678-4.417-5.544
		c-0.835-1.423-1.538-2.992-1.992-4.425c-0.46-1.433-0.663-2.724-0.698-3.563c0.116-0.574,0.952,2.527,2.846,5.367
		C469.206,268.909,471.887,271.457,472.574,271.728z"/>
</g>
</svg>
