<!--?xml version="1.0" encoding="utf-8"?-->
<!-- Generator: Adobe Illustrator 18.1.1, SVG Export Plug-In . SVG Version: 6.00 Build 0)  -->

<svg version="1.1" id="_x31_0" xmlns="http://www.w3.org/2000/svg" xmlns:xlink="http://www.w3.org/1999/xlink" x="0px" y="0px" viewBox="0 0 512 512" style="width: 32px; height: 32px; opacity: 1;" xml:space="preserve">
<style type="text/css">
	.st0{fill:#374149;}
</style>
<g>
	<path class="st0" d="M506.947,190.696c-8.242-29.723-25.618-55.184-50.242-73.641c-21.446-16.074-47.726-25.734-74.434-27.426
		c-6.121-14.462-14.649-27.707-25.386-39.426c-24.95-27.226-59.008-43.109-95.922-44.718c-2.043-0.086-4.098-0.137-6.094-0.137
		c-35.676,0-69.554,13.598-95.406,38.278c-14.414,13.766-25.809,30.714-33.121,49.226c-23.574,2.046-46.293,10.148-65.95,23.543
		C36.716,132.524,18.888,155.273,8.83,182.18c-12.934,34.59-11.621,72.149,3.691,105.75c8.707,19.102,21.734,36.086,37.829,49.359
		c-5.391,23.418-4.582,47.902,2.378,71.074c8.122,27.038,24.106,50.633,46.226,68.23c24.363,19.382,54.906,30.058,85.993,30.058
		c26.598,0,52.199-7.446,74.308-21.562c21.481,12.934,46.051,19.746,71.348,19.746c27.141,0,53.492-7.945,76.207-22.98
		c49.578-32.813,72.363-92.582,57.554-149.828c18.137-15.774,31.887-36.066,39.879-58.926
		C513.568,246.441,514.506,217.945,506.947,190.696z M263.025,444.808c-7.133-6.141-13.414-13.281-18.668-21.218
		c-23.488-35.485-22.078-81.633,1.203-115.602c3.367,0.711,6.859,1.102,10.442,1.102c4.785,0,9.394-0.711,13.782-1.961
		c7.202,9.422,15.586,17.934,25.343,25.25c22.57,16.914,50.461,26.23,78.531,26.23c11.77,0,23.562-1.61,35.059-4.793
		c7.202-2,14.168-4.672,20.882-7.832c0.664-0.297,1.344-0.535,2.004-0.84c8.851,41.398-8.242,83.836-44.082,107.558
		c-16.98,11.238-36.664,17.18-56.922,17.18c-20.09,0-39.586-5.766-56.394-16.676C270.31,450.692,266.556,447.871,263.025,444.808z
		 M85.22,341.656c1.23-4.582,2.754-9.039,4.531-13.25c3.653-8.691,8.504-16.867,14.426-24.312
		c19.714-24.79,49.206-39.008,80.914-39.008c7.203,0,14.352,0.801,21.348,2.281c1.847,10.688,7.035,20.215,14.492,27.462
		c-28.214,42.93-29.066,99.507,0.394,144.015c4.11,6.207,8.793,11.996,13.867,17.406c0.492,0.543,0.93,1.117,1.426,1.656
		c-15.664,9.043-33.367,13.79-51.675,13.79c-23.539,0-45.75-7.766-64.226-22.465C88.521,423.633,74.587,381.406,85.22,341.656z
		 M69.138,307.356c-31.504-28.293-42.625-72.668-27.578-112.93c14.41-38.543,50.278-64.852,91.375-67.028
		c1.789-0.098,3.606-0.136,5.406-0.136c2.859,0,5.726,0.125,8.57,0.359c9.378,0.797,18.664,2.886,27.582,6.21
		c34.321,12.836,58.363,42.938,65.125,77.329c-13.754,4.738-24.808,15.23-30.258,28.637c-8-1.524-16.129-2.348-24.27-2.348
		c-40.179,0-77.558,18.019-102.55,49.438c-4.649,5.855-8.707,12.11-12.274,18.606C69.904,306.125,69.494,306.719,69.138,307.356z
		 M160.576,101.512c16.484-36.914,53.414-61.203,94.289-61.203c1.527,0,3.054,0.031,4.594,0.102
		c41.106,1.789,77.195,27.766,91.961,66.191c1.672,4.34,3.051,8.829,4.102,13.371c2.164,9.172,3.047,18.637,2.63,28.137
		c-1.637,37.703-24.09,70.672-56.199,87.297c-0.364,0.188-0.707,0.398-1.07,0.582c-6.618-13.023-18.699-22.758-33.25-26.203
		c-1.859-11.442-5.238-22.691-10.16-33.488c-14.496-31.817-40.52-56.09-73.282-68.336c-7.027-2.633-14.254-4.574-21.566-5.965
		C161.935,101.852,161.267,101.652,160.576,101.512z M438.748,307.941c-3.649,2.954-7.508,5.664-11.465,8.058
		c-8.055,4.883-16.782,8.645-25.946,11.184c-9.07,2.512-18.383,3.789-27.68,3.789c-31.652,0-61.042-14.562-80.343-38.511
		c6.93-7.661,11.558-17.426,12.73-28.258c14.414-6.105,27.706-14.804,39.332-25.91c24.562-23.45,38.902-55.051,40.378-88.969
		c0.367-8.207-0.035-16.398-1.187-24.446c42.121,4.344,77.203,33.719,88.695,75.156C484.259,239.68,470.709,282.035,438.748,307.941
		z" style="fill: rgb(223, 86, 86);"></path>
	<path class="st0" d="M286.618,179.024c0,0,1.145,1.675,2.426,4.59c1.191,2.918,2.32,7.187,2.351,11.738
		c0.023,1.106-0.027,2.222-0.133,3.328c-0.004,0.047-0.004,0.094-0.012,0.145c-0.214,2.226-0.66,4.402-1.234,6.34
		c-0.004,0.007-0.004,0.019-0.008,0.027c-0.29,0.976-0.614,1.89-0.954,2.726c-1.328,3.375-2.71,5.484-2.71,5.484
		c-0.958,1.059-1.016,2.653-0.137,3.555c0.606,0.617,1.519,0.519,2.406,0.113c0.05-0.023,0.094-0.054,0.144-0.082
		c0.352-0.184,0.73-0.258,1.031-0.594c0,0,2.199-1.719,4.961-5.008c2.79-3.246,5.934-8.297,7.766-14.058
		c1.914-5.727,2.441-12.008,2.164-16.758c-0.352-4.742-1.188-7.91-1.188-7.91c-0.683-2.902-2.203-5.79-4.378-7.586
		c-3.672-3.363-10.422-5.726-12.906-2.976c-2.481,2.734-1.5,8.441-1.469,11.71C284.9,175.711,285.599,177.441,286.618,179.024z" style="fill: rgb(223, 86, 86);"></path>
	<path class="st0" d="M180.35,209.383c1.859,0.438,3.722,0.305,5.542-0.176c0,0,1.942-0.57,5.114-0.89
		c3.141-0.226,7.55,0.016,11.886,1.394c1.058,0.321,2.106,0.711,3.122,1.149c0.046,0.019,0.094,0.039,0.14,0.062
		c2.055,0.894,3.985,1.988,5.649,3.133c0.008,0.004,0.012,0.008,0.015,0.011c0.844,0.578,1.618,1.168,2.305,1.75
		c2.801,2.309,4.379,4.274,4.379,4.274c0.508,0.886,1.406,1.234,2.297,1.262c0.027,0,0.054,0.023,0.082,0.023
		c0.046,0,0.086-0.027,0.133-0.031c0.281-0.019,0.57,0.098,0.828-0.027c0.774-0.383,0.961-1.282,0.851-2.254
		c-0.011-0.066-0.031-0.137-0.046-0.207c-0.066-0.379-0.016-0.742-0.234-1.118c0,0-0.958-2.621-3.23-6.266
		c-2.227-3.656-6.059-8.203-10.969-11.73c-4.856-3.59-10.668-6.031-15.27-7.234c-4.618-1.133-7.891-1.312-7.891-1.312
		c-2.968-0.25-6.187,0.304-8.57,1.816c-4.332,2.454-8.665,8.145-6.817,11.355C171.498,207.57,177.228,208.402,180.35,209.383z" style="fill: rgb(223, 86, 86);"></path>
	<path class="st0" d="M189.49,314.922c0,0,0.059-2.023,0.734-5.137c0.75-3.058,2.348-7.18,5-10.875
		c0.629-0.91,1.325-1.781,2.055-2.613c0.035-0.039,0.07-0.078,0.105-0.118c1.485-1.676,3.118-3.172,4.719-4.402
		c0.012-0.004,0.015-0.011,0.023-0.015c0.809-0.622,1.61-1.172,2.375-1.645c3.058-1.953,5.418-2.848,5.418-2.848
		c1.395-0.293,2.379-1.546,2.199-2.793c-0.183-1.25-1.629-1.992-3.23-1.652c0,0-2.789,0.102-6.953,1.137
		c-4.168,0.988-9.68,3.222-14.547,6.808c-4.914,3.508-9.035,8.282-11.602,12.286c-2.503,4.043-3.687,7.098-3.687,7.098
		c-1.156,2.75-1.621,5.977-0.918,8.711c0.992,4.878,5.066,10.758,8.691,9.992c3.613-0.75,6.176-5.946,8.074-8.606
		C188.935,318.613,189.388,316.8,189.49,314.922z" style="fill: rgb(223, 86, 86);"></path>
	<path class="st0" d="M285.174,343.82c0,0-1.91-0.68-4.66-2.286c-2.676-1.66-6.102-4.449-8.801-8.117
		c-2.746-3.614-4.637-8.023-5.493-11.539c-0.91-3.512-1.035-6.031-1.035-6.031c0.157-1.418-0.734-2.742-1.976-2.953
		c-1.242-0.215-2.398,0.93-2.57,2.558c0,0-0.766,2.683-1.066,6.965c-0.348,4.27,0.078,10.199,1.98,15.942
		c1.817,5.758,5.086,11.148,8.102,14.828c3.07,3.629,5.61,5.699,5.61,5.699c2.258,1.949,5.184,3.39,8,3.566
		c4.946,0.562,11.797-1.496,12.191-5.18c0.398-3.668-3.746-7.71-5.695-10.336C288.514,345.492,286.927,344.5,285.174,343.82z" style="fill: rgb(223, 86, 86);"></path>
	<path class="st0" d="M355.99,259.953c-3.367-1.516-8.492,1.179-11.594,2.218c-1.758,0.742-3.187,1.942-4.378,3.402
		c0,0-1.238,1.602-3.614,3.723c-2.406,2.035-6.118,4.43-10.438,5.863c-4.289,1.492-9.066,1.93-12.676,1.66
		c-3.621-0.219-6.054-0.883-6.054-0.883c-0.383-0.171-0.77-0.09-1.164-0.09c-0.012,0-0.027-0.008-0.039-0.008h-0.015
		c-0.469,0.008-0.836,0.086-1.223,0.305l-0.008,0.004c-0.367,0.211-0.773,0.383-0.969,0.758c-0.586,1.114,0.145,2.566,1.637,3.234
		c0,0,2.317,1.559,6.297,3.168c3.954,1.649,9.723,3.078,15.77,3.039c6.039,0.051,12.176-1.386,16.61-3.121
		c4.398-1.797,7.153-3.574,7.153-3.574c2.55-1.543,4.824-3.883,5.863-6.508C359.213,268.617,359.373,261.465,355.99,259.953z" style="fill: rgb(223, 86, 86);"></path>
</g>
</svg>
